<?xml version="1.0" encoding="utf-8"?>
<!-- Generator: Adobe Illustrator 24.0.2, SVG Export Plug-In . SVG Version: 6.00 Build 0)  -->
<svg version="1.1" id="Capa_1" xmlns="http://www.w3.org/2000/svg" xmlns:xlink="http://www.w3.org/1999/xlink" x="0px" y="0px"
	 viewBox="0 0 500 500" style="enable-background:new 0 0 500 500;" xml:space="preserve">
<style type="text/css">
	.st0{fill:#ABD1C6;}
	.st1{fill:#81A399;}
	.st2{fill:#FFFFFE;}
	.st3{fill:#040404;}
</style>
<g>
	<g>
		<path class="st0" d="M137.6,241.1c61,6.4,68.1,5.1,94.6-3.3c41.2-14.3,64.1-58,79.2-94.4C206.2,131.7,187.1,164.2,137.6,241.1z"/>
		<path class="st1" d="M151.9,240.9c0,0,67.7-4.6,87.7-18.5c16.8-11.7,71.7-79,71.7-79C288.3,200.4,231.6,271.7,151.9,240.9z"/>
	</g>
	<g>
		<g>
			<path class="st2" d="M157.3,235.2c1.2,2.3,2.3,4.7,4.1,6.6c2,2.1,4.6,3.2,7.3,4.2c1.1,0.4,1.6-1.3,0.5-1.7
				c-2.5-0.8-4.9-1.8-6.7-3.8c-1.6-1.8-2.7-4-3.7-6.1C158.4,233.3,156.8,234.1,157.3,235.2L157.3,235.2z"/>
			<path class="st2" d="M309.4,140.1c-4.2,11.4-9.6,22.4-15.5,33c-9.9,17.9-21.9,35.1-37.4,48.6c-7.1,6.2-15,11.5-23.7,15.1
				c-9.5,3.9-20,6.2-30.1,7.5c-14.5,1.9-28.6,0.5-42.9-2.3c-10.1-2-20.6-4.2-30.8-1.5c-2.2,0.6-1.4,3.9,0.8,3.4
				c6.4-1.2,12.7-3.2,18.9-5c13.2-3.8,26.3-8.1,39.1-13.3c11.7-4.8,24.3-10.3,33.5-19.2c1.7-1.6,3.2-3.4,4.5-5.3
				c2.4-3.7,5.3-6.9,8.5-10c8.8-8.2,18.9-15,29-21.5c15.7-10,31.9-19.2,48.6-27.6c1.7-0.9,0.8-3.1-0.8-3.3
				c-23-2.9-46.8-3.2-69.8-0.7c-15.3,1.7-31.7,4.7-44.9,13.2c-16.5,10.8-28.4,28.4-38.4,45c-5.4,9-10.4,18.2-15.8,27.2
				c-3.7,6.1-7.6,13-13.4,17.4c-1.8,1.4,0.6,4,2.4,2.6c4.9-3.7,8.4-9.2,11.6-14.3c4.7-7.4,8.9-15.1,13.2-22.7
				c10-17.2,20.8-34.8,36.4-47.7c12.4-10.3,28.3-14.2,43.9-16.4c15.8-2.2,31.9-2.5,47.9-1.9c8.9,0.3,17.9,0.9,26.8,2
				c-0.3-1.1-0.5-2.2-0.8-3.3c-13.7,6.9-27.1,14.4-40.2,22.4c-10.2,6.2-20.4,12.8-29.8,20.2c-4.1,3.2-8.1,6.6-11.6,10.4
				c-2.5,2.6-4.3,5.5-6.5,8.4c-3.2,4.3-7.9,7.7-12.4,10.5c-5.7,3.6-11.7,6.5-17.9,9.2c-12.9,5.7-26.3,10.2-39.8,14.2
				c-7.6,2.2-15.2,4.7-23,6.2c0.3,1.1,0.5,2.3,0.8,3.4c9.1-2.3,18.5-0.5,27.5,1.2c14.1,2.8,28,4.5,42.3,3.1
				c19.5-2,38.4-7.7,54.1-19.7c16.3-12.6,29-29.6,39.4-47.1c7.6-12.7,14.5-26.3,19.6-40.2C313.6,139,310.2,137.9,309.4,140.1
				L309.4,140.1z"/>
			<path class="st2" d="M286.8,154.4c1.8,1.8,3.7,3.7,6.2,4.5c1.3,0.4,2.6,0.5,3.9,0.6c1.4,0.1,2.8,0.2,4.2,0.3
				c1.1,0.1,1.2-1.7,0-1.8c-1.3-0.1-2.6-0.2-3.9-0.3c-1.2-0.1-2.4-0.1-3.5-0.4c-2.3-0.6-4.1-2.4-5.7-4.1
				C287.3,152.4,286,153.6,286.8,154.4L286.8,154.4z"/>
			<path class="st2" d="M287.1,152.7c-0.8-1.8-0.8-3.8-0.4-5.7c0.4-2.3,1.1-4.5,2.1-6.6c0.2-0.4,0.2-0.9-0.3-1.2
				c-0.4-0.2-1-0.2-1.2,0.3c-2,4.2-3.7,9.6-1.8,14.1C286,154.5,287.5,153.7,287.1,152.7L287.1,152.7z"/>
			<path class="st2" d="M273.7,161c2,3.3,3.3,7.2,6.4,9.7c1.7,1.4,3.8,2,5.9,2.8c2.4,0.9,4.9,1.7,7.5,2.3c1.1,0.2,1.6-1.4,0.5-1.7
				c-2.3-0.5-4.5-1.2-6.6-2c-2-0.7-4.3-1.3-6-2.7c-2.9-2.3-4.2-6.1-6.1-9.2C274.7,159.2,273.2,160.1,273.7,161L273.7,161z"/>
			<path class="st2" d="M274.7,159.6c-3.2-6.2-3.9-13.5-2.1-20.3c0.3-1.1-1.4-1.6-1.7-0.5c-1.9,7.2-1.1,15,2.3,21.6
				C273.6,161.5,275.2,160.6,274.7,159.6L274.7,159.6z"/>
			<path class="st2" d="M260.9,168.7c1.1,2.3,2.3,4.7,4,6.7c1.7,2.1,4,3.3,6.4,4.5c5.4,2.8,10.8,5.5,16.6,7.1
				c1.1,0.3,1.6-1.4,0.5-1.7c-5.5-1.5-10.6-4-15.7-6.7c-2.3-1.2-4.6-2.3-6.4-4.3c-1.7-1.9-2.8-4.2-3.9-6.5
				C261.9,166.8,260.4,167.7,260.9,168.7L260.9,168.7z"/>
			<path class="st2" d="M261.9,167.4c-3.9-8.7-5.7-18.2-5.1-27.7c0.1-1.1-1.7-1.2-1.8,0c-0.5,9.8,1.3,19.6,5.4,28.6
				C260.8,169.2,262.4,168.4,261.9,167.4L261.9,167.4z"/>
			<path class="st2" d="M248.3,178.2c2.4,5.6,5.6,10.9,10.1,15c4.8,4.3,10.5,7.2,16.2,10.1c1,0.5,2-1,0.9-1.5
				c-5.6-2.8-11.3-5.6-15.9-9.8c-4.4-4-7.5-9.1-9.9-14.6C249.5,176.3,247.9,177.1,248.3,178.2L248.3,178.2z"/>
			<path class="st2" d="M249.3,177.1c-4.1-11.6-6.7-23.6-7.8-35.8c-0.1-1.1-1.9-1.2-1.8,0c1.1,12.4,3.7,24.6,7.9,36.3
				C247.9,178.6,249.7,178.2,249.3,177.1L249.3,177.1z"/>
			<path class="st2" d="M227.2,196.7c3.3,5.5,8,9.6,13.9,12.1c7,3,14.4,5.3,21.5,7.9c1.1,0.4,1.6-1.3,0.5-1.7
				c-6.5-2.4-13.1-4.6-19.5-7.1c-6.2-2.4-11.4-6.2-14.8-12C228.2,194.9,226.6,195.7,227.2,196.7L227.2,196.7z"/>
			<path class="st2" d="M227.9,196c-3.6-8.4-6.6-17.3-9.1-26.2c-2.4-8.5-4-17.3-2.9-26.2c0.1-1.1-1.6-1.2-1.8,0
				c-1.1,9,0.4,18,2.9,26.6c2.6,9,5.6,18,9.3,26.6C226.8,197.9,228.3,197.1,227.9,196L227.9,196z"/>
			<path class="st2" d="M212.6,211.3c3.1,1.6,4.9,4.6,7.3,7.1c2.3,2.4,5.2,4.3,8.1,5.9c6.2,3.4,13.2,6.5,20.2,7.1
				c1.1,0.1,1.2-1.7,0-1.8c-7.2-0.6-14.4-4-20.6-7.6c-2.9-1.7-5.5-3.7-7.7-6.3c-1.9-2.2-3.7-4.6-6.4-6
				C212.6,209.3,211.6,210.8,212.6,211.3L212.6,211.3z"/>
			<path class="st2" d="M213.7,209.3c-5.6-8-9.9-16.8-12.8-26.1c-1.4-4.5-2.4-9.1-3-13.7c-0.8-5.6-1.2-11.5,1.9-16.5
				c0.6-1-0.9-1.9-1.5-0.9c-2.8,4.4-3,9.6-2.5,14.7c0.5,5.2,1.5,10.3,3,15.3c2.9,10.1,7.4,19.6,13.4,28.1
				C212.8,211.1,214.3,210.3,213.7,209.3L213.7,209.3z"/>
			<path class="st2" d="M193.9,222.5c2.5,5,5.2,10.1,9.9,13.4c2.4,1.7,5.3,2.8,8,3.9c3.3,1.2,6.7,2.2,10.1,2.9
				c1.1,0.2,1.6-1.4,0.5-1.7c-5.8-1.3-12.2-3-17.2-6.3c-4.7-3.1-7.3-8.2-9.7-13.1C195,220.7,193.4,221.5,193.9,222.5L193.9,222.5z"
				/>
			<path class="st2" d="M194.7,220.8c-6-5.3-9.1-13.2-12.9-20.1c-4.1-7.4-8.3-15.3-7.5-24.1c0.1-1.1-1.7-1.2-1.8,0
				c-0.7,8.8,3.3,16.8,7.4,24.4c3.9,7.2,7.2,15.5,13.5,21.1C194.3,222.7,195.6,221.6,194.7,220.8L194.7,220.8z"/>
			<path class="st2" d="M177.3,228c2.3,4.4,5.1,8.6,8.9,11.7c4.4,3.6,9.9,5,15.3,6.4c1.1,0.3,1.6-1.4,0.5-1.7
				c-5.1-1.2-10.3-2.6-14.5-5.9c-3.8-3-6.5-7.1-8.7-11.3C178.3,226.2,176.8,227,177.3,228L177.3,228z"/>
			<path class="st2" d="M177.3,225.6c-6.4-9.6-13.2-19.8-13.7-31.7c0-1.1-1.8-1.2-1.8,0c0.5,12.3,7.3,22.7,13.9,32.6
				C176.4,227.3,178,226.5,177.3,225.6L177.3,225.6z"/>
			<path class="st2" d="M158,232.6c-4.2-5.4-8-11.6-8.6-18.6c-0.1-1.1-1.9-1.2-1.8,0c0.6,7.5,4.6,14,9,19.8
				C157.4,234.7,158.7,233.5,158,232.6L158,232.6z"/>
			<path class="st2" d="M236.6,187.8c1.9,2.5,3.3,5.3,5.3,7.8c1.9,2.4,4.3,4.1,6.9,5.6c6,3.4,12.2,6.6,18.2,9.8c1,0.5,1.9-1,0.9-1.5
				c-5.9-3.2-11.8-6.3-17.7-9.5c-2.9-1.6-5.4-3.4-7.4-6.1c-1.7-2.4-3.1-5-4.9-7.3C237.2,185.7,235.9,186.9,236.6,187.8L236.6,187.8z
				"/>
			<path class="st2" d="M236.4,186c-3.2-6.5-5.3-13.5-6.1-20.7c-0.4-3.6-0.2-7.2-0.4-10.8c-0.2-3.9-0.7-7.8-1.1-11.6
				c-0.1-1.1-1.9-1.2-1.8,0c0.4,4,0.9,8,1.1,12c0.2,3.8,0.1,7.5,0.5,11.3c0.8,7.2,2.9,14.2,6.2,20.6
				C235.4,187.8,236.9,187,236.4,186L236.4,186z"/>
			<path class="st2" d="M201.4,217.7c2.7,5.1,6.1,10.1,10.9,13.3c5.7,3.9,12.9,3.6,18.9,6.7c1,0.5,2-1,0.9-1.5
				c-5.7-3-12.5-2.8-18-6.1c-5.1-3-8.5-8.1-11.2-13.2C202.5,215.9,200.9,216.7,201.4,217.7L201.4,217.7z"/>
			<path class="st2" d="M202.2,215.8c-2.8-3.4-4.6-7.3-6.3-11.3c-1.9-4.4-3.6-8.9-5.1-13.4c-2.9-8.2-6-16.8-6.1-25.6
				c0-1.1-1.8-1.2-1.8,0c0.1,9.2,3.3,18.2,6.4,26.9c1.6,4.4,3.2,8.7,5,13c1.7,4.2,3.7,8.2,6.5,11.7
				C201.6,217.9,202.9,216.7,202.2,215.8L202.2,215.8z"/>
		</g>
		<g>
			<path class="st2" d="M70.5,348.8c0.3-1.1,0.6-2.1,1-3.1c0.3-0.9,0.6-1.9,0.9-2.8c0.7-2.9,1.4-5.8,2-8.7c0.4-1.9,0.8-3.7,1.1-5.6
				c0.4-1.9,0.7-3.7,1-5.6c0.6-3.7,1.2-7.4,1.7-11.1s1-7.4,1.7-11.1c0.3-1.9,0.7-3.8,1.1-5.7c0.4-1.9,0.8-3.7,1.2-5.7
				c0.8-3.2,1.5-6.4,2.2-9.6s1.4-6.4,2.2-9.6c0.7-2.9,1.5-5.7,2.5-8.4c0.4-1.2,0.9-2.4,1.5-3.6c0.5-1.2,1.2-2.4,1.8-3.5
				c0.4-0.6,0.9-1.1,1.4-1.6c0.6-0.5,1.2-1,1.8-1.4c0.4-0.3,0.8-0.4,1.1-0.2c0.4,0.2,0.7,0.3,1,0.4c0.4,0.2,0.6,0.4,0.6,0.7
				s0,0.7-0.1,1.1c-0.4,1.3-0.8,2.5-1.1,3.8c-0.4,1.3-0.7,2.5-1,3.8c-0.6,2.7-1.2,5.4-1.8,8.1c-0.6,2.7-1.2,5.4-1.8,8.2
				c-0.8,4.1-1.7,8.2-2.5,12.3c-0.9,4.1-1.7,8.2-2.4,12.3c-0.4,2.5-0.8,5.1-1.2,7.7c-0.3,2.6-0.7,5.1-1.2,7.7
				c-0.2,1.3-0.5,2.6-0.7,3.9s-0.5,2.6-0.8,3.8c-0.6,2.7-1.2,5.4-1.8,8.1c-0.6,2.7-1.2,5.4-1.9,8c-0.4,1.6-0.8,3.2-1.3,4.7
				s-1,3.1-1.5,4.6c-0.4,1.3-1.1,2.4-2,3.3s-1.8,1.9-2.7,2.8c-0.9,0.9-1.9,1.6-2.9,2.2s-2.1,1.1-3.1,1.7c-0.3,0.2-0.6,0.4-0.9,0.6
				s-0.6,0.4-0.9,0.6c-1.1,0.6-2.2,1-3.2,1.1s-2.1-0.1-3.2-0.8c-1.2-0.7-2.3-1.4-3.3-2.3s-1.9-1.8-2.7-2.9c-2-2.8-3.8-5.8-5.4-8.8
				c-1.5-3.1-3-6.2-4.2-9.5c-1.8-4.6-3.6-9.1-5.5-13.6c-1.8-4.5-3.6-9.1-5.4-13.7c-1.9-4.8-3.7-9.6-5.6-14.3
				c-1.9-4.7-3.7-9.5-5.5-14.4c-0.9-2.5-1.7-5.1-2.3-7.7c-0.6-2.6-1-5.3-1.1-8c-0.1-2.8,0.6-5.4,2.1-7.7c1.1-1.8,2.5-2.8,4.1-3
				s3.3,0.4,5,1.9c0.7,0.6,1.3,1.2,1.8,2s1,1.5,1.4,2.3c1.5,3,3,5.9,4.4,8.9c1.5,2.9,2.9,5.9,4.3,8.9c1.3,2.7,2.5,5.4,3.6,8.1
				s2.3,5.4,3.4,8.2c1.5,3.6,3.1,7.2,4.6,10.8c1.5,3.5,3,7.1,4.5,10.8c1.3,3.1,2.5,6.2,3.8,9.2c1.2,3.1,2.5,6.1,3.9,9.1
				c0.8,1.9,1.7,3.8,2.8,5.6c1,1.8,2,3.7,2.9,5.6c0.1,0.1,0.1,0.2,0.2,0.3C70.1,348.3,70.3,348.5,70.5,348.8z"/>
			<path class="st2" d="M156.5,329.8c-1,2.3-2.1,4.6-3.2,6.9c-1.1,2.3-2.2,4.5-3.4,6.8c-1.1,2.2-2.4,4.2-3.8,6.2
				c-1.4,2-2.9,3.8-4.5,5.7c-2.4,2.9-5.2,5-8.2,6.5c-3.1,1.5-6.6,2-10.6,1.5c-4.1-0.4-7.7-1.7-10.6-3.9s-5.4-5.1-7.3-8.7
				c-1.3-2.7-2.4-5.3-3.1-8.1c-0.7-2.7-1.3-5.6-1.5-8.5c-0.3-2.3-0.4-4.5-0.4-6.7s0.1-4.4,0.2-6.7c0.1-2.3,0.4-4.6,0.7-6.9
				c0.4-2.3,0.9-4.5,1.6-6.8c0.9-3.3,2.1-6.5,3.4-9.6s3.1-6,5.3-8.7c1.3-1.7,2.8-3.1,4.4-4.4s3.3-2.4,5.2-3.4c1.6-0.8,3.2-1.5,4.9-2
				c1.7-0.5,3.4-0.8,5.2-1c2-0.1,3.9,0,5.9,0.3c1.9,0.3,3.8,1.1,5.5,2.4c0.4,0.3,0.9,0.6,1.4,1c0.5,0.3,1,0.6,1.4,0.9
				c1.7,1.1,3.2,2.4,4.4,4c1.2,1.5,2.4,3.2,3.4,5s1.7,3.6,2,5.6s0.2,4-0.2,6.1c-1.3,6.8-4.6,12.7-9.7,17.6c-1.5,1.4-3,2.8-4.6,4.2
				c-1.5,1.4-3.2,2.6-4.9,3.8c-2.4,1.6-5,2.9-7.6,3.9s-5.4,1.5-8.4,1.7c-0.1,0-0.3,0.1-0.7,0.2c0.4,2.4,1,4.6,1.7,6.7
				c0.8,2.1,1.9,4,3.4,5.8c1.3,1.4,2.7,2.5,4.3,3.2c1.6,0.7,3.3,1.1,5.2,1.2c0.8,0.1,1.4-0.1,2-0.5s1.2-0.8,1.8-1.2
				c1.3-1.1,2.4-2.3,3.5-3.6c1-1.3,2-2.7,2.9-4.1c1.3-1.9,2.4-3.9,3.5-5.9c1-2,2-4,2.8-6.1c0.4-1,1-1.8,1.5-2.5s1.4-1.1,2.5-1.3
				c0.7,0.1,1.2,0.2,1.7,0.5c0.4,0.3,0.7,0.6,0.9,1.1C156.9,328.4,156.8,329,156.5,329.8z M118.2,329.7c0.7-0.1,1.4-0.2,1.9-0.2
				c0.6-0.1,1.1-0.2,1.7-0.3c1.9-0.4,3.8-1.1,5.5-1.9c1.7-0.9,3.4-1.9,4.9-3c1.3-0.9,2.5-1.9,3.6-2.9c1.2-1,2.3-2,3.4-3
				c2.3-2.1,4.1-4.5,5.5-7.1c1.3-2.6,2.2-5.5,2.7-8.5c0.3-1.4,0.3-2.7,0-3.9c-0.3-1.2-0.9-2.4-1.8-3.5c-1.8-2.1-3.8-3.5-6.2-4.1
				s-4.8-0.3-7.3,0.9c-2.2,1-4,2.4-5.6,4.1s-2.9,3.6-3.9,5.7c-1.8,3.5-3,7.3-3.8,11.3c-0.4,2.2-0.8,4.3-1,6.5s-0.2,4.3-0.1,6.5
				c0.1,0.6,0.1,1.2,0.2,1.8C118,328.4,118.1,329.1,118.2,329.7z"/>
			<path class="st2" d="M209.2,290.2c0.3,2.3,0.6,4.5,0.8,6.7s0.3,4.5,0.2,6.8c0,0.5,0,1-0.1,1.5s-0.1,1-0.2,1.4l-0.5,4.7
				c-0.6,0.3-1.1,0.4-1.4,0.3c-0.4-0.1-0.7-0.4-1.1-1c-1.5-1.9-2.4-4-2.6-6.3c-0.2-1.6-0.4-3.2-0.5-4.9c-0.1-1.7-0.2-3.3-0.5-4.9
				c-0.2-1.2-0.4-2.3-0.7-3.5s-0.6-2.4-0.9-3.5c-0.1-0.4-0.3-0.8-0.5-1.1c-0.2-0.4-0.4-0.8-0.6-1.2c-0.6,0.4-1.1,0.8-1.6,1.2
				c-0.5,0.4-1,0.8-1.4,1.2c-1.9,1.9-3.8,3.8-5.5,5.9s-3.3,4.3-4.7,6.6c-1.3,2.2-2.5,4.4-3.4,6.7c-1,2.3-1.8,4.7-2.4,7.2
				c-0.1,0.3-0.2,0.6-0.2,1s0,0.7,0,1c0.2,1.4,0.3,2.9,0.5,4.3s0.4,2.8,0.7,4.3c0.4,1.8,0.7,3.6,0.9,5.4s0.4,3.6,0.7,5.5
				c0.1,0.6,0.2,1.1,0.3,1.6s0.2,1,0.3,1.5c0.1,1.2,0.2,2.3,0.4,3.5c0.1,1.2,0.3,2.3,0.4,3.4c0.2,1.1,0.3,2.2,0.5,3.4
				c0.2,1.2,0.3,2.3,0.5,3.4c0.1,0.5,0.2,1,0.3,1.5s0.2,1,0.3,1.5c0.1,0.4,0.1,0.8,0.1,1.2c-0.1,0.4-0.1,0.8-0.2,1.2
				c-0.1,0.7-0.2,1.4-0.3,2.1s-0.4,1.3-0.9,1.9l-0.5,0.5c-0.4,0.4-1,0.6-1.7,0.6c-0.6,0.3-1.3,0.5-2.2,0.7s-1.9,0.3-2.9,0.3
				s-1.9-0.2-2.7-0.5s-1.3-0.8-1.6-1.6c-0.7-2.3-1.4-5.1-2.1-8.6c-0.7-3.5-1.4-7.3-2-11.5c-0.7-4.2-1.3-8.5-1.9-13.1
				c-0.6-4.6-1.2-9.1-1.7-13.5s-1-8.7-1.4-12.7s-0.8-7.6-1.1-10.7s-0.5-5.6-0.7-7.4c-0.1-1.9-0.2-2.9-0.2-3c0.1-0.2,0.3-0.4,0.7-0.6
				s1-0.4,1.5-0.6c0.6-0.2,1.2-0.3,1.8-0.5c0.6-0.1,1.1-0.3,1.4-0.4c0.1-0.1,0.2-0.1,0.3-0.1s0.1,0,0.1-0.1v0.1
				c0.3-0.1,0.6-0.2,1-0.2c0.3,0,0.6,0,0.9,0c0.6,0,1,0.2,1.2,0.6s0.5,0.8,0.8,1.3c1.1,1.8,2,3.7,2.7,5.7s1.4,4.1,1.9,6.2
				c0.4,1.4,0.7,2.9,1,4.3c0.2,1.4,0.5,2.9,0.8,4.3c0,0.1,0,0.2,0,0.3c0,0.1,0.1,0.3,0.1,0.5c0.2-0.4,0.4-0.8,0.6-1.2
				c0.2-0.3,0.3-0.6,0.4-0.9c1-2.5,2.5-5,4.2-7.4c1.4-1.9,2.9-3.7,4.4-5.5s3.2-3.5,5.1-5c0.4-0.3,0.8-0.6,1.2-1
				c0.4-0.3,0.8-0.6,1.3-1c1-0.8,2.1-1.3,3.2-1.4c1.1-0.2,2.3-0.2,3.5-0.1c0.5,0.1,0.9,0.2,1.2,0.6c0.3,0.3,0.6,0.7,0.9,1.1
				c1.2,1.5,2.1,3.1,2.5,4.8C208.5,286.6,208.9,288.4,209.2,290.2z"/>
			<path class="st2" d="M266.6,343.1c-1.5,0.2-3,0.3-4.4,0.5s-2.8,0.3-4.3,0.2c-3.1,0-6.2-0.4-9.2-1.1s-6-1.6-9-2.7
				c-2.5-0.9-5-2-7.4-3.2s-4.7-2.6-6.9-4.1c-1.9-1.3-3.6-2.7-5.2-4.3c-1.6-1.6-2.9-3.4-3.9-5.5c-1.3-2.6-2.1-5.6-2.4-8.9
				c-0.3-3.3-0.1-6.5,0.5-9.6s1.5-6,2.9-8.6c1.3-2.6,2.9-4.6,4.7-5.9c0.7-0.5,1.3-1,2-1.4c0.7-0.5,1.4-0.9,2.2-1.3
				c1.9-1,3.9-1.7,5.9-1.9c2-0.2,4.1-0.2,6.2,0.1c2.7,0.3,5.1,0.9,7.4,1.9c2.3,1,4.6,2.1,7,3.2c1.9,0.9,3.7,2,5.5,3.3
				c1.7,1.3,3.4,2.6,5,3.9c0.3,0.3,0.6,0.7,0.8,1.2c0.3,0.5,0.6,0.9,1.1,1.2c0-0.4,0-1.2,0-2.3c0-1.2,0.1-2.4,0.1-3.6
				c0-1.3,0.1-2.5,0.1-3.6s0-1.8,0-2.2c0.2-3.1,0.5-5.9,0.7-8.4s0.5-5.4,0.8-8.4c0.2-2.3,0.5-4.6,0.7-7c0.3-2.3,0.6-4.7,0.8-7
				c0.2-1.3,0.3-2.7,0.5-4c0.2-1.4,0.3-2.7,0.4-4c0.1-0.5,0.1-1.1,0.1-1.7c0-0.6,0-1.1,0-1.7c-0.1-1,0.1-1.9,0.6-2.7
				c0.4-0.8,1-1.5,1.8-2c0.7-0.5,1.6-0.9,2.5-1.1c0.9-0.2,1.8-0.1,2.8,0.2c0.9,0.3,1.5,0.7,2,1.4c0.4,0.7,0.8,1.4,1.1,2.2
				c0.8,2,1.1,4,0.9,6c-0.2,1.7-0.3,3.3-0.5,5s-0.3,3.4-0.4,5c-0.2,2.4-0.3,4.7-0.5,7.1c-0.1,2.4-0.3,4.7-0.4,7.1
				c-0.1,1-0.1,2.5-0.1,4.3c0,1.9-0.1,3.9-0.1,6.2c0,2.3-0.1,4.6-0.1,7s0,4.8,0,7c0,2.3,0,4.3,0,6.2c0,1.9,0,3.3,0,4.3
				c0,2.2,0,4.4,0,6.6s0.1,4.4,0.2,6.7c0.1,2.8,0.2,5.5,0.4,8.2c0.2,2.7,0.3,5.4,0.5,8.2c0.1,1.7,0.2,3.3,0.4,5
				c0.1,1.7,0.2,3.3,0.3,5.1c0.1,1.5,0,3,0,4.5c-0.1,1.5-0.1,3-0.1,4.5c0,0.8-0.2,1.5-0.7,2.2s-1.1,1.3-1.8,1.9
				c-0.7,0.5-1.5,0.9-2.3,1c-0.8,0.2-1.6,0.1-2.4-0.2c-0.6-0.3-1.2-0.5-1.9-0.7c-0.7-0.2-1.2-0.5-1.7-1s-0.9-1-1.2-1.6
				c-0.3-0.6-0.5-1.2-0.5-2c-0.1-2.2-0.2-4.4-0.4-6.6c-0.1-2.2-0.4-4.4-0.7-6.6c-0.1-0.3-0.1-0.5-0.1-0.8
				C266.7,343.6,266.7,343.3,266.6,343.1z M229.3,320.9c1.8,1.6,3.8,3.1,5.9,4.5c2.1,1.4,4.3,2.5,6.5,3.5c2.5,1,5,2,7.5,2.8
				s5.1,1.5,7.7,2.1c1.4,0.3,2.9,0.6,4.3,0.8c1.4,0.2,3,0.4,4.6,0.7c0.1-1.2,0.1-2.5,0.2-4c0.1-1.4,0.1-2.9,0-4.3s-0.2-2.8-0.5-4.2
				c-0.2-1.3-0.6-2.6-1.2-3.7c-1.4-2.5-2.8-4.6-4-6.3c-1.2-1.6-2.5-3-3.6-4c-1.2-1-2.3-1.8-3.4-2.5s-2.2-1.2-3.3-1.8
				c-2.4-1.2-4.8-2.1-7.3-2.8c-2.5-0.6-5.1-1-7.7-1.1c-2.9-0.1-5.2,0.9-7,3c-1.2,1.8-2,3.7-2.4,5.6c-0.2,0.8-0.2,1.7-0.2,2.6
				s0.1,1.9,0.4,2.9s0.7,2,1.2,3C227.4,318.9,228.2,320,229.3,320.9z"/>
			<path class="st2" d="M303,351.2c0.2,1.4,0.3,2.8,0.4,4.1c0.1,1.1,0.2,2.2,0.2,3.1s0,1.7-0.1,2.1c-0.3,1-0.7,1.9-1.3,2.4
				c-0.6,0.6-1.4,0.8-2.5,0.7c-1.6-0.2-2.9-0.8-3.8-1.8s-1.7-2.1-2.3-3.4c-0.4-0.8-0.7-1.6-0.9-2.4c-0.2-0.7-0.3-1.4-0.5-2.1
				s-0.3-1.3-0.4-2.1c-0.3-2.9-0.6-5.8-0.9-8.7c-0.3-2.9-0.6-5.8-0.8-8.7c-0.2-2.6-0.4-5.2-0.6-7.7s-0.3-5.1-0.2-7.8
				c0.1-1.5,0.1-3,0-4.5c0-1.5,0-3,0-4.5c0.1-0.9,0.1-1.9,0.1-2.8s0.1-1.8,0.1-2.8c0-0.9,0-1.9,0-2.7c0-0.9,0-1.8,0-2.7
				c0.1-1.1,0.2-2.2,0.5-3.3c0.3-1.3,1.1-2.3,2.4-2.9c1.2-0.6,2.5-0.6,3.7,0c0.4,0.2,0.8,0.5,1.1,0.9c0.3,0.4,0.6,0.7,0.9,1.1
				c0.5,0.8,0.9,1.6,1.1,2.4s0.5,1.7,0.7,2.6c0.5,2.1,0.8,4.2,1,6.3c0.2,2.1,0.3,4.2,0.2,6.3c-0.1,1.4-0.1,2.8,0,4.2
				c0,1.4,0,2.7,0,4.2h0.1c0.1,1.7,0.2,3.3,0.2,4.9s0.1,3.3,0.2,4.9l1.2,17.4c0.1,0.6,0.1,1.2,0.1,1.7C303,350,303,350.6,303,351.2z
				 M296.6,286.4c-0.3,0.2-0.7,0.3-1.2,0.3c-0.4,0.1-0.9,0-1.3-0.1s-0.8-0.4-1.2-0.9c-0.4-0.5-0.6-1.2-0.8-2.1
				c-0.2-0.9-0.1-1.7,0.1-2.4c0.2-0.6,0.6-1.2,1-1.6c0.4-0.5,1-0.9,1.7-1.2c0.2-0.1,0.5-0.1,1.1,0.2c0.6,0.2,1.2,0.5,1.8,0.7
				c0.7,0.3,1.3,0.9,1.8,1.9s0.8,1.9,0.9,2.6c0,0.4-0.1,0.7-0.4,1c-0.2,0.2-0.6,0.5-1,0.7s-0.8,0.4-1.3,0.5
				C297.4,286.2,297,286.3,296.6,286.4z"/>
			<path class="st2" d="M326.7,358.5c-1.1,1.7-2.3,2.8-3.7,3.5c-1.4,0.7-2.6,1-3.8,1.2c-1.4,0.2-2.7,0.1-4.1-0.3
				c-0.8-1-1.4-2-1.9-3.1s-0.9-2.3-1.2-3.6c-0.7-3.1-1.1-6.3-1.4-9.5c-0.2-3.2-0.4-6.4-0.5-9.6c-0.1-3-0.2-5.9-0.4-8.8
				c-0.1-2.9-0.2-5.8-0.2-8.8c0-4.1,0-8.2,0.1-12.2c0.1-4.1,0.1-8.2,0.2-12.3c0.1-3.8,0.1-7.6,0-11.4c0-3.8,0-7.6,0.1-11.4
				c0.1-3.3,0.2-6.5,0.3-9.7c0.1-3.2,0.3-6.5,0.4-9.8c0.1-1.6,0.2-3.2,0.3-4.7c0.2-1.5,0.6-3.1,1.2-4.6c0.4-1.1,0.9-2.2,1.6-3.1
				c0.3-0.4,0.6-0.7,1-0.9s0.9-0.2,1.4-0.2c1.3-0.1,2.3,0.2,3.2,0.9c0.9,0.7,1.6,1.5,2.2,2.6c1.3,2.5,2.1,5,2.5,7.7
				c0.4,2.6,0.7,5.3,0.8,8.1c0.1,2.6,0.2,5.2,0.2,7.7c0.1,2.5,0.1,5.1,0.1,7.7c0.1,3.8,0.1,7.6,0.1,11.4s-0.1,7.6-0.2,11.4
				c0,2.5-0.1,5.1-0.2,7.6s-0.2,5-0.3,7.6c-0.1,2.4-0.1,4.8-0.1,7.2c0,2.3,0,4.7,0,7.1c0,1.7,0,3.4,0.1,5.1s0.1,3.3,0.2,5.1
				c0,1.3,0,2.6,0.1,3.9s0.1,2.7,0.1,4c0.1,1.3,0.1,2.5,0,3.8c0,1.2,0,2.5,0,3.8c0.2-0.3,0.4-0.5,0.6-0.8c0.2-0.2,0.4-0.5,0.6-0.8
				c0.5-0.5,1-1,1.4-1.5c0.5-0.5,1-1,1.5-1.4c0.7-0.5,1.5-0.5,2.2,0.1c0.4,0.3,0.6,0.6,0.5,0.9s-0.1,0.7-0.2,1.1
				c-0.6,1.7-1.3,3.3-2.2,4.8C328.6,355.5,327.7,357,326.7,358.5z"/>
			<path class="st2" d="M355.7,358.5c-1.1,1.7-2.3,2.8-3.7,3.5c-1.4,0.7-2.6,1-3.8,1.2c-1.4,0.2-2.7,0.1-4.1-0.3
				c-0.8-1-1.4-2-1.9-3.1s-0.9-2.3-1.2-3.6c-0.7-3.1-1.1-6.3-1.4-9.5c-0.2-3.2-0.4-6.4-0.5-9.6c-0.1-3-0.2-5.9-0.4-8.8
				c-0.1-2.9-0.2-5.8-0.2-8.8c0-4.1,0-8.2,0.1-12.2c0.1-4.1,0.1-8.2,0.2-12.3c0.1-3.8,0.1-7.6,0-11.4c0-3.8,0-7.6,0.1-11.4
				c0.1-3.3,0.2-6.5,0.3-9.7c0.1-3.2,0.3-6.5,0.4-9.8c0.1-1.6,0.2-3.2,0.3-4.7c0.2-1.5,0.6-3.1,1.2-4.6c0.4-1.1,0.9-2.2,1.6-3.1
				c0.3-0.4,0.6-0.7,1-0.9s0.9-0.2,1.4-0.2c1.3-0.1,2.3,0.2,3.2,0.9c0.9,0.7,1.6,1.5,2.2,2.6c1.3,2.5,2.1,5,2.5,7.7
				c0.4,2.6,0.7,5.3,0.8,8.1c0.1,2.6,0.2,5.2,0.2,7.7c0.1,2.5,0.1,5.1,0.1,7.7c0.1,3.8,0.1,7.6,0.1,11.4s-0.1,7.6-0.2,11.4
				c0,2.5-0.1,5.1-0.2,7.6s-0.2,5-0.3,7.6c-0.1,2.4-0.1,4.8-0.1,7.2c0,2.3,0,4.7,0,7.1c0,1.7,0,3.4,0.1,5.1s0.1,3.3,0.2,5.1
				c0,1.3,0,2.6,0.1,3.9s0.1,2.7,0.1,4c0.1,1.3,0.1,2.5,0,3.8c0,1.2,0,2.5,0,3.8c0.2-0.3,0.4-0.5,0.6-0.8c0.2-0.2,0.4-0.5,0.6-0.8
				c0.5-0.5,1-1,1.4-1.5c0.5-0.5,1-1,1.5-1.4c0.7-0.5,1.5-0.5,2.2,0.1c0.4,0.3,0.6,0.6,0.5,0.9s-0.1,0.7-0.2,1.1
				c-0.6,1.7-1.3,3.3-2.2,4.8C357.5,355.5,356.6,357,355.7,358.5z"/>
			<path class="st2" d="M425.1,363.4c-0.6,0.1-1.2,0-1.8-0.2c-0.5-0.1-1-0.3-1.6-0.7c-0.6-0.3-1.1-0.8-1.6-1.4
				c-1.7-2.4-2.9-4.9-3.8-7.5c-0.9-2.7-1.7-5.4-2.3-8.2c-0.4-1.7-0.7-3.4-1-5.1s-0.5-3.4-0.7-5.2c-0.3-2.6-0.6-5.3-0.9-7.8
				c-0.3-2.6-0.6-5.2-0.9-7.8c-0.1-0.7-0.1-1.4-0.1-2.2c0-0.7-0.1-1.5-0.2-2.3c-0.5,0.6-0.9,1.2-1.3,1.7s-0.6,1.1-0.9,1.7
				c-1,2.6-2.1,5.2-3.4,7.7s-2.6,5-3.9,7.6c-0.6,1-1.1,2.1-1.6,3.2c-0.4,1.1-1,2.1-1.6,3.2c-0.4,0.8-0.9,1.5-1.4,2.2s-1,1.4-1.5,2
				c-1.2,1.5-2.5,2.9-3.8,4.2c-1.3,1.3-2.9,2.4-4.6,3.2c-2.8,1.4-5.7,2-8.8,1.7c-1.4-0.1-2.7-0.6-3.8-1.3c-1.1-0.8-2-1.7-2.9-2.9
				c-0.9-1.2-1.5-2.4-1.9-3.7c-0.4-1.3-0.7-2.7-0.9-4.1c-0.4-2.6-0.5-5.3-0.2-7.9c0.2-2.6,0.6-5.3,1.2-7.9c0.4-1.9,0.9-3.8,1.4-5.7
				c0.5-1.8,1.3-3.7,2.2-5.4c2.1-4.1,5-7.9,8.4-11.2c2.1-2,4.3-3.8,6.5-5.5c2.3-1.7,4.7-3.1,7.4-4.4c2.7-1.3,5.3-2.3,8-3.1
				c2.7-0.8,5.4-1.5,8.2-1.9c0.2,0,0.3,0,0.4-0.1s0.2-0.1,0.3-0.1c0.4-1.4,0.9-2.7,1.2-3.9c0.4-1.2,0.8-2.5,1.2-3.8
				c0.2-0.6,0.5-1,1-1.3c0.5-0.2,1.2-0.3,1.9-0.2c1.4,0.1,2.4,0.7,3.1,1.7s1.1,2,1.2,2.9c0.3,1.3,0.4,2.6,0.3,3.9s-0.2,2.6-0.3,3.9
				c-0.2,3.3-0.3,6.5-0.4,9.7s0,6.5,0.2,9.7c0.3,4.1,0.8,8.1,1.4,12s1.4,7.9,2.3,11.9c0.5,2.4,1,4.7,1.7,7.1c0.6,2.3,1.2,4.7,1.8,7
				c0.3,1.3,0.7,2.6,1.1,3.9s0.8,2.6,1.3,3.9c0.1,0.2,0.1,0.6,0.2,1.2c0.1,0.8,0,1.4-0.2,1.9c-0.3,0.5-0.7,1-1.2,1.5
				c-0.4,0.4-0.9,0.8-1.4,1s-1,0.5-1.5,0.7C426.3,363.1,425.7,363.3,425.1,363.4z M385.3,343.1h0.4c0.3-0.1,0.6-0.2,0.7-0.3
				c3.1-1.8,5.5-4.3,7.2-7.5c0.5-0.9,1-1.9,1.4-2.8s0.9-1.9,1.4-2.8c0.9-1.8,1.9-3.5,3-5.1c1.1-1.7,1.9-3.4,2.6-5.4
				c0.6-1.5,1.2-3,1.9-4.4c0.7-1.4,1.4-2.9,2-4.3c0.8-1.9,1.5-3.8,2.3-5.6c0.8-1.9,1.4-3.8,2-5.7c0.2-0.6,0.3-1.2,0.4-1.8
				c0.1-0.6,0.1-1.3-0.1-2c-0.6,0.1-1.2,0.3-1.7,0.5s-1,0.4-1.5,0.7c-2,1-3.9,2-5.8,3.1s-3.7,2.3-5.5,3.6c-1.4,1.1-2.8,2.3-4.1,3.4
				c-1.3,1.2-2.3,2.6-3.1,4.2c-0.3,0.7-0.7,1.4-1,2.1c-0.4,0.7-0.7,1.4-1,2.1c-0.4,1.2-0.9,2.3-1.3,3.5s-0.8,2.4-1,3.6
				c-0.3,1-0.5,2.1-0.6,3.2s-0.2,2.2-0.3,3.3c-0.2,1.8-0.3,3.6-0.3,5.5c0,1.8,0.2,3.6,0.5,5.5c0.1,0.6,0.3,1.2,0.5,1.9
				C384.6,342,384.9,342.6,385.3,343.1z"/>
			<path class="st2" d="M441.6,327.7c1.3,1.2,2.5,2.5,3.6,3.7c1.1,1.3,1.8,2.8,2.1,4.6c0.3,1.6,0.6,3.2,1.1,4.7
				c0.4,1.5,1.1,3,2.1,4.3c0.6,0.8,1.2,1.6,1.9,2.2c0.7,0.6,1.4,1.3,2.2,1.9c0.7,0.5,1.4,0.8,2.2,1c0.8,0.1,1.5,0.2,2.3,0.1
				c0.7-0.1,1.2-0.3,1.7-0.7c0.7-0.6,1.3-1.3,1.8-2c0.6-0.7,1-1.5,1.2-2.5c0.8-2.6,1.2-5.2,1.3-7.8c0.1-2.6-0.2-5.2-1-7.9
				c-0.4-1.7-1-3.2-1.8-4.7s-1.6-2.9-2.6-4.3c-1.1-1.5-2.2-3.1-3.3-4.6c-1.1-1.5-2.1-3-3-4.6c-1.2-1.9-2.2-3.9-3.2-5.9
				s-1.7-4.1-2.3-6.3c-0.4-1.7-0.5-3.3-0.4-5.1c0.1-1.7,0.5-3.4,1-5c0.6-1.6,1.4-3.1,2.4-4.5s2.3-2.6,3.7-3.6
				c0.4-0.3,0.9-0.6,1.3-0.8c0.4-0.3,0.9-0.6,1.3-0.8c1.3-0.8,2.6-1.3,4.1-1.4c1.5-0.2,2.9-0.1,4.3,0.2c1.4,0.3,2.7,0.8,4,1.4
				c1.3,0.7,2.4,1.4,3.3,2.3c1.9,1.9,3.7,4,5.4,6.3c0.6,0.8,1.1,1.7,1.5,2.6s0.8,1.8,1.3,2.8c0.3,0.6,0.5,1.2,0.7,1.7
				c0.2,0.6,0.5,1.1,0.7,1.7c0.3,0.8,0.2,1.5-0.3,2.2c-0.2,0.3-0.4,0.5-0.6,0.7s-0.5,0.2-0.9,0.1c-0.8-0.1-1.2-0.5-1.2-1.2
				c-0.1-0.5-0.2-1-0.3-1.5c-0.1-0.5-0.2-1-0.4-1.4c-0.7-1.8-1.6-3.4-2.7-4.9s-2.5-2.8-4.1-3.8c-0.7-0.4-1.4-0.8-2.2-1
				c-0.8-0.2-1.6-0.5-2.4-0.7c-0.5-0.1-1-0.1-1.5,0s-0.9,0.4-1.3,0.9c-1,1.2-1.9,2.5-2.6,3.8s-1,2.8-1.2,4.4c-0.1,0.8,0,1.5,0.2,2.2
				s0.5,1.4,0.8,2c1.1,2.2,2.3,4.3,3.6,6.3c1.3,2,2.6,4,4,6c1.1,1.5,2.2,3,3.1,4.6c1,1.5,1.9,3.1,2.8,4.8c2.4,4.4,3.7,9.1,4,14.2
				c0.1,2.6,0,5.2-0.2,7.7s-0.8,5-1.5,7.5c-0.8,2.9-2,5.5-3.7,7.6s-4,3.8-6.8,5c-1.2,0.5-2.4,0.8-3.6,0.8c-1.2,0.1-2.5,0-3.7-0.1
				c-3.9-0.3-7.4-1.6-10.6-3.7c-1.2-0.9-2.3-1.8-3.4-2.9c-1-1-2-2.1-2.9-3.2c-2.3-2.9-3.8-6.2-4.7-9.8c-0.4-1.5-0.5-3-0.4-4.4
				c0.1-1.5,0.4-2.9,0.9-4.3c0.4-1.2,0.8-2.4,1.3-3.5C440.7,330.2,441.2,329,441.6,327.7z"/>
		</g>
	</g>
</g>
<g>
	<g>
		<path class="st0" d="M-475.3,241.1c61,6.4,68.1,5.1,94.6-3.3c41.2-14.3,64.1-58,79.2-94.4C-406.7,131.7-425.8,164.2-475.3,241.1z"
			/>
		<path class="st1" d="M-461,240.9c0,0,67.7-4.6,87.7-18.5c16.8-11.7,71.7-79,71.7-79C-324.6,200.4-381.3,271.7-461,240.9z"/>
	</g>
	<g>
		<g>
			<path class="st3" d="M-455.6,235.2c1.2,2.3,2.3,4.7,4.1,6.6c2,2.1,4.6,3.2,7.3,4.2c1.1,0.4,1.6-1.3,0.5-1.7
				c-2.5-0.8-4.9-1.8-6.7-3.8c-1.6-1.8-2.7-4-3.7-6.1C-454.5,233.3-456.1,234.1-455.6,235.2L-455.6,235.2z"/>
			<path class="st3" d="M-303.5,140.1c-4.2,11.4-9.6,22.4-15.5,33c-9.9,17.9-21.9,35.1-37.4,48.6c-7.1,6.2-15,11.5-23.7,15.1
				c-9.5,3.9-20,6.2-30.1,7.5c-14.5,1.9-28.6,0.5-42.9-2.3c-10.1-2-20.6-4.2-30.8-1.5c-2.2,0.6-1.4,3.9,0.8,3.4
				c6.4-1.2,12.7-3.2,18.9-5c13.2-3.8,26.3-8.1,39.1-13.3c11.7-4.8,24.3-10.3,33.5-19.2c1.7-1.6,3.2-3.4,4.5-5.3
				c2.4-3.7,5.3-6.9,8.5-10c8.8-8.2,18.9-15,29-21.5c15.7-10,31.9-19.2,48.6-27.6c1.7-0.9,0.8-3.1-0.8-3.3
				c-23-2.9-46.8-3.2-69.8-0.7c-15.3,1.7-31.7,4.7-44.9,13.2c-16.5,10.8-28.4,28.4-38.4,45c-5.4,9-10.4,18.2-15.8,27.2
				c-3.7,6.1-7.6,13-13.4,17.4c-1.8,1.4,0.6,4,2.4,2.6c4.9-3.7,8.4-9.2,11.6-14.3c4.7-7.4,8.9-15.1,13.2-22.7
				c10-17.2,20.8-34.8,36.4-47.7c12.4-10.3,28.3-14.2,43.9-16.4c15.8-2.2,31.9-2.5,47.9-1.9c8.9,0.3,17.9,0.9,26.8,2
				c-0.3-1.1-0.5-2.2-0.8-3.3c-13.7,6.9-27.1,14.4-40.2,22.4c-10.2,6.2-20.4,12.8-29.8,20.2c-4.1,3.2-8.1,6.6-11.6,10.4
				c-2.5,2.6-4.3,5.5-6.5,8.4c-3.2,4.3-7.9,7.7-12.4,10.5c-5.7,3.6-11.7,6.5-17.9,9.2c-12.9,5.7-26.3,10.2-39.8,14.2
				c-7.6,2.2-15.2,4.7-23,6.2c0.3,1.1,0.5,2.3,0.8,3.4c9.1-2.3,18.5-0.5,27.5,1.2c14.1,2.8,28,4.5,42.3,3.1
				c19.5-2,38.4-7.7,54.1-19.7c16.3-12.6,29-29.6,39.4-47.1c7.6-12.7,14.5-26.3,19.6-40.2C-299.3,139-302.7,137.9-303.5,140.1
				L-303.5,140.1z"/>
			<path class="st3" d="M-326.1,154.4c1.8,1.8,3.7,3.7,6.2,4.5c1.3,0.4,2.6,0.5,3.9,0.6c1.4,0.1,2.8,0.2,4.2,0.3
				c1.1,0.1,1.2-1.7,0-1.8c-1.3-0.1-2.6-0.2-3.9-0.3c-1.2-0.1-2.4-0.1-3.5-0.4c-2.3-0.6-4.1-2.4-5.7-4.1
				C-325.6,152.4-326.9,153.6-326.1,154.4L-326.1,154.4z"/>
			<path class="st3" d="M-325.8,152.7c-0.8-1.8-0.8-3.8-0.4-5.7c0.4-2.3,1.1-4.5,2.1-6.6c0.2-0.4,0.2-0.9-0.3-1.2
				c-0.4-0.2-1-0.2-1.2,0.3c-2,4.2-3.7,9.6-1.8,14.1C-326.9,154.5-325.4,153.7-325.8,152.7L-325.8,152.7z"/>
			<path class="st3" d="M-339.2,161c2,3.3,3.3,7.2,6.4,9.7c1.7,1.4,3.8,2,5.9,2.8c2.4,0.9,4.9,1.7,7.5,2.3c1.1,0.2,1.6-1.4,0.5-1.7
				c-2.3-0.5-4.5-1.2-6.6-2c-2-0.7-4.3-1.3-6-2.7c-2.9-2.3-4.2-6.1-6.1-9.2C-338.2,159.2-339.7,160.1-339.2,161L-339.2,161z"/>
			<path class="st3" d="M-338.2,159.6c-3.2-6.2-3.9-13.5-2.1-20.3c0.3-1.1-1.4-1.6-1.7-0.5c-1.9,7.2-1.1,15,2.3,21.6
				C-339.3,161.5-337.7,160.6-338.2,159.6L-338.2,159.6z"/>
			<path class="st3" d="M-352,168.7c1.1,2.3,2.3,4.7,4,6.7c1.7,2.1,4,3.3,6.4,4.5c5.4,2.8,10.8,5.5,16.6,7.1
				c1.1,0.3,1.6-1.4,0.5-1.7c-5.5-1.5-10.6-4-15.7-6.7c-2.3-1.2-4.6-2.3-6.4-4.3c-1.7-1.9-2.8-4.2-3.9-6.5
				C-351,166.8-352.5,167.7-352,168.7L-352,168.7z"/>
			<path class="st3" d="M-351,167.4c-3.9-8.7-5.7-18.2-5.1-27.7c0.1-1.1-1.7-1.2-1.8,0c-0.5,9.8,1.3,19.6,5.4,28.6
				C-352.1,169.2-350.5,168.4-351,167.4L-351,167.4z"/>
			<path class="st3" d="M-364.6,178.2c2.4,5.6,5.6,10.9,10.1,15c4.8,4.3,10.5,7.2,16.2,10.1c1,0.5,2-1,0.9-1.5
				c-5.6-2.8-11.3-5.6-15.9-9.8c-4.4-4-7.5-9.1-9.9-14.6C-363.4,176.3-365,177.1-364.6,178.2L-364.6,178.2z"/>
			<path class="st3" d="M-363.6,177.1c-4.1-11.6-6.7-23.6-7.8-35.8c-0.1-1.1-1.9-1.2-1.8,0c1.1,12.4,3.7,24.6,7.9,36.3
				C-365,178.6-363.2,178.2-363.6,177.1L-363.6,177.1z"/>
			<path class="st3" d="M-385.7,196.7c3.3,5.5,8,9.6,13.9,12.1c7,3,14.4,5.3,21.5,7.9c1.1,0.4,1.6-1.3,0.5-1.7
				c-6.5-2.4-13.1-4.6-19.5-7.1c-6.2-2.4-11.4-6.2-14.8-12C-384.7,194.9-386.3,195.7-385.7,196.7L-385.7,196.7z"/>
			<path class="st3" d="M-385,196c-3.6-8.4-6.6-17.3-9.1-26.2c-2.4-8.5-4-17.3-2.9-26.2c0.1-1.1-1.6-1.2-1.8,0
				c-1.1,9,0.4,18,2.9,26.6c2.6,9,5.6,18,9.3,26.6C-386.1,197.9-384.6,197.1-385,196L-385,196z"/>
			<path class="st3" d="M-400.3,211.3c3.1,1.6,4.9,4.6,7.3,7.1c2.3,2.4,5.2,4.3,8.1,5.9c6.2,3.4,13.2,6.5,20.2,7.1
				c1.1,0.1,1.2-1.7,0-1.8c-7.2-0.6-14.4-4-20.6-7.6c-2.9-1.7-5.5-3.7-7.7-6.3c-1.9-2.2-3.7-4.6-6.4-6
				C-400.3,209.3-401.3,210.8-400.3,211.3L-400.3,211.3z"/>
			<path class="st3" d="M-399.2,209.3c-5.6-8-9.9-16.8-12.8-26.1c-1.4-4.5-2.4-9.1-3-13.7c-0.8-5.6-1.2-11.5,1.9-16.5
				c0.6-1-0.9-1.9-1.5-0.9c-2.8,4.4-3,9.6-2.5,14.7c0.5,5.2,1.5,10.3,3,15.3c2.9,10.1,7.4,19.6,13.4,28.1
				C-400.1,211.1-398.6,210.3-399.2,209.3L-399.2,209.3z"/>
			<path class="st3" d="M-419,222.5c2.5,5,5.2,10.1,9.9,13.4c2.4,1.7,5.3,2.8,8,3.9c3.3,1.2,6.7,2.2,10.1,2.9
				c1.1,0.2,1.6-1.4,0.5-1.7c-5.8-1.3-12.2-3-17.2-6.3c-4.7-3.1-7.3-8.2-9.7-13.1C-417.9,220.7-419.5,221.5-419,222.5L-419,222.5z"
				/>
			<path class="st3" d="M-418.2,220.8c-6-5.3-9.1-13.2-12.9-20.1c-4.1-7.4-8.3-15.3-7.5-24.1c0.1-1.1-1.7-1.2-1.8,0
				c-0.7,8.8,3.3,16.8,7.4,24.4c3.9,7.2,7.2,15.5,13.5,21.1C-418.6,222.7-417.3,221.6-418.2,220.8L-418.2,220.8z"/>
			<path class="st3" d="M-435.6,228c2.3,4.4,5.1,8.6,8.9,11.7c4.4,3.6,9.9,5,15.3,6.4c1.1,0.3,1.6-1.4,0.5-1.7
				c-5.1-1.2-10.3-2.6-14.5-5.9c-3.8-3-6.5-7.1-8.7-11.3C-434.6,226.2-436.1,227-435.6,228L-435.6,228z"/>
			<path class="st3" d="M-435.6,225.6c-6.4-9.6-13.2-19.8-13.7-31.7c0-1.1-1.8-1.2-1.8,0c0.5,12.3,7.3,22.7,13.9,32.6
				C-436.5,227.3-434.9,226.5-435.6,225.6L-435.6,225.6z"/>
			<path class="st3" d="M-454.9,232.6c-4.2-5.4-8-11.6-8.6-18.6c-0.1-1.1-1.9-1.2-1.8,0c0.6,7.5,4.6,14,9,19.8
				C-455.5,234.7-454.2,233.5-454.9,232.6L-454.9,232.6z"/>
			<path class="st3" d="M-376.3,187.8c1.9,2.5,3.3,5.3,5.3,7.8c1.9,2.4,4.3,4.1,6.9,5.6c6,3.4,12.2,6.6,18.2,9.8
				c1,0.5,1.9-1,0.9-1.5c-5.9-3.2-11.8-6.3-17.7-9.5c-2.9-1.6-5.4-3.4-7.4-6.1c-1.7-2.4-3.1-5-4.9-7.3
				C-375.7,185.7-377,186.9-376.3,187.8L-376.3,187.8z"/>
			<path class="st3" d="M-376.5,186c-3.2-6.5-5.3-13.5-6.1-20.7c-0.4-3.6-0.2-7.2-0.4-10.8c-0.2-3.9-0.7-7.8-1.1-11.6
				c-0.1-1.1-1.9-1.2-1.8,0c0.4,4,0.9,8,1.1,12c0.2,3.8,0.1,7.5,0.5,11.3c0.8,7.2,2.9,14.2,6.2,20.6C-377.5,187.8-376,187-376.5,186
				L-376.5,186z"/>
			<path class="st3" d="M-411.5,217.7c2.7,5.1,6.1,10.1,10.9,13.3c5.7,3.9,12.9,3.6,18.9,6.7c1,0.5,2-1,0.9-1.5
				c-5.7-3-12.5-2.8-18-6.1c-5.1-3-8.5-8.1-11.2-13.2C-410.4,215.9-412,216.7-411.5,217.7L-411.5,217.7z"/>
			<path class="st3" d="M-410.7,215.8c-2.8-3.4-4.6-7.3-6.3-11.3c-1.9-4.4-3.6-8.9-5.1-13.4c-2.9-8.2-6-16.8-6.1-25.6
				c0-1.1-1.8-1.2-1.8,0c0.1,9.2,3.3,18.2,6.4,26.9c1.6,4.4,3.2,8.7,5,13c1.7,4.2,3.7,8.2,6.5,11.7
				C-411.3,217.9-410,216.7-410.7,215.8L-410.7,215.8z"/>
		</g>
		<g>
			<path class="st3" d="M-542.4,348.8c0.3-1.1,0.6-2.1,1-3.1c0.3-0.9,0.6-1.9,0.9-2.8c0.7-2.9,1.4-5.8,2-8.7
				c0.4-1.9,0.8-3.7,1.1-5.6c0.4-1.9,0.7-3.7,1-5.6c0.6-3.7,1.2-7.4,1.7-11.1s1-7.4,1.7-11.1c0.3-1.9,0.7-3.8,1.1-5.7
				c0.4-1.9,0.8-3.7,1.2-5.7c0.8-3.2,1.5-6.4,2.2-9.6c0.7-3.2,1.4-6.4,2.2-9.6c0.7-2.9,1.5-5.7,2.5-8.4c0.4-1.2,0.9-2.4,1.5-3.6
				c0.5-1.2,1.2-2.4,1.8-3.5c0.4-0.6,0.9-1.1,1.4-1.6c0.6-0.5,1.2-1,1.8-1.4c0.4-0.3,0.8-0.4,1.1-0.2c0.4,0.2,0.7,0.3,1,0.4
				c0.4,0.2,0.6,0.4,0.6,0.7s0,0.7-0.1,1.1c-0.4,1.3-0.8,2.5-1.1,3.8c-0.4,1.3-0.7,2.5-1,3.8c-0.6,2.7-1.2,5.4-1.8,8.1
				c-0.6,2.7-1.2,5.4-1.8,8.2c-0.8,4.1-1.7,8.2-2.5,12.3c-0.9,4.1-1.7,8.2-2.4,12.3c-0.4,2.5-0.8,5.1-1.2,7.7
				c-0.3,2.6-0.7,5.1-1.2,7.7c-0.2,1.3-0.5,2.6-0.7,3.9s-0.5,2.6-0.8,3.8c-0.6,2.7-1.2,5.4-1.8,8.1c-0.6,2.7-1.2,5.4-1.9,8
				c-0.4,1.6-0.8,3.2-1.3,4.7s-1,3.1-1.5,4.6c-0.4,1.3-1.1,2.4-2,3.3c-0.9,0.9-1.8,1.9-2.7,2.8s-1.9,1.6-2.9,2.2s-2.1,1.1-3.1,1.7
				c-0.3,0.2-0.6,0.4-0.9,0.6c-0.3,0.2-0.6,0.4-0.9,0.6c-1.1,0.6-2.2,1-3.2,1.1s-2.1-0.1-3.2-0.8c-1.2-0.7-2.3-1.4-3.3-2.3
				s-1.9-1.8-2.7-2.9c-2-2.8-3.8-5.8-5.4-8.8c-1.5-3.1-3-6.2-4.2-9.5c-1.8-4.6-3.6-9.1-5.5-13.6c-1.8-4.5-3.6-9.1-5.4-13.7
				c-1.9-4.8-3.7-9.6-5.6-14.3c-1.9-4.7-3.7-9.5-5.5-14.4c-0.9-2.5-1.7-5.1-2.3-7.7c-0.6-2.6-1-5.3-1.1-8c-0.1-2.8,0.6-5.4,2.1-7.7
				c1.1-1.8,2.5-2.8,4.1-3s3.3,0.4,5,1.9c0.7,0.6,1.3,1.2,1.8,2s1,1.5,1.4,2.3c1.5,3,3,5.9,4.4,8.9c1.5,2.9,2.9,5.9,4.3,8.9
				c1.3,2.7,2.5,5.4,3.6,8.1s2.3,5.4,3.4,8.2c1.5,3.6,3.1,7.2,4.6,10.8c1.5,3.5,3,7.1,4.5,10.8c1.3,3.1,2.5,6.2,3.8,9.2
				c1.2,3.1,2.5,6.1,3.9,9.1c0.8,1.9,1.7,3.8,2.8,5.6c1,1.8,2,3.7,2.9,5.6c0.1,0.1,0.1,0.2,0.2,0.3
				C-542.8,348.3-542.6,348.5-542.4,348.8z"/>
			<path class="st3" d="M-456.4,329.8c-1,2.3-2.1,4.6-3.2,6.9s-2.2,4.5-3.4,6.8c-1.1,2.2-2.4,4.2-3.8,6.2s-2.9,3.8-4.5,5.7
				c-2.4,2.9-5.2,5-8.2,6.5c-3.1,1.5-6.6,2-10.6,1.5c-4.1-0.4-7.7-1.7-10.6-3.9c-2.9-2.2-5.4-5.1-7.3-8.7c-1.3-2.7-2.4-5.3-3.1-8.1
				c-0.7-2.7-1.3-5.6-1.5-8.5c-0.3-2.3-0.4-4.5-0.4-6.7s0.1-4.4,0.2-6.7c0.1-2.3,0.4-4.6,0.7-6.9c0.4-2.3,0.9-4.5,1.6-6.8
				c0.9-3.3,2.1-6.5,3.4-9.6c1.3-3.1,3.1-6,5.3-8.7c1.3-1.7,2.8-3.1,4.4-4.4s3.3-2.4,5.2-3.4c1.6-0.8,3.2-1.5,4.9-2
				c1.7-0.5,3.4-0.8,5.2-1c2-0.1,3.9,0,5.9,0.3c1.9,0.3,3.8,1.1,5.5,2.4c0.4,0.3,0.9,0.6,1.4,1c0.5,0.3,1,0.6,1.4,0.9
				c1.7,1.1,3.2,2.4,4.4,4c1.2,1.5,2.4,3.2,3.4,5s1.7,3.6,2,5.6c0.3,2,0.2,4-0.2,6.1c-1.3,6.8-4.6,12.7-9.7,17.6
				c-1.5,1.4-3,2.8-4.6,4.2c-1.5,1.4-3.2,2.6-4.9,3.8c-2.4,1.6-5,2.9-7.6,3.9c-2.6,1-5.4,1.5-8.4,1.7c-0.1,0-0.3,0.1-0.7,0.2
				c0.4,2.4,1,4.6,1.7,6.7c0.8,2.1,1.9,4,3.4,5.8c1.3,1.4,2.7,2.5,4.3,3.2s3.3,1.1,5.2,1.2c0.8,0.1,1.4-0.1,2-0.5s1.2-0.8,1.8-1.2
				c1.3-1.1,2.4-2.3,3.5-3.6c1-1.3,2-2.7,2.9-4.1c1.3-1.9,2.4-3.9,3.5-5.9c1-2,2-4,2.8-6.1c0.4-1,1-1.8,1.5-2.5s1.4-1.1,2.5-1.3
				c0.7,0.1,1.2,0.2,1.7,0.5c0.4,0.3,0.7,0.6,0.9,1.1C-456,328.4-456.1,329-456.4,329.8z M-494.7,329.7c0.7-0.1,1.4-0.2,1.9-0.2
				c0.6-0.1,1.1-0.2,1.7-0.3c1.9-0.4,3.8-1.1,5.5-1.9c1.7-0.9,3.4-1.9,4.9-3c1.3-0.9,2.5-1.9,3.6-2.9c1.2-1,2.3-2,3.4-3
				c2.3-2.1,4.1-4.5,5.5-7.1c1.3-2.6,2.2-5.5,2.7-8.5c0.3-1.4,0.3-2.7,0-3.9c-0.3-1.2-0.9-2.4-1.8-3.5c-1.8-2.1-3.8-3.5-6.2-4.1
				s-4.8-0.3-7.3,0.9c-2.2,1-4,2.4-5.6,4.1c-1.6,1.7-2.9,3.6-3.9,5.7c-1.8,3.5-3,7.3-3.8,11.3c-0.4,2.2-0.8,4.3-1,6.5
				c-0.2,2.2-0.2,4.3-0.1,6.5c0.1,0.6,0.1,1.2,0.2,1.8C-494.9,328.4-494.8,329.1-494.7,329.7z"/>
			<path class="st3" d="M-403.7,290.2c0.3,2.3,0.6,4.5,0.8,6.7c0.2,2.2,0.3,4.5,0.2,6.8c0,0.5,0,1-0.1,1.5s-0.1,1-0.2,1.4l-0.5,4.7
				c-0.6,0.3-1.1,0.4-1.4,0.3c-0.4-0.1-0.7-0.4-1.1-1c-1.5-1.9-2.4-4-2.6-6.3c-0.2-1.6-0.4-3.2-0.5-4.9c-0.1-1.7-0.2-3.3-0.5-4.9
				c-0.2-1.2-0.4-2.3-0.7-3.5c-0.3-1.2-0.6-2.4-0.9-3.5c-0.1-0.4-0.3-0.8-0.5-1.1c-0.2-0.4-0.4-0.8-0.6-1.2
				c-0.6,0.4-1.1,0.8-1.6,1.2c-0.5,0.4-1,0.8-1.4,1.2c-1.9,1.9-3.8,3.8-5.5,5.9c-1.7,2.1-3.3,4.3-4.7,6.6c-1.3,2.2-2.5,4.4-3.4,6.7
				c-1,2.3-1.8,4.7-2.4,7.2c-0.1,0.3-0.2,0.6-0.2,1s0,0.7,0,1c0.2,1.4,0.3,2.9,0.5,4.3c0.2,1.4,0.4,2.8,0.7,4.3
				c0.4,1.8,0.7,3.6,0.9,5.4c0.2,1.8,0.4,3.6,0.7,5.5c0.1,0.6,0.2,1.1,0.3,1.6s0.2,1,0.3,1.5c0.1,1.2,0.2,2.3,0.4,3.5
				c0.1,1.2,0.3,2.3,0.4,3.4c0.2,1.1,0.3,2.2,0.5,3.4c0.2,1.2,0.3,2.3,0.5,3.4c0.1,0.5,0.2,1,0.3,1.5s0.2,1,0.3,1.5
				c0.1,0.4,0.1,0.8,0.1,1.2c-0.1,0.4-0.1,0.8-0.2,1.2c-0.1,0.7-0.2,1.4-0.3,2.1s-0.4,1.3-0.9,1.9l-0.5,0.5c-0.4,0.4-1,0.6-1.7,0.6
				c-0.6,0.3-1.3,0.5-2.2,0.7s-1.9,0.3-2.9,0.3s-1.9-0.2-2.7-0.5c-0.8-0.3-1.3-0.8-1.6-1.6c-0.7-2.3-1.4-5.1-2.1-8.6
				s-1.4-7.3-2-11.5c-0.7-4.2-1.3-8.5-1.9-13.1c-0.6-4.6-1.2-9.1-1.7-13.5s-1-8.7-1.4-12.7s-0.8-7.6-1.1-10.7
				c-0.3-3.1-0.5-5.6-0.7-7.4c-0.1-1.9-0.2-2.9-0.2-3c0.1-0.2,0.3-0.4,0.7-0.6s1-0.4,1.5-0.6c0.6-0.2,1.2-0.3,1.8-0.5
				c0.6-0.1,1.1-0.3,1.4-0.4c0.1-0.1,0.2-0.1,0.3-0.1s0.1,0,0.1-0.1v0.1c0.3-0.1,0.6-0.2,1-0.2c0.3,0,0.6,0,0.9,0
				c0.6,0,1,0.2,1.2,0.6c0.2,0.4,0.5,0.8,0.8,1.3c1.1,1.8,2,3.7,2.7,5.7c0.7,2,1.4,4.1,1.9,6.2c0.4,1.4,0.7,2.9,1,4.3
				c0.2,1.4,0.5,2.9,0.8,4.3c0,0.1,0,0.2,0,0.3c0,0.1,0.1,0.3,0.1,0.5c0.2-0.4,0.4-0.8,0.6-1.2c0.2-0.3,0.3-0.6,0.4-0.9
				c1-2.5,2.5-5,4.2-7.4c1.4-1.9,2.9-3.7,4.4-5.5s3.2-3.5,5.1-5c0.4-0.3,0.8-0.6,1.2-1c0.4-0.3,0.8-0.6,1.3-1c1-0.8,2.1-1.3,3.2-1.4
				c1.1-0.2,2.3-0.2,3.5-0.1c0.5,0.1,0.9,0.2,1.2,0.6c0.3,0.3,0.6,0.7,0.9,1.1c1.2,1.5,2.1,3.1,2.5,4.8
				C-404.4,286.6-404,288.4-403.7,290.2z"/>
			<path class="st3" d="M-346.3,343.1c-1.5,0.2-3,0.3-4.4,0.5s-2.8,0.3-4.3,0.2c-3.1,0-6.2-0.4-9.2-1.1s-6-1.6-9-2.7
				c-2.5-0.9-5-2-7.4-3.2s-4.7-2.6-6.9-4.1c-1.9-1.3-3.6-2.7-5.2-4.3c-1.6-1.6-2.9-3.4-3.9-5.5c-1.3-2.6-2.1-5.6-2.4-8.9
				c-0.3-3.3-0.1-6.5,0.5-9.6s1.5-6,2.9-8.6c1.3-2.6,2.9-4.6,4.7-5.9c0.7-0.5,1.3-1,2-1.4c0.7-0.5,1.4-0.9,2.2-1.3
				c1.9-1,3.9-1.7,5.9-1.9c2-0.2,4.1-0.2,6.2,0.1c2.7,0.3,5.1,0.9,7.4,1.9c2.3,1,4.6,2.1,7,3.2c1.9,0.9,3.7,2,5.5,3.3
				c1.7,1.3,3.4,2.6,5,3.9c0.3,0.3,0.6,0.7,0.8,1.2c0.3,0.5,0.6,0.9,1.1,1.2c0-0.4,0-1.2,0-2.3c0-1.2,0.1-2.4,0.1-3.6
				c0-1.3,0.1-2.5,0.1-3.6s0-1.8,0-2.2c0.2-3.1,0.5-5.9,0.7-8.4s0.5-5.4,0.8-8.4c0.2-2.3,0.5-4.6,0.7-7c0.3-2.3,0.6-4.7,0.8-7
				c0.2-1.3,0.3-2.7,0.5-4c0.2-1.4,0.3-2.7,0.4-4c0.1-0.5,0.1-1.1,0.1-1.7c0-0.6,0-1.1,0-1.7c-0.1-1,0.1-1.9,0.6-2.7
				c0.4-0.8,1-1.5,1.8-2c0.7-0.5,1.6-0.9,2.5-1.1c0.9-0.2,1.8-0.1,2.8,0.2c0.9,0.3,1.5,0.7,2,1.4c0.4,0.7,0.8,1.4,1.1,2.2
				c0.8,2,1.1,4,0.9,6c-0.2,1.7-0.3,3.3-0.5,5s-0.3,3.4-0.4,5c-0.2,2.4-0.3,4.7-0.5,7.1c-0.1,2.4-0.3,4.7-0.4,7.1
				c-0.1,1-0.1,2.5-0.1,4.3c0,1.9-0.1,3.9-0.1,6.2c0,2.3-0.1,4.6-0.1,7s0,4.8,0,7c0,2.3,0,4.3,0,6.2c0,1.9,0,3.3,0,4.3
				c0,2.2,0,4.4,0,6.6s0.1,4.4,0.2,6.7c0.1,2.8,0.2,5.5,0.4,8.2c0.2,2.7,0.3,5.4,0.5,8.2c0.1,1.7,0.2,3.3,0.4,5
				c0.1,1.7,0.2,3.3,0.3,5.1c0.1,1.5,0,3,0,4.5c-0.1,1.5-0.1,3-0.1,4.5c0,0.8-0.2,1.5-0.7,2.2s-1.1,1.3-1.8,1.9
				c-0.7,0.5-1.5,0.9-2.3,1c-0.8,0.2-1.6,0.1-2.4-0.2c-0.6-0.3-1.2-0.5-1.9-0.7c-0.7-0.2-1.2-0.5-1.7-1s-0.9-1-1.2-1.6
				c-0.3-0.6-0.5-1.2-0.5-2c-0.1-2.2-0.2-4.4-0.4-6.6c-0.1-2.2-0.4-4.4-0.7-6.6c-0.1-0.3-0.1-0.5-0.1-0.8
				C-346.2,343.6-346.2,343.3-346.3,343.1z M-383.6,320.9c1.8,1.6,3.8,3.1,5.9,4.5c2.1,1.4,4.3,2.5,6.5,3.5c2.5,1,5,2,7.5,2.8
				s5.1,1.5,7.7,2.1c1.4,0.3,2.9,0.6,4.3,0.8c1.4,0.2,3,0.4,4.6,0.7c0.1-1.2,0.1-2.5,0.2-4c0.1-1.4,0.1-2.9,0-4.3s-0.2-2.8-0.5-4.2
				c-0.2-1.3-0.6-2.6-1.2-3.7c-1.4-2.5-2.8-4.6-4-6.3c-1.2-1.6-2.5-3-3.6-4c-1.2-1-2.3-1.8-3.4-2.5c-1.1-0.7-2.2-1.2-3.3-1.8
				c-2.4-1.2-4.8-2.1-7.3-2.8c-2.5-0.6-5.1-1-7.7-1.1c-2.9-0.1-5.2,0.9-7,3c-1.2,1.8-2,3.7-2.4,5.6c-0.2,0.8-0.2,1.7-0.2,2.6
				s0.1,1.9,0.4,2.9s0.7,2,1.2,3C-385.5,318.9-384.7,320-383.6,320.9z"/>
			<path class="st3" d="M-309.9,351.2c0.2,1.4,0.3,2.8,0.4,4.1c0.1,1.1,0.2,2.2,0.2,3.1s0,1.7-0.1,2.1c-0.3,1-0.7,1.9-1.3,2.4
				c-0.6,0.6-1.4,0.8-2.5,0.7c-1.6-0.2-2.9-0.8-3.8-1.8s-1.7-2.1-2.3-3.4c-0.4-0.8-0.7-1.6-0.9-2.4c-0.2-0.7-0.3-1.4-0.5-2.1
				s-0.3-1.3-0.4-2.1c-0.3-2.9-0.6-5.8-0.9-8.7c-0.3-2.9-0.6-5.8-0.8-8.7c-0.2-2.6-0.4-5.2-0.6-7.7s-0.3-5.1-0.2-7.8
				c0.1-1.5,0.1-3,0-4.5c0-1.5,0-3,0-4.5c0.1-0.9,0.1-1.9,0.1-2.8s0.1-1.8,0.1-2.8c0-0.9,0-1.9,0-2.7c0-0.9,0-1.8,0-2.7
				c0.1-1.1,0.2-2.2,0.5-3.3c0.3-1.3,1.1-2.3,2.4-2.9c1.2-0.6,2.5-0.6,3.7,0c0.4,0.2,0.8,0.5,1.1,0.9c0.3,0.4,0.6,0.7,0.9,1.1
				c0.5,0.8,0.9,1.6,1.1,2.4s0.5,1.7,0.7,2.6c0.5,2.1,0.8,4.2,1,6.3c0.2,2.1,0.3,4.2,0.2,6.3c-0.1,1.4-0.1,2.8,0,4.2
				c0,1.4,0,2.7,0,4.2h0.1c0.1,1.7,0.2,3.3,0.2,4.9s0.1,3.3,0.2,4.9l1.2,17.4c0.1,0.6,0.1,1.2,0.1,1.7
				C-309.9,350-309.9,350.6-309.9,351.2z M-316.3,286.4c-0.3,0.2-0.7,0.3-1.2,0.3c-0.4,0.1-0.9,0-1.3-0.1s-0.8-0.4-1.2-0.9
				c-0.4-0.5-0.6-1.2-0.8-2.1c-0.2-0.9-0.1-1.7,0.1-2.4c0.2-0.6,0.6-1.2,1-1.6c0.4-0.5,1-0.9,1.7-1.2c0.2-0.1,0.5-0.1,1.1,0.2
				c0.6,0.2,1.2,0.5,1.8,0.7c0.7,0.3,1.3,0.9,1.8,1.9s0.8,1.9,0.9,2.6c0,0.4-0.1,0.7-0.4,1c-0.2,0.2-0.6,0.5-1,0.7s-0.8,0.4-1.3,0.5
				C-315.5,286.2-315.9,286.3-316.3,286.4z"/>
			<path class="st3" d="M-286.2,358.5c-1.1,1.7-2.3,2.8-3.7,3.5c-1.4,0.7-2.6,1-3.8,1.2c-1.4,0.2-2.7,0.1-4.1-0.3
				c-0.8-1-1.4-2-1.9-3.1s-0.9-2.3-1.2-3.6c-0.7-3.1-1.1-6.3-1.4-9.5c-0.2-3.2-0.4-6.4-0.5-9.6c-0.1-3-0.2-5.9-0.4-8.8
				c-0.1-2.9-0.2-5.8-0.2-8.8c0-4.1,0-8.2,0.1-12.2c0.1-4.1,0.1-8.2,0.2-12.3c0.1-3.8,0.1-7.6,0-11.4c0-3.8,0-7.6,0.1-11.4
				c0.1-3.3,0.2-6.5,0.3-9.7c0.1-3.2,0.3-6.5,0.4-9.8c0.1-1.6,0.2-3.2,0.3-4.7c0.2-1.5,0.6-3.1,1.2-4.6c0.4-1.1,0.9-2.2,1.6-3.1
				c0.3-0.4,0.6-0.7,1-0.9s0.9-0.2,1.4-0.2c1.3-0.1,2.3,0.2,3.2,0.9c0.9,0.7,1.6,1.5,2.2,2.6c1.3,2.5,2.1,5,2.5,7.7
				c0.4,2.6,0.7,5.3,0.8,8.1c0.1,2.6,0.2,5.2,0.2,7.7c0.1,2.5,0.1,5.1,0.1,7.7c0.1,3.8,0.1,7.6,0.1,11.4s-0.1,7.6-0.2,11.4
				c0,2.5-0.1,5.1-0.2,7.6s-0.2,5-0.3,7.6c-0.1,2.4-0.1,4.8-0.1,7.2c0,2.3,0,4.7,0,7.1c0,1.7,0,3.4,0.1,5.1s0.1,3.3,0.2,5.1
				c0,1.3,0,2.6,0.1,3.9s0.1,2.7,0.1,4c0.1,1.3,0.1,2.5,0,3.8c0,1.2,0,2.5,0,3.8c0.2-0.3,0.4-0.5,0.6-0.8c0.2-0.2,0.4-0.5,0.6-0.8
				c0.5-0.5,1-1,1.4-1.5c0.5-0.5,1-1,1.5-1.4c0.7-0.5,1.5-0.5,2.2,0.1c0.4,0.3,0.6,0.6,0.5,0.9s-0.1,0.7-0.2,1.1
				c-0.6,1.7-1.3,3.3-2.2,4.8C-284.3,355.5-285.2,357-286.2,358.5z"/>
			<path class="st3" d="M-257.2,358.5c-1.1,1.7-2.3,2.8-3.7,3.5c-1.4,0.7-2.6,1-3.8,1.2c-1.4,0.2-2.7,0.1-4.1-0.3
				c-0.8-1-1.4-2-1.9-3.1s-0.9-2.3-1.2-3.6c-0.7-3.1-1.1-6.3-1.4-9.5c-0.2-3.2-0.4-6.4-0.5-9.6c-0.1-3-0.2-5.9-0.4-8.8
				c-0.1-2.9-0.2-5.8-0.2-8.8c0-4.1,0-8.2,0.1-12.2c0.1-4.1,0.1-8.2,0.2-12.3c0.1-3.8,0.1-7.6,0-11.4c0-3.8,0-7.6,0.1-11.4
				c0.1-3.3,0.2-6.5,0.3-9.7c0.1-3.2,0.3-6.5,0.4-9.8c0.1-1.6,0.2-3.2,0.3-4.7c0.2-1.5,0.6-3.1,1.2-4.6c0.4-1.1,0.9-2.2,1.6-3.1
				c0.3-0.4,0.6-0.7,1-0.9s0.9-0.2,1.4-0.2c1.3-0.1,2.3,0.2,3.2,0.9c0.9,0.7,1.6,1.5,2.2,2.6c1.3,2.5,2.1,5,2.5,7.7
				c0.4,2.6,0.7,5.3,0.8,8.1c0.1,2.6,0.2,5.2,0.2,7.7c0.1,2.5,0.1,5.1,0.1,7.7c0.1,3.8,0.1,7.6,0.1,11.4s-0.1,7.6-0.2,11.4
				c0,2.5-0.1,5.1-0.2,7.6s-0.2,5-0.3,7.6c-0.1,2.4-0.1,4.8-0.1,7.2c0,2.3,0,4.7,0,7.1c0,1.7,0,3.4,0.1,5.1s0.1,3.3,0.2,5.1
				c0,1.3,0,2.6,0.1,3.9s0.1,2.7,0.1,4c0.1,1.3,0.1,2.5,0,3.8c0,1.2,0,2.5,0,3.8c0.2-0.3,0.4-0.5,0.6-0.8c0.2-0.2,0.4-0.5,0.6-0.8
				c0.5-0.5,1-1,1.4-1.5c0.5-0.5,1-1,1.5-1.4c0.7-0.5,1.5-0.5,2.2,0.1c0.4,0.3,0.6,0.6,0.5,0.9s-0.1,0.7-0.2,1.1
				c-0.6,1.7-1.3,3.3-2.2,4.8C-255.4,355.5-256.3,357-257.2,358.5z"/>
			<path class="st3" d="M-187.8,363.4c-0.6,0.1-1.2,0-1.8-0.2c-0.5-0.1-1-0.3-1.6-0.7c-0.6-0.3-1.1-0.8-1.6-1.4
				c-1.7-2.4-2.9-4.9-3.8-7.5c-0.9-2.7-1.7-5.4-2.3-8.2c-0.4-1.7-0.7-3.4-1-5.1s-0.5-3.4-0.7-5.2c-0.3-2.6-0.6-5.3-0.9-7.8
				c-0.3-2.6-0.6-5.2-0.9-7.8c-0.1-0.7-0.1-1.4-0.1-2.2c0-0.7-0.1-1.5-0.2-2.3c-0.5,0.6-0.9,1.2-1.3,1.7s-0.6,1.1-0.9,1.7
				c-1,2.6-2.1,5.2-3.4,7.7s-2.6,5-3.9,7.6c-0.6,1-1.1,2.1-1.6,3.2c-0.4,1.1-1,2.1-1.6,3.2c-0.4,0.8-0.9,1.5-1.4,2.2s-1,1.4-1.5,2
				c-1.2,1.5-2.5,2.9-3.8,4.2c-1.3,1.3-2.9,2.4-4.6,3.2c-2.8,1.4-5.7,2-8.8,1.7c-1.4-0.1-2.7-0.6-3.8-1.3c-1.1-0.8-2-1.7-2.9-2.9
				c-0.9-1.2-1.5-2.4-1.9-3.7c-0.4-1.3-0.7-2.7-0.9-4.1c-0.4-2.6-0.5-5.3-0.2-7.9c0.2-2.6,0.6-5.3,1.2-7.9c0.4-1.9,0.9-3.8,1.4-5.7
				c0.5-1.8,1.3-3.7,2.2-5.4c2.1-4.1,5-7.9,8.4-11.2c2.1-2,4.3-3.8,6.5-5.5c2.3-1.7,4.7-3.1,7.4-4.4c2.7-1.3,5.3-2.3,8-3.1
				c2.7-0.8,5.4-1.5,8.2-1.9c0.2,0,0.3,0,0.4-0.1s0.2-0.1,0.3-0.1c0.4-1.4,0.9-2.7,1.2-3.9c0.4-1.2,0.8-2.5,1.2-3.8
				c0.2-0.6,0.5-1,1-1.3c0.5-0.2,1.2-0.3,1.9-0.2c1.4,0.1,2.4,0.7,3.1,1.7s1.1,2,1.2,2.9c0.3,1.3,0.4,2.6,0.3,3.9s-0.2,2.6-0.3,3.9
				c-0.2,3.3-0.3,6.5-0.4,9.7s0,6.5,0.2,9.7c0.3,4.1,0.8,8.1,1.4,12s1.4,7.9,2.3,11.9c0.5,2.4,1,4.7,1.7,7.1c0.6,2.3,1.2,4.7,1.8,7
				c0.3,1.3,0.7,2.6,1.1,3.9s0.8,2.6,1.3,3.9c0.1,0.2,0.1,0.6,0.2,1.2c0.1,0.8,0,1.4-0.2,1.9c-0.3,0.5-0.7,1-1.2,1.5
				c-0.4,0.4-0.9,0.8-1.4,1s-1,0.5-1.5,0.7C-186.6,363.1-187.2,363.3-187.8,363.4z M-227.6,343.1h0.4c0.3-0.1,0.6-0.2,0.7-0.3
				c3.1-1.8,5.5-4.3,7.2-7.5c0.5-0.9,1-1.9,1.4-2.8s0.9-1.9,1.4-2.8c0.9-1.8,1.9-3.5,3-5.1c1.1-1.7,1.9-3.4,2.6-5.4
				c0.6-1.5,1.2-3,1.9-4.4c0.7-1.4,1.4-2.9,2-4.3c0.8-1.9,1.5-3.8,2.3-5.6c0.8-1.9,1.4-3.8,2-5.7c0.2-0.6,0.3-1.2,0.4-1.8
				c0.1-0.6,0.1-1.3-0.1-2c-0.6,0.1-1.2,0.3-1.7,0.5s-1,0.4-1.5,0.7c-2,1-3.9,2-5.8,3.1s-3.7,2.3-5.5,3.6c-1.4,1.1-2.8,2.3-4.1,3.4
				c-1.3,1.2-2.3,2.6-3.1,4.2c-0.3,0.7-0.7,1.4-1,2.1c-0.4,0.7-0.7,1.4-1,2.1c-0.4,1.2-0.9,2.3-1.3,3.5s-0.8,2.4-1,3.6
				c-0.3,1-0.5,2.1-0.6,3.2s-0.2,2.2-0.3,3.3c-0.2,1.8-0.3,3.6-0.3,5.5c0,1.8,0.2,3.6,0.5,5.5c0.1,0.6,0.3,1.2,0.5,1.9
				C-228.3,342-228,342.6-227.6,343.1z"/>
			<path class="st3" d="M-171.3,327.7c1.3,1.2,2.5,2.5,3.6,3.7c1.1,1.3,1.8,2.8,2.1,4.6c0.3,1.6,0.6,3.2,1.1,4.7
				c0.4,1.5,1.1,3,2.1,4.3c0.6,0.8,1.2,1.6,1.9,2.2c0.7,0.6,1.4,1.3,2.2,1.9c0.7,0.5,1.4,0.8,2.2,1c0.8,0.1,1.5,0.2,2.3,0.1
				c0.7-0.1,1.2-0.3,1.7-0.7c0.7-0.6,1.3-1.3,1.8-2c0.6-0.7,1-1.5,1.2-2.5c0.8-2.6,1.2-5.2,1.3-7.8c0.1-2.6-0.2-5.2-1-7.9
				c-0.4-1.7-1-3.2-1.8-4.7s-1.6-2.9-2.6-4.3c-1.1-1.5-2.2-3.1-3.3-4.6c-1.1-1.5-2.1-3-3-4.6c-1.2-1.9-2.2-3.9-3.2-5.9
				s-1.7-4.1-2.3-6.3c-0.4-1.7-0.5-3.3-0.4-5.1c0.1-1.7,0.5-3.4,1-5c0.6-1.6,1.4-3.1,2.4-4.5s2.3-2.6,3.7-3.6
				c0.4-0.3,0.9-0.6,1.3-0.8c0.4-0.3,0.9-0.6,1.3-0.8c1.3-0.8,2.6-1.3,4.1-1.4c1.5-0.2,2.9-0.1,4.3,0.2c1.4,0.3,2.7,0.8,4,1.4
				c1.3,0.7,2.4,1.4,3.3,2.3c1.9,1.9,3.7,4,5.4,6.3c0.6,0.8,1.1,1.7,1.5,2.6s0.8,1.8,1.3,2.8c0.3,0.6,0.5,1.2,0.7,1.7
				c0.2,0.6,0.5,1.1,0.7,1.7c0.3,0.8,0.2,1.5-0.3,2.2c-0.2,0.3-0.4,0.5-0.6,0.7s-0.5,0.2-0.9,0.1c-0.8-0.1-1.2-0.5-1.2-1.2
				c-0.1-0.5-0.2-1-0.3-1.5c-0.1-0.5-0.2-1-0.4-1.4c-0.7-1.8-1.6-3.4-2.7-4.9s-2.5-2.8-4.1-3.8c-0.7-0.4-1.4-0.8-2.2-1
				c-0.8-0.2-1.6-0.5-2.4-0.7c-0.5-0.1-1-0.1-1.5,0s-0.9,0.4-1.3,0.9c-1,1.2-1.9,2.5-2.6,3.8s-1,2.8-1.2,4.4c-0.1,0.8,0,1.5,0.2,2.2
				s0.5,1.4,0.8,2c1.1,2.2,2.3,4.3,3.6,6.3c1.3,2,2.6,4,4,6c1.1,1.5,2.2,3,3.1,4.6c1,1.5,1.9,3.1,2.8,4.8c2.4,4.4,3.7,9.1,4,14.2
				c0.1,2.6,0,5.2-0.2,7.7s-0.8,5-1.5,7.5c-0.8,2.9-2,5.5-3.7,7.6s-4,3.8-6.8,5c-1.2,0.5-2.4,0.8-3.6,0.8c-1.2,0.1-2.5,0-3.7-0.1
				c-3.9-0.3-7.4-1.6-10.6-3.7c-1.2-0.9-2.3-1.8-3.4-2.9c-1-1-2-2.1-2.9-3.2c-2.3-2.9-3.8-6.2-4.7-9.8c-0.4-1.5-0.5-3-0.4-4.4
				c0.1-1.5,0.4-2.9,0.9-4.3c0.4-1.2,0.8-2.4,1.3-3.5C-172.2,330.2-171.7,329-171.3,327.7z"/>
		</g>
	</g>
</g>
</svg>
