<?xml version="1.0" encoding="iso-8859-1"?>
<!-- Generator: Adobe Illustrator 19.0.0, SVG Export Plug-In . SVG Version: 6.00 Build 0)  -->
<svg xmlns="http://www.w3.org/2000/svg" xmlns:xlink="http://www.w3.org/1999/xlink" version="1.1" id="Layer_1" x="0px" y="0px" viewBox="0 0 511.999 511.999" style="enable-background:new 0 0 511.999 511.999;" xml:space="preserve">
<g>
	<path style="fill:#3E9C06;" d="M256.02,325.345c15.016,0,29.148,3.78,41.505,10.429c16.211-34.467,31.014-80.243,31.014-130.476   c0-107.199-61.441-194.102-72.062-194.102c-10.621,0-72.062,86.903-72.062,194.102c0,49.969,14.906,95.524,31.173,129.927   C227.69,328.926,241.433,325.345,256.02,325.345z"/>
	<path style="fill:#3E9C06;" d="M453.25,261.702c42.032-60.767,52.095-131.84,47.133-137.501   c-5.568-6.35-83.323,8.873-139.513,72.966c-15.454,17.627-27.383,37.439-36.519,56.943l-23.002,83.841l37.044,31.258   L453.25,261.702z"/>
	<path style="fill:#3E9C06;" d="M58.747,261.702c-42.032-60.767-52.095-131.84-47.133-137.501   c5.568-6.35,83.323,8.873,139.513,72.966c15.454,17.627,26.757,37.744,36.519,56.943c14.978,29.46,16.911,53.626,25.344,75.486   c-15.323,17.979-28.574,27.081-28.574,27.081L58.747,261.702z"/>
</g>
<g>
	<circle style="fill:#0034B7;" cx="256.017" cy="413.071" r="87.728"/>
	<path style="fill:#0034B7;" d="M183.435,363.798c1.606-6.639,2.478-13.564,2.478-20.697c0-48.451-39.277-87.728-87.728-87.728   S10.458,294.65,10.458,343.1s39.277,87.728,87.728,87.728c30.183,0,56.8-15.246,72.584-38.452   C173.278,382.011,177.612,372.36,183.435,363.798z"/>
	<path style="fill:#0034B7;" d="M413.589,255.373c-48.451,0-87.728,39.277-87.728,87.728c0,6.936,0.83,13.674,2.351,20.145   c6.121,8.851,10.645,18.881,13.184,29.682c15.831,22.892,42.252,37.9,72.192,37.9c48.451,0,87.728-39.277,87.728-87.728   C501.316,294.65,462.039,255.373,413.589,255.373z"/>
</g>
<path d="M220.813,467.583c-2.287,0-4.591-0.748-6.516-2.288c-15.962-12.768-25.117-31.801-25.117-52.221  c0-36.856,29.984-66.84,66.84-66.84c5.767,0,10.444,4.676,10.444,10.444c0,5.768-4.677,10.444-10.444,10.444  c-25.339,0-45.953,20.614-45.953,45.953c0,14.04,6.297,27.128,17.276,35.909c4.504,3.603,5.235,10.175,1.632,14.68  C226.912,466.241,223.877,467.583,220.813,467.583z"/>
<path d="M256.477,479.913c-2.674,0-5.345-1.019-7.385-3.059l-0.097-0.097c-4.078-4.078-4.078-10.691,0-14.771  c4.079-4.078,10.69-4.078,14.771,0l0.097,0.097c4.078,4.078,4.078,10.691,0,14.771C261.822,478.894,259.15,479.913,256.477,479.913z  "/>
<path d="M62.98,397.61c-2.287,0-4.591-0.748-6.516-2.288C40.501,382.554,31.346,363.52,31.346,343.1  c0-36.856,29.984-66.84,66.84-66.84c5.767,0,10.444,4.676,10.444,10.444c0,5.768-4.677,10.444-10.444,10.444  c-25.339,0-45.953,20.614-45.953,45.953c0,14.04,6.297,27.128,17.276,35.909c4.504,3.603,5.235,10.175,1.632,14.68  C69.08,396.268,66.044,397.61,62.98,397.61z"/>
<path d="M98.643,409.941c-2.674,0-5.345-1.019-7.385-3.059l-0.097-0.097c-4.078-4.078-4.078-10.691,0-14.771  c4.079-4.078,10.69-4.078,14.771,0l0.097,0.097c4.078,4.078,4.078,10.691,0,14.771C103.988,408.921,101.317,409.941,98.643,409.941z  "/>
<path d="M378.382,397.61c-2.287,0-4.591-0.748-6.516-2.288c-15.962-12.768-25.117-31.801-25.117-52.221  c0-36.856,29.984-66.84,66.84-66.84c5.767,0,10.444,4.676,10.444,10.444c0,5.768-4.677,10.444-10.444,10.444  c-25.339,0-45.953,20.614-45.953,45.953c0,14.04,6.297,27.128,17.276,35.909c4.504,3.603,5.235,10.175,1.632,14.68  C384.482,396.268,381.446,397.61,378.382,397.61z"/>
<path d="M414.045,409.941c-2.674,0-5.345-1.019-7.385-3.059l-0.097-0.097c-4.078-4.078-4.078-10.691,0-14.771  c4.079-4.078,10.69-4.078,14.771,0l0.097,0.097c4.078,4.078,4.078,10.691,0,14.771C419.39,408.921,416.719,409.941,414.045,409.941z  "/>
<path d="M257.911,139.876c-0.567,0-1.142-0.046-1.719-0.142c-5.69-0.943-9.539-6.321-8.595-12.01l0.088-0.53  c0.942-5.691,6.314-9.534,12.01-8.596c5.69,0.943,9.539,6.321,8.595,12.01l-0.088,0.53  C267.355,136.25,262.928,139.876,257.911,139.876z"/>
<path d="M466.604,260.51c20.613-31.886,31.946-63.725,37.907-85.461c4.35-15.862,6.15-27.465,6.896-34.406  c1.563-14.574-0.137-19.865-3.172-23.326c-3.838-4.377-9.75-4.884-13.863-4.884c-22.902,0-90.293,19.604-141.355,77.85  c-4.899,5.588-9.587,11.547-14.061,17.838c0.01-0.941,0.027-1.879,0.027-2.823c0-59.632-17.978-109.989-33.059-141.733  c-7.776-16.37-16.763-31.754-25.304-43.32C267.933,3.068,261.295,0.752,256.477,0.752c-4.819,0-11.457,2.315-24.142,19.493  c-8.542,11.566-17.528,26.951-25.304,43.32c-15.081,31.744-33.059,82.101-33.059,141.733c0,1.404,0.019,2.801,0.042,4.196  c-4.764-6.8-9.777-13.218-15.032-19.211c-51.065-58.246-118.453-77.85-141.356-77.85c-0.001,0-0.001,0-0.002,0  c-4.113,0-10.025,0.507-13.862,4.884c-3.034,3.461-4.734,8.752-3.171,23.326c0.746,6.941,2.546,18.544,6.896,34.406  c5.954,21.713,17.27,53.508,37.841,85.359c-27.231,17.467-45.311,48.009-45.311,82.694c0,54.132,44.039,98.172,98.172,98.172  c22.001,0,43.003-7.364,59.966-20.457c3.96,50.527,46.34,90.431,97.867,90.431c51.469,0,93.809-39.814,97.852-90.259  c16.932,12.984,37.857,20.286,59.716,20.286c54.132,0,98.172-44.039,98.172-98.172C511.76,308.483,493.748,277.994,466.604,260.51z   M368.723,204.052c46.061-52.54,104.128-68.753,122.392-70.588c-0.869,17.765-11.956,70.02-43.302,117.624  c-10.662-3.979-22.193-6.159-34.225-6.159c-51.475,0-93.821,39.824-97.853,90.28c-1.591-1.223-3.216-2.403-4.881-3.529  c8.593-19.577,17.524-44.647,22.956-73.143C343.598,237.644,355.344,219.314,368.723,204.052z M223.233,78.28  c13.047-28.928,26.618-47.651,33.244-54.571c6.626,6.92,20.196,25.643,33.244,54.571c12.945,28.701,28.375,74.034,28.375,127.018  c0,46.137-13.149,87.518-25.744,116.566l0.011,0.015c-8.017-3.206-16.552-5.382-25.442-6.368V161.727  c0-5.768-4.677-10.444-10.444-10.444s-10.444,4.676-10.444,10.444v153.68c-8.807,0.894-17.272,2.962-25.239,6.036  c-12.678-29.03-25.935-70.341-25.935-116.145C194.858,152.314,210.289,106.98,223.233,78.28z M20.882,133.464  c18.268,1.836,76.335,18.053,122.392,70.588c13.381,15.263,26.628,35.917,36.415,56.811c0.004,0.008,0.008,0.016,0.013,0.024  c5.487,27.191,14.141,51.207,22.486,70.132c-2.101,1.384-4.147,2.844-6.133,4.38c-3.94-50.546-46.33-90.47-97.871-90.47  c-11.964,0-23.434,2.155-34.047,6.091C32.828,203.434,21.751,151.22,20.882,133.464z M98.187,420.384  c-42.615,0-77.284-34.669-77.284-77.284s34.669-77.284,77.284-77.284s77.284,34.669,77.284,77.284c0,5.56-0.615,11.141-1.818,16.618  c-5.581,8.587-9.857,18.096-12.544,28.244C146.587,408.296,123.203,420.384,98.187,420.384z M256.02,490.357  c-42.615,0-77.284-34.669-77.284-77.284s34.669-77.284,77.284-77.284s77.284,34.669,77.284,77.284S298.634,490.357,256.02,490.357z   M413.589,420.384c-24.736,0-47.956-11.878-62.505-31.86c-2.738-10.595-7.21-20.498-13.085-29.397  c-1.122-5.301-1.694-10.683-1.694-16.027c0-42.615,34.669-77.284,77.284-77.284s77.284,34.669,77.284,77.284  S456.202,420.384,413.589,420.384z"/>
<g>
</g>
<g>
</g>
<g>
</g>
<g>
</g>
<g>
</g>
<g>
</g>
<g>
</g>
<g>
</g>
<g>
</g>
<g>
</g>
<g>
</g>
<g>
</g>
<g>
</g>
<g>
</g>
<g>
</g>
</svg>
