<?xml version="1.0" encoding="iso-8859-1"?>
<!-- Generator: Adobe Illustrator 19.0.0, SVG Export Plug-In . SVG Version: 6.00 Build 0)  -->
<svg xmlns="http://www.w3.org/2000/svg" xmlns:xlink="http://www.w3.org/1999/xlink" version="1.1" id="Layer_1" x="0px" y="0px" viewBox="0 0 511.999 511.999" style="enable-background:new 0 0 511.999 511.999;" xml:space="preserve">
<g>
	<path style="fill:#3E9C06;" d="M392.263,31.668c-28.335-28.335-74.276-28.335-102.611,0s-28.335,74.276,0,102.611   c27.947,27.947,12.961,89.332,2.031,100.264c50.802-50.802,100.582-100.264,100.582-100.264   C420.599,105.944,420.599,60.004,392.263,31.668z"/>
	<path style="fill:#3E9C06;" d="M476.099,179.679c19.626,27.824,12.979,66.29-14.846,85.916   c-27.824,19.626-66.29,12.979-85.916-14.845c-19.357-27.443-72.922-23.777-83.656-16.205   c49.886-35.187,98.502-69.711,98.502-69.711C418.007,145.207,456.474,151.854,476.099,179.679z"/>
</g>
<path style="fill:#FF7031;" d="M295.388,437.76c54.384-54.384,52.124-144.818-5.049-201.99s-147.606-59.432-201.99-5.049  C45.272,273.799,37.743,339.492,64.885,393.36c8.549,20.865-1.803,54.972-40.253,108.21c0,0-0.094-0.094,0,0  c53.239-38.45,87.529-49.358,108.222-40.284l-0.047-0.033C186.664,488.361,252.326,480.822,295.388,437.76z"/>
<path d="M204.478,353.811c-2.677,0-5.352-1.021-7.394-3.063l-29.17-29.17c-4.083-4.083-4.083-10.705,0-14.789  c4.085-4.083,10.704-4.083,14.789,0l29.17,29.17c4.083,4.083,4.083,10.705,0,14.789C209.83,352.79,207.155,353.811,204.478,353.811z  "/>
<path d="M165.571,386.576c-2.751,0-5.449-1.108-7.393-3.064c-1.945-1.945-3.064-4.643-3.064-7.393c0-2.75,1.118-5.448,3.064-7.393  c1.944-1.945,4.642-3.064,7.393-3.064c2.75,0,5.448,1.119,7.392,3.064c1.945,1.945,3.065,4.643,3.065,7.393  c0,2.75-1.119,5.448-3.065,7.393C171.019,385.468,168.321,386.576,165.571,386.576z"/>
<path d="M484.645,173.651L484.645,173.651c-22.341-31.672-65.736-39.859-98.034-19.002c8.06-8.018,12.887-12.815,13.047-12.974  c32.367-32.368,32.367-85.032,0-117.4l0,0c-32.369-32.368-85.034-32.367-117.402,0c-32.367,32.368-32.367,85.032,0,117.401  c13.239,13.239,13.555,35.933,12.566,48.283c-0.977,12.19-3.849,22.842-6.542,29.682c-61.348-52.489-151.874-51.764-207.327,3.687  C35.931,268.35,25.665,338.356,55.342,397.662c5.053,12.914,2.266,40.215-38.731,97.152c-3.469,4.112-3.154,10.381,0.642,14.167  c3.601,3.593,9.415,4.023,13.528,1.047c58.32-42.113,85.365-44.583,97.791-39.2c59.279,29.599,129.227,19.309,174.21-25.674  c28.347-28.348,43.394-66.562,42.369-107.605c-0.888-35.552-13.767-69.53-36.578-97.229c5.582-0.765,12.887-1.141,21.107-0.358  c10.11,0.963,28.376,4.427,37.112,16.814c14.03,19.89,36.36,30.522,59.027,30.522c14.361,0,28.861-4.271,41.461-13.158  C499.773,251.222,507.562,206.142,484.645,173.651z M322.911,322.213l-34.372-34.372c-4.085-4.083-10.704-4.083-14.789,0  c-4.083,4.083-4.083,10.705,0,14.789l50.053,50.053c-2.509,29.636-14.942,56.813-35.811,77.682l0,0  c-9.137,9.137-19.49,16.594-30.644,22.325l-59.692-59.692c-4.085-4.083-10.704-4.083-14.789,0c-4.083,4.083-4.083,10.705,0,14.789  l53.4,53.4c-12.031,3.622-24.623,5.471-37.37,5.47c-20.645-0.001-41.697-4.832-61.389-14.744c-0.35-0.176-0.706-0.33-1.065-0.463  c-18.887-7.952-43.875-3.112-77.039,15.24c17.955-32.892,22.906-58.375,15.154-77.294c-0.102-0.251-0.215-0.499-0.337-0.74  c-14.693-29.161-18.23-61.285-11.448-90.697l24.04,24.04c2.042,2.042,4.718,3.063,7.394,3.063c2.676,0,5.352-1.022,7.394-3.063  c4.083-4.083,4.083-10.705,0-14.788l-31.487-31.488c6.046-13.82,14.618-26.594,25.629-37.605c2.71-2.71,5.524-5.26,8.422-7.665  c0.42,0.682,0.915,1.33,1.506,1.921l31.66,31.66c2.042,2.042,4.718,3.063,7.394,3.063c2.676,0,5.352-1.021,7.394-3.063  c4.083-4.083,4.083-10.705,0-14.789l-30.745-30.745c19.332-11.093,41.191-16.616,63.324-16.616  c35.061,0,70.804,13.842,98.244,41.282C304.817,265.038,318.688,292.656,322.911,322.213z M315.221,196.252  c0.175-1.534,0.325-3.075,0.449-4.623c2.206-27.533-4.408-50.526-18.624-64.742c-24.212-24.213-24.212-63.611,0-87.823  c12.106-12.107,28.009-18.16,43.911-18.16c15.903,0,31.806,6.054,43.912,18.16l0,0c24.212,24.213,24.212,63.611,0.024,87.8  C384.5,127.255,353.176,158.38,315.221,196.252z M455.226,257.049c-23.069,16.271-55.073,10.74-71.344-12.328  c-10.061-14.264-28.612-23.341-52.264-25.583c35.572-25.153,64.241-45.511,64.592-45.761c23.071-16.271,55.074-10.74,71.345,12.328  l0,0C483.825,208.773,478.294,240.778,455.226,257.049z"/>
<g>
</g>
<g>
</g>
<g>
</g>
<g>
</g>
<g>
</g>
<g>
</g>
<g>
</g>
<g>
</g>
<g>
</g>
<g>
</g>
<g>
</g>
<g>
</g>
<g>
</g>
<g>
</g>
<g>
</g>
</svg>
