<?xml version="1.0" encoding="iso-8859-1"?>
<!-- Generator: Adobe Illustrator 19.0.0, SVG Export Plug-In . SVG Version: 6.00 Build 0)  -->
<svg xmlns="http://www.w3.org/2000/svg" xmlns:xlink="http://www.w3.org/1999/xlink" version="1.1" id="Layer_1" x="0px" y="0px" viewBox="0 0 512.001 512.001" style="enable-background:new 0 0 512.001 512.001;" xml:space="preserve">
<rect x="160.841" y="55.347" style="fill:#9E612A;" width="190.183" height="75.237"/>
<path style="fill:#FFFFFF;" d="M351.158,130.585h-95.092h-95.224c0,0-135.845,61.653-135.845,103.451  c0,76.282,100.825,267.515,100.825,267.515c28.695,0,130.244,0,130.244,0c3.871,0,101.417,0,130.112,0  c0,0,100.825-183.618,100.825-267.515C487.003,192.237,351.158,130.585,351.158,130.585z"/>
<path style="fill:#F29C0B;" d="M386.178,501.551c0,0,89.468-162.937,99.843-251.966l-2.634-7.715  c-23.609-7.624-32.866-30.199-64.312-30.199h-0.091c-37.833,0-43.538,32.688-80.771,32.688c-37.233,0-45.64-32.688-80.769-32.688  c-19.397,0-31.013,9.965-43.595,18.891c0,0-11.755,13.797-35.515,13.797s-39.416-14.244-39.416-14.244  c-12.341-8.808-23.892-18.444-42.966-18.444c-29.336,0-40.041,22.793-64.458,30.31l-4.112,15.677  c15.241,86.09,98.44,243.894,98.44,243.894c28.695,0,130.244,0,130.244,0C259.937,501.551,357.483,501.551,386.178,501.551z"/>
<path style="fill:#B74A00;" d="M225.981,448.652l26.961,7.225c8.919,2.39,18.087-2.903,20.477-11.823l0,0  c2.39-8.919-2.903-18.087-11.823-20.477l-94.903-25.429c-8.919-2.39-18.087,2.903-20.477,11.823l0,0  c-2.39,8.919,2.903,18.087,11.823,20.477l7.242,1.94L225.981,448.652z"/>
<path d="M195.921,451.048c-0.902,0-1.817-0.117-2.729-0.364c-5.572-1.504-8.895-7.248-7.39-12.82  c1.504-5.572,7.21-8.875,12.786-7.371l0.051,0.014c5.572,1.504,8.869,7.241,7.365,12.812  C204.746,447.979,200.528,451.048,195.921,451.048z"/>
<g>
	<path style="fill:#B74A00;" d="M281.643,428.948c8.919,2.39,18.087-2.903,20.477-11.823l0,0c2.39-8.919-2.903-18.087-11.823-20.477   l-135.016-36.177c-8.919-2.39-18.087,2.903-20.477,11.823l0,0c-2.39,8.919,2.903,18.087,11.823,20.477L281.643,428.948z"/>
	<path style="fill:#B74A00;" d="M192.701,301.261c-8.919-2.39-18.087,2.903-20.477,11.823l0,0   c-2.39,8.919,2.903,18.087,11.823,20.477l94.838,25.411c8.919,2.39,18.087-2.903,20.477-11.823l0,0   c2.39-8.919-2.903-18.087-11.823-20.477L192.701,301.261z"/>
	<path style="fill:#B74A00;" d="M163.936,328.172c-8.919-2.39-18.087,2.903-20.477,11.823l0,0   c-2.389,8.92,2.904,18.087,11.823,20.477l135.016,36.178c8.919,2.39,18.087-2.903,20.477-11.823l0,0   c2.39-8.919-2.903-18.087-11.823-20.477L163.936,328.172z"/>
	<polygon style="fill:#B74A00;" points="326.704,55.347 336.414,19.105 304.115,10.45 292.085,55.347  "/>
	<polygon style="fill:#B74A00;" points="271.924,130.585 223.949,309.634 256.248,318.288 306.543,130.585  "/>
</g>
<path d="M373.046,437.464c-1.154,0-2.328-0.193-3.478-0.599c-5.442-1.921-8.296-7.889-6.376-13.332  c1.921-5.442,7.891-8.311,13.337-6.389c5.442,1.921,8.3,7.877,6.38,13.319l-0.009,0.026  C381.386,434.782,377.353,437.464,373.046,437.464z"/>
<path d="M384.114,408.615c-1.245,0-2.51-0.224-3.742-0.697c-5.388-2.068-8.079-8.112-6.012-13.499l47.415-123.558  c2.068-5.388,8.113-8.081,13.5-6.012c5.388,2.068,8.079,8.112,6.012,13.499l-47.415,123.558  C392.277,406.063,388.316,408.615,384.114,408.615z"/>
<path d="M282.217,103.415h-0.137c-5.77,0-10.45-4.678-10.45-10.45s4.679-10.45,10.45-10.45h0.137c5.77,0,10.45,4.678,10.45,10.45  S287.989,103.415,282.217,103.415z"/>
<path d="M176.722,254.808h-0.052c-5.77,0-10.45-4.678-10.45-10.45c0-5.654,4.49-10.258,10.099-10.444  c0.252-0.007,0.497-0.009,0.745,0c5.614,0.181,10.108,4.788,10.108,10.444C187.172,250.129,182.493,254.808,176.722,254.808z"/>
<path d="M424.507,157.706c-26.032-15.82-51.703-28.452-63.032-33.835V55.347c0-5.771-4.679-10.45-10.45-10.45h-10.704l6.186-23.088  c1.494-5.574-1.814-11.304-7.389-12.798l-32.3-8.655c-2.676-0.717-5.528-0.342-7.929,1.044c-2.4,1.386-4.152,3.668-4.868,6.345  l-9.955,37.153H160.842c-5.77,0-10.45,4.678-10.45,10.45v68.586c-11.397,5.419-36.97,18.015-62.9,33.772  c-49.085,29.829-72.946,54.796-72.946,76.33c0,77.972,97.865,264.487,102.032,272.389c1.808,3.43,5.367,5.576,9.244,5.576h260.355  c3.813,0,7.324-2.077,9.16-5.42c4.169-7.594,102.116-186.951,102.116-272.544C497.453,212.501,473.592,187.534,424.507,157.706z   M413.803,175.657c39.558,24.057,54.326,40.181,59.73,49.535c-2.484-1.698-4.923-3.539-7.414-5.421  c-11.507-8.695-24.549-18.55-47.137-18.55c-22.497,0-35.537,9.858-47.042,18.555c-10.444,7.896-18.693,14.132-33.729,14.132  c-15.466,0-24.741-6.802-35.48-14.677c-2.46-1.805-4.999-3.656-7.66-5.46l19.491-72.738h34.297  C356.609,144.652,385.408,158.388,413.803,175.657z M311.505,23.248l12.112,3.245l-4.932,18.404h-12.982L311.505,23.248z   M171.291,103.415h76.984c5.77,0,10.45-4.678,10.45-10.45s-4.679-10.45-10.45-10.45h-76.984V65.797h120.794h34.619h13.872v16.719  h-26.124c-5.77,0-10.45,4.678-10.45,10.45s4.679,10.45,10.45,10.45h26.124v16.719h-34.031h-34.619H171.291V103.415z   M157.986,350.378c-3.339-0.894-5.328-4.34-4.433-7.679c0.75-2.798,3.288-4.648,6.058-4.648c0.536,0,1.079,0.069,1.622,0.214  l20.109,5.388h0.001l94.838,25.411l0.006,0.001l20.061,5.375c1.618,0.434,2.97,1.471,3.807,2.922  c0.838,1.45,1.061,3.139,0.627,4.757c-0.434,1.618-1.471,2.97-2.922,3.808s-3.136,1.06-4.758,0.627L157.986,350.378z   M292.025,414.421c-0.895,3.34-4.335,5.328-7.679,4.434l-20.038-5.369c-0.002-0.001-0.004-0.001-0.006-0.002L169.4,388.054  c-0.006-0.001-0.013-0.003-0.019-0.004l-20.051-5.372c-3.339-0.894-5.328-4.34-4.433-7.679c0.434-1.618,1.47-2.97,2.922-3.807  c1.449-0.837,3.135-1.06,4.758-0.627l135.016,36.178c1.618,0.434,2.97,1.471,3.807,2.921  C292.236,411.113,292.459,412.803,292.025,414.421z M289.268,344.445c-0.896,3.34-4.336,5.326-7.675,4.435l-94.842-25.414  c-3.339-0.896-5.327-4.34-4.433-7.678c0.75-2.798,3.289-4.648,6.058-4.648c0.536,0,1.079,0.069,1.622,0.214l31.247,8.372h0.001  l32.299,8.654c0,0,0.001,0,0.002,0l31.288,8.384c1.618,0.434,2.97,1.471,3.807,2.921  C289.479,341.139,289.701,342.827,289.268,344.445z M248.859,305.491l-1.048-0.281l-11.064-2.965l21.464-80.103  c4.607,0.082,8.66,0.879,12.394,2.193L248.859,305.491z M263.729,201.548l16.215-60.514h12.983l-16.898,63.063  C272.257,202.879,268.181,201.989,263.729,201.548z M379.938,491.101H132.174c-15.103-29.343-84.47-166.988-95.302-239.896  c10.573-3.709,18.817-9.75,26.146-15.124c10.219-7.492,19.044-13.963,32.934-13.963c14.071,0,23.173,6.583,33.712,14.207  c1.059,0.766,2.117,1.532,3.183,2.292c4.697,3.353,11.223,2.262,14.576-2.435c3.352-4.697,2.262-11.223-2.435-14.576  c-1.028-0.735-2.052-1.475-3.075-2.215c-11.776-8.519-25.122-18.173-45.96-18.173c-20.73,0-33.778,9.567-45.291,18.008  c-4.597,3.371-9.036,6.611-13.827,9.185c3.702-8.631,16.816-25.664,61.363-52.757c28.396-17.269,57.194-31.004,64.945-34.623h95.166  l-16.674,62.228c-12.34,3.279-21.661,9.991-30.15,16.131c-1.224,0.885-2.448,1.771-3.682,2.647  c-4.707,3.34-5.814,9.862-2.474,14.569c3.338,4.705,9.861,5.815,14.569,2.476c1.285-0.912,2.561-1.835,3.837-2.758  c3.771-2.728,7.361-5.316,11.058-7.524l-18.229,68.033l-21.154-5.669c-14.473-3.882-29.398,4.741-33.275,19.211  c-0.609,2.275-0.91,4.561-0.927,6.815c-5.263-0.321-10.508,0.902-15.179,3.6c-6.285,3.628-10.78,9.487-12.659,16.497  c-1.63,6.083-1.045,12.242,1.247,17.632c-4.839,3.63-8.312,8.733-9.902,14.667c-3.388,12.644,2.764,25.635,14.023,31.301  c-1.114,1.964-2,4.097-2.611,6.377c-3.876,14.471,4.742,29.397,19.213,33.274l7.242,1.94c5.574,1.495,11.304-1.814,12.798-7.389  c1.494-5.574-1.814-11.304-7.389-12.799l-7.242-1.94c-3.339-0.895-5.328-4.34-4.434-7.678c0.894-3.337,4.335-5.321,7.671-4.436  l94.913,25.431c1.617,0.434,2.969,1.471,3.805,2.921c0.838,1.45,1.061,3.14,0.627,4.758c-0.896,3.341-4.339,5.326-7.679,4.434  l-26.962-7.225c-5.568-1.494-11.303,1.815-12.798,7.389s1.814,11.304,7.388,12.799l26.963,7.225  c2.347,0.629,4.703,0.929,7.025,0.929c11.994,0,23.002-8.017,26.249-20.14c0.611-2.283,0.911-4.577,0.927-6.837  c0.509,0.029,1.018,0.049,1.524,0.049c11.994,0,23.002-8.017,26.249-20.14c1.63-6.083,1.045-12.243-1.247-17.632  c4.839-3.629,8.312-8.733,9.902-14.668c3.388-12.643-2.764-25.634-14.023-31.3c1.114-1.964,2-4.097,2.611-6.376  c3.878-14.471-4.74-29.398-19.212-33.275l-21.197-5.679l20.257-75.598c0.356,0.261,0.711,0.519,1.069,0.783  c11.967,8.776,25.531,18.723,47.838,18.723c22.048,0,34.949-9.754,46.333-18.36c10.17-7.688,18.953-14.327,34.53-14.327  c15.488,0,24.275,6.639,34.447,14.325c6.238,4.714,13.193,9.957,21.932,13.612C465.826,327,395.255,462.416,379.938,491.101z"/>
<g>
</g>
<g>
</g>
<g>
</g>
<g>
</g>
<g>
</g>
<g>
</g>
<g>
</g>
<g>
</g>
<g>
</g>
<g>
</g>
<g>
</g>
<g>
</g>
<g>
</g>
<g>
</g>
<g>
</g>
</svg>
