<?xml version="1.0" encoding="iso-8859-1"?>
<!-- Generator: Adobe Illustrator 19.0.0, SVG Export Plug-In . SVG Version: 6.00 Build 0)  -->
<svg xmlns="http://www.w3.org/2000/svg" xmlns:xlink="http://www.w3.org/1999/xlink" version="1.1" id="Layer_1" x="0px" y="0px" viewBox="0 0 512.001 512.001" style="enable-background:new 0 0 512.001 512.001;" xml:space="preserve">
<path style="fill:#FF7031;" d="M256.001,10.449c-119.216,0-215.86,113.556-215.86,253.636c0,108.662,58.161,201.348,139.894,237.465  c-14.087-18.361-22.553-41.913-22.553-67.596c0-58.628,44.108-106.156,98.519-106.156s98.519,47.528,98.519,106.156  c0,25.684-8.466,49.235-22.553,67.596c81.734-36.117,139.894-128.803,139.894-237.465  C471.862,124.005,375.218,10.449,256.001,10.449z"/>
<path d="M184.118,270.95c-0.958,0-1.931-0.133-2.896-0.411l-0.282-0.08c-5.546-1.598-8.746-7.387-7.149-12.933  c1.597-5.546,7.388-8.746,12.933-7.148l0.282,0.08c5.546,1.598,8.746,7.387,7.149,12.933  C192.833,267.97,188.655,270.95,184.118,270.95z"/>
<path d="M416.596,77.965C373.807,27.689,316.774,0,256.001,0S138.197,27.689,95.408,77.965  c-42.377,49.793-65.716,115.891-65.716,186.12c0,54.511,14.103,106.834,40.785,151.312c26.254,43.765,62.677,76.861,105.334,95.711  c4.369,1.93,9.488,0.653,12.437-3.1c2.951-3.753,2.982-9.03,0.075-12.818c-13.15-17.14-20.393-38.888-20.393-61.235  c0-52.774,39.509-95.707,88.069-95.707s88.069,42.934,88.069,95.707c0,22.347-7.243,44.095-20.393,61.235  c-2.907,3.788-2.876,9.064,0.075,12.818c2.029,2.583,5.086,3.993,8.218,3.991c1.42,0,2.856-0.289,4.219-0.892  c42.656-18.85,79.08-51.946,105.334-95.711c26.682-44.478,40.785-96.801,40.785-151.312  C482.31,193.856,458.971,127.758,416.596,77.965z M446.171,172.197c-45.336,53.283-110.069,84.801-179.721,87.675v-90.804  c54.64-3.57,103.419-34.953,129.38-82.95C417.483,109.979,434.787,139.293,446.171,172.197z M266.45,21.21  c42.655,2.542,81.913,20.573,113.855,49.409c-21.497,44.399-64.879,73.83-113.855,77.518V21.21L266.45,21.21z M245.552,148.139  c-49.047-3.679-92.356-33.094-113.852-77.523C163.643,41.782,202.9,23.753,245.552,21.21V148.139z M58.951,332.376  c31.903,19.595,66.268,34.17,102.584,43.507c-9.22,17.109-14.499,36.942-14.499,58.071c0,14.169,2.43,28.155,7.056,41.255  C107.948,443.835,73.881,392.208,58.951,332.376z M173.872,357.407c-43.323-10.199-83.803-28.215-120.487-53.613  c-1.838-12.996-2.793-26.269-2.793-39.709c0-23.721,2.896-46.654,8.27-68.345c26.097,27.73,57.901,49.842,92.961,64.482  c1.317,0.55,2.679,0.809,4.023,0.809c4.089,0,7.973-2.417,9.645-6.425c2.224-5.325-0.29-11.445-5.615-13.668  c-36.15-15.095-68.541-38.813-94.041-68.751c11.384-32.899,28.686-62.206,50.334-86.064c25.954,48.027,74.661,79.385,129.383,82.947  v90.821c-9.64-0.399-19.255-1.342-28.7-2.83c-5.705-0.898-11.051,2.996-11.947,8.697c-0.898,5.701,2.996,11.05,8.696,11.947  c10.515,1.655,21.223,2.693,31.951,3.102v37.08C217.047,320.804,191.71,335.518,173.872,357.407z M266.45,317.888v-37.101  c71.347-2.716,137.982-33.166,186.689-85.052c5.375,21.692,8.272,44.626,8.272,68.351c0,13.44-0.956,26.713-2.793,39.709  c-36.684,25.397-77.163,43.413-120.487,53.613C320.294,335.518,294.957,320.804,266.45,317.888z M357.913,475.209  c4.626-13.1,7.056-27.086,7.056-41.255c0-21.129-5.28-40.962-14.499-58.071c36.315-9.337,70.681-23.912,102.584-43.507  C438.122,392.208,404.056,443.835,357.913,475.209z"/>
<g>
</g>
<g>
</g>
<g>
</g>
<g>
</g>
<g>
</g>
<g>
</g>
<g>
</g>
<g>
</g>
<g>
</g>
<g>
</g>
<g>
</g>
<g>
</g>
<g>
</g>
<g>
</g>
<g>
</g>
</svg>
