<?xml version="1.0" encoding="iso-8859-1"?>
<!-- Generator: Adobe Illustrator 19.0.0, SVG Export Plug-In . SVG Version: 6.00 Build 0)  -->
<svg xmlns="http://www.w3.org/2000/svg" xmlns:xlink="http://www.w3.org/1999/xlink" version="1.1" id="Layer_1" x="0px" y="0px" viewBox="0 0 512 512" style="enable-background:new 0 0 512 512;" xml:space="preserve">
<rect x="10.449" y="179.785" style="fill:#FAB617;" width="491.101" height="321.765"/>
<polyline style="fill:#F29C0B;" points="10.449,179.788 367.818,10.45 501.55,179.788 "/>
<path d="M308.37,337.471c-2.659,0-5.319-1.008-7.356-3.028c-4.098-4.063-4.127-10.679-0.065-14.777l0.077-0.079  c4.016-4.137,10.632-4.25,14.775-0.239c4.143,4.009,4.263,10.608,0.259,14.756l-0.271,0.275  C313.748,336.438,311.06,337.471,308.37,337.471z"/>
<path d="M272.897,348.3c-0.576,0-1.158-0.047-1.745-0.146c-25.079-4.217-43.282-25.758-43.283-51.221  c0.001-28.641,23.305-51.942,51.944-51.942c0.002,0,0,0,0.001,0c25.575,0,47.666,19.054,51.388,44.322  c0.841,5.709-3.106,11.019-8.816,11.86c-5.716,0.841-11.018-3.105-11.861-8.815c-2.223-15.09-15.426-26.47-30.713-26.47  c-17.118,0-31.046,13.926-31.047,31.044c0.001,15.219,10.872,28.094,25.85,30.612c5.691,0.957,9.528,6.346,8.571,12.037  C282.33,344.687,277.906,348.3,272.897,348.3z"/>
<path d="M318.613,97.483c-3.179,0-6.316-1.436-8.365-4.168c-3.463-4.616-2.554-11.146,2.063-14.609l0.293-0.216  c4.663-3.396,11.2-2.369,14.597,2.298c3.397,4.665,2.369,11.2-2.297,14.597C323.018,96.8,320.806,97.483,318.613,97.483z"/>
<path d="M347.31,149.307C347.309,149.307,347.31,149.307,347.31,149.307c-25.715,0-47.286-14.317-51.291-34.044  c-1.149-5.656,2.505-11.171,8.162-12.319c5.645-1.146,11.17,2.505,12.318,8.162c1.727,8.507,13.724,17.305,30.81,17.303  c16.828,0,31.046-8.997,31.047-19.646c-0.001-9.09-11.15-17.569-25.383-19.305c-5.727-0.698-9.805-5.908-9.107-11.637  c0.699-5.728,5.904-9.806,11.638-9.107c25.349,3.091,43.749,19.935,43.75,40.049C399.253,131.497,376.435,149.307,347.31,149.307z"/>
<path d="M80.975,470.696c-2.606,0-5.209-0.98-7.229-2.959l-0.153-0.15c-4.092-4.065-4.142-10.702-0.08-14.797  c4.063-4.096,10.646-4.15,14.745-0.092c4.12,4.041,4.245,10.714,0.205,14.835C86.404,469.634,83.688,470.696,80.975,470.696z"/>
<path d="M112.737,481.633c-5.093,0-9.555-3.729-10.323-8.919c-0.846-5.708,3.096-11.022,8.804-11.868  c12.675-1.878,22.232-13.058,22.231-26.005c0-7.033-2.719-13.642-7.656-18.61c-4.921-4.951-11.459-7.678-18.409-7.678  c-12.774,0-23.582,9.2-25.701,21.875c-0.951,5.693-6.341,9.538-12.029,8.584c-5.692-0.952-9.535-6.336-8.584-12.029  c3.81-22.787,23.287-39.327,46.313-39.328c12.557,0,24.358,4.916,33.231,13.843c8.857,8.91,13.734,20.751,13.733,33.343  c0.001,23.226-17.223,43.293-40.067,46.678C113.762,481.596,113.247,481.633,112.737,481.633z"/>
<path d="M466.692,339.984c-0.319,0-0.636-0.002-0.954-0.006c-5.77-0.076-10.386-4.815-10.31-10.585  c0.076-5.77,4.861-10.388,10.586-10.311l0.678,0.004c5.77,0,10.449,4.678,10.449,10.449  C477.141,335.306,472.462,339.984,466.692,339.984z"/>
<path d="M44.935,243.215c-0.047,0-0.094,0-0.141-0.001l-0.678-0.004c-5.77,0-10.449-4.678-10.449-10.449s4.679-10.449,10.449-10.449  c0.319,0,0.636,0.002,0.954,0.006c5.77,0.076,10.386,4.815,10.31,10.585C55.305,238.627,50.641,243.215,44.935,243.215z"/>
<path d="M509.744,173.317c0.002-0.002,0.004-0.003,0.006-0.005L376.019,3.973c-3.019-3.821-8.276-5.051-12.675-2.966L5.975,170.345  c0.001,0.003,0.002,0.006,0.003,0.009C2.448,172.031,0,175.62,0,179.788v321.763C0,507.322,4.679,512,10.449,512H501.55  c5.77,0,10.449-4.678,10.449-10.449V179.788C511.999,177.342,511.153,175.097,509.744,173.317z M364.775,23.455l115.21,145.884  H56.902L364.775,23.455z M298.947,491.102c5.224-48.094,46.072-85.654,95.533-85.654s90.308,37.56,95.533,85.654H298.947z   M491.101,204.255c-7.163-2.445-14.712-3.716-22.381-3.716c-38.242,0-69.354,31.112-69.354,69.355  c0,22.699,11.139,43.997,29.795,56.973c1.819,1.264,3.897,1.871,5.957,1.871c3.305,0,6.557-1.565,8.588-4.485  c3.295-4.738,2.125-11.249-2.612-14.544c-13.042-9.071-20.83-23.955-20.83-39.816c0-26.719,21.738-48.457,48.456-48.457  c7.836,0,15.492,1.893,22.381,5.491v208.719c-21.092-30.827-56.533-51.098-96.623-51.098c-60.993,0-111.225,46.915-116.529,106.552  H20.898V358.437c6.804,2.186,13.94,3.32,21.182,3.32c0.002,0,0,0,0.002,0c38.238,0,69.353-31.112,69.355-69.352  c0.001-22.698-11.136-43.997-29.794-56.974c-4.738-3.295-11.249-2.126-14.545,2.612c-3.295,4.738-2.125,11.249,2.612,14.544  c13.042,9.072,20.83,23.956,20.829,39.817c-0.002,26.719-21.74,48.456-48.459,48.455c-7.383,0-14.608-1.68-21.182-4.886V190.237  h470.203V204.255z"/>
<g>
</g>
<g>
</g>
<g>
</g>
<g>
</g>
<g>
</g>
<g>
</g>
<g>
</g>
<g>
</g>
<g>
</g>
<g>
</g>
<g>
</g>
<g>
</g>
<g>
</g>
<g>
</g>
<g>
</g>
</svg>
