<?xml version="1.0" encoding="iso-8859-1"?>
<!-- Generator: Adobe Illustrator 19.0.0, SVG Export Plug-In . SVG Version: 6.00 Build 0)  -->
<svg xmlns="http://www.w3.org/2000/svg" xmlns:xlink="http://www.w3.org/1999/xlink" version="1.1" id="Layer_1" x="0px" y="0px" viewBox="0 0 512 512" style="enable-background:new 0 0 512 512;" xml:space="preserve">
<circle style="fill:#FFFFFF;" cx="256" cy="256" r="245.551"/>
<circle style="fill:#EFEEEE;" cx="256" cy="256" r="200.62"/>
<path style="fill:#FFFFFF;" d="M419.408,224.583c-10.802-28.303-36.282-46.684-64.455-49.793  c-10.31-1.138-19.16-7.972-22.831-17.672c-14.577-38.526-51.81-65.921-95.443-65.921c-56.342,0-102.015,45.674-102.015,102.015  c0,2.315,0.078,4.612,0.231,6.888c0.497,7.41-2.002,14.695-6.897,20.281c-15.729,17.948-25.264,41.461-25.264,67.202  c0,43.803,27.609,81.151,66.373,95.608c4.066,1.516,7.723,3.96,10.665,7.149c18.639,20.202,45.334,32.859,74.988,32.859  c47.693,0,87.736-32.729,98.907-76.953c2.372-9.389,9.258-16.866,18.406-20.043c0.74-0.257,1.479-0.526,2.215-0.807  C414.587,310.018,434.788,264.882,419.408,224.583z"/>
<path d="M256,512c-68.38,0-132.668-26.628-181.019-74.981S0,324.38,0,256S26.628,123.332,74.981,74.981S187.62,0,256,0  s132.668,26.628,181.019,74.981S512,187.62,512,256s-26.628,132.668-74.981,181.019S324.38,512,256,512z M256,20.898  C126.365,20.898,20.898,126.365,20.898,256S126.365,491.102,256,491.102S491.102,385.635,491.102,256S385.635,20.898,256,20.898z"/>
<circle style="fill:#F29C0B;" cx="255.958" cy="256.919" r="66.698"/>
<path d="M290.336,464.13c-4.991,0-9.407-3.588-10.285-8.674c-0.981-5.686,2.834-11.093,8.52-12.074  c91.32-15.757,157.6-94.562,157.6-187.383c0-104.861-85.311-190.171-190.171-190.171S65.829,151.139,65.829,256  c0,92.695,66.174,171.483,157.348,187.342c5.684,0.988,9.493,6.4,8.504,12.084c-0.988,5.686-6.399,9.493-12.085,8.504  c-48.361-8.411-92.59-33.761-124.539-71.376C62.731,354.497,44.931,306.001,44.931,256c0-116.384,94.686-211.069,211.069-211.069  S467.069,139.616,467.069,256c0,50.051-17.832,98.583-50.214,136.657c-32.007,37.636-76.304,62.963-124.73,71.32  C291.524,464.08,290.927,464.13,290.336,464.13z"/>
<path d="M256.286,331.907c-8.206,0-16.497-1.311-24.596-4.003c-5.476-1.82-8.44-7.735-6.619-13.212  c1.819-5.476,7.735-8.439,13.212-6.619c20.417,6.788,42.546,1.558,57.748-13.644c22-21.999,22-57.796,0-79.797  c-21.999-21.999-57.796-22.001-79.796,0c-15.401,15.401-20.573,38.597-13.176,59.096c1.959,5.428-0.854,11.417-6.282,13.375  c-5.432,1.961-11.418-0.855-13.376-6.282c-10.133-28.082-3.046-59.864,18.056-80.966c30.149-30.148,79.203-30.146,109.351,0  c30.147,30.148,30.147,79.202,0,109.351C296.009,324.004,276.418,331.907,256.286,331.907z"/>
<path d="M208.806,312.302c-2.654,0-5.308-1.004-7.345-3.017c-4.104-4.056-4.144-10.672-0.087-14.777  c4.056-4.104,10.691-4.164,14.798-0.109c4.104,4.056,4.165,10.651,0.109,14.756l-0.043,0.044  C214.195,311.267,211.5,312.302,208.806,312.302z"/>
<path d="M254.761,433.649c-31.298,0-61.429-13.202-82.667-36.223c-1.812-1.963-4.109-3.501-6.638-4.444  c-43.766-16.321-73.17-58.677-73.17-105.398c0-27.279,9.892-53.591,27.854-74.087c3.104-3.542,4.641-8.051,4.331-12.695  c-0.168-2.506-0.254-5.059-0.254-7.587c0-62.014,50.451-112.464,112.464-112.464c23.291,0,45.639,7.059,64.629,20.415  c18.555,13.051,32.589,31.12,40.587,52.256c2.259,5.969,7.835,10.282,14.204,10.985c33.18,3.66,61.179,25.292,73.072,56.452l0,0  c17.409,45.618-5.54,96.893-51.157,114.303c-0.833,0.319-1.675,0.625-2.516,0.916c-5.821,2.022-10.197,6.781-11.7,12.731  C351.182,398.76,306.344,433.649,254.761,433.649z M236.681,101.647c-50.489,0-91.566,41.077-91.566,91.567  c0,2.063,0.069,4.144,0.207,6.187c0.685,10.226-2.676,20.123-9.466,27.87c-14.62,16.684-22.672,38.103-22.672,60.314  c0,38.042,23.942,72.528,59.576,85.817c5.588,2.085,10.668,5.491,14.694,9.854c17.295,18.745,41.827,29.496,67.308,29.496  c41.999,0,78.505-28.399,88.776-69.063c3.232-12.792,12.618-23.017,25.109-27.354c0.641-0.223,1.277-0.455,1.912-0.697  c34.856-13.303,52.39-52.478,39.089-87.329l0,0c-9.085-23.807-30.482-40.334-55.838-43.132c-14.316-1.58-26.37-10.914-31.457-24.361  C308.96,125.425,274.531,101.647,236.681,101.647z"/>
<path d="M255.957,467.113c-2.654,0-5.308-1.004-7.345-3.017c-4.104-4.056-4.144-10.672-0.087-14.777  c4.056-4.104,10.691-4.164,14.798-0.109c4.104,4.056,4.165,10.651,0.109,14.756l-0.043,0.044  C261.346,466.077,258.651,467.113,255.957,467.113z"/>
<g>
</g>
<g>
</g>
<g>
</g>
<g>
</g>
<g>
</g>
<g>
</g>
<g>
</g>
<g>
</g>
<g>
</g>
<g>
</g>
<g>
</g>
<g>
</g>
<g>
</g>
<g>
</g>
<g>
</g>
</svg>
