<?xml version="1.0" encoding="iso-8859-1"?>
<!-- Generator: Adobe Illustrator 19.0.0, SVG Export Plug-In . SVG Version: 6.00 Build 0)  -->
<svg xmlns="http://www.w3.org/2000/svg" xmlns:xlink="http://www.w3.org/1999/xlink" version="1.1" id="Layer_1" x="0px" y="0px" viewBox="0 0 512 512" style="enable-background:new 0 0 512 512;" xml:space="preserve">
<rect x="178.666" y="10.449" style="fill:#EFEEEE;" width="154.645" height="44.931"/>
<path style="fill:#FFFFFF;" d="M319.744,55.38c0,0,0,58.166,0,90.906c0,51.897,63.695,77.322,63.695,179.722  c0,77.322,0,175.543,0,175.543H256.005h-0.012H128.559c0,0,0-98.22,0-175.543c0-102.4,63.695-127.826,63.695-179.722  c0-32.74,0-90.906,0-90.906H319.744z"/>
<path d="M232.482,65.83c-5.771,0-10.493-4.678-10.493-10.449s4.634-10.449,10.405-10.449h0.087c5.771,0,10.449,4.678,10.449,10.449  S238.253,65.83,232.482,65.83z"/>
<path d="M352.397,199.055c-12.406-19.151-22.204-34.277-22.204-52.769V65.829h3.123c5.771,0,10.449-4.678,10.449-10.449V10.449  C343.765,4.678,339.087,0,333.316,0H178.671c-5.771,0-10.449,4.678-10.449,10.449V55.38c0,5.771,4.678,10.449,10.449,10.449h3.135  v80.457c0,18.493-9.799,33.619-22.204,52.769c-18.485,28.535-41.491,64.048-41.491,126.953v175.543  c0,5.771,4.678,10.449,10.449,10.449h254.88c5.771,0,10.449-4.678,10.449-10.449V326.008  C393.888,263.103,370.882,227.59,352.397,199.055z M372.99,491.102H139.008V326.008c0-56.729,20.258-88,38.133-115.592  c13.146-20.293,25.563-39.462,25.563-64.131V65.542c4.615-1.084,8.056-5.216,8.056-10.163c0-5.771-4.678-10.449-10.449-10.449  H189.12V20.898h133.747v24.033H264.34c-5.771,0-10.449,4.678-10.449,10.449s4.678,10.449,10.449,10.449h44.955v80.457  c0,24.67,12.418,43.838,25.563,64.131c17.873,27.592,38.132,58.863,38.132,115.592v165.094H372.99z"/>
<path d="M186.74,267.37c-1.135,0-2.289-0.187-3.423-0.58c-5.452-1.89-8.34-7.842-6.45-13.295c1.696-4.893,3.697-9.826,5.945-14.661  c5.764-12.391,12.481-22.761,18.408-31.911c9.586-14.797,17.156-26.484,17.156-40.416v-50.176c0-5.771,4.678-10.449,10.449-10.449  s10.449,4.678,10.449,10.449v50.176c0,20.109-9.965,35.491-20.516,51.778c-5.826,8.993-11.851,18.294-16.998,29.362  c-1.979,4.255-3.663,8.406-5.149,12.692C195.115,264.659,191.068,267.37,186.74,267.37z"/>
<path d="M223.601,420.751c-5.771,0-10.449-4.678-10.449-10.449v-41.376l-13.508,13.393c-4.072,4.039-10.641,4.039-14.713,0  l-13.508-13.393v41.376c0,5.771-4.678,10.449-10.449,10.449s-10.449-4.678-10.449-10.449v-66.45c0-4.218,2.536-8.023,6.429-9.644  c3.894-1.623,8.381-0.746,11.376,2.225l23.957,23.753l23.957-23.753c2.996-2.971,7.484-3.847,11.376-2.225  c3.893,1.623,6.429,5.427,6.429,9.644v66.45C234.05,416.073,229.372,420.751,223.601,420.751z"/>
<path d="M249.723,420.751c-5.771,0-10.449-4.678-10.449-10.449v-66.45c0-5.771,4.678-10.449,10.449-10.449  s10.449,4.678,10.449,10.449v66.45C260.172,416.073,255.494,420.751,249.723,420.751z"/>
<path d="M293.107,421.099h-17.305c-5.771,0-10.449-4.678-10.449-10.449v-66.449c0-5.771,4.678-10.449,10.449-10.449  c5.771,0,10.449,4.678,10.449,10.449v56h6.856c5.771,0,10.449,4.678,10.449,10.449C303.556,416.421,298.878,421.099,293.107,421.099  z"/>
<path d="M358.797,398.392L334.526,377.8l24.533-22.268c4.274-3.879,4.593-10.487,0.715-14.759  c-3.878-4.274-10.488-4.592-14.759-0.715l-15.878,14.411v-10.617c0-5.771-4.678-10.449-10.449-10.449s-10.449,4.678-10.449,10.449  v66.45c0,5.771,4.678,10.449,10.449,10.449s10.449-4.678,10.449-10.449v-9.669l16.141,13.694c1.964,1.668,4.366,2.482,6.755,2.482  c2.962,0,5.906-1.253,7.973-3.688C363.737,408.72,363.197,402.126,358.797,398.392z"/>
<path d="M179.755,298.186c-5.771,0-10.493-4.678-10.493-10.449c0-5.771,4.634-10.449,10.405-10.449h0.087  c5.771,0,10.449,4.678,10.449,10.449C190.203,293.508,185.526,298.186,179.755,298.186z"/>
<g>
</g>
<g>
</g>
<g>
</g>
<g>
</g>
<g>
</g>
<g>
</g>
<g>
</g>
<g>
</g>
<g>
</g>
<g>
</g>
<g>
</g>
<g>
</g>
<g>
</g>
<g>
</g>
<g>
</g>
</svg>
