<?xml version="1.0" encoding="iso-8859-1"?>
<!-- Generator: Adobe Illustrator 19.0.0, SVG Export Plug-In . SVG Version: 6.00 Build 0)  -->
<svg xmlns="http://www.w3.org/2000/svg" xmlns:xlink="http://www.w3.org/1999/xlink" version="1.1" id="Layer_1" x="0px" y="0px" viewBox="0 0 512 512" style="enable-background:new 0 0 512 512;" xml:space="preserve">
<path style="fill:#3E9C06;" d="M432.692,270.802c24.661-24.724,112.413-105.45,42.068-175.978  c-11.806-11.838-23.449-19.891-34.834-24.94c27.382,57.541-22.585,108.685-55.012,141.196  c-31.913,31.996-31.922,61.074-60.934,90.161c-54.397,54.538-102.985-10.172-151.989,38.959l-66.044,66.215l-0.633,0.634  c-21.92,21.976-29.953,52.589-24.137,80.912c-12.272-2.533-24.113-7.68-34.63-15.455c0.921,1.011,1.86,2.012,2.836,2.992l0,0  c34.648,34.737,90.821,34.737,125.469,0c0,0,34.041-34.128,56.208-56.353c22.167-22.225,107.528,2.481,152.19-42.296  S408.032,295.527,432.692,270.802z"/>
<path style="fill:#51B70F;" d="M171.991,340.201l-66.677,66.849c-21.92,21.976-29.953,52.589-24.137,80.912  c-16.403-3.385-32.039-11.44-44.767-24.2l0,0c-34.648-34.737-34.648-91.057,0-125.793c0,0,34.041-34.128,56.208-56.353  s-2.474-107.806,42.188-152.583s81.112-24.847,105.773-49.57S345.757-33.243,416.103,37.285s7.253,135.256-31.188,173.796  c-31.913,31.996-31.922,61.074-60.934,90.161C269.582,355.781,220.995,291.07,171.991,340.201z"/>
<path d="M303.014,243.274h-0.134c-5.771,0-10.449-4.678-10.449-10.449s4.678-10.449,10.449-10.449h0.134  c5.771,0,10.449,4.678,10.449,10.449S308.785,243.274,303.014,243.274z"/>
<path d="M482.158,87.446c-11.086-11.116-22.675-19.662-34.497-25.468c-5.74-10.972-13.788-21.673-24.16-32.072  C403.639,9.993,381.177-0.052,356.752,0c-52.624,0.149-99.944,48.135-120.152,68.626c-1.237,1.255-2.378,2.413-3.419,3.455  c-8.241,8.262-18.315,10.192-32.258,12.864c-20.325,3.894-45.621,8.741-73.515,36.706c-29.003,29.08-31.51,72.106-33.525,106.68  c-1.132,19.433-2.303,39.527-8.663,45.903l-56.208,56.354c-38.651,38.75-38.651,101.801,0,140.551  c3.604,3.613,7.458,6.913,11.519,9.9c0.409,0.651,0.887,1.27,1.452,1.836C60.715,501.658,85.622,512,112.117,512  c26.493,0,51.401-10.342,70.132-29.122l56.208-56.354c6.351-6.367,26.382-7.54,45.752-8.674  c34.495-2.02,77.425-4.533,106.439-33.622c27.887-27.959,32.72-53.312,36.603-73.682c2.566-13.462,4.593-24.096,12.84-32.365  c1.041-1.044,2.195-2.188,3.446-3.428c20.435-20.255,68.288-67.691,68.439-120.423C512.045,129.855,502.013,107.352,482.158,87.446z   M75.674,384.05l83.484-83.701h36.863c5.771,0,10.449-4.678,10.449-10.449c0-5.771-4.678-10.449-10.449-10.449h-16.018  l36.082-36.176h53.611c5.771,0,10.449-4.678,10.449-10.449s-4.678-10.449-10.449-10.449H236.93l71.604-71.79  c4.075-4.086,4.067-10.702-0.019-14.777c-4.086-4.075-10.702-4.066-14.777,0.019l-71.539,71.724v-57.742  c0-5.771-4.678-10.449-10.449-10.449s-10.449,4.678-10.449,10.449v78.694l-36.13,36.223v-57.743c0-5.771-4.678-10.449-10.449-10.449  s-10.449,4.678-10.449,10.449v78.695l-83.394,83.61c-22.907,22.967-29.225,56.353-18.976,85.08  c-28.594-30.744-27.971-79.07,1.907-109.024l56.208-56.354c11.965-11.995,13.246-33.985,14.73-59.446  c1.903-32.659,4.059-69.678,27.458-93.137c23.35-23.41,43.33-27.238,62.651-30.94c14.915-2.857,30.337-5.813,43.122-18.631  c1.067-1.069,2.236-2.255,3.504-3.54c18.377-18.635,61.414-62.276,105.331-62.4c0.066,0,0.129,0,0.194,0  c18.834,0,35.749,7.776,51.698,23.766c9.871,9.897,16.892,19.595,21.531,29.113c0.16,0.397,0.348,0.782,0.556,1.158  c21.857,46.712-13.641,89.032-53.275,128.767c-17.497,17.542-25.889,33.973-34.006,49.863c-7.162,14.021-13.927,27.266-26.928,40.3  c-24.276,24.338-46.041,21.526-71.242,18.27c-24.963-3.225-53.251-6.88-80.747,20.689l-66.678,66.849  c-16.903,16.947-26.867,39.047-28.714,62.288C52.397,438.336,54.545,405.233,75.674,384.05z M131.523,440.12  c-11.048,11.077-25.524,17.264-40.801,17.692c2.514-16.206,10.062-31.422,21.991-43.381l66.678-66.849  c19.183-19.232,37.262-18.019,59.588-15.193L131.523,440.12z M428.824,259.911c-1.282,1.271-2.464,2.443-3.531,3.512  c-12.778,12.811-15.592,27.577-18.572,43.21c-3.694,19.38-7.513,39.42-30.869,62.837c-23.39,23.45-60.299,25.611-92.864,27.517  c-25.408,1.488-47.352,2.772-59.326,14.778l-56.208,56.354c-14.783,14.82-34.435,22.983-55.337,22.983  c-7.024,0-13.899-0.943-20.503-2.729c0.032-0.834-0.03-1.676-0.202-2.513c-0.488-2.377-0.862-4.76-1.131-7.141  c20.971-0.309,40.898-8.663,56.037-23.841l83.384-83.599h78.465c5.771,0,10.449-4.678,10.449-10.449  c0-5.771-4.678-10.449-10.449-10.449h-57.621l15.263-15.302c18.867,0.614,38.999-2.937,59.703-20.975h39.682  c5.771,0,10.449-4.678,10.449-10.449s-4.678-10.449-10.449-10.449h-20.68c7.394-10.172,12.563-20.266,17.604-30.136  c7.722-15.117,15.015-29.394,30.191-44.61c18.273-18.32,45.889-46.007,58.709-78.44c6.299-15.936,8.51-31.514,6.648-46.665  c3.255,2.685,6.488,5.637,9.692,8.849c16.012,16.054,23.769,33.085,23.716,52.066C490.952,198.328,447.415,241.483,428.824,259.911z  "/>
<g>
</g>
<g>
</g>
<g>
</g>
<g>
</g>
<g>
</g>
<g>
</g>
<g>
</g>
<g>
</g>
<g>
</g>
<g>
</g>
<g>
</g>
<g>
</g>
<g>
</g>
<g>
</g>
<g>
</g>
</svg>
