<?xml version="1.0" encoding="iso-8859-1"?>
<!-- Generator: Adobe Illustrator 19.0.0, SVG Export Plug-In . SVG Version: 6.00 Build 0)  -->
<svg xmlns="http://www.w3.org/2000/svg" xmlns:xlink="http://www.w3.org/1999/xlink" version="1.1" id="Layer_1" x="0px" y="0px" viewBox="0 0 512.001 512.001" style="enable-background:new 0 0 512.001 512.001;" xml:space="preserve">
<path style="fill:#3E9C06;" d="M501.552,335.401c0-91.74-74.371-324.914-166.111-324.914S169.33,243.659,169.33,335.401  s74.371,166.111,166.111,166.111S501.552,427.142,501.552,335.401z"/>
<path style="fill:#97CD44;" d="M335.441,46.008c-19.366,0-53.11,32.959-84.838,106.589  c-29.717,68.967-45.753,145.659-45.753,182.804c0,72.008,58.583,130.591,130.591,130.591s130.591-58.583,130.591-130.591  c0-37.145-16.035-113.837-45.753-182.804C388.551,78.966,354.807,46.008,335.441,46.008z"/>
<circle style="fill:#9E612A;" cx="335.44" cy="323.018" r="93.555"/>
<path style="fill:#34602B;" d="M169.33,335.401c0-57.109,28.821-169.022,72.711-245.379  c-35.313-47.896-75.425-81.553-112.632-75.994C38.674,27.584-0.425,269.187,13.132,359.92s98.1,153.298,188.834,139.742  c19.631-2.934,37.941-9.195,54.45-18.119C204.551,453.44,169.33,398.534,169.33,335.401z"/>
<path d="M462.494,134.407c-16.763-38.901-35.082-70.136-54.447-92.834c-23.514-27.559-47.941-41.532-72.606-41.532  c-24.665,0-49.093,13.973-72.606,41.533c-7.446,8.728-14.735,18.728-21.842,29.929C201.452,21.924,162.523-1.484,127.864,3.695  C103.469,7.34,81.374,24.769,62.192,55.501c-15.799,25.311-29.301,58.908-40.132,99.86C3.229,226.57-4.692,311.323,2.799,361.464  C15.87,448.946,91.39,511.949,177.307,511.949c8.646,0,17.399-0.637,26.202-1.954c18.555-2.772,36.342-8.395,52.96-16.714  c23.777,11.942,50.601,18.679,78.973,18.679c97.355,0,176.559-79.204,176.559-176.559C512,284.703,491.642,202.051,462.494,134.407z   M200.422,489.329c-84.889,12.688-164.275-46.062-176.958-130.952c-6.006-40.201-1.478-121.01,18.797-197.674  c21.54-81.445,53.867-131.14,88.691-136.344c27.821-4.156,62.705,19.41,98.629,66.472c-7.297,13.226-14.375,27.755-21.193,43.575  c-29.148,67.644-49.505,150.295-49.505,200.994c0,59.867,29.958,112.861,75.662,144.803  C223.611,484.509,212.194,487.57,200.422,489.329z M335.441,491.065c-85.834,0-155.664-69.831-155.664-155.664  c0-40.647,16.419-119.9,47.799-192.726c7.518-17.447,15.341-33.211,23.352-47.171c0.087-0.141,0.167-0.284,0.247-0.429  c27.442-47.677,57.077-74.141,84.266-74.141c35.211,0,74.525,44.373,107.865,121.741c31.38,72.826,47.799,152.078,47.799,192.726  C491.105,421.234,421.275,491.065,335.441,491.065z"/>
<path d="M335.604,425.12c-16.899,0-33.749-4.173-48.586-12.168c-5.079-2.737-6.979-9.073-4.242-14.153  c2.737-5.079,9.073-6.98,14.153-4.242c31.314,16.872,70.768,11.071,95.947-14.108c15.343-15.343,23.792-35.74,23.792-57.437  c0-21.697-8.449-42.094-23.792-57.437c-31.671-31.671-83.202-31.671-114.873,0c-25.179,25.179-30.98,64.633-14.109,95.945  c2.737,5.079,0.838,11.416-4.242,14.153c-5.082,2.737-11.416,0.838-14.153-4.242c-10.204-18.937-14.182-41.156-11.204-62.564  c3.081-22.142,13.085-42.222,28.932-58.068c39.818-39.817,104.605-39.818,144.423,0c19.288,19.289,29.91,44.934,29.91,72.211  c0,27.278-10.623,52.923-29.912,72.211c-15.845,15.846-35.926,25.851-58.067,28.932C344.949,424.802,340.273,425.12,335.604,425.12z  "/>
<path d="M270.562,398.336c-2.658,0-5.318-1.008-7.355-3.028c-4.097-4.063-4.126-10.677-0.064-14.775  c4.063-4.098,10.706-4.156,14.804-0.093c4.097,4.062,4.156,10.647,0.093,14.744l-0.06,0.06  C275.938,397.305,273.251,398.336,270.562,398.336z"/>
<path d="M392.696,306.727c-3.93,0-7.694-2.227-9.469-6.023c-8.643-18.475-27.4-30.413-47.786-30.413  c-5.77,0-10.447-4.677-10.447-10.447c0-5.77,4.677-10.447,10.447-10.447c28.461,0,54.648,16.664,66.711,42.453  c2.445,5.226,0.19,11.445-5.036,13.89C395.685,306.409,394.179,306.727,392.696,306.727z"/>
<path d="M398.61,333.432c-5.77,0-10.447-4.648-10.447-10.418v-0.059c0-5.77,4.677-10.447,10.447-10.447  c5.77,0,10.447,4.677,10.447,10.447C409.058,328.726,404.38,333.432,398.61,333.432z"/>
<path d="M335.441,476.438c-77.768,0-141.038-63.27-141.038-141.038c0-38.19,16.334-116.686,46.605-186.938  C271.017,78.821,307.202,35.56,335.441,35.56s64.424,43.262,94.433,112.902c30.272,70.252,46.605,148.748,46.605,186.938  C476.479,413.17,413.209,476.438,335.441,476.438z M335.441,56.456c-12.384,0-43.765,27.224-75.243,100.277  c-29.164,67.68-44.9,142.568-44.9,178.669c0,66.247,53.896,120.143,120.143,120.143s120.143-53.896,120.143-120.143  c0-36.1-15.737-110.988-44.9-178.669C379.206,83.679,347.825,56.456,335.441,56.456z"/>
<g>
</g>
<g>
</g>
<g>
</g>
<g>
</g>
<g>
</g>
<g>
</g>
<g>
</g>
<g>
</g>
<g>
</g>
<g>
</g>
<g>
</g>
<g>
</g>
<g>
</g>
<g>
</g>
<g>
</g>
</svg>
