<?xml version="1.0" encoding="iso-8859-1"?>
<!-- Generator: Adobe Illustrator 19.0.0, SVG Export Plug-In . SVG Version: 6.00 Build 0)  -->
<svg xmlns="http://www.w3.org/2000/svg" xmlns:xlink="http://www.w3.org/1999/xlink" version="1.1" id="Layer_1" x="0px" y="0px" viewBox="0 0 512 512" style="enable-background:new 0 0 512 512;" xml:space="preserve">
<path style="fill:#FFFFFF;" d="M272.476,38.568c0,0,81.868,196.536,101.409,262.963c21.875,74.361-49.959,131.686-117.754,131.686  s-139.628-57.325-117.754-131.686c19.541-66.426,101.409-262.963,101.409-262.963L272.476,38.568L272.476,38.568z"/>
<g>
	<path style="fill:#EFEEEE;" d="M214.682,38.568C132.24,190.633,33.937,235.105,14.396,301.532   C-7.478,375.893,64.356,433.218,132.15,433.218c21.274,0,42.943-5.647,61.992-15.692c-41.656-21.965-70.773-64.968-55.762-115.995   c19.541-66.426,101.409-262.963,101.409-262.963h-25.107V38.568z"/>
	<path style="fill:#EFEEEE;" d="M297.318,38.568c82.441,152.064,180.745,196.536,200.285,262.963   c21.875,74.361-49.959,131.686-117.754,131.686c-21.274,0-42.943-5.647-61.992-15.692c41.656-21.965,70.773-64.968,55.762-115.995   C354.079,235.105,272.211,38.568,272.211,38.568L297.318,38.568L297.318,38.568z"/>
</g>
<path d="M198.008,365.756c-3.313,0-6.572-1.571-8.6-4.501c-18.534-26.756-23.991-66.126,5.598-93.769  c4.218-3.94,10.832-3.715,14.772,0.503c3.94,4.218,3.715,10.832-0.503,14.772c-21.875,20.434-15.118,48.643-2.685,66.591  c3.287,4.745,2.105,11.256-2.64,14.543C202.134,365.153,200.06,365.756,198.008,365.756z"/>
<path d="M222.674,388.96c-1.81,0-3.643-0.472-5.312-1.464c-0.026-0.016-0.059-0.034-0.078-0.046  c-4.95-2.969-6.554-9.389-3.585-14.339c2.969-4.95,9.39-6.554,14.339-3.585c4.95,2.969,6.574,9.401,3.604,14.35  C229.68,387.145,226.222,388.96,222.674,388.96z"/>
<path d="M507.63,298.582c-9.585-32.584-35.712-59.31-68.791-93.147c-39.175-40.072-87.929-89.944-132.333-171.847  c-1.828-3.371-5.354-5.47-9.188-5.47h-24.842h-0.265h-32.423h-25.106c-3.834,0-7.36,2.1-9.188,5.47  c-44.404,81.904-93.159,131.775-132.333,171.847c-33.078,33.836-59.205,60.562-68.791,93.147  c-9.384,31.904-3.541,64.193,16.457,90.92c24.62,32.905,68.317,54.167,111.324,54.167c21.038,0,42.365-4.995,62.019-14.466  c2.982,1.435,6.023,2.76,9.102,3.996l-24.852,17.67c-4.704,3.344-5.807,9.869-2.461,14.573c2.038,2.867,5.258,4.397,8.526,4.397  c2.094,0,4.21-0.628,6.047-1.935l28.594-20.33l-9.259,17.299c-2.724,5.089-0.807,11.422,4.283,14.146  c1.57,0.84,3.259,1.24,4.923,1.24c3.73,0,7.34-2.002,9.223-5.521l16.878-31.534c0.161,0.014,0.323,0.024,0.484,0.037l-0.108,30.154  c-0.021,5.772,4.641,10.468,10.414,10.489c0.013,0,0.025,0,0.039,0c5.753,0,10.429-4.655,10.45-10.414l0.108-30.225  c0.363-0.028,0.726-0.05,1.089-0.082l22.351,31.543c2.037,2.875,5.261,4.409,8.537,4.409c2.089,0,4.199-0.625,6.034-1.925  c4.709-3.337,5.822-9.861,2.484-14.57l-10.545-14.882l27.641,19.25c1.821,1.268,3.902,1.876,5.965,1.876  c3.304,0,6.554-1.564,8.586-4.479c3.298-4.737,2.133-11.251-2.603-14.549l-25.071-17.46c2.341-0.979,4.656-2.014,6.939-3.109  c19.617,9.429,40.895,14.403,61.886,14.403c43.007,0,86.704-21.262,111.324-54.167C511.171,362.774,517.015,330.485,507.63,298.582z   M132.15,422.766c-36.648,0-73.777-17.972-94.587-45.787c-11.286-15.084-22.727-39.907-13.139-72.498  c8.116-27.592,32.638-52.677,63.685-84.434c39.21-40.108,87.8-89.814,132.765-171.027h3.272  c-19.378,46.927-79.19,193.128-95.791,249.562c-9.385,31.904-3.541,64.193,16.456,90.92c7.435,9.937,16.619,18.803,26.989,26.352  C158.832,420.359,145.218,422.766,132.15,422.766z M256.132,422.766c-36.648,0-73.777-17.972-94.587-45.787  c-11.286-15.084-22.727-39.907-13.139-72.498c17.178-58.394,84.121-221.054,98.362-255.461h18.73  c14.24,34.406,81.182,197.062,98.362,255.461c9.588,32.592-1.853,57.414-13.139,72.498  C329.909,404.794,292.781,422.766,256.132,422.766z M474.437,376.98c-20.811,27.814-57.939,45.787-94.587,45.787  c-13.008,0-26.555-2.387-39.466-6.852c10.405-7.561,19.617-16.449,27.073-26.412c19.996-26.727,25.841-59.016,16.456-90.92  c-16.601-56.435-76.415-202.635-95.791-249.563h3.007c44.965,81.213,93.556,130.919,132.765,171.027  c31.047,31.757,55.568,56.841,63.685,84.434C497.164,337.073,485.723,361.895,474.437,376.98z"/>
<g>
</g>
<g>
</g>
<g>
</g>
<g>
</g>
<g>
</g>
<g>
</g>
<g>
</g>
<g>
</g>
<g>
</g>
<g>
</g>
<g>
</g>
<g>
</g>
<g>
</g>
<g>
</g>
<g>
</g>
</svg>
