<?xml version="1.0" encoding="iso-8859-1"?>
<!-- Generator: Adobe Illustrator 19.0.0, SVG Export Plug-In . SVG Version: 6.00 Build 0)  -->
<svg xmlns="http://www.w3.org/2000/svg" xmlns:xlink="http://www.w3.org/1999/xlink" version="1.1" id="Layer_1" x="0px" y="0px" viewBox="0 0 512 512" style="enable-background:new 0 0 512 512;" xml:space="preserve">
<path style="fill:#EF0000;" d="M501.551,270.204c0-109.069-109.937-163.625-245.551-163.625S10.449,161.136,10.449,270.204  S120.386,501.551,256,501.551S501.551,379.273,501.551,270.204z"/>
<g>
	<path style="fill:#51B70F;" d="M273.231,105.197c-4.186-22.401,3.942-46.306,23.123-61.329c6.86-5.373,14.483-9.102,22.397-11.244   l-17.37-22.175c-9.591,2.597-19.732,8.085-28.047,14.598c-24.784,19.413-34.343,51.06-26.825,79.689L273.231,105.197z"/>
	<path style="fill:#51B70F;" d="M172.275,115.301c0,0-69.662,21.258-78.457,75.498c33.685-22.373,107.115-25.947,107.115-25.947   s-33.265,29.938-41.249,91.146c22.62-13.971,62.741-59.212,95.905-63.869c40.365,14.1,59.951,31.717,96.743,63.869   c-2.772-53.29-33.641-81.832-44.285-89.816c27.277,0,79.172,15.967,107.779,44.575c-2.877-54.721-41.189-88.506-75.114-95.458   c0,0-41.299-8.701-81.01-8.701S172.275,115.301,172.275,115.301z"/>
</g>
<path d="M137.541,421.589c-2.376,0-4.766-0.806-6.726-2.457c-4.415-3.717-5.009-10.333-1.292-14.748  c3.703-4.398,10.23-4.998,14.643-1.329c0.034,0.029,0.084,0.07,0.11,0.092c4.415,3.717,4.98,10.309,1.262,14.723  C143.472,420.325,140.517,421.589,137.541,421.589z"/>
<path d="M115.473,400.718c-2.831,0-5.651-1.143-7.712-3.396C75.164,361.69,56.467,317.77,56.467,276.82  c0-5.771,4.679-10.449,10.449-10.449s10.449,4.678,10.449,10.449c0,35.79,16.697,74.57,45.814,106.396  c3.896,4.258,3.602,10.867-0.656,14.762C120.517,399.813,117.991,400.718,115.473,400.718z"/>
<path d="M435.097,138.587c-39.549-24.274-91.836-38.544-152.391-41.757c-1.085-17.215,6.283-33.921,20.09-44.735  c5.601-4.388,11.887-7.544,18.684-9.383c3.382-0.915,6.08-3.465,7.186-6.79c1.106-3.325,0.471-6.982-1.69-9.741L309.606,4.006  c-2.59-3.305-6.906-4.739-10.955-3.643C288.06,3.23,276.78,9.075,266.891,16.822c-24.429,19.135-36.569,49.549-32.592,79.775  c-62.676,2.677-116.761,17.051-157.394,41.99C26.593,169.464,0,214.977,0,270.205c0,28.028,7.008,57.959,20.266,86.556  c12.935,27.9,31.862,54.673,54.735,77.426c23.939,23.814,51.241,42.685,81.147,56.09C188.307,504.691,221.902,512,256,512  s67.693-7.309,99.853-21.724c29.906-13.405,57.208-32.276,81.147-56.09c22.873-22.753,41.8-49.526,54.735-77.426  C504.992,328.164,512,298.234,512,270.205C512,214.977,485.407,169.464,435.097,138.587z M338.616,125.538  c25.259,5.176,51.626,26.725,62.167,60.019c-31.605-20.253-71.082-29.822-92.736-29.822c-4.498,0-8.491,2.878-9.912,7.145  c-1.422,4.266,0.045,8.965,3.643,11.663c5.012,3.76,26.195,21.264,35.678,54.736c-24.926-21.125-45.151-35.392-78.421-47.012  c-1.572-0.549-3.25-0.714-4.898-0.483c-25.523,3.584-52.866,26.832-74.836,45.513c-1.194,1.016-2.38,2.024-3.554,3.019  c11.341-38.245,31.951-57.488,32.177-57.694c3.285-2.957,4.355-7.66,2.672-11.747c-1.681-4.086-5.719-6.671-10.169-6.457  c-2.506,0.122-50.623,2.627-87.919,15.937c19.255-31.274,62.308-44.9,62.833-45.061c1.197-0.367,2.272-0.938,3.216-1.651  c23.908-4.376,49.861-6.613,77.443-6.613c28.09,0,54.486,2.326,78.76,6.861C335.888,124.672,337.186,125.245,338.616,125.538z   M279.778,33.274c5.61-4.396,11.894-8.07,17.945-10.55L301.855,28c-4.189,2.141-8.179,4.693-11.945,7.641  c-18.764,14.698-29.015,37.181-28.16,60.526c-1.911-0.021-3.825-0.037-5.75-0.037c-0.217,0-0.432,0.004-0.648,0.004  C251.4,72.438,260.611,48.287,279.778,33.274z M422.261,419.371c-46.5,46.257-105.545,71.731-166.261,71.731  s-119.761-25.475-166.261-71.731c-43.106-42.879-68.841-98.643-68.841-149.165c0-48.257,22.521-86.548,66.937-113.807  c4.79-2.939,9.8-5.714,15.003-8.334c-9.339,11.142-16.684,24.724-19.333,41.064c-0.665,4.1,1.162,8.205,4.653,10.454  c3.491,2.25,7.983,2.22,11.442-0.078c19.347-12.849,54.16-19.09,77.633-21.967c-10.656,16.071-23.288,41.677-27.909,77.111  c-0.521,3.999,1.304,7.94,4.691,10.128c3.387,2.188,7.731,2.232,11.162,0.113c7.936-4.901,17.077-12.674,27.663-21.673  c19.113-16.251,42.713-36.318,61.836-40.323c35.871,12.969,54.707,29.436,88.28,58.786l2.504,2.188  c1.944,1.699,4.398,2.581,6.878,2.581c1.551,0,3.113-0.345,4.564-1.05c3.775-1.834,6.087-5.749,5.868-9.941  c-1.76-33.825-13.876-58.285-25.913-74.518c24.218,6.185,53.269,18.893,71.585,37.209c3.059,3.057,7.685,3.916,11.64,2.157  c3.952-1.761,6.41-5.773,6.184-10.094c-1.278-24.302-9.131-46.561-22.806-64.933c7.278,3.41,14.191,7.118,20.71,11.119  c44.414,27.26,66.935,65.551,66.935,113.808C491.102,320.728,465.367,376.491,422.261,419.371z"/>
<g>
</g>
<g>
</g>
<g>
</g>
<g>
</g>
<g>
</g>
<g>
</g>
<g>
</g>
<g>
</g>
<g>
</g>
<g>
</g>
<g>
</g>
<g>
</g>
<g>
</g>
<g>
</g>
<g>
</g>
</svg>
