<?xml version="1.0" encoding="iso-8859-1"?>
<!-- Generator: Adobe Illustrator 19.0.0, SVG Export Plug-In . SVG Version: 6.00 Build 0)  -->
<svg xmlns="http://www.w3.org/2000/svg" xmlns:xlink="http://www.w3.org/1999/xlink" version="1.1" id="Layer_1" x="0px" y="0px" viewBox="0 0 512 512" style="enable-background:new 0 0 512 512;" xml:space="preserve">
<path style="fill:#DD852F;" d="M311.708,261.241v-53.207c0-3.027,2.453-5.48,5.48-5.48l0,0c27.05,0,49.182-22.132,49.182-49.182  v-6.997c0-27.05-22.132-49.182-49.182-49.182H59.631c-27.05,0-49.182,22.132-49.182,49.181v6.997  c0,27.05,22.132,49.182,49.182,49.182l0,0c3.027,0,5.48,2.453,5.48,5.48v182.316c0,13.508,10.951,24.459,24.459,24.459h197.76  c13.462,0,24.376-10.914,24.376-24.376v-59.704V261.241z"/>
<path style="fill:#B74A00;" d="M452.369,97.192h-135.18c27.05,0,49.181,22.132,49.181,49.182v6.997  c0,27.05-22.132,49.182-49.181,49.182l0,0c-3.026,0-5.48,2.453-5.48,5.48v53.207v69.486v59.704  c0,13.464-10.914,24.376-24.376,24.376h135.181c13.464,0,24.377-10.914,24.377-24.376V208.033c0-3.027,2.453-5.48,5.48-5.48l0,0  c27.05,0,49.182-22.132,49.182-49.182v-6.997C501.551,119.324,479.419,97.192,452.369,97.192z"/>
<path d="M311.708,308.914c-5.77,0-10.449-4.678-10.449-10.449v-0.653c0-5.771,4.679-10.449,10.449-10.449  s10.449,4.678,10.449,10.449v0.653C322.157,304.236,317.479,308.914,311.708,308.914z"/>
<path d="M452.37,86.743H59.63c-32.88,0-59.63,26.75-59.63,59.63v6.997c0,31.207,24.098,56.892,54.663,59.426v177.553  c0,19.248,15.659,34.908,34.907,34.908h332.941c19.203,0,34.825-15.623,34.825-34.826V212.796  C487.903,210.264,512,184.579,512,153.37v-6.997C512,113.493,485.25,86.743,452.37,86.743z M491.102,153.37  c0,21.358-17.376,38.733-38.733,38.733c-8.783,0-15.929,7.146-15.929,15.929v182.398c0,7.68-6.247,13.928-13.927,13.928h-103.27  c1.87-4.268,2.916-8.978,2.916-13.928v-59.704c0-5.771-4.679-10.449-10.449-10.449s-10.449,4.678-10.449,10.449v59.704  c0,7.68-6.247,13.928-13.928,13.928H89.571c-7.725,0-14.009-6.285-14.009-14.01V208.032c0-8.783-7.146-15.929-15.929-15.929  c-21.359,0-38.734-17.376-38.734-38.733v-6.997c0-21.358,17.376-38.733,38.732-38.733h257.559c21.357,0,38.732,17.376,38.732,38.733  v6.997c0,21.358-17.376,38.733-38.732,38.733c-8.783,0-15.929,7.146-15.929,15.929v53.207c0,5.771,4.679,10.449,10.449,10.449  c5.77,0,10.449-4.678,10.449-10.449v-48.445c30.563-2.534,54.662-28.219,54.662-59.426v-6.997c0-14.777-5.415-28.304-14.347-38.733  h89.898c21.357,0,38.732,17.376,38.732,38.733V153.37z"/>
<path d="M254.696,161.413c-2.675,0-5.348-1.02-7.388-3.061c-4.08-4.08-4.08-10.697,0-14.778l0.093-0.093  c4.081-4.08,10.696-4.08,14.778,0c4.08,4.08,4.08,10.697,0,14.778l-0.093,0.093C260.044,160.393,257.371,161.413,254.696,161.413z"/>
<path d="M130.218,285.892c-2.675,0-5.348-1.02-7.388-3.06c-4.08-4.08-4.08-10.697,0-14.778l101.581-101.581  c4.081-4.08,10.696-4.08,14.778,0c4.08,4.08,4.08,10.697,0,14.778L137.608,282.831C135.566,284.872,132.893,285.892,130.218,285.892  z"/>
<path d="M129.958,353.11c-2.675,0-5.348-1.02-7.388-3.061c-4.08-4.08-4.08-10.697,0-14.777l125.091-125.092  c4.081-4.08,10.696-4.08,14.778,0c4.08,4.08,4.08,10.697,0,14.778L137.347,350.05C135.306,352.089,132.633,353.11,129.958,353.11z"/>
<g>
</g>
<g>
</g>
<g>
</g>
<g>
</g>
<g>
</g>
<g>
</g>
<g>
</g>
<g>
</g>
<g>
</g>
<g>
</g>
<g>
</g>
<g>
</g>
<g>
</g>
<g>
</g>
<g>
</g>
</svg>
