<?xml version="1.0" encoding="iso-8859-1"?>
<!-- Generator: Adobe Illustrator 19.0.0, SVG Export Plug-In . SVG Version: 6.00 Build 0)  -->
<svg xmlns="http://www.w3.org/2000/svg" xmlns:xlink="http://www.w3.org/1999/xlink" version="1.1" id="Layer_1" x="0px" y="0px" viewBox="0 0 512 512" style="enable-background:new 0 0 512 512;" xml:space="preserve">
<g>
	<rect x="238.237" y="68.608" style="fill:#34602B;" width="33.437" height="52.59"/>
	<path style="fill:#34602B;" d="M168.522,195.086c12.652-14.369,27.588-22.681,43.592-22.681c16.128,0,31.172,8.439,43.886,23.015   c12.713-14.575,27.758-23.015,43.886-23.015c16.004,0,30.941,8.311,43.592,22.681c7.195-6.522,14.986-11.779,23.219-15.595   c-1.151-1.307-36.285-40.818-92.801-58.285c-14.629,0-17.763,0-17.763,0s-3.267,0-17.896,0   c-57.469,17.763-92.831,58.321-92.831,58.321l0.033,0.026C153.622,183.362,161.366,188.599,168.522,195.086z"/>
</g>
<path style="fill:#F29C0B;" d="M398.106,172.406c-20.056,0-38.774,8.311-54.628,22.681c-12.652-14.37-27.588-22.681-43.592-22.681  c-16.128,0-31.172,8.439-43.886,23.015c-12.713-14.575-27.758-23.015-43.886-23.015c-16.004,0-30.942,8.311-43.592,22.681  c-15.854-14.37-34.573-22.681-54.628-22.681c-57.131,0-103.445,67.366-103.445,150.465s46.314,150.465,103.445,150.465  c20.056,0,38.774-8.311,54.628-22.681c12.652,14.37,27.588,22.681,43.592,22.681c16.128,0,31.172-8.439,43.886-23.015  c12.713,14.575,27.758,23.015,43.886,23.015c16.004,0,30.941-8.311,43.592-22.681c15.854,14.37,34.573,22.681,54.628,22.681  c57.131,0,103.445-67.366,103.445-150.465S455.237,172.406,398.106,172.406z"/>
<path d="M140.97,409.683c-4.422,0-8.53-2.83-9.95-7.267l-0.074-0.23c-1.759-5.495,1.271-11.373,6.766-13.133  c5.492-1.759,11.377,1.268,13.139,6.764l0.074,0.23c1.759,5.496-1.272,11.378-6.768,13.136  C143.098,409.522,142.026,409.683,140.97,409.683z"/>
<path d="M133.214,377.758c-5.005,0-9.426-3.607-10.29-8.706c-2.526-14.913-3.807-30.45-3.807-46.182  c0-33.445,5.735-65.44,16.587-92.526c2.146-5.357,8.232-7.96,13.586-5.813c5.357,2.146,7.96,8.229,5.814,13.586  c-9.871,24.638-15.088,53.945-15.088,84.754c0,14.566,1.182,28.93,3.512,42.692c0.964,5.689-2.867,11.083-8.557,12.047  C134.38,377.71,133.794,377.758,133.214,377.758z"/>
<path d="M479.863,210.556c-21.547-31.34-50.581-48.599-81.757-48.599c-9.799,0-19.458,1.755-28.781,5.153  c-6.625-6.61-19.284-18.162-37.043-29.705c5.149-0.27,10.347-1.109,15.51-2.584c30.672-8.761,48.498-40.844,39.735-71.517  c-7.327-25.646-34.151-40.548-59.797-33.224c-21.624,6.177-34.192,28.796-28.015,50.421c5.257,18.407,24.507,29.104,42.92,23.847  c7.671-2.191,14.028-7.238,17.902-14.211c3.875-6.974,4.802-15.038,2.61-22.709c-1.586-5.548-7.368-8.761-12.917-7.176  c-5.549,1.585-8.762,7.369-7.176,12.917c0.658,2.303,0.379,4.724-0.784,6.817c-1.163,2.094-3.072,3.609-5.376,4.267  c-7.32,2.09-14.992-2.165-17.086-9.493c-3.012-10.545,3.116-21.574,13.661-24.586c14.568-4.158,29.802,4.305,33.962,18.87  c5.596,19.593-5.79,40.085-25.383,45.683c-25.438,7.266-52.018-7.158-59.929-32.239V68.612c0-5.771-4.679-10.449-10.449-10.449  h-33.437c-5.77,0-10.449,4.678-10.449,10.449v45.058c-43.452,15.248-73.47,41.946-85.017,53.476  c-9.352-3.421-19.044-5.189-28.877-5.189c-31.176,0-60.21,17.26-81.757,48.599C11.413,240.699,0,280.587,0,322.871  s11.413,82.171,32.137,112.315c21.547,31.34,50.581,48.599,81.757,48.599c18.961,0,37.41-6.518,53.875-18.946  c13.456,12.431,28.628,18.946,44.345,18.946c15.546,0,30.544-6.364,43.886-18.522c13.341,12.157,28.34,18.522,43.886,18.522  c15.717,0,30.89-6.515,44.345-18.946c16.464,12.428,34.914,18.946,53.875,18.946c31.176,0,60.21-17.26,81.757-48.599  C500.587,405.042,512,365.154,512,322.871S500.587,240.699,479.863,210.556z M248.686,79.061h12.539v31.695h-12.539V79.061z   M239.838,131.655h31.836h0.622c36.598,11.659,63.826,33.209,77.244,45.509c-1.789,1.184-3.561,2.421-5.307,3.739  c-13.456-12.431-28.628-18.946-44.345-18.946c-15.545,0-30.544,6.364-43.886,18.522c-13.341-12.156-28.341-18.522-43.886-18.522  c-15.717,0-30.89,6.515-44.345,18.946c-1.727-1.304-3.482-2.528-5.251-3.701C175.864,164.927,203.037,143.376,239.838,131.655z   M462.642,423.346c-17.529,25.498-40.449,39.541-64.536,39.541c-16.731,0-33.195-6.907-47.611-19.973  c-1.928-1.747-4.43-2.707-7.018-2.707c-0.195,0-0.392,0.005-0.588,0.017c-2.793,0.158-5.406,1.428-7.255,3.528  c-7.685,8.729-20.127,19.136-35.749,19.136c-15.754,0-28.278-10.568-36.011-19.434c-1.984-2.275-4.855-3.581-7.874-3.581  c-3.02,0-5.89,1.306-7.874,3.581c-7.732,8.866-20.257,19.434-36.011,19.434c-15.622,0-28.063-10.406-35.749-19.136  c-1.849-2.099-4.463-3.371-7.255-3.528c-2.789-0.153-5.533,0.811-7.605,2.691c-14.416,13.066-30.881,19.973-47.611,19.973  c-24.087,0-47.006-14.042-64.536-39.541c-18.354-26.695-28.461-62.377-28.461-100.475s10.107-73.78,28.46-100.475  c17.529-25.498,40.449-39.541,64.536-39.541c16.731,0,33.195,6.907,47.611,19.973c2.072,1.879,4.812,2.844,7.605,2.691  c2.793-0.158,5.406-1.428,7.255-3.528c7.685-8.729,20.127-19.136,35.749-19.136c15.753,0,28.278,10.568,36.011,19.434  c1.984,2.275,4.856,3.581,7.874,3.581c3.019,0,5.89-1.306,7.874-3.581c7.732-8.866,20.258-19.434,36.011-19.434  c15.622,0,28.063,10.406,35.749,19.136c1.849,2.099,4.463,3.371,7.255,3.528c2.783,0.148,5.533-0.812,7.605-2.691  c6.268-5.682,12.924-10.195,19.821-13.486c0.436-0.159,0.859-0.357,1.275-0.577c8.577-3.889,17.506-5.91,26.515-5.91  c24.087,0,47.006,14.042,64.536,39.541c18.355,26.694,28.462,62.377,28.462,100.475S480.995,396.651,462.642,423.346z"/>
<g>
</g>
<g>
</g>
<g>
</g>
<g>
</g>
<g>
</g>
<g>
</g>
<g>
</g>
<g>
</g>
<g>
</g>
<g>
</g>
<g>
</g>
<g>
</g>
<g>
</g>
<g>
</g>
<g>
</g>
</svg>
