<?xml version="1.0" encoding="iso-8859-1"?>
<!-- Generator: Adobe Illustrator 19.0.0, SVG Export Plug-In . SVG Version: 6.00 Build 0)  -->
<svg xmlns="http://www.w3.org/2000/svg" xmlns:xlink="http://www.w3.org/1999/xlink" version="1.1" id="Layer_1" x="0px" y="0px" viewBox="0 0 512.001 512.001" style="enable-background:new 0 0 512.001 512.001;" xml:space="preserve">
<rect x="235.94" y="436.124" style="fill:#34602B;" width="39.587" height="65.432"/>
<g>
	<path style="fill:#89CD37;" d="M183.849,274.267c10.691-31.164,33.122-57.34,49.825-73.651c2.308-8.073,3.704-16.509,3.786-25.202   c0.55-58.475-60.297-106.248-60.781-106.649v-0.004v-0.007c-0.252,0.209-57.687,47.354-58.251,105.945   c-0.036,3.829,0.186,7.611,0.623,11.338C143.406,203.2,177.251,233.73,183.849,274.267z"/>
	<path style="fill:#89CD37;" d="M329.885,276.121c6.614-40.634,39.915-71.949,63.775-89.633c0.488-3.638,0.768-7.332,0.804-11.074   c0.55-58.475-60.297-106.248-60.781-106.649v-0.004v-0.007c-0.252,0.209-57.687,47.354-58.251,105.945   c-0.095,10.144,1.584,19.966,4.423,29.276C297.515,220.773,319.618,246.258,329.885,276.121z"/>
</g>
<g>
	<path style="fill:#67B32E;" d="M329.885,276.121c10.491-64.443,88.114-105.462,88.723-105.811l0.003-0.019l-0.003,0.016   l0.001-0.008c0.237,0.278,40.919,73.119,28.992,137.444c-23.092,124.534-143.17,128.224-143.503,128.381h-96.196   c-0.333-0.157-120.411-3.847-143.503-128.381c-11.928-64.324,28.755-137.166,28.992-137.444l0.001,0.008l-0.003-0.016l0.003,0.019   c0.609,0.349,79.965,39.513,90.456,103.958c18.166-52.952,70.235-91.518,70.483-91.725v-0.019v0.027v-0.017v0.021   C254.815,182.954,311.444,222.485,329.885,276.121z"/>
	<path style="fill:#67B32E;" d="M275.43,174.699c0.321-33.269,18.975-62.842,35.087-82.232   c-10.598-46.428-55.479-81.673-55.886-82.009v-0.003v-0.007c-0.212,0.177-43.125,35.411-53.467,82.268   c17.019,19.587,36.608,49.404,36.295,82.698c-0.061,6.486-0.855,12.83-2.213,18.987c0.762,0.872,1.517,1.727,2.257,2.547   c9.734-9.136,16.737-14.33,16.828-14.406v0.008v0.004c0.173,0.144,7.642,5.373,17.988,14.513c1.5-1.599,3.051-3.304,4.628-5.1   C275.932,186.343,275.375,180.577,275.43,174.699z"/>
</g>
<path d="M447.587,211.715c-7.133-21.527-15.679-39.006-19.38-45.561c-1.387-3.202-4.346-5.632-8.047-6.188  c-2.04-0.305-4.031,0.001-5.79,0.784c-0.37,0.164-0.728,0.349-1.073,0.553c-1.493,0.815-4.573,2.544-8.739,5.133  c-4.781-56.087-56.949-99.877-64.125-105.65c-0.69-0.584-1.463-1.085-2.305-1.481c-3.661-1.724-7.992-1.176-11.113,1.402  c-0.677,0.559-5.47,4.575-12.114,11.358C299.277,34.038,266.5,6.6,261.401,2.492c-0.694-0.59-1.471-1.096-2.321-1.496  c-3.663-1.724-7.992-1.178-11.112,1.4c-1.642,1.355-35.675,29.827-51.488,70.104c-6.301-6.161-11.19-10.218-13.051-11.715  c-0.69-0.584-1.463-1.085-2.305-1.481c-3.661-1.724-7.992-1.176-11.113,1.402c-2.401,1.984-56.493,47.346-61.64,105.97  c-4.411-2.61-7.819-4.432-9.753-5.429c-5.327-3.077-12.332-0.758-14.8,4.862c-3.687,6.521-12.256,24.031-19.405,45.606  c-12.103,36.53-15.565,69.479-10.288,97.932c9.799,52.85,38.323,93.143,82.486,116.521c31.564,16.709,61.726,19.802,70.219,20.352  c0,0,0.745,0.052,1.07,0.052h17.592v54.981c0,5.771,4.679,10.449,10.449,10.449h39.587c5.77,0,10.449-4.678,10.449-10.449v-54.981  h18.12c0.326,0,0.649-0.016,0.972-0.045l0.099-0.006c8.493-0.55,38.654-3.643,70.219-20.352  c44.164-23.379,72.687-63.671,82.486-116.521C463.15,281.194,459.69,248.245,447.587,211.715  C440.454,190.188,459.69,248.245,447.587,211.715z M333.855,82.739c15.131,13.872,49.387,51.983,51.179,97.157  c-19.483,14.805-43.848,37.733-57.096,67.14c-11.211-19.462-25.885-36.105-38.817-48.653c-2.216-8.025-3.313-15.948-3.242-23.583  C286.28,133.223,319.476,96.646,333.855,82.739z M254.8,24.447c11.756,10.836,35.672,35.721,44.292,65.6  c-16.324,20.72-33.784,50.724-34.111,84.554c-0.009,0.959,0.013,1.924,0.032,2.888c-1.638-1.257-3.005-2.272-4.009-3.003  c-1.809-1.5-4.135-2.402-6.671-2.402c-2.426,0-4.656,0.833-6.43,2.223c-0.114-33.712-18.184-63.56-35.289-84.276  C220.962,60.142,243.564,35.35,254.8,24.447z M176.852,82.739c15.131,13.872,50.551,50.84,50.16,92.576  c-0.06,6.454-0.97,13.128-2.696,19.875c-12.384,12.357-27.22,29.493-38.655,49.858c-8.582-18.66-22.752-36.532-42.369-53.388  c-4.86-4.176-9.674-7.951-14.259-11.318c-0.116-1.872-0.173-3.726-0.157-5.541C129.277,133.223,162.474,96.646,176.852,82.739z   M265.081,491.104h-18.689v-44.532h18.689V491.104z M437.328,305.836c-19.862,107.11-114.698,118.611-133.508,119.829  c-0.04,0.002-0.08,0.005-0.124,0.008H275.53h-39.587h-27.637c-0.044-0.003-0.085-0.005-0.124-0.008  c-18.81-1.218-113.647-12.719-133.508-119.829C65.86,258.306,87.791,205.44,97.76,184.682c20.735,12.273,68.252,45.04,75.777,91.263  c0.769,4.728,4.657,8.328,9.43,8.732c4.789,0.4,9.21-2.49,10.767-7.021c9.945-28.992,30.765-53.472,46.63-69.023  c0.413-0.344,0.799-0.72,1.157-1.127c5.064-4.901,9.571-8.86,12.97-11.706c15.074,11.95,51.935,44.228,65.511,83.717  c1.557,4.529,6,7.427,10.768,7.013c4.772-0.406,8.658-4.005,9.427-8.732c7.475-45.921,54.096-80.053,74.187-92.817  C424.419,205.945,446.1,258.532,437.328,305.836z"/>
<path d="M186.54,405.35c-1.087,0-2.19-0.171-3.278-0.53c-19.846-6.553-36.944-16.747-50.82-30.302  c-18.776-18.34-31.018-42.324-36.388-71.285c-1.052-5.674,2.694-11.127,8.369-12.179c5.669-1.049,11.126,2.694,12.178,8.369  c10.022,54.04,45.345,76.351,73.211,85.553c5.481,1.809,8.456,7.718,6.647,13.198C195.01,402.567,190.926,405.35,186.54,405.35z"/>
<path d="M218.028,411.718c-0.486,0-0.974-0.033-1.46-0.103c-5.471-0.728-9.474-5.625-9.029-11.191  c0.46-5.751,5.496-10.032,11.248-9.582c1.336,0.108,2.722,0.479,3.922,1.078c5.162,2.581,7.254,8.858,4.674,14.019  C225.553,409.601,221.861,411.718,218.028,411.718z"/>
<g>
</g>
<g>
</g>
<g>
</g>
<g>
</g>
<g>
</g>
<g>
</g>
<g>
</g>
<g>
</g>
<g>
</g>
<g>
</g>
<g>
</g>
<g>
</g>
<g>
</g>
<g>
</g>
<g>
</g>
</svg>
