<?xml version="1.0" encoding="iso-8859-1"?>
<!-- Generator: Adobe Illustrator 19.0.0, SVG Export Plug-In . SVG Version: 6.00 Build 0)  -->
<svg xmlns="http://www.w3.org/2000/svg" xmlns:xlink="http://www.w3.org/1999/xlink" version="1.1" id="Layer_1" x="0px" y="0px" viewBox="0 0 512.002 512.002" style="enable-background:new 0 0 512.002 512.002;" xml:space="preserve">
<g>
	<path style="fill:#FAB617;" d="M364.415,178.726l-0.008-0.021c-0.241-0.057-54.407-17.231-70.292-58.28   c-15.879-41.067,11.129-89.937,11.247-90.153l-0.004-0.01l0.006,0.016l-0.004-0.009l0.005,0.013   c0.449,0.145,56.203,16.601,72.061,57.583C393.352,129.011,364.415,178.726,364.415,178.726z"/>
	<path style="fill:#FAB617;" d="M315.464,281.054l-0.005-0.022c-0.229-0.095-50.93-25.754-60.008-68.823   c-9.071-43.085,25.443-86.979,25.594-87.173l-0.002-0.011l0.004,0.017l-0.002-0.01l0.003,0.013   c0.42,0.216,52.803,25.421,61.866,68.42C352.017,236.638,315.464,281.054,315.464,281.054z"/>
	<path style="fill:#FAB617;" d="M251.99,354.114l-0.005-0.022c-0.229-0.095-50.93-25.754-60.008-68.823   c-9.071-43.085,25.443-86.979,25.594-87.173l-0.002-0.011l0.004,0.017l-0.002-0.01l0.003,0.013   c0.42,0.216,52.803,25.421,61.866,68.42C288.541,309.698,251.99,354.114,251.99,354.114z"/>
	<path style="fill:#FAB617;" d="M163.588,415.486l-0.001-0.022c-0.208-0.135-45.45-34.516-46.613-78.517   c-1.151-44.015,40.712-80.963,40.895-81.127v-0.011l0.001,0.017v-0.01v0.014c0.375,0.288,47.353,34.527,48.512,78.455   C207.551,378.39,163.588,415.486,163.588,415.486z"/>
	<path style="fill:#FAB617;" d="M464.27,212.951l-0.02,0.01c-0.031,0.247-11.314,55.938-50.429,76.122   c-39.133,20.18-90.612-1.447-90.839-1.541l-0.01,0.005l0.015-0.008l-0.009,0.005l0.011-0.006   c0.096-0.463,10.496-57.656,49.546-77.806C411.747,189.497,464.27,212.951,464.27,212.951z"/>
	<path style="fill:#FAB617;" d="M412.869,346.137l-0.022,0.001c-0.129,0.212-33.172,46.441-77.119,48.89   c-43.963,2.439-82.121-38.325-82.29-38.504l-0.011,0.001l0.017-0.001l-0.01,0.001l0.014-0.001   c0.277-0.382,33.126-48.343,77.002-50.787C374.502,303.278,412.869,346.137,412.869,346.137z"/>
	<path style="fill:#FAB617;" d="M324.171,453.565l-0.022-0.005c-0.187,0.172-45.834,36.429-89.866,26.431   c-44.045-10.013-70.161-60.995-70.278-61.219l-0.011-0.002l0.017,0.004l-0.01-0.002l0.014,0.003   c0.381-0.299,46.327-38.318,90.287-28.335C298.442,400.459,324.171,453.565,324.171,453.565z"/>
	<path style="fill:#FAB617;" d="M370.801,180.552l0.018-0.013c0-0.248,4.164-56.919,40.419-81.877   c36.274-24.958,90.07-9.999,90.307-9.935l0.009-0.006l-0.014,0.009l0.008-0.006l-0.01,0.007   c-0.038,0.471-3.136,58.52-39.332,83.436C425.864,197.189,370.801,180.552,370.801,180.552z"/>
</g>
<path d="M510.112,82.738c-1.511-2.16-3.693-3.575-6.07-4.157c-4.836-1.288-60.03-15.149-98.728,11.477  c-2.532,1.743-4.918,3.619-7.175,5.597c2.427-18.677,3.688-37.592,3.688-56.652c0-5.77-4.677-10.447-10.447-10.447  s-10.447,4.677-10.447,10.447c0,10.358-0.388,20.629-1.128,30.806c-21.31-32.691-63.589-47.081-70.865-49.358  c-2.287-0.835-4.874-0.878-7.326,0.064c-2.495,0.958-4.411,2.769-5.543,4.975c-2.185,4.059-24.959,47.814-14.718,89.108  c-0.888-0.026-1.792,0.053-2.698,0.265c-2.512,0.59-4.599,2.043-6.019,3.973c-2.791,3.634-31.13,41.633-29.015,83.009  c-9.897-7.125-18.185-11.483-20.959-12.874c-2.153-1.201-4.739-1.65-7.335-1.078c-2.473,0.543-4.548,1.923-5.992,3.778  c-1.254,1.604-25.441,33.008-28.895,70.111c-7.409-7.411-13.639-12.301-15.897-14.004c-1.85-1.537-4.258-2.468-6.828-2.406  c-2.703,0.04-5.152,1.104-6.984,2.82c-3.667,3.306-45.431,42.042-44.202,89.036c0.903,34.14,24.506,62.224,39.405,76.605  c-41.895,20.122-87.857,33.484-136.58,38.617c-5.737,0.605-9.899,5.746-9.295,11.484c0.565,5.367,5.098,9.353,10.377,9.353  c0.366,0,0.735-0.02,1.107-0.059c51.668-5.443,101.414-20.033,147.198-42.671c9.434,15.32,34.997,50.933,73.228,59.624  c6.145,1.395,12.282,2.007,18.325,2.007c38.012-0.001,72.153-24.218,79.493-29.811c0.992-0.632,1.887-1.438,2.634-2.399  c2.439-3.138,2.886-7.389,1.153-10.966c-0.879-1.813-17.307-35.104-46.97-55.33c13.218,6.717,28.773,11.902,45.354,11.9  c1.441,0,2.897-0.04,4.353-0.12c44.706-2.493,78.064-43.951,84.377-52.393c0.774-0.873,1.408-1.884,1.862-3.001  c1.5-3.696,0.764-7.924-1.896-10.896c-1.051-1.175-16.923-18.647-40.325-31.21c12.72-0.575,25.989-3.252,38.285-9.592  c39.833-20.554,53.31-71.968,55.624-82.283c0.342-1.086,0.509-2.238,0.477-3.415c-0.109-4.019-2.514-7.618-6.184-9.257  c-1.097-0.49-13.909-6.104-31.666-9.595c10.776-2.304,21.55-6.354,31.267-13.044c37.862-26.063,43.196-82.21,43.798-90.84  C512.215,87.482,511.637,84.919,510.112,82.738z M384.209,194.182c-4.206,1.102-8.377,2.533-12.461,4.348  c0.823-2.103,1.626-4.213,2.416-6.329C376.833,192.818,380.232,193.524,384.209,194.182z M310.735,43.3  c15.189,6.057,46.542,21.438,56.949,48.332c10.428,26.945-1.601,59.333-8.348,73.978c-7.32-3.09-18.537-8.541-29.242-16.592  c-5.012-5.483-10.332-10.326-15.494-14.507c-4.42-5.289-8.177-11.228-10.741-17.856C293.485,89.828,304.426,57.922,310.735,43.3z   M354.312,186.102c-0.49,1.303-0.966,2.613-1.469,3.909c-0.394-1.713-0.841-3.402-1.347-5.06  C352.492,185.369,353.433,185.753,354.312,186.102z M284.254,138.761c4.322,2.596,10.086,6.234,16.004,11.045  c6.25,5.083,10.609,9.66,15.485,14.475c7.378,7.286,14.422,19.349,16.949,31.336c5.961,28.271-11.121,58.304-20.133,71.675  c-13.483-8.471-40.893-28.815-46.883-57.237C259.75,181.918,275.677,152.183,284.254,138.761z M291.292,278.034  c3.561,2.618,6.884,4.852,9.758,6.669c-3.786,5.184-7.696,10.272-11.715,15.27C290.774,292.905,291.541,285.532,291.292,278.034z   M220.777,211.819c14.018,8.421,42.493,28.644,48.44,56.86c5.961,28.271-11.121,58.304-20.133,71.674  c-13.483-8.471-40.893-28.815-46.883-57.236C196.27,254.952,212.202,225.228,220.777,211.819z M127.418,336.674  c-0.753-28.763,20.278-55.131,31.132-66.777c12.269,10.813,36.63,35.842,37.39,64.663c0.765,28.881-21.453,55.342-32.729,66.868  C151.477,390.665,128.186,365.715,127.418,336.674z M216.607,342.081c6.543,5.768,12.944,10.418,18.251,13.92  c-9.387,7.989-19.14,15.569-29.236,22.711C211.246,367.769,215.569,355.353,216.607,342.081z M310.468,450.459  c-13.6,8.921-44.556,26.001-73.87,19.346c-29.04-6.602-50.038-34.519-58.798-48.213c13.784-9.438,45.095-27.57,74.187-20.965  C281.142,407.245,301.931,436.376,310.468,450.459z M256.613,380.252c-5.514-1.253-11.029-1.843-16.478-1.914  c3.764-3.053,7.48-6.171,11.148-9.354c4.781,4.382,12.466,10.856,22.23,17.158C268.206,383.628,262.569,381.604,256.613,380.252z   M335.149,384.598c-28.747,1.611-55.714-18.657-67.662-29.161c10.447-12.579,34.753-37.665,63.543-39.269  c28.854-1.603,55.946,19.824,67.797,30.758C388.41,358.97,364.148,382.982,335.149,384.598z M451.775,219.405  c-4.589,15.247-16.927,47.074-42.741,60.394c-25.586,13.193-58.473,5.721-73.672,1.011c4.398-15.75,16.339-48.571,41.966-61.794  C403.003,205.767,436.492,214.264,451.775,219.405z M456.283,163.563c-23.799,16.386-58.093,12.181-73.901,9.009  c2.629-15.706,10.853-48.834,34.779-65.304c23.704-16.308,57.274-13.049,72.955-10.299  C487.739,113.148,480.037,147.212,456.283,163.563z"/>
<g>
</g>
<g>
</g>
<g>
</g>
<g>
</g>
<g>
</g>
<g>
</g>
<g>
</g>
<g>
</g>
<g>
</g>
<g>
</g>
<g>
</g>
<g>
</g>
<g>
</g>
<g>
</g>
<g>
</g>
</svg>
