<?xml version="1.0" encoding="iso-8859-1"?>
<!-- Generator: Adobe Illustrator 19.0.0, SVG Export Plug-In . SVG Version: 6.00 Build 0)  -->
<svg xmlns="http://www.w3.org/2000/svg" xmlns:xlink="http://www.w3.org/1999/xlink" version="1.1" id="Layer_1" x="0px" y="0px" viewBox="0 0 511.999 511.999" style="enable-background:new 0 0 511.999 511.999;" xml:space="preserve">
<path style="fill:#FAB617;" d="M425.447,244.982c59.03-84.679,78.94-165.976,43.107-201.808  C432.765,7.385,351.623,27.2,267.057,86.064c0,0,32.091,95.368-34.865,186.79C321.961,202.848,425.447,244.982,425.447,244.982z"/>
<g>
	
		<rect x="13.137" y="444.624" transform="matrix(-0.7071 0.7071 -0.7071 -0.7071 410.4294 756.2425)" style="fill:#3E9C06;" width="70.91" height="37.001"/>
	<path style="fill:#3E9C06;" d="M203.143,309.125c110.09-120.18,77.096-240.102,18.789-298.407   c15.989,23.256-4.36,97.387-117.736,210.762S40.231,404.617,73.671,438.056l0.531,0.531c33.441,33.441,103.21,82.86,216.585-30.515   s187.507-133.725,210.763-117.736C443.244,232.03,323.322,199.035,203.143,309.125z"/>
</g>
<path d="M90.962,400.535c-1.023,0-2.062-0.151-3.089-0.471c-5.489-1.707-8.573-7.49-6.904-12.981  c0.014-0.044,0.03-0.101,0.042-0.135c1.714-5.51,7.57-8.589,13.081-6.873c5.51,1.715,8.588,7.571,6.873,13.081  C99.571,397.64,95.426,400.535,90.962,400.535z"/>
<path d="M79.324,372.085c-4.999,0-9.418-3.598-10.288-8.691c-5.747-33.65,10.806-70.181,49.203-108.577  c4.08-4.08,10.697-4.081,14.777,0c4.08,4.081,4.081,10.697,0,14.777c-33.326,33.327-47.921,63.701-43.381,90.282  c0.972,5.688-2.852,11.087-8.541,12.059C80.501,372.036,79.907,372.085,79.324,372.085z"/>
<path d="M508.939,282.948c-18.856-18.856-41.952-33.585-67.227-43.338c25.939-39.334,43.518-77.69,51.061-111.577  c8.983-40.354,3.163-72.253-16.831-92.246c-19.969-19.969-51.821-25.801-92.109-16.862c-33.84,7.508-72.153,25.038-111.451,50.918  c-9.754-24.996-24.384-47.834-43.061-66.513c-3.819-3.819-9.919-4.098-14.071-0.645c-4.151,3.453-4.987,9.502-1.929,13.953  c4.998,7.269,5.076,27.635-11.148,61.11c-13.293,27.425-42.363,73.342-105.365,136.345C45.136,265.764,20.456,315,23.452,360.432  c1.463,22.175,9.327,42.974,23.885,63.018L3.06,467.727c-4.08,4.08-4.08,10.697,0,14.778l26.164,26.164  c1.959,1.959,4.617,3.06,7.388,3.06c2.771,0,5.429-1.101,7.388-3.06l44.195-44.195c20.234,14.848,41.234,22.859,63.635,24.339  c2.465,0.163,4.937,0.243,7.424,0.243c43.357-0.002,90.052-24.728,138.921-73.595c63.002-63.002,108.919-92.072,136.345-105.365  c33.474-16.225,53.839-16.147,61.11-11.149c4.45,3.062,10.5,2.224,13.953-1.928C513.037,292.866,512.757,286.766,508.939,282.948z   M426.246,225.055l-36.622-36.622c8.848-9.603,17.664-19.23,26.137-28.704l30.796,30.796  C440.644,201.779,433.853,213.33,426.246,225.055z M286.129,136.364c-0.276-8.123-1.063-16.201-2.313-24.184l24.119,24.119  c-7.351,6.783-14.776,13.618-22.134,20.314C286.244,149.862,286.358,143.11,286.129,136.364z M311.77,234.037  c-19.758,5.525-39.335,13.872-58.502,24.964c11.091-19.167,19.438-38.744,24.964-58.502L311.77,234.037z M289.093,181.805  c11.08-9.936,22.453-20.397,33.633-30.716l37.926,37.926c-10.311,11.166-20.781,22.528-30.74,33.609L289.093,181.805z   M400.962,144.929c-8.44,9.45-17.261,19.089-26.127,28.715l-36.74-36.74c9.618-8.86,19.257-17.684,28.709-26.132L400.962,144.929z   M382.531,96.943c9.349-8.066,18.378-15.54,26.871-22.064l27.434,27.434c-6.521,8.497-13.989,17.53-22.052,26.884L382.531,96.943z   M375.439,203.803l24.658,24.658c-7.986-1.254-16.065-2.046-24.193-2.322c-7.117-0.241-14.241-0.093-21.363,0.415  C361.431,218.988,368.466,211.354,375.439,203.803z M456.244,170.657l-26.643-26.643c8.002-9.254,15.48-18.248,22.132-26.803  l17.77,17.77C466.26,146.278,461.822,158.231,456.244,170.657z M475.284,81.992c1.13,8.631,0.961,18.251-0.506,28.708L464.24,100.16  C468.74,93.565,472.405,87.534,475.284,81.992z M461.179,50.577c0.048,0.048,0.091,0.101,0.139,0.149  c1.314,1.533,4.678,8.754-12.145,34.369l-22.559-22.559C453.176,45.088,459.998,49.396,461.179,50.577z M430.19,36.514  c-6.368,3.083-12.68,6.935-18.63,10.968L401.038,36.96C411.675,35.468,421.446,35.319,430.19,36.514z M376.755,42.233l17.749,17.749  c-8.55,6.656-17.542,14.142-26.79,22.146l-26.641-26.641C353.502,49.91,365.456,45.475,376.755,42.233z M352.005,95.973  c-9.475,8.481-19.103,17.301-28.698,26.142l-36.634-36.633c11.726-7.606,23.277-14.396,34.532-20.309L352.005,95.973z   M36.612,486.503l-11.386-11.386l35.476-35.476c1.797,1.94,3.652,3.876,5.582,5.804l0.531,0.53c1.746,1.746,3.497,3.436,5.253,5.073  L36.612,486.503z M425.407,291.289c-41.404,20.068-90.509,57.896-142.007,109.393c-47.226,47.226-91.034,69.864-130.191,67.276  c-25.113-1.658-48.539-13.683-71.617-36.762l-0.531-0.531c-23.077-23.077-35.099-46.5-36.756-71.611  c-2.583-39.16,20.054-82.961,67.281-130.188c51.498-51.498,89.325-100.603,109.393-142.007  c7.623-15.728,12.581-30.112,14.823-42.716c42.465,64.059,46.337,163.276-40.363,257.922c-3.777,4.124-3.638,10.492,0.317,14.447  c3.955,3.954,10.323,4.094,14.447,0.317c74.278-68.043,151.367-80.294,212.071-61.892c0.062,0.02,0.122,0.039,0.184,0.056  c16.576,5.045,31.932,12.368,45.667,21.474C455.52,278.71,441.133,283.668,425.407,291.289z"/>
<g>
</g>
<g>
</g>
<g>
</g>
<g>
</g>
<g>
</g>
<g>
</g>
<g>
</g>
<g>
</g>
<g>
</g>
<g>
</g>
<g>
</g>
<g>
</g>
<g>
</g>
<g>
</g>
<g>
</g>
</svg>
