<?xml version="1.0" encoding="iso-8859-1"?>
<!-- Generator: Adobe Illustrator 19.0.0, SVG Export Plug-In . SVG Version: 6.00 Build 0)  -->
<svg xmlns="http://www.w3.org/2000/svg" xmlns:xlink="http://www.w3.org/1999/xlink" version="1.1" id="Layer_1" x="0px" y="0px" viewBox="0 0 512.001 512.001" style="enable-background:new 0 0 512.001 512.001;" xml:space="preserve">
<path style="fill:#67B32E;" d="M377.88,36.806c-3.019,0.809-36.869,49.589-24.623,95.293c12.246,45.704,62.073,72.062,68.971,70.214  c6.897-1.848,36.869-49.589,24.623-95.293C434.604,61.317,380.127,36.204,377.88,36.806z"/>
<path d="M407.799,162.842c-5.699,0-10.36-4.577-10.445-10.294l-0.003-0.24c-0.086-5.77,4.523-10.517,10.293-10.603  c0.052,0,0.107-0.001,0.158-0.001c5.699,0,10.36,4.577,10.445,10.294l0.003,0.24c0.086,5.77-4.523,10.517-10.293,10.603  C407.904,162.842,407.851,162.842,407.799,162.842z"/>
<path style="fill:#EF0000;" d="M158.728,297.501c-12.885,0-25.025,3.668-35.693,10.141c-10.667-6.473-22.808-10.141-35.693-10.141  c-42.467,0-76.894,39.789-76.894,88.871s34.427,88.871,76.895,88.871c12.885,0,25.025-3.668,35.693-10.141  c10.667,6.473,22.808,10.141,35.693,10.141c42.468,0,76.895-39.789,76.895-88.871S201.196,297.501,158.728,297.501z"/>
<path d="M191.711,378.415c-4.498,0-8.652-2.927-10.007-7.457c-5.448-18.214-19.936-30.451-36.051-30.451  c-5.771,0-10.449-4.678-10.449-10.449c0-5.771,4.678-10.449,10.449-10.449c25.423,0,47.957,18.229,56.072,45.361  c1.654,5.529-1.488,11.352-7.016,13.005C193.71,378.273,192.702,378.415,191.711,378.415z"/>
<path d="M191.707,415.199c-1.023,0-2.062-0.152-3.089-0.471c-5.489-1.707-8.573-7.49-6.904-12.981  c0.014-0.044,0.03-0.101,0.042-0.135c1.714-5.51,7.569-8.589,13.081-6.873c5.51,1.715,8.588,7.571,6.873,13.081  C200.316,412.304,196.172,415.199,191.707,415.199z"/>
<path style="fill:#EF0000;" d="M424.656,297.501c-12.885,0-25.025,3.668-35.693,10.141c-10.667-6.473-22.808-10.141-35.693-10.141  c-42.468,0-76.895,39.789-76.895,88.871s34.427,88.871,76.895,88.871c12.885,0,25.025-3.668,35.693-10.141  c10.667,6.473,22.808,10.141,35.693,10.141c42.468,0,76.895-39.789,76.895-88.871S467.124,297.501,424.656,297.501z"/>
<path d="M424.656,287.052c-11.631,0-23.187,2.66-33.848,7.739c-52.954-53.992-70.97-133.606-49.866-196.368  c-1.383,11.5-1.115,23.922,2.224,36.38c7.313,27.295,25.785,46.793,39.992,58.342c1.064,0.864,24.36,19.66,38.499,19.66  c1.159,0,2.258-0.126,3.276-0.399c13.445-3.603,26.019-36.183,26.548-37.567c6.53-17.107,12.778-43.227,5.464-70.523  C449.782,77.584,430.182,58,415.002,46.278c-8.936-6.901-17.013-11.645-22.216-14.41c-9.49-5.044-13.221-5.832-15.972-5.488  c-44.762,0.528-110.684,34.457-164.532,84.789c-29.06,27.163-53.35,57.934-70.245,88.99c-16.62,30.549-26.244,61.208-28.759,91.366  c-8.365-2.945-17.128-4.475-25.934-4.475C39.183,287.052,0,331.606,0,386.371s39.183,99.32,87.344,99.32  c12.304,0,24.527-2.973,35.693-8.641c11.166,5.669,23.388,8.641,35.693,8.641c48.161,0,87.344-44.554,87.344-99.32  s-39.183-99.32-87.344-99.32c-8.271,0-16.504,1.35-24.405,3.952c5.528-55.198,38.444-114.291,92.229-164.565  c35.361-33.053,76.923-59.023,112.101-71.349c-20.577,32.287-30.246,72.979-26.858,115.467  c3.374,42.326,19.011,82.639,44.773,116.574c-1.098-0.047-2.197-0.079-3.298-0.079c-48.161,0-87.344,44.554-87.344,99.32  s39.183,99.32,87.344,99.32c12.304,0,24.527-2.973,35.693-8.641c11.166,5.669,23.388,8.641,35.693,8.641  c48.161,0,87.344-44.554,87.344-99.32C512,331.606,472.817,287.052,424.656,287.052z M373.846,62.121l15.901,59.344  c1.251,4.669,5.472,7.747,10.086,7.747c0.894,0,1.806-0.116,2.712-0.358c5.573-1.493,8.882-7.223,7.388-12.798l-15.809-59  c15.596,10.437,36.169,28.543,42.634,52.669c9.21,34.372-9.329,71.636-17.499,81.511c-12.013-4.468-46.699-27.47-55.908-61.842  C356.734,104.703,365.601,78.71,373.846,62.121z M158.728,307.95c36.638,0,66.446,35.18,66.446,78.422s-29.808,78.422-66.446,78.422  c-10.656,0-20.84-2.902-30.272-8.625c-1.666-1.01-3.543-1.516-5.421-1.516s-3.755,0.505-5.421,1.516  c-9.431,5.723-19.616,8.625-30.272,8.625c-36.637,0-66.445-35.18-66.445-78.422s29.808-78.422,66.446-78.422  c10.656,0,20.84,2.902,30.272,8.625c3.331,2.022,7.511,2.022,10.841,0C137.888,310.851,148.072,307.95,158.728,307.95z   M424.656,464.793c-10.656,0-20.84-2.902-30.272-8.625c-1.666-1.01-3.543-1.516-5.421-1.516c-1.878,0-3.755,0.505-5.421,1.516  c-9.431,5.723-19.616,8.625-30.272,8.625c-36.638,0-66.446-35.18-66.446-78.422s29.808-78.422,66.446-78.422  c10.656,0,20.84,2.902,30.272,8.625c3.331,2.022,7.511,2.022,10.841,0c9.431-5.723,19.616-8.625,30.272-8.625  c36.638,0,66.446,35.18,66.446,78.422S461.294,464.793,424.656,464.793z"/>
<path d="M457.638,378.415c-4.498,0-8.652-2.927-10.007-7.457c-5.448-18.214-19.936-30.451-36.051-30.451  c-5.771,0-10.449-4.678-10.449-10.449c0-5.771,4.678-10.449,10.449-10.449c25.423,0,47.957,18.229,56.072,45.361  c1.654,5.529-1.488,11.352-7.016,13.005C459.638,378.273,458.63,378.415,457.638,378.415z"/>
<path d="M457.635,415.199c-1.023,0-2.062-0.152-3.089-0.471c-5.489-1.707-8.573-7.49-6.904-12.981  c0.014-0.044,0.03-0.101,0.042-0.135c1.714-5.51,7.57-8.589,13.081-6.873c5.51,1.715,8.588,7.571,6.873,13.081  C466.244,412.304,462.1,415.199,457.635,415.199z"/>
<g>
</g>
<g>
</g>
<g>
</g>
<g>
</g>
<g>
</g>
<g>
</g>
<g>
</g>
<g>
</g>
<g>
</g>
<g>
</g>
<g>
</g>
<g>
</g>
<g>
</g>
<g>
</g>
<g>
</g>
</svg>
