<?xml version="1.0" encoding="iso-8859-1"?>
<!-- Generator: Adobe Illustrator 19.0.0, SVG Export Plug-In . SVG Version: 6.00 Build 0)  -->
<svg xmlns="http://www.w3.org/2000/svg" xmlns:xlink="http://www.w3.org/1999/xlink" version="1.1" id="Layer_1" x="0px" y="0px" viewBox="0 0 512 512" style="enable-background:new 0 0 512 512;" xml:space="preserve">
<g>
	<path style="fill:#3E9C06;" d="M330.702,181.465c44.925-44.925,113.333-49.225,152.947-9.61c0,0-71.422-0.153-118.09,46.422   L330.702,181.465z"/>
	<path style="fill:#3E9C06;" d="M331.21,181.973c44.925-44.925,49.225-113.333,9.61-152.947c0,0,0.153,71.422-46.422,118.09   L331.21,181.973z"/>
</g>
<g>
	<path style="fill:#67B32E;" d="M372.315,139.849c37.986-37.986,41.621-95.825,8.128-129.318c0,0,0.066,31.292-14.586,63.544   L372.315,139.849z"/>
	<path style="fill:#67B32E;" d="M372.223,139.758c37.986-37.986,95.825-41.621,129.318-8.128c0,0-31.292-0.066-63.544,14.586   L372.223,139.758z"/>
	<path style="fill:#67B32E;" d="M403.65,85.632c23.759-23.759,51.196-34.843,54.369-31.67c2.685,2.685-7.911,30.61-31.67,54.369   l-15.997-7.63L403.65,85.632z"/>
</g>
<path style="fill:#F29C0B;" d="M44.519,258.037l99.148-99.148c45.415-45.415,119.046-45.415,164.459,0l44.965,44.965  c45.415,45.415,45.415,119.046,0,164.459l-99.148,99.148c-45.415,45.415-119.046,45.415-164.459,0l-44.965-44.965  C-0.895,377.083-0.895,303.452,44.519,258.037z"/>
<path d="M154.491,390.067c-4.32,0-8.364-2.698-9.871-7.006c-1.909-5.452,0.964-11.419,6.416-13.326l0.122-0.043  c5.454-1.911,11.418,0.964,13.326,6.416c1.909,5.452-0.964,11.419-6.416,13.326l-0.122,0.043  C156.803,389.877,155.638,390.067,154.491,390.067z"/>
<path d="M508.937,124.234c-15.922-15.921-37.02-24.915-60.251-25.894c6.164-8.338,10.336-15.68,12.719-20.319  c10.605-20.649,7.978-27.489,4.011-31.454c-3.886-3.886-10.999-6.959-31.705,3.86c-4.548,2.377-11.776,6.554-20.082,12.771  c-1.008-22.419-9.525-43.798-25.79-60.063c-2.99-2.989-7.485-3.877-11.393-2.261c-3.907,1.616-6.457,5.434-6.461,9.662  c0,0.205-0.099,14.734-4.826,33.633c-4.486-8.139-10.129-15.726-16.943-22.539c-2.99-2.99-7.487-3.88-11.396-2.261  c-3.907,1.617-6.457,5.435-6.459,9.665c0,0.641-0.483,61.551-37.548,104.426c-48.886-30.39-114.128-24.379-156.543,18.034  l-99.147,99.148l0,0C13.184,274.582,0,306.412,0,340.268s13.184,65.686,37.124,89.626l44.964,44.964  c24.71,24.71,57.168,37.064,89.626,37.064s64.915-12.355,89.626-37.064l99.147-99.147c23.94-23.94,37.124-55.77,37.124-89.626  c0-23.694-6.466-46.392-18.548-66.091c42.883-37.195,103.936-37.679,104.564-37.679c0.007,0,0.016,0,0.022,0  c4.225,0,8.036-2.542,9.659-6.446c1.624-3.91,0.731-8.414-2.263-11.408c-7.004-7.004-14.877-12.847-23.418-17.475  c19.033-4.794,33.698-4.894,33.893-4.895c0.007,0,0.015,0,0.022,0c4.225,0,8.036-2.542,9.659-6.447  C512.824,131.732,511.93,127.228,508.937,124.234z M144.085,173.263v26.474h-26.474L144.085,173.263z M62.811,254.538l33.884-33.884  h47.391v72.335H62.812v-38.451H62.811z M41.893,394.84h-5.651c-0.07,0-0.138,0.009-0.208,0.01  c-9.853-16.308-15.117-35.041-15.117-54.583c0-9.012,1.123-17.851,3.296-26.361h17.679v80.933H41.893z M41.893,292.989h-9.886  c2.795-5.588,6.098-10.938,9.886-15.993V292.989z M245.936,460.664c-19.919,19.607-46.239,30.399-74.221,30.399  c-2.25,0-4.487-0.077-6.711-0.217V439.28c0-5.776-4.682-10.459-10.459-10.459c-5.776,0-10.459,4.682-10.459,10.459v48.153  c-17.69-4.751-33.906-14.069-47.205-27.368l-34.069-34.069v-10.24h183.124V460.664z M245.936,394.84H62.811v-80.933h81.274v36.983  c0,5.776,4.682,10.459,10.459,10.459c5.776,0,10.459-4.682,10.459-10.459v-36.983h80.933V394.84z M245.936,292.989h-80.933v-72.335  h80.933V292.989z M245.936,199.737h-80.933v-45.18c23.907-16.835,53.279-22.61,80.933-17.317V199.737z M414.221,89.952  c9.902-9.283,20.024-16.036,27.956-20.341c-4.097,7.769-10.492,17.694-19.597,27.553c-2.014-0.215-4.417-0.379-7.071-0.379  c-0.64,0-1.296,0.009-1.963,0.03C413.976,94.212,414.162,91.882,414.221,89.952z M376.422,75.994  c5.604-12.907,9.064-25.517,11.165-36.172c4.108,10.042,5.899,21.251,5.159,33.027c-1.026,16.324-6.797,32.255-16.548,46.177  C378.895,104.549,378.986,89.946,376.422,75.994z M348.511,57.439c16.375,33.014,9.995,76.523-17.633,109.41l-15.355-15.355  c-1.915-1.915-3.882-3.747-5.887-5.514C334.397,116.781,344.443,81.571,348.511,57.439z M266.853,143.541  c12.323,5.153,23.864,12.73,33.879,22.744l33.451,33.451h-67.33V143.541z M266.853,439.762v-24.005h24.005L266.853,439.762z   M339.188,367.427l-27.43,27.43c-0.11-0.003-0.216-0.017-0.327-0.017h-44.578v-80.933h72.335V367.427z M339.188,292.989h-72.335  v-72.335h72.335V292.989z M360.106,343.029v-29.122h12.907C370.224,324.213,365.883,334.014,360.106,343.029z M376.466,292.989  h-16.361V229.14c10.799,16.85,16.587,36.451,16.587,56.944C376.693,288.399,376.613,290.7,376.466,292.989z M366.653,203.077  c-1.969-2.265-4.022-4.475-6.165-6.618l-14.679-14.679c18.587-15.652,40.974-24.937,64.015-26.385  c16.436-1.03,31.965,2.022,45.467,8.759C431.144,168.219,395.883,178.269,366.653,203.077z M435.465,135.917  c-8.679-1.493-17.706-1.98-26.953-1.397c-5.579,0.35-11.12,1.089-16.594,2.187c24.889-17.9,55.554-22.254,80.272-12.208  C461.379,126.634,448.56,130.165,435.465,135.917z"/>
<g>
</g>
<g>
</g>
<g>
</g>
<g>
</g>
<g>
</g>
<g>
</g>
<g>
</g>
<g>
</g>
<g>
</g>
<g>
</g>
<g>
</g>
<g>
</g>
<g>
</g>
<g>
</g>
<g>
</g>
</svg>
