<?xml version="1.0" encoding="iso-8859-1"?>
<!-- Generator: Adobe Illustrator 19.0.0, SVG Export Plug-In . SVG Version: 6.00 Build 0)  -->
<svg xmlns="http://www.w3.org/2000/svg" xmlns:xlink="http://www.w3.org/1999/xlink" version="1.1" id="Layer_1" x="0px" y="0px" viewBox="0 0 511.999 511.999" style="enable-background:new 0 0 511.999 511.999;" xml:space="preserve">
<path style="fill:#3E9C06;" d="M453.442,194.046c7.903-10.615,12.583-23.772,12.583-38.024c0-35.202-28.537-63.739-63.739-63.739  c-14.345,0-27.582,4.741-38.234,12.739c-13.464-11.942-31.171-19.205-50.582-19.205c-4.506,0-8.913,0.413-13.204,1.163l0.018-0.025  c-8.402-39.107-43.173-68.423-84.791-68.423c-37.749,0-69.848,24.126-81.763,57.792c-5.59-1.132-11.374-1.73-17.298-1.73  c-47.898,0-86.727,38.828-86.727,86.727c0,13.038,2.895,25.393,8.049,36.487c-16.686,13.993-27.303,34.986-27.303,58.466  c0,42.127,34.15,76.278,76.278,76.278c27.388,0,51.392-14.443,64.845-36.118l1.356-1.91c16.324,17.415,39.353,28.467,64.971,29.031  c16.367,15.087,38.227,24.307,62.242,24.307c12.814,0,25.013-2.627,36.093-7.367c15.107,14.236,32.886,20.274,49.462,20.274  c27.694,0,51.252-17.666,60.046-42.34c3.91,0.749,7.941,1.157,12.07,1.157c35.202,0,63.739-28.537,63.739-63.739  C501.551,226.039,481.086,201.016,453.442,194.046z"/>
<path style="fill:#97CD44;" d="M188.821,247.915l53.595,77.671l129.045-84.776l7.666,45.708c0,1.045-70.883,44.64-70.883,44.64  v162.307H194.873V344.568l-52.767-69.485L188.821,247.915z"/>
<path d="M469.009,188.511c4.911-10.043,7.465-21.069,7.465-32.488c0-40.907-33.281-74.188-74.188-74.188  c-13.418,0-26.284,3.521-37.653,10.248c-14.798-10.828-32.681-16.714-51.163-16.714c-1.834,0-3.649,0.076-5.454,0.189  c-5.707-17.733-16.505-33.672-31.059-45.569c-17.281-14.126-39.108-21.905-61.465-21.905c-38.153,0-72.624,22.439-88.329,56.653  c-3.562-0.393-7.15-0.59-10.733-0.59c-53.582,0-97.176,43.593-97.176,97.175c0,11.646,2.028,22.966,6.04,33.749  C9.132,211.278,0,233.18,0,256.274c0,47.822,38.905,86.727,86.727,86.727c27.097,0,52.058-12.357,68.429-33.457l29.269,38.542  v145.38c0,5.771,4.678,10.449,10.449,10.449h113.371c5.771,0,10.449-4.678,10.449-10.449V355.979  c13.984,9.907,30.213,15.24,47.003,15.24c28.416,0,54.185-16.327,66.552-41.397c1.858,0.141,3.715,0.212,5.563,0.212  c40.907,0,74.188-33.281,74.188-74.188C512,226.492,494.873,200.453,469.009,188.511z M437.812,309.138  c-3.349,0-6.748-0.326-10.101-0.97c-5.068-0.971-10.08,1.896-11.81,6.753c-7.547,21.174-27.722,35.4-50.203,35.4  c-15.084,0-29.663-5.914-41.508-16.717c6.738-4.16,15.904-9.83,25.018-15.503c10.319-6.423,18.549-11.589,24.459-15.355  c3.552-2.263,6.313-4.051,8.211-5.315c3.786-2.523,7.699-5.133,7.699-10.912c0-5.771-4.678-10.449-10.449-10.449  c-2.76,0-5.268,1.069-7.136,2.816c-5.522,3.978-45.011,28.482-69.221,43.372c-3.091,1.902-4.975,5.27-4.975,8.9v151.858h-92.473  V344.567c0-2.282-0.747-4.502-2.127-6.32l-52.767-69.485c-3.49-4.594-10.046-5.492-14.641-2.002  c-4.595,3.49-5.492,10.045-2.002,14.641l8.14,10.719c-12.22,18.798-32.744,29.981-55.198,29.981  c-36.298,0-65.829-29.531-65.829-65.829c0-19.507,8.59-37.899,23.569-50.459c3.621-3.036,4.753-8.124,2.763-12.409  c-4.696-10.107-7.077-20.902-7.077-32.085c0-42.059,34.218-76.278,76.278-76.278c5.113,0,10.235,0.512,15.225,1.522  c5.101,1.031,10.187-1.847,11.923-6.755c10.759-30.403,39.659-50.83,71.913-50.83c32.304,0,61.04,20.696,71.783,50.439  c-35.056,11.134-60.532,43.982-60.532,82.676c0,5.771,4.678,10.449,10.449,10.449s10.449-4.678,10.449-10.449  c0-36.298,29.531-65.829,65.829-65.829c16.098,0,31.6,5.886,43.649,16.573c3.716,3.295,9.236,3.52,13.208,0.538  c9.276-6.965,20.327-10.645,31.959-10.645c29.385,0,53.29,23.905,53.29,53.29c0,11.553-3.636,22.545-10.515,31.784  c-2.085,2.8-2.633,6.455-1.463,9.744c1.17,3.288,3.906,5.775,7.29,6.629c23.677,5.97,40.215,27.216,40.215,51.669  C491.102,285.233,467.197,309.138,437.812,309.138z M368.765,285.186c0.036-0.279,0.093-0.537,0.147-0.798  C368.857,284.652,368.8,284.915,368.765,285.186z M368.995,283.967c0.084-0.335,0.186-0.648,0.296-0.952  C369.179,283.328,369.077,283.643,368.995,283.967z M369.355,282.817c0.147-0.386,0.307-0.749,0.481-1.081  C369.656,282.084,369.496,282.446,369.355,282.817z"/>
<path d="M242.425,336.037c-3.322,0-6.585-1.582-8.609-4.516l-53.595-77.67c-3.278-4.749-2.085-11.257,2.666-14.535  c4.749-3.277,11.257-2.085,14.535,2.666l47.794,69.264l120.508-79.168c4.823-3.169,11.301-1.828,14.471,2.996  c3.168,4.823,1.828,11.302-2.996,14.471L248.153,334.32C246.387,335.48,244.395,336.037,242.425,336.037z"/>
<path d="M67.452,169.055c-0.607,0-1.22-0.053-1.839-0.164c-5.666-1.012-9.452-6.386-8.459-12.057c0.004-0.024,0.02-0.11,0.024-0.135  c1.032-5.663,6.456-9.449,12.123-8.442c5.666,1.012,9.452,6.386,8.459,12.057c-0.004,0.025-0.02,0.11-0.024,0.135  C76.817,165.494,72.409,169.055,67.452,169.055z"/>
<path d="M397.508,230.848c-1.555,0-3.134-0.348-4.623-1.085c-5.173-2.558-7.293-8.824-4.737-13.997l0.027-0.054  c2.526-5.182,8.777-7.354,13.961-4.838c5.186,2.516,7.361,8.743,4.854,13.933l-0.109,0.222  C405.062,228.711,401.358,230.848,397.508,230.848z"/>
<path d="M78.29,145.433c-2.317,0-4.647-0.766-6.584-2.341c-4.478-3.639-5.159-10.221-1.518-14.699  c14.454-17.784,37.43-26.293,59.963-22.211c5.678,1.029,9.448,6.466,8.419,12.145c-1.029,5.679-6.47,9.448-12.145,8.419  c-15.04-2.728-30.37,2.957-40.019,14.828C84.339,144.114,81.328,145.433,78.29,145.433z"/>
<g>
</g>
<g>
</g>
<g>
</g>
<g>
</g>
<g>
</g>
<g>
</g>
<g>
</g>
<g>
</g>
<g>
</g>
<g>
</g>
<g>
</g>
<g>
</g>
<g>
</g>
<g>
</g>
<g>
</g>
</svg>
