<?xml version="1.0" encoding="iso-8859-1"?>
<!-- Generator: Adobe Illustrator 19.0.0, SVG Export Plug-In . SVG Version: 6.00 Build 0)  -->
<svg xmlns="http://www.w3.org/2000/svg" xmlns:xlink="http://www.w3.org/1999/xlink" version="1.1" id="Layer_1" x="0px" y="0px" viewBox="0 0 512 512" style="enable-background:new 0 0 512 512;" xml:space="preserve">
<path style="fill:#51B70F;" d="M334.117,423.449c0,43.139-34.946,78.102-78.073,78.102c-43.121,0-78.073-34.964-78.073-78.102  l-40.063-233.968c0-65.283,52.883-118.189,118.137-118.189c65.242,0,118.126,52.906,118.126,118.189L334.117,423.449z"/>
<g>
	<path style="fill:#3E9C06;" d="M374.175,71.291c-21.521,0-41.694,5.757-59.069,15.812c35.308,20.433,59.064,58.624,59.064,102.377   l-40.053,233.968c0,19.522-7.173,37.355-19.007,51.046c14.316,16.562,35.459,27.056,59.065,27.056   c43.127,0,78.073-34.964,78.073-78.102L492.3,189.481C492.301,124.198,439.418,71.291,374.175,71.291z"/>
	<path style="fill:#3E9C06;" d="M177.972,423.449l-40.063-233.968c0-43.737,23.739-81.916,59.028-102.354   c-17.383-10.069-37.567-15.834-59.1-15.834c-65.254,0-118.137,52.906-118.137,118.189L59.762,423.45   c0,43.139,34.952,78.102,78.073,78.102c23.631,0,44.79-10.513,59.105-27.1C185.13,460.766,177.972,442.95,177.972,423.449z"/>
</g>
<path d="M374.175,60.842c-20.615,0-40.918,4.967-59.098,14.384c-14.585-7.574-30.795-12.43-47.958-13.902  c4.137-23.818,28.357-40.426,60.627-40.426c5.77,0,10.449-4.678,10.449-10.449S333.516,0,327.746,0  c-43.819,0-77.55,25.841-81.717,61.23c-17.573,1.36-34.165,6.276-49.063,14.018c-18.189-9.43-38.503-14.405-59.13-14.405  C66.935,60.843,9.25,118.551,9.25,189.482c0,0.59,0.05,1.181,0.15,1.764L49.32,424.363C49.814,472.769,89.333,512,137.837,512  c21.961,0,42.961-8.156,59.119-22.675C212.637,503.415,233.358,512,256.044,512c22.67,0,43.376-8.571,59.052-22.641  C331.251,503.856,352.237,512,374.175,512c48.507,0,88.027-39.227,88.517-87.637l39.907-233.12c0.1-0.583,0.15-1.172,0.15-1.764  C502.75,118.55,445.072,60.842,374.175,60.842z M70.212,423.448c0-0.59-0.05-1.181-0.15-1.764l-39.91-233.072  C30.621,129.603,78.747,81.74,137.837,81.74c13.144,0,26.134,2.407,38.301,7.031c-29.641,23.586-48.679,59.964-48.679,100.708  c0,0.59,0.05,1.181,0.15,1.764l39.918,233.12c0.187,18.264,5.935,35.218,15.619,49.255c-12.368,11.185-28.467,17.483-45.31,17.483  C100.548,491.102,70.212,460.753,70.212,423.448z M256.044,491.102c-37.288,0-67.625-30.349-67.625-67.654  c0-0.59-0.05-1.181-0.15-1.764l-39.91-233.072c0.469-59.011,48.595-106.873,107.685-106.873  c59.083,0,107.203,47.864,107.673,106.873l-39.899,233.073c-0.1,0.583-0.15,1.172-0.15,1.764  C323.668,460.753,293.333,491.102,256.044,491.102z M441.95,421.685c-0.1,0.583-0.15,1.172-0.15,1.764  c0,37.304-30.336,67.654-67.625,67.654c-16.818,0-32.898-6.283-45.26-17.44c9.702-14.046,15.46-31.015,15.645-49.298l39.907-233.12  c0.1-0.583,0.15-1.172,0.15-1.764c0-40.757-19.047-77.143-48.699-100.729c12.153-4.611,25.128-7.011,38.256-7.011  c59.083,0,107.205,47.863,107.674,106.872L441.95,421.685z"/>
<path d="M92.468,312.652c-4.671,0-8.924-3.154-10.123-7.888c-13.692-54.102-20.347-91.443-20.347-114.157  c0-12.38,2.75-24.255,8.172-35.296c2.544-5.181,8.802-7.316,13.986-4.772c5.18,2.544,7.315,8.805,4.771,13.985  c-4.002,8.148-6.031,16.924-6.031,26.082c0,20.671,6.631,57.354,19.708,109.031c1.416,5.594-1.972,11.277-7.566,12.692  C94.177,312.548,93.315,312.652,92.468,312.652z"/>
<path d="M100.534,145.142c-3.178,0-6.314-1.443-8.368-4.18c-3.462-4.616-2.527-11.167,2.09-14.629  c4.615-3.462,11.175-2.535,14.638,2.082c3.462,4.616,2.536,11.16-2.08,14.622l-0.019,0.014  C104.917,144.461,102.716,145.142,100.534,145.142z"/>
<g>
</g>
<g>
</g>
<g>
</g>
<g>
</g>
<g>
</g>
<g>
</g>
<g>
</g>
<g>
</g>
<g>
</g>
<g>
</g>
<g>
</g>
<g>
</g>
<g>
</g>
<g>
</g>
<g>
</g>
</svg>
