<?xml version="1.0" encoding="iso-8859-1"?>
<!-- Generator: Adobe Illustrator 19.0.0, SVG Export Plug-In . SVG Version: 6.00 Build 0)  -->
<svg xmlns="http://www.w3.org/2000/svg" xmlns:xlink="http://www.w3.org/1999/xlink" version="1.1" id="Layer_1" x="0px" y="0px" viewBox="0 0 511.999 511.999" style="enable-background:new 0 0 511.999 511.999;" xml:space="preserve">
<g>
	<path style="fill:#B74A00;" d="M465.756,179.181c-53.724,24.64-100.285,33.803-138.457,45.151   c-3.996,27.537-13.186,52.005-33.869,72.688c-21.236,21.236-46.802,35.505-73.856,42.806   c-6.616,55.661,19.659,112.496,71.277,142.298c69.129,39.912,157.522,16.226,197.434-52.902   C528.197,360.092,465.023,285.181,465.756,179.181z"/>
	<path style="fill:#B74A00;" d="M293.429,294.102c64.728-64.728,16.985-166.457,49.257-283.657   C207.654,33.376,123.759-5.024,59.031,59.703s-64.728,169.671,0,234.398S228.702,358.829,293.429,294.102z"/>
</g>
<g>
	<path style="fill:#FFD29F;" d="M347.407,384.165c-40.48-23.371-86.727-27.687-128.37-15.745   c3.682,45.762,29.047,89.011,71.814,113.703s92.903,25.033,134.376,5.341C414.748,445.43,387.887,407.537,347.407,384.165z"/>
	<path style="fill:#FFD29F;" d="M150.752,202.381c-37.903-37.903-87.85-56.409-137.521-55.541   c-9.503,51.783,5.756,107.218,45.8,147.263s95.478,55.304,147.263,45.8C207.162,290.231,188.654,240.283,150.752,202.381z"/>
</g>
<path d="M92.49,126.033c-1.725,0-3.474-0.428-5.085-1.329c-5.035-2.815-6.837-9.175-4.024-14.212  c0.038-0.067,0.106-0.186,0.145-0.253c2.925-4.973,9.328-6.634,14.3-3.708c4.939,2.905,6.611,9.242,3.765,14.201  C99.671,124.123,96.133,126.033,92.49,126.033z"/>
<path d="M117.558,97.147c-3.201,0-6.359-1.466-8.409-4.237c-3.43-4.639-2.45-11.181,2.19-14.611  c25.045-18.517,54.211-18.533,87.982-18.553c22.199-0.013,47.361-0.027,76.471-4.971c5.692-0.967,11.082,2.862,12.048,8.551  s-2.862,11.082-8.551,12.048c-30.84,5.237-56.934,5.252-79.957,5.265c-32.545,0.019-56.059,0.032-75.573,14.46  C121.892,96.48,119.715,97.147,117.558,97.147z"/>
<path d="M496.127,294.586c-9.478-34.031-20.221-72.602-19.926-115.333c0.024-3.571-1.777-6.906-4.775-8.845  c-3-1.939-6.781-2.211-10.027-0.723c-39.676,18.197-75.474,27.812-107.056,36.295c-5.187,1.394-10.229,2.749-15.155,4.105  c1.778-19.724,1.573-40.701,1.356-62.772c-0.399-40.61-0.851-86.638,12.215-134.091c0.949-3.442,0.072-7.131-2.323-9.78  c-2.395-2.648-5.978-3.89-9.498-3.293c-49.473,8.401-92.047,8.425-129.609,8.447C146.503,8.632,95.3,8.662,51.644,52.316  c-68.696,68.697-68.696,180.476,0,249.173c34.349,34.349,79.468,51.523,124.586,51.523c10.727,0,21.451-0.983,32.033-2.924  c-2.559,57.507,26.959,111.98,77.365,141.081c23.881,13.788,50.381,20.831,77.237,20.83c13.46,0,27.013-1.771,40.363-5.348  c39.986-10.714,73.406-36.359,94.104-72.208C522.797,390.338,509.843,343.828,496.127,294.586z M66.418,286.714  c-35.249-35.249-49.97-83.366-44.179-129.369c45.773,1.394,88.512,19.808,121.126,52.421  c32.616,32.615,51.037,75.344,52.424,121.126C149.784,336.685,101.667,321.965,66.418,286.714z M158.14,194.994  c-35.611-35.61-82.012-56.052-131.852-58.39c6.803-25.483,20.178-49.56,40.131-69.513c37.541-37.541,82.582-37.566,144.924-37.603  c34.407-0.02,72.931-0.043,117.423-6.31c-9.897,44.552-9.482,86.696-9.113,124.338c0.575,58.418,1.028,104.561-33.609,139.198  c-19.953,19.953-44.03,33.328-69.512,40.131C214.195,277.013,193.749,230.603,158.14,194.994z M397.821,486.471  c-34.596,9.269-70.729,4.512-101.746-13.396c-36.131-20.86-59.825-56.791-65.64-96.796c38.19-8.709,77.553-2.81,111.749,16.932  c34.199,19.745,58.99,50.89,70.542,88.324C407.892,483.45,402.919,485.105,397.821,486.471z M479.238,423.997  c-11.666,20.205-28.004,36.659-47.54,48.241c-13.502-41.094-41.207-75.26-79.068-97.119c-37.844-21.85-81.266-28.763-123.587-19.927  c0.046-3.454,0.215-6.921,0.531-10.399c26.078-8.238,50.605-22.667,71.243-43.305c20.216-20.217,30.296-43.297,35.251-68.827  c7.553-2.162,15.434-4.285,23.694-6.504c28.548-7.668,60.453-16.237,95.892-31.132c1.952,39.124,11.661,73.981,20.346,105.166  C489.585,348.966,500.314,387.49,479.238,423.997z"/>
<g>
</g>
<g>
</g>
<g>
</g>
<g>
</g>
<g>
</g>
<g>
</g>
<g>
</g>
<g>
</g>
<g>
</g>
<g>
</g>
<g>
</g>
<g>
</g>
<g>
</g>
<g>
</g>
<g>
</g>
</svg>
