<?xml version="1.0" encoding="iso-8859-1"?>
<!-- Generator: Adobe Illustrator 19.0.0, SVG Export Plug-In . SVG Version: 6.00 Build 0)  -->
<svg xmlns="http://www.w3.org/2000/svg" xmlns:xlink="http://www.w3.org/1999/xlink" version="1.1" id="Layer_1" x="0px" y="0px" viewBox="0 0 512.001 512.001" style="enable-background:new 0 0 512.001 512.001;" xml:space="preserve">
<path style="fill:#3E9C06;" d="M378.923,334.234c43.26-43.26,99.978-26.677,118.964-74.983  c17.288-43.987-31.964-64.649-31.964-92.528c0-27.134,47.067-62.448-5.566-115.08s-87.947-5.566-115.08-5.566  c-27.879,0-48.54-49.253-92.528-31.964c-48.307,18.986-31.724,75.704-74.983,118.964s-93.635-3.992-135.485,37.858  s-13.4,95.682,2.519,163.121s12.559,120.585,12.559,120.585s53.145-3.361,120.585,12.559c67.44,15.919,121.271,44.37,163.121,2.519  S335.664,377.495,378.923,334.234z"/>
<path d="M490,191.733c-7.007-9.059-13.627-17.614-13.627-25.009c0-5.508,3.503-13.151,7.21-21.246  c10.683-23.319,26.828-58.559-15.837-101.224c-42.668-42.668-77.907-26.519-101.224-15.837c-8.093,3.707-15.739,7.21-21.244,7.21  c-7.395,0-15.952-6.62-25.01-13.628C303.753,9.225,281.138-8.273,248.926,4.388c-30.953,12.166-39.365,37.996-47.499,62.975  c-6.475,19.886-13.172,40.448-31.05,58.326c-18.526,18.527-38.178,17.534-60.932,16.381c-23.68-1.197-50.521-2.557-74.555,21.477  C17.561,180.877,9.44,201.8,10.063,227.51c0.537,22.101,7.299,45.926,14.461,71.148c3.455,12.169,7.027,24.753,10.107,37.799  c12.95,54.858,12.823,100.496,12.451,113.684L3.061,494.162c-4.08,4.08-4.08,10.697,0,14.778c2.041,2.041,4.715,3.061,7.389,3.061  s5.348-1.02,7.389-3.061l44.022-44.022c13.196-0.372,58.833-0.497,113.683,12.451c13.046,3.079,25.63,6.652,37.799,10.107  c25.224,7.161,49.047,13.925,71.148,14.46c0.917,0.022,1.826,0.033,2.73,0.033c24.466,0,44.52-8.149,61.234-24.862  c24.033-24.033,22.675-50.873,21.477-74.554c-1.153-22.753-2.146-42.404,16.381-60.931c17.877-17.878,38.44-24.575,58.325-31.05  c24.98-8.135,50.81-16.546,62.975-47.499C520.273,230.864,502.776,208.247,490,191.733z M488.162,255.429  c-8.559,21.778-25.94,27.439-49.996,35.273c-21.192,6.902-45.213,14.724-66.633,36.144c-25.091,25.091-23.701,52.543-22.475,76.765  c1.119,22.134,2.087,41.25-15.383,58.72c-29.275,29.274-65.076,19.109-114.626,5.042c-12.391-3.517-25.204-7.156-38.705-10.342  c-40.21-9.492-75.213-12.293-97.631-12.967l91.332-91.332l141.026-0.599c5.77-0.024,10.428-4.723,10.404-10.493  c-0.024-5.757-4.698-10.405-10.448-10.405c-0.016,0-0.03,0-0.045,0l-119.95,0.51l88.844-88.844l93.017-0.395  c5.77-0.024,10.428-4.723,10.404-10.493c-0.024-5.757-4.698-10.405-10.448-10.405c-0.016,0-0.03,0-0.046,0l-71.938,0.306  l74.835-74.835c4.08-4.08,4.08-10.697,0-14.778c-4.082-4.08-10.696-4.079-14.778,0l-74.742,74.743l0.305-71.754  c0.024-5.771-4.634-10.469-10.404-10.493c-0.016,0-0.03,0-0.046,0c-5.75,0-10.424,4.649-10.448,10.405l-0.395,92.832l-88.844,88.844  l0.509-119.764c0.024-5.771-4.634-10.469-10.404-10.493c-0.016,0-0.03,0-0.046,0c-5.75,0-10.424,4.649-10.448,10.405l-0.599,140.841  l-91.425,91.425c-0.674-22.419-3.474-57.422-12.967-97.631c-3.187-13.502-6.824-26.314-10.342-38.706  c-14.068-49.551-24.231-85.353,5.042-114.626c17.47-17.469,36.588-16.502,58.719-15.382c24.224,1.228,51.674,2.614,76.767-22.475  c21.42-21.42,29.241-45.44,36.143-66.632c7.835-24.055,13.494-41.437,35.274-49.996c21.163-8.319,34.948,2.344,50.908,14.692  c11.437,8.847,23.263,17.997,37.798,17.997c10.067,0,19.724-4.424,29.949-9.109c22.297-10.215,45.351-20.777,77.742,11.614  c32.392,32.392,21.83,55.447,11.615,77.742c-4.684,10.225-9.11,19.883-9.11,29.95c0,14.535,9.148,26.36,17.996,37.797  C485.817,220.481,496.481,234.265,488.162,255.429z"/>
<path d="M89.02,339.75c-4.736,0-9.026-3.242-10.161-8.051c-2.417-10.235-5.226-20.131-7.943-29.7  c-7.998-28.175-15.554-54.788-8.982-78.81c1.522-5.567,7.266-8.845,12.836-7.322c5.566,1.522,8.844,7.27,7.322,12.836  c-5.034,18.404,1.436,41.196,8.929,67.588c2.78,9.791,5.653,19.915,8.177,30.606c1.326,5.617-2.153,11.244-7.77,12.571  C90.623,339.659,89.815,339.75,89.02,339.75z"/>
<path d="M86.979,211.238c-2.716,0-5.426-1.051-7.474-3.146c-4.016-4.11-3.957-10.686,0.118-14.725  c4.037-4.073,10.611-4.134,14.722-0.119c4.129,4.032,4.206,10.648,0.173,14.776c-0.056,0.059-0.179,0.181-0.237,0.237  C92.249,210.248,89.612,211.238,86.979,211.238z"/>
<g>
</g>
<g>
</g>
<g>
</g>
<g>
</g>
<g>
</g>
<g>
</g>
<g>
</g>
<g>
</g>
<g>
</g>
<g>
</g>
<g>
</g>
<g>
</g>
<g>
</g>
<g>
</g>
<g>
</g>
</svg>
