<?xml version="1.0" encoding="iso-8859-1"?>
<!-- Generator: Adobe Illustrator 19.0.0, SVG Export Plug-In . SVG Version: 6.00 Build 0)  -->
<svg xmlns="http://www.w3.org/2000/svg" xmlns:xlink="http://www.w3.org/1999/xlink" version="1.1" id="Layer_1" x="0px" y="0px" viewBox="0 0 512 512" style="enable-background:new 0 0 512 512;" xml:space="preserve">
<g>
	<path style="fill:#0034B7;" d="M181.535,395.926c10.643-28.547,37.316-49.272,69.074-51.249   c10.445-28.078,4.403-60.897-18.165-83.465c-30.857-30.857-80.888-30.857-111.745,0s-30.857,80.888,0,111.745   C137.392,389.65,159.693,397.293,181.535,395.926z"/>
	<path style="fill:#0034B7;" d="M329.632,395.926c-10.643-28.547-37.316-49.272-69.074-51.249   c-10.445-28.078-4.403-60.897,18.165-83.465c30.857-30.857,80.888-30.857,111.745,0s30.857,80.888,0,111.745   C373.776,389.65,351.475,397.293,329.632,395.926z"/>
	<path style="fill:#0034B7;" d="M112.155,271.341c2.526-3.548,5.362-6.945,8.545-10.128c11.802-11.802,26.41-19.073,41.675-21.848   c9.187-12.912,14.609-28.69,14.609-45.745c0-43.639-35.376-79.015-79.015-79.015s-79.015,35.376-79.015,79.015   s35.376,79.016,79.015,79.016C102.814,272.636,107.55,272.176,112.155,271.341z"/>
	<path style="fill:#0034B7;" d="M270.177,271.342c2.527-3.551,5.369-6.945,8.554-10.129c11.802-11.802,26.41-19.073,41.675-21.848   c9.187-12.912,14.609-28.69,14.609-45.745c0-43.639-35.376-79.015-79.015-79.015s-79.015,35.376-79.015,79.015   c0,17.125,5.466,32.964,14.723,45.906c14.926,2.899,29.177,10.127,40.738,21.687c3.134,3.134,5.937,6.472,8.434,9.961   c4.895,0.949,9.947,1.461,15.12,1.461C260.843,272.636,265.575,272.177,270.177,271.342z"/>
	<path style="fill:#0034B7;" d="M245.695,115.296c-13.59-23.892-39.26-40.017-68.712-40.017s-55.121,16.125-68.712,40.017   c38.767,5.053,68.712,38.18,68.712,78.324C176.984,153.476,206.928,120.347,245.695,115.296z"/>
	<path style="fill:#0034B7;" d="M403.727,115.296c-13.59-23.892-39.26-40.017-68.712-40.017c-29.452,0-55.121,16.125-68.712,40.017   c38.767,5.053,68.712,38.18,68.712,78.324C335.015,153.476,364.96,120.347,403.727,115.296z"/>
	<path style="fill:#0034B7;" d="M414.031,114.605c-43.639,0-79.015,35.376-79.015,79.015c0,17.125,5.466,32.963,14.723,45.906   c14.926,2.899,29.177,10.127,40.738,21.687c3.133,3.133,5.931,6.471,8.428,9.96c4.897,0.95,9.951,1.462,15.127,1.462   c43.639,0,79.015-35.376,79.015-79.015S457.67,114.605,414.031,114.605z"/>
	<circle style="fill:#0034B7;" cx="255.583" cy="423.521" r="79.012"/>
</g>
<path d="M414.443,253.878c-2.692,0-5.381-1.026-7.434-3.08l-0.087-0.087c-4.106-4.106-4.106-10.763,0-14.87  c4.107-4.106,10.762-4.106,14.87,0l0.087,0.087c4.106,4.106,4.106,10.763,0,14.87C419.824,252.852,417.134,253.878,414.443,253.878z  "/>
<path d="M256,483.78c-2.692,0-5.381-1.026-7.434-3.079l-0.087-0.087c-4.106-4.106-4.106-10.763,0-14.87  c4.107-4.106,10.762-4.106,14.87,0l0.087,0.087c4.106,4.106,4.106,10.763,0,14.87C261.381,482.754,258.691,483.78,256,483.78z"/>
<path d="M140.945,362.757c-5.806,0-10.514-4.707-10.514-10.514v-0.124c0-5.807,4.708-10.514,10.514-10.514  s10.514,4.707,10.514,10.514v0.124C151.459,358.05,146.752,362.757,140.945,362.757z"/>
<path d="M370.222,362.757c-5.806,0-10.514-4.707-10.514-10.514v-0.124c0-5.807,4.708-10.514,10.514-10.514  s10.514,4.707,10.514,10.514v0.124C380.736,358.05,376.029,362.757,370.222,362.757z"/>
<path d="M47.174,203.082c-5.806,0-10.514-4.707-10.514-10.514c0-33.806,27.503-61.31,61.31-61.31  c5.806,0,10.514,4.707,10.514,10.514s-4.708,10.514-10.514,10.514c-22.212,0-40.282,18.07-40.282,40.282  C57.688,198.375,52.98,203.082,47.174,203.082z"/>
<path d="M98.381,253.878c-2.692,0-5.381-1.026-7.434-3.08l-0.087-0.087c-4.106-4.106-4.106-10.763,0-14.87  c4.107-4.106,10.762-4.106,14.87,0l0.087,0.087c4.106,4.106,4.106,10.763,0,14.87C103.762,252.852,101.071,253.878,98.381,253.878z"/>
<path d="M256.411,253.878c-2.692,0-5.381-1.026-7.434-3.08l-0.087-0.087c-4.106-4.106-4.106-10.763,0-14.87  c4.107-4.106,10.762-4.106,14.87,0l0.087,0.087c4.106,4.106,4.106,10.763,0,14.87C261.793,252.852,259.103,253.878,256.411,253.878z  "/>
<path d="M363.236,203.082c-5.806,0-10.514-4.707-10.514-10.514c0-33.806,27.503-61.31,61.31-61.31  c5.806,0,10.514,4.707,10.514,10.514s-4.708,10.514-10.514,10.514c-22.212,0-40.282,18.07-40.282,40.282  C373.749,198.375,369.041,203.082,363.236,203.082z"/>
<path d="M204.775,203.082c-5.806,0-10.514-4.707-10.514-10.514c0-33.806,27.503-61.31,61.31-61.31  c5.806,0,10.514,4.707,10.514,10.514s-4.708,10.514-10.514,10.514c-22.212,0-40.282,18.07-40.282,40.282  C215.289,198.375,210.582,203.082,204.775,203.082z"/>
<path d="M223.877,472.674c-2.303,0-4.622-0.753-6.56-2.304c-14.642-11.71-23.038-29.17-23.038-47.9  c0-9.138,1.965-17.934,5.84-26.143c2.477-5.251,8.743-7.501,13.996-5.019c5.251,2.478,7.499,8.744,5.019,13.996  c-2.54,5.381-3.828,11.157-3.828,17.167c0,12.308,5.52,23.78,15.144,31.479c4.535,3.627,5.271,10.243,1.643,14.777  C230.018,471.323,226.963,472.674,223.877,472.674z"/>
<path d="M125.768,326.538c-5.806,0-10.514-4.707-10.514-10.514c0-33.806,27.503-61.31,61.31-61.31  c5.806,0,10.514,4.707,10.514,10.514s-4.708,10.514-10.514,10.514c-22.212,0-40.282,18.07-40.282,40.282  C136.282,321.831,131.574,326.538,125.768,326.538z"/>
<path d="M284.22,326.538c-5.806,0-10.514-4.707-10.514-10.514c0-33.806,27.503-61.31,61.31-61.31  c5.806,0,10.514,4.707,10.514,10.514s-4.708,10.514-10.514,10.514c-22.212,0-40.282,18.07-40.282,40.282  C294.734,321.831,290.026,326.538,284.22,326.538z"/>
<path d="M503.561,192.569c0-49.367-40.162-89.529-89.529-89.529c-1.619,0-3.227,0.048-4.826,0.134  c-16.566-24.497-44.391-39.461-74.189-39.461c-25.642,0-49.821,11.084-66.626,29.783c7.849-41.406,39.466-72.467,77.169-72.467  c5.806,0,10.514-4.707,10.514-10.514S351.365,0,345.56,0c-50.207,0-91.893,42.173-99,96.938  c-16.851-20.779-42.394-33.226-69.576-33.226c-29.799,0-57.625,14.963-74.189,39.461c-1.599-0.085-3.207-0.134-4.826-0.134  c-49.367,0-89.529,40.163-89.529,89.529c0,47.942,37.881,87.196,85.283,89.422c-4.379,10.658-6.678,22.174-6.678,34.043  c0,23.915,9.312,46.397,26.222,63.307c14.717,14.717,34.025,23.738,54.485,25.765c-0.806,4.088-1.325,8.277-1.552,12.541  c-0.015,0.268-0.027,0.536-0.04,0.804c-0.059,1.333-0.1,2.671-0.1,4.018c0,49.367,40.162,89.53,89.529,89.53  s89.529-40.163,89.529-89.53c0-2.945-0.15-5.891-0.438-8.822c-0.284-2.889-0.712-5.735-1.265-8.537c0-0.001,0-0.002,0-0.003  c20.46-2.027,39.772-11.048,54.489-25.766c26.266-26.266,32.76-64.924,19.498-97.328  C465.21,280.231,503.561,240.805,503.561,192.569z M335.015,84.741c19.626,0,38.134,8.491,50.995,22.814  c-21.99,7.266-40.231,22.826-50.995,42.973c-10.763-20.148-29.005-35.707-50.995-42.973  C296.882,93.231,315.389,84.741,335.015,84.741z M246.994,124.678c0.022-0.003,0.045-0.005,0.067-0.008  c2.928-0.384,5.908-0.602,8.938-0.602c3.067,0,6.08,0.223,9.042,0.615c0.016,0.002,0.033,0.004,0.048,0.006  c33.488,4.462,59.411,33.191,59.411,67.88c0,12.978-3.619,25.468-10.48,36.371c-15.671,3.675-30.539,11.594-42.734,23.788  c-2.48,2.48-4.785,5.092-6.927,7.807c-5.917,0.731-11.803,0.688-17.64-0.11c-2.118-2.675-4.394-5.249-6.841-7.696  c-11.942-11.942-26.448-19.792-41.76-23.564c-6.954-10.953-10.621-23.522-10.621-36.594  C187.498,157.851,213.465,129.103,246.994,124.678z M176.984,84.741c19.626,0,38.134,8.491,50.995,22.814  c-21.99,7.266-40.231,22.826-50.995,42.973c-10.763-20.148-29.005-35.707-50.995-42.973  C138.851,93.231,157.359,84.741,176.984,84.741z M97.969,261.071c-37.772,0-68.501-30.73-68.501-68.501s30.73-68.501,68.501-68.501  c3.066,0,6.079,0.223,9.041,0.615c0.017,0.002,0.034,0.004,0.05,0.006c33.488,4.463,59.411,33.191,59.411,67.88  c0,12.979-3.62,25.469-10.481,36.372c-15.667,3.676-30.532,11.594-42.723,23.786c-2.481,2.482-4.779,5.097-6.928,7.806  C103.53,260.881,100.729,261.071,97.969,261.071z M108.071,316.033c0-14.418,4.44-28.145,12.646-39.652  c0.043-0.061,0.087-0.122,0.129-0.184c2.175-3.029,4.599-5.912,7.288-8.601c26.708-26.708,70.167-26.708,96.876,0  c17.378,17.379,23.989,42.808,17.677,66.287c-20.934,3.02-40.43,13.703-54.367,29.594c-3.733,4.257-7.071,8.859-9.94,13.741  c-1.383,2.351-2.662,4.768-3.83,7.249c-17.401-0.516-34.029-7.609-46.415-19.994C115.196,351.534,108.071,334.332,108.071,316.033z   M255.588,490.972c-37.772,0-68.501-30.73-68.501-68.502s30.73-68.501,68.501-68.501s68.501,30.73,68.501,68.501  S293.36,490.972,255.588,490.972z M335.073,381.344c-9.946-19.138-26.698-34.177-46.71-42.165c-5.72-2.284-11.708-3.93-17.779-4.958  c-0.699-0.119-1.398-0.237-2.103-0.34c-6.313-23.479,0.299-48.908,17.677-66.286c26.708-26.708,70.167-26.708,96.876,0  c26.708,26.71,26.708,70.168,0,96.876c-12.381,12.382-29.023,19.477-46.406,19.995C336.305,383.782,335.608,382.376,335.073,381.344  z M414.03,261.071c-3.087,0-6.198-0.225-9.292-0.649c-2.112-2.66-4.378-5.237-6.835-7.695  c-11.94-11.939-26.441-19.789-41.751-23.562c-6.955-10.954-10.623-23.524-10.623-36.597c0-34.718,25.967-63.465,59.495-67.89  c0.022-0.003,0.045-0.005,0.067-0.008c2.928-0.384,5.908-0.602,8.938-0.602c37.772,0,68.501,30.73,68.501,68.501  S451.803,261.071,414.03,261.071z"/>
<g>
</g>
<g>
</g>
<g>
</g>
<g>
</g>
<g>
</g>
<g>
</g>
<g>
</g>
<g>
</g>
<g>
</g>
<g>
</g>
<g>
</g>
<g>
</g>
<g>
</g>
<g>
</g>
<g>
</g>
</svg>
