<?xml version="1.0" encoding="iso-8859-1"?>
<!-- Generator: Adobe Illustrator 19.0.0, SVG Export Plug-In . SVG Version: 6.00 Build 0)  -->
<svg xmlns="http://www.w3.org/2000/svg" xmlns:xlink="http://www.w3.org/1999/xlink" version="1.1" id="Layer_1" x="0px" y="0px" viewBox="0 0 512 512" style="enable-background:new 0 0 512 512;" xml:space="preserve">
<path style="fill:#FAB617;" d="M10.74,353.365c0,17.643,12.975,32.245,29.879,34.745l0,0c28.576,8.908,37.996,33.145,45.709,41.971  c34.752,42.849,97.737,71.482,169.67,71.482c69.206,0,130.12-26.509,165.589-66.677c0,0,35.874-37.612,63.844-52.153  c9.759-6.236,15.825-16.906,15.825-29.368c0-12.462-6.067-23.133-15.825-29.368c-27.969-14.541-63.844-52.153-63.844-52.153  c-35.468-40.168-96.382-66.677-165.589-66.677c-71.934,0-134.918,28.634-169.67,71.482c-7.713,8.826-17.133,33.064-45.709,41.971  l0,0C23.715,321.12,10.74,335.722,10.74,353.365z"/>
<path style="fill:#F29C0B;" d="M80.617,284.667c2.126-3.224,3.964-6.019,5.711-8.018c34.752-42.849,97.737-71.482,169.67-71.482  c56.139,0,106.818,17.445,142.887,45.472c24.506-40.129,35.364-83.653,31.335-122.272c-0.788-11.694-11.265-35.493,2.643-61.999l0,0  c10.184-13.721,9.034-33.22-3.441-45.695c-12.476-12.476-31.974-13.626-45.695-3.441l0,0c-26.506,13.908-50.305,3.43-61.999,2.643  c-54.873-5.724-119.656,18.565-170.521,69.43C102.269,138.24,77.942,200.057,81.265,253.54  C81.265,253.539,81.588,267.254,80.617,284.667z"/>
<path d="M124.907,321.231c-2.31,0-4.634-0.763-6.568-2.332c-4.477-3.631-5.162-10.203-1.532-14.68  c23.22-28.628,61.218-49.13,104.251-56.245c5.704-0.94,11.061,2.909,12,8.594c0.939,5.687-2.908,11.059-8.593,12  c-38.067,6.294-71.397,24.081-91.446,48.8C130.956,319.911,127.945,321.231,124.907,321.231z"/>
<path d="M255.998,266.005h-0.196c-5.763,0-10.436-4.672-10.436-10.437c0-5.764,4.673-10.436,10.436-10.436h0.196  c5.763,0,10.437,4.672,10.437,10.436C266.434,261.333,261.761,266.005,255.998,266.005z"/>
<path d="M377.681,345.322h-0.196c-5.763,0-10.436-4.672-10.436-10.436c0-5.764,4.673-10.437,10.436-10.437h0.196  c5.763,0,10.436,4.672,10.436,10.437C388.117,340.65,383.444,345.322,377.681,345.322z"/>
<path d="M352.71,298.706h-0.196c-5.763,0-10.437-4.672-10.437-10.436c0-5.764,4.673-10.437,10.437-10.437h0.196  c5.763,0,10.436,4.672,10.436,10.437C363.146,294.033,358.473,298.706,352.71,298.706z"/>
<path d="M315.486,335.93h-0.196c-5.763,0-10.437-4.672-10.437-10.436c0-5.764,4.673-10.437,10.437-10.437h0.196  c5.763,0,10.437,4.672,10.437,10.437C325.922,331.257,321.249,335.93,315.486,335.93z"/>
<path d="M491.051,315.202c-0.262-0.167-0.53-0.322-0.806-0.465c-25.286-13.146-58.647-47.543-60.98-49.966  c-5.172-5.842-10.818-11.361-16.861-16.556c22.219-39.485,32.211-82.04,28.216-120.756c-0.24-3.267-0.956-6.75-1.781-10.772  c-2.549-12.409-5.713-27.816,2.936-44.828c12.74-17.905,10.67-42.925-4.972-58.566C421.159-2.35,396.139-4.419,378.234,8.322  c-17.011,8.646-32.417,5.483-44.827,2.935c-4.022-0.827-7.506-1.543-10.774-1.782c-29.037-2.996-60.685,1.912-91.531,14.197  c-31.555,12.569-61.734,32.711-87.275,58.251c-49.27,49.271-76.544,113.572-72.991,172.044c0.03,1.567,0.212,12.929-0.492,27.309  c-6.72,10.079-15.38,21.697-32.141,27.16c-21.669,3.653-37.898,22.808-37.898,44.929s16.23,41.276,37.898,44.929  c18.144,5.914,26.801,19.046,33.773,29.622c2.26,3.427,4.217,6.397,6.358,8.876c18.416,22.653,44.263,41.561,74.762,54.685  C184.297,504.903,219.879,512,256,512c69.683,0,134.434-26.178,173.267-70.04c2.333-2.422,35.695-36.82,60.98-49.966  c0.277-0.143,0.544-0.298,0.806-0.465c12.926-8.259,20.641-22.526,20.641-38.163C511.694,337.728,503.975,323.461,491.051,315.202z   M158.586,96.682c46.548-46.548,108.649-71.998,162.057-66.429c0.127,0.014,0.255,0.024,0.382,0.033  c1.915,0.129,4.959,0.755,8.182,1.416c13.279,2.726,35.503,7.292,59.368-5.231c0.479-0.252,0.936-0.54,1.37-0.861  c9.705-7.203,23.502-6.153,32.095,2.441c8.593,8.593,9.643,22.392,2.441,32.095c-0.322,0.434-0.609,0.892-0.861,1.37  c-12.522,23.865-7.957,46.091-5.23,59.369c0.662,3.222,1.287,6.266,1.415,8.181c0.009,0.127,0.02,0.255,0.032,0.381  c3.511,33.647-5.052,70.875-24.18,105.909c-37.867-25.889-87.375-40.628-139.661-40.628c-36.12,0-71.703,7.097-102.904,20.522  c-23.705,10.201-44.582,23.908-61.361,40.141c-0.015-1.243-0.031-1.976-0.034-2.1c-0.003-0.134-0.009-0.268-0.018-0.402  C88.409,200.244,113.421,141.848,158.586,96.682z M480.157,373.714c-29.091,15.319-64.618,52.391-66.122,53.969  c-0.092,0.097-0.183,0.195-0.271,0.295c-34.914,39.542-93.893,63.148-157.765,63.148c-65.828,0-127.738-25.911-161.565-67.62  c-0.08-0.099-0.163-0.196-0.246-0.293c-1.263-1.445-2.973-4.04-4.784-6.786c-7.46-11.318-19.948-30.261-45.678-38.281  c-0.516-0.161-1.044-0.282-1.578-0.36c-11.955-1.769-20.97-12.268-20.97-24.421s9.015-22.652,20.97-24.421  c0.534-0.079,1.062-0.199,1.578-0.36c25.729-8.02,38.217-26.963,45.678-38.281c1.811-2.747,3.521-5.341,4.784-6.786  c0.083-0.096,0.166-0.194,0.246-0.293c33.828-41.709,95.736-67.62,161.565-67.62c63.873,0,122.851,23.606,157.765,63.147  c0.089,0.1,0.18,0.198,0.271,0.295c1.505,1.579,37.032,38.652,66.122,53.969c6.782,4.495,10.662,11.887,10.662,20.349  S486.939,369.219,480.157,373.714z"/>
<path d="M271.652,93.107h-0.196c-5.763,0-10.436-4.672-10.436-10.437c0-5.764,4.673-10.437,10.436-10.437h0.196  c5.763,0,10.436,4.672,10.436,10.437C282.089,88.434,277.415,93.107,271.652,93.107z"/>
<path d="M296.624,139.723h-0.196c-5.763,0-10.436-4.672-10.436-10.437c0-5.764,4.673-10.436,10.436-10.436h0.196  c5.763,0,10.436,4.672,10.436,10.436C307.06,135.051,302.387,139.723,296.624,139.723z"/>
<path d="M333.652,102.5c-5.763,0-10.437-4.672-10.437-10.437c0-5.764,4.673-10.436,10.437-10.436h0.114c0.027,0,0.056,0,0.083,0  c5.725,0,10.39,4.618,10.434,10.355c0.045,5.763-4.591,10.473-10.355,10.518H333.652z"/>
<g>
</g>
<g>
</g>
<g>
</g>
<g>
</g>
<g>
</g>
<g>
</g>
<g>
</g>
<g>
</g>
<g>
</g>
<g>
</g>
<g>
</g>
<g>
</g>
<g>
</g>
<g>
</g>
<g>
</g>
</svg>
