<?xml version="1.0" encoding="iso-8859-1"?>
<!-- Generator: Adobe Illustrator 19.0.0, SVG Export Plug-In . SVG Version: 6.00 Build 0)  -->
<svg xmlns="http://www.w3.org/2000/svg" xmlns:xlink="http://www.w3.org/1999/xlink" version="1.1" id="Layer_1" x="0px" y="0px" viewBox="0 0 512 512" style="enable-background:new 0 0 512 512;" xml:space="preserve">
<path style="fill:#89CD37;" d="M270.24,66.043c0.717-2.1-14.644-41.361-46.435-52.229s-67.05,8.074-68.69,12.873  c-1.641,4.797,14.644,41.361,46.435,52.229S269.705,67.606,270.24,66.043z"/>
<path style="fill:#3E9C06;" d="M256.065,122.174c0,0,92.727-107.187,192.676-28.141c109.931,86.941,16.447,259.514-9.399,308.498  c-25.846,48.985-57.568,99.011-103.387,99.011c-45.82,0-54.043-26.85-79.89-26.85h-0.133c-25.846,0-34.071,26.85-79.89,26.85  c-45.82,0-77.54-50.027-103.387-99.011c-25.846-48.984-119.33-221.556-9.399-308.498c99.949-79.047,192.676,28.141,192.676,28.141  H256.065z"/>
<path d="M66.291,279.144c-4.609,0-8.829-3.071-10.088-7.733c-7.413-27.457-9.444-52.379-6.036-74.073  c4.348-27.68,17.467-50.348,38.995-67.374c15.732-12.442,32.569-19.833,50.043-21.969c5.715-0.701,10.947,3.377,11.647,9.11  c0.702,5.732-3.377,10.947-9.11,11.648c-13.605,1.663-26.932,7.589-39.608,17.614c-31.731,25.095-40.391,65.332-25.741,119.594  c1.505,5.575-1.794,11.315-7.369,12.82C68.111,279.026,67.194,279.144,66.291,279.144z"/>
<path d="M76.76,310.616c-4.007,0-7.828-2.315-9.561-6.212c-0.041-0.092-0.083-0.189-0.122-0.285  c-2.157-5.219,0.228-11.236,5.419-13.544c5.281-2.345,11.457,0.032,13.801,5.309c0.041,0.092,0.083,0.189,0.122,0.285  c2.157,5.219-0.228,11.236-5.419,13.544C79.62,310.325,78.178,310.616,76.76,310.616z"/>
<path d="M507.207,168.462c-7.526-33.503-25.015-61.303-51.979-82.629C399.385,41.669,345.67,52.31,310.442,69.014  c-16.349,7.752-30.133,17.395-40.562,25.881c10.953-42.382,45.392-72.527,69.967-74.002c5.764-0.346,10.156-5.299,9.811-11.064  c-0.347-5.764-5.301-10.149-11.065-9.811c-20.724,1.243-43.951,15.089-62.133,37.038c-1.682,2.031-3.296,4.109-4.85,6.223  c-1.11-1.88-2.34-3.855-3.732-5.914c-7.825-11.587-21.238-26.795-40.69-33.445c-19.755-6.753-39.232-3.479-52.093,0.457  c-4.365,1.336-26.318,8.526-29.873,18.928c-3.304,9.668,7.653,26.866,11.329,32.236c-29.592-3.715-64.254,2.196-99.779,30.292  C29.808,107.16,12.319,134.96,4.793,168.463c-6.148,27.372-5.659,58.838,1.454,93.526C18.726,322.841,48.116,378.468,62.242,405.2  l1.168,2.214C92.073,461.734,125.556,512,176.045,512c29.184,0,44.925-9.911,57.572-17.876c8.273-5.209,14.25-8.973,22.319-8.973  h0.133c8.069,0,14.046,3.764,22.319,8.973C291.035,502.089,306.774,512,335.959,512c50.488,0,83.972-50.267,112.635-104.587  l1.168-2.214c14.125-26.732,43.515-82.36,55.995-143.211C512.866,227.3,513.356,195.833,507.207,168.462z M247.488,99.403  c-3.142-2.728-6.698-5.652-10.637-8.661c4.899-0.926,9.416-2.162,13.384-3.459C249.133,91.279,248.212,95.323,247.488,99.403z   M220.424,23.708c19.743,6.749,32.322,27.49,37.23,37.914c-10.484,5.322-33.235,14.063-52.722,7.4  C183.79,61.793,170.258,40.18,166.48,30.57C175.349,25.285,199.283,16.479,220.424,23.708z M485.267,257.786  c-11.878,57.925-40.326,111.767-53.998,137.643l-1.174,2.223c-25.606,48.528-54.734,93.435-94.138,93.435  c-23.149,0-34.983-7.452-46.428-14.66c-9.517-5.992-19.357-12.19-33.462-12.19h-0.133c-14.104,0-23.944,6.196-33.462,12.19  c-11.445,7.207-23.281,14.66-46.428,14.66c-39.406,0-68.532-44.907-94.138-93.435l-1.174-2.223  c-13.671-25.876-42.119-79.717-53.998-137.643c-14.23-69.391,0.24-121.726,43.011-155.551  c37.899-29.972,79.044-34.881,122.289-14.591c33.427,15.683,55.78,41.127,55.993,41.372c1.986,2.296,4.872,3.616,7.908,3.616h0.133  c3.035,0,5.921-1.32,7.908-3.616c0.217-0.251,22.127-25.315,55.43-41.106c43.448-20.603,84.782-15.782,122.853,14.326  C485.026,136.061,499.497,188.395,485.267,257.786z"/>
<g>
</g>
<g>
</g>
<g>
</g>
<g>
</g>
<g>
</g>
<g>
</g>
<g>
</g>
<g>
</g>
<g>
</g>
<g>
</g>
<g>
</g>
<g>
</g>
<g>
</g>
<g>
</g>
<g>
</g>
</svg>
