<?xml version="1.0" encoding="iso-8859-1"?>
<!-- Generator: Adobe Illustrator 19.0.0, SVG Export Plug-In . SVG Version: 6.00 Build 0)  -->
<svg xmlns="http://www.w3.org/2000/svg" xmlns:xlink="http://www.w3.org/1999/xlink" version="1.1" id="Layer_1" x="0px" y="0px" viewBox="0 0 511.999 511.999" style="enable-background:new 0 0 511.999 511.999;" xml:space="preserve">
<g>
	<path style="fill:#FAB617;" d="M373.392,73.878l-24.77-63.409h109.944l-24.863,63.409c0.261,2.599,67.85,22.247,67.85,169.085   c0,161.53-195.651,240.166-254.884,249.858s-117.749,11.308-143.059,4.847c-25.309-6.462-46.849,3.877-46.849,3.877   s-16.154-9.262-18.308-34.032c20.463-9.062,26.386-18.847,26.386-18.847s25.309-36.976,64.799-49.182   s150.059-72.516,197.445-174.47S381.648,122.341,373.392,73.878z"/>
	<path style="fill:#FAB617;" d="M362.622,59.882c0,0-49.182,0-85.081,58.151c-55.494,89.891-135.493,123.88-175.262,135.164   s-65.256,45.464-65.256,45.464s-5.966,9.045-26.573,17.422c2.169,22.898,18.438,31.46,18.438,31.46s21.692-9.557,47.18-3.584   c0,0,87.895-19.089,160.582-93.666S352.168,121.217,359.507,94.045C366.846,66.874,362.622,59.882,362.622,59.882z"/>
	<path style="fill:#FAB617;" d="M80.348,428.266c0.615,0.185,1.268,0.363,1.923,0.539c11.27-10.806,27.526-23.19,47.366-29.322   c39.489-12.205,150.059-72.517,197.446-174.47s54.567-102.672,46.31-151.135l-5.467-13.995   c-4.505,34.607-21.215,71.063-58.587,115.833c-72.048,86.31-158.894,145.009-198.862,155.545   c-39.967,10.537-66.807,46.416-66.807,46.416s-6.329,9.528-27.154,17.722c1.112,24.839,16.863,34.772,16.863,34.772   S55.332,420.746,80.348,428.266z"/>
</g>
<path d="M236.638,468.831c-5.032,0-9.465-3.643-10.3-8.77c-0.929-5.696,2.936-11.066,8.632-11.995l0.377-0.063  c5.693-0.957,11.08,2.884,12.035,8.576c0.956,5.691-2.884,11.08-8.576,12.035l-0.473,0.078  C237.762,468.786,237.196,468.831,236.638,468.831z"/>
<path d="M270.022,459.891c-4.342,0-8.397-2.726-9.883-7.063c-1.873-5.459,1.036-11.403,6.495-13.274  c23.19-7.953,102.566-38.865,150.321-102.736c22.968-30.717,34.87-64.449,35.378-100.258c0.082-5.771,4.819-10.392,10.597-10.3  c5.77,0.082,10.383,4.827,10.3,10.597c-0.572,40.311-13.873,78.154-39.537,112.478c-51.336,68.66-135.658,101.545-160.279,109.989  C272.289,459.708,271.146,459.891,270.022,459.891z"/>
<path d="M482.473,107.784c-13.031-21.765-27.268-32.699-35.878-38.164l21.698-55.337c1.261-3.216,0.851-6.849-1.095-9.703  c-1.947-2.854-5.179-4.562-8.634-4.562H348.622c-3.453,0-6.683,1.705-8.629,4.556s-2.361,6.48-1.105,9.695l14.12,36.146  c-17.465,2.956-55.136,14.791-84.36,62.126c-55.788,90.369-136.927,121.437-169.222,130.6  c-42.686,12.11-69.653,47.759-70.781,49.271c-0.201,0.27-0.167,0.19-0.272,0.367c-0.767,0.934-6.424,7.347-21.858,13.621  c-4.274,1.738-6.903,6.072-6.468,10.666c2.672,28.203,23.106,39.265,23.974,39.722c1.51,0.794,3.183,1.192,4.859,1.192  c1.423,0,2.85-0.286,4.18-0.859c0.123-0.052,8.17-3.443,19.717-4.411c-10.702,9.774-16.935,17.981-17.477,18.705  c-0.189,0.253-0.162,0.189-0.269,0.365c-0.737,0.911-6.605,7.699-22.344,13.892c-4.156,1.635-6.813,5.73-6.614,10.192  c1.341,29.952,20.898,42.619,21.728,43.143c1.694,1.068,3.629,1.611,5.574,1.611c1.397,0,2.801-0.28,4.121-0.847  c0.136-0.057,10.35-4.205,24.003-3.93c-3.198,3.903-5.015,6.52-5.288,6.919c-0.179,0.261-0.155,0.196-0.254,0.375  c-0.697,0.939-6.274,7.97-21.741,14.819c-4.083,1.808-6.566,6.011-6.179,10.46c2.597,29.87,22.669,41.704,23.522,42.192  c1.595,0.914,3.39,1.372,5.189,1.372c1.532,0,3.068-0.331,4.486-0.996c0.184-0.086,18.696-8.577,39.786-3.193  c27.335,6.979,87.919,5.064,147.33-4.659c30.222-4.945,96.208-27.631,154.124-69.859c71.649-52.242,109.523-118.051,109.523-190.312  C512.001,185.992,502.066,140.511,482.473,107.784z M30.565,335.851c-2.642-2.429-6.28-6.787-8.33-13.596  c15.458-7.604,21.629-15.159,23.255-17.463c1.618-2.108,24.812-31.659,59.643-41.541c34.644-9.829,121.662-43.121,181.301-139.727  c24.56-39.785,55.109-49.812,68.892-52.34c-6.854,30.755-24.259,62.198-54.009,97.837  C227.482,257.471,142.2,312.093,107.813,321.158c-10.866,2.864-20.791,7.392-29.581,12.582  C57.755,329,39.545,333.041,30.565,335.851z M35.715,418.358c-2.671-2.966-6.28-8.274-7.927-16.467  c16.096-7.694,22.748-15.874,24.293-18.011c1.325-1.721,26.044-33.284,61.058-42.514c45.083-11.885,133.797-74.59,204.219-158.953  c22.303-26.718,38.195-51.487,48.349-75.603c-1.363,15.731-8.686,31.012-26.39,67.948c-5.897,12.301-13.235,27.61-21.713,45.851  C273,316.577,167.726,376.773,126.55,389.5c-19.255,5.952-35.261,17.114-47.127,27.694C60.928,412.681,44.418,415.85,35.715,418.358  z M244.981,482.509c-55.971,9.158-114.339,11.274-138.786,5.034c-6.924-1.768-13.591-2.443-19.738-2.443  c-11.872,0-21.798,2.519-27.857,4.544c-2.793-2.852-6.622-8.002-8.612-16.119c15.793-8.382,22.089-16.854,23.524-19.03  c1.244-1.775,24.414-34.271,59.21-45.026c20.58-6.361,58.86-24.648,99.01-55.253c33.079-25.214,78.117-67.333,104.826-124.797  c8.426-18.128,15.428-32.737,21.606-45.626c27.852-58.104,32.871-68.574,25.529-111.669c-0.119-0.699-0.309-1.386-0.567-2.047  l-5.434-13.91c-0.01-0.027-0.021-0.053-0.031-0.079l-13.737-35.167h79.321l-19.27,49.144c-0.606,1.544-0.835,3.211-0.669,4.862  c0.57,5.653,4.716,8.021,7.743,9.752c49.635,28.355,60.053,101.727,60.053,158.286C491.101,393.174,308.061,472.185,244.981,482.509  z"/>
<g>
</g>
<g>
</g>
<g>
</g>
<g>
</g>
<g>
</g>
<g>
</g>
<g>
</g>
<g>
</g>
<g>
</g>
<g>
</g>
<g>
</g>
<g>
</g>
<g>
</g>
<g>
</g>
<g>
</g>
</svg>
