<?xml version="1.0" encoding="iso-8859-1"?>
<!-- Generator: Adobe Illustrator 19.0.0, SVG Export Plug-In . SVG Version: 6.00 Build 0)  -->
<svg xmlns="http://www.w3.org/2000/svg" xmlns:xlink="http://www.w3.org/1999/xlink" version="1.1" id="Layer_1" x="0px" y="0px" viewBox="0 0 512.001 512.001" style="enable-background:new 0 0 512.001 512.001;" xml:space="preserve">
<g>
	<path style="fill:#EFEEEE;" d="M67.081,67.081c-60.547,60.547-74.811,144.449-31.86,187.4c18.289,18.289,47.941,18.289,66.23,0   s18.289-47.941,0-66.23l0.266,0.266c-16.489-16.489,5.332-37.642,22.1-20.874c19.309,19.309,3.975,46.949,90.024,132.997   c24.451-24.451,43.345-43.345,43.345-43.345s18.894-18.894,43.345-43.345c-86.048-86.048-113.689-70.714-132.997-90.024   c-16.768-16.768,4.385-38.589,20.874-22.1l-0.155-0.378c18.289,18.289,47.941,18.289,66.23,0s18.289-47.941,0-66.23   C211.53-7.731,127.628,6.533,67.081,67.081z"/>
	<path style="fill:#EFEEEE;" d="M453.976,281.249c-50.869-50.869-121.359-62.854-157.445-26.767   c-15.365,15.365-15.365,40.278,0,55.643s40.278,15.365,55.643,0l-0.224,0.224c13.853-13.853,31.625,4.479,17.537,18.568   c-16.222,16.222-63.666,27.561-135.96,99.855c20.542,20.542,36.416,36.416,36.416,36.416s15.874,15.874,36.416,36.416   c72.294-72.294,83.633-119.738,99.855-135.96c14.087-14.087,32.421,3.684,18.568,17.537l0.318-0.13   c-15.365,15.365-15.365,40.278,0,55.643s40.278,15.365,55.643,0C516.828,402.607,504.845,332.117,453.976,281.249z"/>
</g>
<path d="M213.84,311.039c-2.661,0-5.323-1.015-7.352-3.046c-59.993-59.993-72.044-92.411-80.019-113.862  c-3.369-9.063-5.403-14.533-10.006-19.135c-4.001-4.002-7.298-3.558-9.048-1.807c-2.01,2.009-1.407,4.916,1.653,7.976  c0.067,0.068,0.133,0.135,0.198,0.204c21.846,22.351,21.692,58.308-0.465,80.466c-22.313,22.313-58.62,22.314-80.935,0  C4.645,238.611-4.51,204.447,2.089,165.637c6.375-37.502,26.845-75.115,57.64-105.908c30.794-30.794,68.406-51.264,105.908-57.64  c38.814-6.596,72.975,2.558,96.197,25.78c22.313,22.314,22.313,58.622,0,80.935c-10.81,10.81-25.181,16.763-40.467,16.763  c-14.464,0-28.108-5.329-38.691-15.058c-0.575-0.381-1.12-0.822-1.623-1.325c-3.06-3.06-5.967-3.662-7.976-1.654  c-1.751,1.751-2.195,5.047,1.807,9.048c4.603,4.603,10.074,6.637,19.135,10.006c21.451,7.974,53.869,20.025,113.862,80.019  c4.06,4.06,4.06,10.644,0,14.706l-86.689,86.689C219.163,310.024,216.501,311.039,213.84,311.039z M110.638,151.15  c6.793,0,14.078,2.688,20.531,9.141c7.81,7.81,11.046,16.515,14.793,26.595c7.019,18.881,17.471,46.988,67.933,98.996l71.876-71.876  c-52.007-50.462-80.115-60.914-98.996-67.933c-10.08-3.747-18.784-6.982-26.595-14.793c-13.076-13.078-10.691-29.575-1.807-38.459  c8.433-8.434,23.015-10.916,35.439-0.16c0.638,0.404,1.239,0.883,1.793,1.435c6.881,6.881,16.031,10.671,25.762,10.671  c9.731,0,18.881-3.79,25.762-10.671c14.206-14.206,14.206-37.319,0-51.525c-18.323-18.322-46.028-25.421-78.007-19.983  c-33.289,5.66-66.916,24.071-94.688,51.843c-27.773,27.772-46.185,61.4-51.844,94.689c-5.437,31.979,1.661,59.682,19.984,78.007  c14.206,14.206,37.32,14.205,51.524,0c14.206-14.206,14.206-37.32,0-51.525c-0.099-0.099-0.195-0.199-0.289-0.301  c-12.191-12.708-9.846-28.071-1.098-36.819C97.21,153.984,103.665,151.15,110.638,151.15z"/>
<path d="M94.512,104.91c-2.661,0-5.323-1.015-7.352-3.046c-4.06-4.06-4.06-10.644,0-14.706  c19.507-19.507,42.458-34.398,66.374-43.063c5.399-1.957,11.362,0.834,13.319,6.234c1.956,5.4-0.835,11.362-6.234,13.319  c-21.071,7.634-41.388,20.85-58.754,38.216C99.835,103.896,97.173,104.91,94.512,104.91z"/>
<path d="M190.502,56.785c-5.411,0-9.977-4.189-10.362-9.67c-0.4-5.706,3.883-10.659,9.578-11.096  c5.691-0.476,10.732,3.751,11.23,9.458c0.498,5.719-3.721,10.76-9.439,11.261c-0.06,0.005-0.208,0.017-0.267,0.022  C190.993,56.775,190.746,56.785,190.502,56.785z"/>
<path d="M306.36,512c-2.661,0-5.323-1.016-7.352-3.046l-72.832-72.832c-1.95-1.95-3.046-4.595-3.046-7.352  c0-2.758,1.096-5.403,3.046-7.352c50.08-50.08,88.026-71.254,113.137-85.266c10.409-5.808,18.631-10.397,22.824-14.589  c1.343-1.342,2.093-2.678,2.111-3.762c0.012-0.768-0.365-1.263-0.592-1.49c-0.227-0.228-0.608-0.525-1.128-0.49  c-0.866,0.012-2.041,0.698-3.222,1.879c-0.063,0.062-0.127,0.125-0.19,0.185c-9.347,9.136-21.667,14.16-34.76,14.16  c-13.286,0-25.779-5.174-35.174-14.57c-19.394-19.395-19.394-50.953,0-70.348c19.903-19.902,49.123-27.758,82.274-22.122  c31.844,5.414,63.762,22.777,89.877,48.89c26.113,26.113,43.476,58.032,48.89,89.876c5.636,33.153-2.22,62.371-22.122,82.274  c-19.395,19.396-50.952,19.395-70.348,0c-9.396-9.396-14.57-21.888-14.57-35.174c0-12.53,4.6-24.351,13.004-33.537  c0.363-0.532,0.779-1.038,1.248-1.507c1.072-1.072,2.678-3.063,1.389-4.352c-1.151-1.15-3.163-0.569-5.252,1.519  c-4.191,4.191-8.779,12.413-14.588,22.823c-14.012,25.11-35.188,63.058-85.265,113.137C311.683,510.984,309.021,512,306.36,512z   M248.297,428.834l58,57.999c42.846-44.382,61.773-78.301,74.522-101.148c6.854-12.283,11.806-21.158,18.044-27.395  c11.75-11.75,26.627-9.553,34.662-1.518c7.431,7.432,9.78,20.832,0.307,31.928c-0.392,0.605-0.852,1.176-1.378,1.703  c-5.467,5.467-8.479,12.736-8.479,20.469s3.011,15.002,8.479,20.469c11.286,11.287,29.652,11.287,40.938,0  c15.003-15.003,20.801-37.761,16.326-64.084c-4.698-27.63-20.002-55.565-43.093-78.656c-23.092-23.092-51.025-38.396-78.656-43.093  c-26.322-4.474-49.08,1.323-64.083,16.326c-5.467,5.467-8.478,12.738-8.478,20.469c0,7.732,3.011,15.001,8.478,20.469  c11.286,11.286,29.652,11.286,40.938,0c0.099-0.099,0.2-0.195,0.302-0.289c11.332-10.834,25.51-8.602,33.236-0.876  c8.033,8.033,10.232,22.912-1.518,34.661c-6.238,6.238-15.112,11.19-27.396,18.045C326.597,367.061,292.677,385.988,248.297,428.834  z"/>
<g>
</g>
<g>
</g>
<g>
</g>
<g>
</g>
<g>
</g>
<g>
</g>
<g>
</g>
<g>
</g>
<g>
</g>
<g>
</g>
<g>
</g>
<g>
</g>
<g>
</g>
<g>
</g>
<g>
</g>
</svg>
