<?xml version="1.0" encoding="iso-8859-1"?>
<!-- Generator: Adobe Illustrator 19.0.0, SVG Export Plug-In . SVG Version: 6.00 Build 0)  -->
<svg xmlns="http://www.w3.org/2000/svg" xmlns:xlink="http://www.w3.org/1999/xlink" version="1.1" id="Layer_1" x="0px" y="0px" viewBox="0 0 512 512" style="enable-background:new 0 0 512 512;" xml:space="preserve">
<circle style="fill:#FFFFFF;" cx="320.784" cy="320.784" r="180.767"/>
<circle style="fill:#FAB617;" cx="320.784" cy="320.784" r="140.601"/>
<path style="fill:#F29C0B;" d="M140.016,320.784c0-99.835,80.933-180.767,180.767-180.767c26.616,0,51.887,5.755,74.64,16.084  c-38.445-53.996-101.553-89.214-172.887-89.214c-117.133,0-212.088,94.955-212.088,212.088s94.955,212.088,212.088,212.088  c10.646,0,21.106-0.794,31.331-2.308C187.161,462.156,140.016,396.978,140.016,320.784z"/>
<path d="M376.59,202.197c-1.392,0-2.807-0.282-4.167-0.878c-0.029-0.013-0.092-0.041-0.11-0.048  c-5.281-2.327-7.675-8.494-5.348-13.776c2.327-5.281,8.494-7.675,13.776-5.348c5.281,2.327,7.721,8.514,5.393,13.795  C384.409,199.858,380.597,202.197,376.59,202.197z"/>
<path d="M471.83,320.784c0-0.069-0.009-0.136-0.01-0.206c-0.013-14.07-1.985-28.154-5.945-41.805  c-9.607-33.115-30.384-62.161-58.503-81.787c-4.733-3.304-11.246-2.144-14.549,2.588c-3.303,4.732-2.144,11.246,2.588,14.549  c3.392,2.368,6.635,4.881,9.737,7.52l-73.915,73.914V191c4.442,0.372,8.904,0.967,13.372,1.802  c5.673,1.066,11.131-2.676,12.193-8.348c1.062-5.673-2.676-11.131-8.348-12.193c-33.124-6.199-67.897-0.945-97.909,14.797  c-13.41,7.034-25.624,16.056-36.264,26.649c-0.098,0.091-0.203,0.173-0.299,0.27c-0.124,0.124-0.232,0.257-0.349,0.386  c-13.23,13.333-23.988,29.11-31.513,46.533c-8.4,19.451-12.367,39.718-12.367,59.671c-0.001,0.072-0.01,0.142-0.01,0.215  c0,0.09,0.011,0.177,0.014,0.265c0.126,39.788,16.048,78.287,44.22,106.532c0.002,0.002,0.004,0.005,0.007,0.007  c0.001,0.001,0.003,0.003,0.005,0.004c13.108,13.14,28.864,24.062,46.915,31.857c19.456,8.402,39.718,12.378,59.675,12.377  c39.87-0.003,78.479-15.891,106.821-44.062c0.064-0.061,0.133-0.114,0.195-0.177c0.034-0.034,0.063-0.072,0.097-0.108  c13.097-13.089,23.989-28.807,31.765-46.812c8.168-18.914,12.314-39.228,12.363-59.585  C471.817,320.983,471.83,320.885,471.83,320.784z M419.914,236.43c17.743,20.925,28.299,46.918,30.513,73.905H346.01L419.914,236.43  z M405.111,419.889c-20.805,17.645-46.74,28.364-73.878,30.596V346.011L405.111,419.889z M310.335,190.925v104.633l-74.017-74.017  C256.965,203.866,282.805,193.039,310.335,190.925z M221.587,236.365l73.969,73.969h-104.51  c1.102-13.834,4.453-27.718,10.255-41.151C206.554,257.022,213.431,246.024,221.587,236.365z M221.678,405.111  c-17.645-20.805-28.364-46.74-30.596-73.878h104.474L221.678,405.111z M236.436,419.909l73.898-73.898v104.51  c-13.834-1.102-27.718-4.453-41.151-10.255C257.006,435.007,246.044,428.094,236.436,419.909z M419.909,405.131l-73.898-73.898  h104.458c-1.095,13.913-4.443,27.811-10.203,41.151C435.007,384.561,428.094,395.523,419.909,405.131z"/>
<path d="M129.62,425.94c-1.949,0-3.918-0.544-5.675-1.682c-37.961-24.614-65.284-63.948-74.966-107.917  c-1.241-5.636,2.322-11.211,7.958-12.452c5.635-1.238,11.211,2.322,12.452,7.958c8.51,38.648,32.539,73.229,65.927,94.877  c4.842,3.139,6.222,9.61,3.082,14.452C136.396,424.261,133.042,425.94,129.62,425.94z"/>
<path d="M55.38,289.518c-5.771,0-10.449-4.678-10.449-10.449c0-5.771,4.678-10.496,10.449-10.496s10.449,4.631,10.449,10.402v0.095  C65.829,284.84,61.151,289.518,55.38,289.518z"/>
<path d="M402.33,147.853c-19.983-27.344-46.245-50.087-76.143-65.852c-22.979-12.116-48.126-20.07-73.959-23.547  c4.624-21.391,25.014-37.557,49.4-37.557c5.771,0,10.449-4.678,10.449-10.449S307.399,0,301.628,0  c-35.347,0-64.751,24.553-70.32,56.632c-2.92-0.116-5.844-0.195-8.77-0.195C99.83,56.437,0,156.267,0,278.974  s99.83,222.537,222.537,222.537c10.053,0,20.186-0.694,30.167-2.047c21.161,8.09,44.109,12.536,68.079,12.536  C426.221,512,512,426.221,512,320.784C512,244.499,467.092,178.516,402.33,147.853z M20.898,278.974  c0-111.184,90.455-201.639,201.639-201.639c52.723,0,103.044,20.8,140.362,56.916c-13.555-3.058-27.649-4.683-42.116-4.683  c-105.438,0-191.216,85.779-191.216,191.216c0,66.671,34.305,125.469,86.182,159.703C107.697,476.893,20.898,387.886,20.898,278.974  z M320.784,491.102c-93.913,0-170.318-76.405-170.318-170.318s76.405-170.318,170.318-170.318s170.318,76.405,170.318,170.318  S414.697,491.102,320.784,491.102z"/>
<path d="M81.997,207.402c-1.393,0-2.809-0.282-4.169-0.88c-0.03-0.014-0.09-0.039-0.108-0.046  c-5.281-2.327-7.675-8.494-5.348-13.776c2.327-5.28,8.494-7.676,13.776-5.348c5.281,2.327,7.721,8.514,5.393,13.795  C89.816,205.062,86.005,207.402,81.997,207.402z"/>
<path d="M127.854,229.226c-1.355,0-2.733-0.266-4.062-0.829c-0.023-0.009-0.091-0.039-0.114-0.049  c-5.284-2.284-7.748-8.42-5.484-13.712c2.264-5.292,8.359-7.766,13.66-5.519c0.023,0.009,0.091,0.039,0.114,0.049  c5.284,2.284,7.748,8.42,5.484,13.712C135.756,226.843,131.907,229.226,127.854,229.226z"/>
<path d="M132.428,172.797c-1.355,0-2.733-0.266-4.062-0.829c-0.023-0.009-0.091-0.039-0.114-0.049  c-5.284-2.284-7.748-8.42-5.484-13.712c2.264-5.291,8.359-7.767,13.66-5.519c0.023,0.009,0.091,0.039,0.114,0.049  c5.284,2.284,7.748,8.42,5.484,13.712C140.331,170.413,136.481,172.797,132.428,172.797z"/>
<g>
</g>
<g>
</g>
<g>
</g>
<g>
</g>
<g>
</g>
<g>
</g>
<g>
</g>
<g>
</g>
<g>
</g>
<g>
</g>
<g>
</g>
<g>
</g>
<g>
</g>
<g>
</g>
<g>
</g>
</svg>
