<?xml version="1.0" encoding="iso-8859-1"?>
<!-- Generator: Adobe Illustrator 19.0.0, SVG Export Plug-In . SVG Version: 6.00 Build 0)  -->
<svg xmlns="http://www.w3.org/2000/svg" xmlns:xlink="http://www.w3.org/1999/xlink" version="1.1" id="Layer_1" x="0px" y="0px" viewBox="0 0 512.001 512.001" style="enable-background:new 0 0 512.001 512.001;" xml:space="preserve">
<path style="fill:#3E9C06;" d="M432.503,311.965c-22.206-38.898-42.755-93.581-60.466-148.795c-1.172-6.27-2.839-12.367-4.96-18.246  l0,0l0,0c-16.413-45.477-59.952-77.986-111.088-77.986c-50.919,0-94.308,32.232-110.882,77.405l0,0  c-12.403,31.2-22.852,95.983-78.056,187.91c-7.807,16.187-12.037,34.422-11.644,53.687c1.291,63.326,53.109,114.758,116.442,115.6  c15.773,0.21,30.845-2.675,44.652-8.085c25.349-9.933,53.629-9.951,78.977-0.01c13.831,5.424,28.934,8.313,44.739,8.095  c63.796-0.88,115.768-53.065,116.401-116.865C456.887,357.33,447.521,337.957,432.503,311.965z"/>
<path style="fill:#FFD29F;" d="M94.075,343.16c-5.842,12.487-8.658,25.879-8.374,39.825c0.976,47.808,40.677,87.221,88.501,87.857  c11.73,0.154,23.152-1.908,33.94-6.137c30.873-12.097,64.858-12.101,95.696-0.008c10.809,4.239,22.25,6.31,34.007,6.144  c48.304-0.667,87.99-40.513,88.469-88.824c0.193-19.47-6.05-33.615-20.115-57.959c-0.022-0.039-0.044-0.076-0.066-0.115  c-19.985-35.007-39.988-84.1-61.154-150.084c-0.326-1.016-0.587-2.051-0.784-3.099c-0.881-4.707-2.146-9.363-3.763-13.841  c-12.797-35.455-46.733-59.278-84.446-59.278c-37.505,0-71.378,23.645-84.29,58.837c-0.078,0.213-0.16,0.425-0.243,0.637  c-2.602,6.545-5.401,15.831-8.642,26.584C152.021,219.496,135.743,273.499,94.075,343.16z"/>
<g>
	<ellipse style="fill:#B74A00;" cx="213.995" cy="315.559" rx="22.988" ry="51.2"/>
	<ellipse style="fill:#B74A00;" cx="298.005" cy="315.559" rx="22.988" ry="51.2"/>
</g>
<path d="M336.526,481.299c-12.592,0-24.865-2.31-36.504-6.874c-28.376-11.127-59.653-11.124-88.068,0.009  c-12.043,4.721-24.793,7.034-37.889,6.856c-53.396-0.711-97.722-44.713-98.811-98.091c-0.318-15.556,2.831-30.516,9.357-44.466  c0.149-0.321,0.316-0.633,0.497-0.936c41.001-68.543,57.066-121.837,67.698-157.104c3.313-10.993,6.172-20.478,8.94-27.44  c0.052-0.132,0.1-0.257,0.146-0.381c14.413-39.284,52.228-65.681,94.097-65.681c42.101,0,79.987,26.596,94.274,66.18  c1.807,5.006,3.221,10.21,4.205,15.467c0.116,0.619,0.271,1.234,0.461,1.826c20.941,65.285,40.658,113.728,60.279,148.098  c14.789,25.598,21.772,41.58,21.555,63.359c-0.534,53.938-44.844,98.424-98.773,99.168  C337.502,481.296,337.013,481.299,336.526,481.299z M256.015,445.179c17.5,0,34.992,3.263,51.638,9.791  c9.551,3.746,19.672,5.578,30.044,5.423c42.682-0.588,77.746-35.794,78.169-78.479c0.17-17.132-5.377-29.547-18.714-52.629  l-0.135-0.237c-20.308-35.573-40.597-85.316-61.986-151.998c-0.457-1.419-0.828-2.89-1.104-4.368  c-0.778-4.157-1.894-8.266-3.321-12.217c-11.307-31.327-41.293-52.376-74.617-52.376c-33.14,0-63.071,20.892-74.48,51.987  c-0.113,0.308-0.228,0.608-0.347,0.907c-2.435,6.122-5.173,15.208-8.344,25.731c-10.908,36.185-27.371,90.803-69.493,161.34  c-5.01,10.89-7.424,22.568-7.176,34.72c0.862,42.239,35.939,77.06,78.193,77.622c10.396,0.143,20.472-1.686,29.989-5.417  C220.998,448.445,238.511,445.179,256.015,445.179z"/>
<path d="M213.999,377.208c-21.951,0-33.437-31.014-33.437-61.649s11.486-61.649,33.437-61.649s33.437,31.014,33.437,61.649  S235.95,377.208,213.999,377.208z M213.999,274.808c-0.429,0-3.49,1.628-6.723,8.827c-3.697,8.233-5.816,19.869-5.816,31.924  c0,12.055,2.12,23.691,5.816,31.924c3.232,7.199,6.293,8.827,6.723,8.827c0.429,0,3.49-1.628,6.723-8.827  c3.697-8.233,5.816-19.869,5.816-31.924c0-12.055-2.12-23.691-5.816-31.924C217.489,276.436,214.428,274.808,213.999,274.808z"/>
<path d="M298.003,377.208c-21.951,0-33.437-31.014-33.437-61.649s11.486-61.649,33.437-61.649s33.437,31.014,33.437,61.649  S319.954,377.208,298.003,377.208z M298.003,274.808c-0.429,0-3.49,1.628-6.723,8.827c-3.697,8.233-5.816,19.869-5.816,31.924  c0,12.055,2.12,23.691,5.816,31.924c3.232,7.199,6.293,8.827,6.723,8.827s3.49-1.628,6.723-8.827  c3.697-8.233,5.816-19.869,5.816-31.924c0-12.055-2.12-23.691-5.816-31.924C301.493,276.436,298.431,274.808,298.003,274.808z"/>
<path d="M441.561,306.755c-18.868-33.06-38.845-82.236-59.378-146.166c-1.257-6.527-3.031-12.988-5.278-19.213  c-16.842-46.661-59.251-79.228-107.92-84.202c4.368-14.008,15.251-36.277,40.306-36.277c5.771,0,10.449-4.678,10.449-10.449  S315.062,0,309.291,0c-22.882,0-41.242,11.67-53.094,33.751c-4.564,8.502-7.262,16.975-8.791,23.046  c-50.181,3.384-94.53,36.19-112.061,83.815c-3.226,8.14-6.289,18.303-9.834,30.062c-10.589,35.126-26.591,88.21-67.419,156.2  c-0.164,0.273-0.316,0.554-0.453,0.84c-8.831,18.309-13.098,37.971-12.68,58.439c0.68,33.35,14.191,64.757,38.041,88.434  c23.849,23.675,55.353,36.958,88.71,37.401c0.587,0.008,1.173,0.011,1.761,0.011c16.156,0,31.907-2.963,46.843-8.817  c23.021-9.022,48.361-9.026,71.349-0.011c15.508,6.081,31.874,9.053,48.699,8.816c33.599-0.463,65.258-13.927,89.145-37.912  c23.887-23.984,37.226-55.696,37.559-89.297C467.369,353.926,456.198,332.089,441.561,306.755z M340.07,491.092  c-14.093,0.195-27.806-2.286-40.78-7.375c-27.906-10.942-58.662-10.939-86.603,0.01c-12.95,5.074-26.637,7.549-40.701,7.366  c-57.353-0.763-104.965-48.03-106.134-105.365c-0.347-16.994,3.155-33.313,10.407-48.515  c41.982-70.019,58.393-124.459,69.26-160.506c3.424-11.361,6.382-21.173,9.295-28.503c0.035-0.087,0.068-0.173,0.1-0.261  c15.483-42.201,56.1-70.555,101.071-70.556c0.005,0,0.01,0.001,0.016,0.001c0.004,0,0.007,0,0.011,0  c45.211,0.01,85.893,28.574,101.235,71.084c1.941,5.378,3.462,10.97,4.518,16.62c0.08,0.429,0.188,0.854,0.322,1.27  c21.347,66.553,41.412,115.875,61.341,150.784c0.009,0.016,0.018,0.031,0.027,0.047c15.573,26.952,22.944,43.91,22.711,67.378  C445.592,442.507,397.998,490.292,340.07,491.092z"/>
<path d="M184.721,449.654c-0.047,0-0.094,0-0.142-0.001c-19.703-0.261-38.308-8.104-52.388-22.082  c-14.082-13.979-22.058-32.527-22.46-52.226c-0.117-5.77,4.464-10.542,10.234-10.66c0.073-0.001,0.145-0.002,0.217-0.002  c5.672,0,10.327,4.539,10.443,10.236c0.598,29.297,24.925,53.449,54.231,53.838c5.77,0.076,10.386,4.817,10.309,10.587  C195.09,445.067,190.426,449.654,184.721,449.654z"/>
<path d="M126.482,356.127c-1.502,0-3.026-0.325-4.472-1.011c-5.214-2.474-7.435-8.706-4.961-13.919l0.129-0.269  c2.497-5.202,8.755-7.431,13.958-4.935c5.202,2.496,7.414,8.699,4.919,13.9c0,0.002-0.039,0.08-0.04,0.081l-0.086,0.18  C134.141,353.923,130.391,356.127,126.482,356.127z"/>
<g>
</g>
<g>
</g>
<g>
</g>
<g>
</g>
<g>
</g>
<g>
</g>
<g>
</g>
<g>
</g>
<g>
</g>
<g>
</g>
<g>
</g>
<g>
</g>
<g>
</g>
<g>
</g>
<g>
</g>
</svg>
