<?xml version="1.0" encoding="iso-8859-1"?>
<!-- Generator: Adobe Illustrator 19.0.0, SVG Export Plug-In . SVG Version: 6.00 Build 0)  -->
<svg xmlns="http://www.w3.org/2000/svg" xmlns:xlink="http://www.w3.org/1999/xlink" version="1.1" id="Layer_1" x="0px" y="0px" viewBox="0 0 512 512" style="enable-background:new 0 0 512 512;" xml:space="preserve">
<g>
	<polygon style="fill:#3E9C06;" points="382.71,194.423 501.551,145.905 475.385,119.739 364.273,164.027  "/>
	<polygon style="fill:#3E9C06;" points="324.748,130.678 371.589,15.943 397.756,42.11 353.467,153.221  "/>
</g>
<g>
	<polygon style="fill:#67B32E;" points="436.746,135.136 463.77,108.124 441.973,86.327 364.273,164.027  "/>
	<polygon style="fill:#67B32E;" points="364.359,164.114 442.065,86.419 420.269,64.623 367.913,116.978  "/>
</g>
<path style="fill:#FF7031;" d="M360.548,346.567c51.413-51.413,48.183-138-7.215-193.398s-141.985-58.628-193.398-7.215  S0.955,485.205,11.127,495.377S309.135,397.98,360.548,346.567z"/>
<path d="M127.196,442.686c-2.674,0-5.349-1.02-7.388-3.06l-31.131-31.131c-4.08-4.08-4.08-10.697,0-14.778  c4.08-4.079,10.697-4.079,14.778,0l31.131,31.131c4.08,4.08,4.08,10.697,0,14.778C132.544,441.666,129.87,442.686,127.196,442.686z"/>
<path d="M238.802,380.394c-2.674,0-5.349-1.021-7.388-3.06l-37.681-37.681c-4.08-4.08-4.08-10.697,0-14.778  c4.08-4.079,10.697-4.079,14.778,0l37.681,37.681c4.08,4.08,4.08,10.697,0,14.778C244.151,379.374,241.476,380.394,238.802,380.394z  "/>
<path d="M271.262,267.219c-2.675,0-5.348-1.02-7.388-3.06l-28.661-28.662c-4.08-4.08-4.08-10.697,0-14.777  c4.08-4.079,10.697-4.08,14.777,0l28.661,28.662c4.08,4.08,4.08,10.697,0,14.777C276.611,266.199,273.937,267.219,271.262,267.219z"/>
<path d="M234.801,297.647c-2.748,0-5.444-1.118-7.387-3.062s-3.062-4.639-3.062-7.387c0-2.748,1.118-5.444,3.062-7.387  c1.943-1.943,4.639-3.062,7.387-3.062c2.748,0,5.444,1.118,7.387,3.062c1.943,1.943,3.062,4.639,3.062,7.387  c0,2.748-1.118,5.444-3.062,7.387C240.245,296.529,237.549,297.647,234.801,297.647z"/>
<path d="M508.939,138.515l-26.166-26.166c-2.304-2.302-5.502-3.344-8.64-2.964c0.051-0.417,0.085-0.836,0.086-1.26  c0-2.771-1.1-5.429-3.06-7.389l-21.699-21.699c-0.002-0.002-0.003-0.003-0.005-0.005l-21.796-21.796  c-4.08-4.08-10.697-4.079-14.777,0l-16.468,16.469l11.051-27.724c1.545-3.879,0.634-8.305-2.318-11.258L378.978,8.555  c-2.474-2.474-6.022-3.545-9.453-2.854c-3.43,0.692-6.286,3.053-7.609,6.293l-42.402,103.858  c-55.695-28.219-123.187-21.064-166.967,22.715c-33.055,33.055-80.808,146.446-99.804,193.664  c-15.551,38.655-30.068,78.117-39.827,108.269c-4.924,15.209-8.491,27.556-10.605,36.697c-3.007,13.005-3.612,20.529,1.426,25.568  c2.65,2.65,5.986,3.739,10.446,3.739c4.022,0,8.957-0.886,15.124-2.311c9.141-2.114,21.486-5.682,36.697-10.605  c30.151-9.76,69.615-24.276,108.269-39.828c47.218-18.996,160.609-66.749,193.665-99.805  c40.405-40.406,49.613-101.009,28.609-153.895L505.5,155.578c3.24-1.323,5.602-4.18,6.293-7.609  C512.484,144.538,511.413,140.99,508.939,138.515z M442.065,101.196l6.927,6.927l-18.118,18.111l-23.03,9.179L442.065,101.196z   M420.269,79.4l6.928,6.927l-59.556,59.557l9.182-23.037L420.269,79.4z M375.32,34.451l10.182,10.182l-27.253,68.37  c-0.014,0.033-0.026,0.067-0.04,0.1l-8.889,22.3c-3.777-3.127-7.662-6.049-11.634-8.775L375.32,34.451z M353.16,339.179  c-6.012,6.012-16.116,13.266-29.745,21.466l-56.975-56.975c-4.08-4.08-10.697-4.08-14.778,0c-4.08,4.08-4.08,10.697,0,14.778  l52.923,52.923c-32.074,17.415-76.619,37.966-129.441,59.491c-72.571,29.572-131.152,48.842-153.1,53.6  c4.756-21.949,24.026-80.531,53.599-153.1c9.236-22.664,18.291-43.802,26.997-63.087l36.081,36.081  c2.041,2.041,4.715,3.06,7.388,3.06s5.349-1.02,7.388-3.06c4.08-4.08,4.08-10.697,0-14.778l-41.533-41.533  c6.918-14.687,13.558-28.044,19.827-39.887l25.742,25.742c2.041,2.041,4.715,3.06,7.388,3.06c2.674,0,5.349-1.021,7.388-3.06  c4.08-4.08,4.08-10.697,0-14.777l-30.006-30.006c9.667-16.695,18.154-28.905,25.021-35.771c1.831-1.831,3.716-3.579,5.642-5.258  l31.53,31.531c2.041,2.041,4.715,3.06,7.388,3.06s5.349-1.021,7.388-3.06c4.08-4.08,4.081-10.697,0-14.777l-29.109-29.109  c18.132-10.574,38.79-15.819,59.838-15.819c33.979,0,68.967,13.671,95.941,40.646c22.556,22.556,35.804,50.713,39.542,79.199  l-34.58-34.58c-4.08-4.08-10.697-4.08-14.778,0c-4.08,4.08-4.08,10.697,0,14.778l49.761,49.761  C383.145,295.527,372.293,320.047,353.16,339.179z M387.546,181.162c-2.314-4.131-4.825-8.19-7.54-12.158l92.855-37.012  l10.182,10.182L387.546,181.162z"/>
<g>
</g>
<g>
</g>
<g>
</g>
<g>
</g>
<g>
</g>
<g>
</g>
<g>
</g>
<g>
</g>
<g>
</g>
<g>
</g>
<g>
</g>
<g>
</g>
<g>
</g>
<g>
</g>
<g>
</g>
</svg>
