<?xml version="1.0" encoding="iso-8859-1"?>
<!-- Generator: Adobe Illustrator 19.0.0, SVG Export Plug-In . SVG Version: 6.00 Build 0)  -->
<svg xmlns="http://www.w3.org/2000/svg" xmlns:xlink="http://www.w3.org/1999/xlink" version="1.1" id="Layer_1" x="0px" y="0px" viewBox="0 0 512.001 512.001" style="enable-background:new 0 0 512.001 512.001;" xml:space="preserve">
<g>
	<path style="fill:#3E9C06;" d="M501.512,86.172c0,0-129.547,6.965-210.955,187.088   c-67.236,148.763-168.282,214.088-168.282,214.088S278.92,571.545,384.08,329.311C445.187,188.556,472.957,120.648,501.512,86.172z   "/>
	<path style="fill:#3E9C06;" d="M475.004,91.443L475.004,91.443c0,0-118.291-45.19-247.014,122.895   C121.677,353.159,10.876,395.262,10.876,395.262s92.218,104.734,233.573-38.371L475.004,91.443z"/>
</g>
<g>
	<circle style="fill:#97CD44;" cx="178.169" cy="153.534" r="44.923"/>
	<circle style="fill:#97CD44;" cx="100.337" cy="55.363" r="44.923"/>
	<circle style="fill:#97CD44;" cx="55.413" cy="242.806" r="44.923"/>
</g>
<path d="M100.335,110.734c-14.79,0-28.696-5.76-39.153-16.217C50.723,84.058,44.965,70.154,44.965,55.364s5.76-28.696,16.217-39.153  C73.55,3.844,91.272-1.987,108.58,0.605c5.706,0.856,9.639,6.174,8.783,11.881c-0.855,5.705-6.171,9.64-11.881,8.783  c-10.953-1.642-21.711,1.9-29.525,9.715c-6.512,6.512-10.098,15.17-10.098,24.378s3.587,17.866,10.098,24.378  c6.511,6.512,15.17,10.098,24.378,10.098s17.867-3.587,24.378-10.097c7.627-7.625,11.202-18.143,9.809-28.854  c-0.744-5.722,3.292-10.963,9.014-11.707c5.723-0.744,10.962,3.291,11.707,9.013c2.235,17.192-3.507,34.076-15.755,46.322  C129.031,104.974,115.126,110.734,100.335,110.734z"/>
<path d="M132.191,34.134c-2.664,0-5.329-1.012-7.366-3.039l-0.091-0.09c-4.092-4.068-4.111-10.683-0.042-14.775  c4.069-4.091,10.686-4.11,14.775-0.042l0.091,0.09c4.092,4.068,4.111,10.683,0.042,14.775  C137.558,33.107,134.875,34.134,132.191,34.134z"/>
<path d="M55.292,298.188c-14.603,0-28.524-5.719-39.032-16.228C5.801,271.502,0.041,257.597,0.041,242.806  c0-14.79,5.76-28.695,16.217-39.153c10.458-10.458,24.362-16.217,39.153-16.217s28.696,5.76,39.153,16.217  c12.365,12.365,18.199,30.084,15.604,47.398c-0.855,5.705-6.162,9.64-11.881,8.783c-5.706-0.856-9.639-6.174-8.783-11.881  c1.641-10.949-1.899-21.711-9.715-29.526c-6.511-6.512-15.17-10.098-24.378-10.098s-17.867,3.587-24.378,10.097  c-6.512,6.512-10.098,15.17-10.098,24.378c0,9.209,3.587,17.867,10.098,24.378c7.625,7.627,18.144,11.204,28.853,9.809  c5.728-0.744,10.963,3.291,11.707,9.013c0.744,5.722-3.292,10.963-9.014,11.707C60.143,298.031,57.707,298.188,55.292,298.188z"/>
<path d="M87.088,285.11c-2.683,0-5.367-1.027-7.408-3.081c-4.069-4.092-4.05-10.706,0.042-14.775l0.091-0.09  c4.09-4.068,10.706-4.05,14.775,0.042c4.069,4.092,4.05,10.706-0.042,14.775l-0.091,0.09  C92.416,284.097,89.751,285.11,87.088,285.11z"/>
<path id="SVGCleanerId_0" d="M287.227,445.007c-0.565,0-1.139-0.046-1.716-0.141c-26.517-4.383-44.525-29.522-40.144-56.04  c0.94-5.692,6.315-9.546,12.01-8.604c5.693,0.94,9.546,6.319,8.604,12.011c-2.503,15.151,7.785,29.514,22.936,32.018  c5.692,0.94,9.545,6.319,8.603,12.011C296.677,441.378,292.248,445.007,287.227,445.007z"/>
<path id="SVGCleanerId_1" d="M200.074,373.394c-0.565,0-1.139-0.046-1.717-0.141c-26.517-4.383-44.525-29.522-40.144-56.039  c0.94-5.692,6.303-9.546,12.011-8.604c5.692,0.94,9.545,6.319,8.603,12.011c-2.503,15.151,7.785,29.514,22.936,32.018  c5.692,0.94,9.545,6.319,8.603,12.011C209.523,369.763,205.095,373.394,200.074,373.394z"/>
<path id="SVGCleanerId_2" d="M258.523,298.179c-0.565,0-1.139-0.046-1.717-0.141c-10.88-1.798-20.409-7.726-26.832-16.691  c-6.421-8.966-8.968-19.895-7.169-30.776c0.941-5.693,6.323-9.542,12.011-8.603c5.693,0.941,9.545,6.319,8.603,12.012  c-0.889,5.373,0.37,10.771,3.541,15.199c3.172,4.428,7.878,7.356,13.253,8.244c5.692,0.94,9.545,6.319,8.603,12.011  C267.973,294.55,263.544,298.179,258.523,298.179z"/>
<path id="SVGCleanerId_3" d="M334.212,363.631c-0.565,0-1.139-0.046-1.716-0.141c-26.517-4.383-44.525-29.522-40.144-56.04  c0.94-5.692,6.305-9.548,12.011-8.604c5.692,0.94,9.545,6.319,8.603,12.011c-2.503,15.151,7.785,29.514,22.936,32.018  c5.693,0.941,9.545,6.319,8.603,12.011C343.662,360.001,339.233,363.631,334.212,363.631z"/>
<path id="SVGCleanerId_4" d="M379.527,280.452c-0.565,0-1.139-0.046-1.717-0.141c-26.517-4.383-44.525-29.522-40.144-56.04  c0.941-5.692,6.312-9.547,12.01-8.604c5.693,0.94,9.546,6.319,8.604,12.011c-2.503,15.151,7.785,29.515,22.936,32.018  c5.692,0.94,9.545,6.319,8.603,12.011C388.977,276.823,384.548,280.452,379.527,280.452z"/>
<path d="M178.168,208.905c-14.79,0-28.696-5.76-39.153-16.217c-12.365-12.365-18.199-30.084-15.604-47.398  c0.856-5.706,6.185-9.636,11.881-8.783c5.706,0.856,9.639,6.174,8.783,11.881c-1.641,10.949,1.899,21.711,9.715,29.526  c6.511,6.512,15.17,10.098,24.378,10.098c9.208,0,17.867-3.587,24.378-10.097c6.512-6.512,10.098-15.17,10.098-24.379  c0-9.208-3.587-17.866-10.098-24.378c-7.624-7.625-18.141-11.202-28.853-9.809c-5.724,0.75-10.963-3.291-11.707-9.013  s3.292-10.963,9.014-11.707c17.19-2.234,34.076,3.507,46.322,15.755c10.459,10.458,16.217,24.362,16.217,39.152  s-5.76,28.696-16.217,39.153C206.864,203.145,192.958,208.905,178.168,208.905z"/>
<path d="M146.402,132.215c-2.683,0-5.367-1.027-7.408-3.081c-4.069-4.092-4.05-10.706,0.042-14.775l0.091-0.09  c4.09-4.068,10.706-4.05,14.775,0.042c4.069,4.092,4.05,10.706-0.042,14.775l-0.091,0.09  C151.731,131.203,149.066,132.215,146.402,132.215z"/>
<g>
	<path id="SVGCleanerId_0_1_" d="M287.227,445.007c-0.565,0-1.139-0.046-1.716-0.141c-26.517-4.383-44.525-29.522-40.144-56.04   c0.94-5.692,6.315-9.546,12.01-8.604c5.693,0.94,9.546,6.319,8.604,12.011c-2.503,15.151,7.785,29.514,22.936,32.018   c5.692,0.94,9.545,6.319,8.603,12.011C296.677,441.378,292.248,445.007,287.227,445.007z"/>
</g>
<g>
	<path id="SVGCleanerId_1_1_" d="M200.074,373.394c-0.565,0-1.139-0.046-1.717-0.141c-26.517-4.383-44.525-29.522-40.144-56.039   c0.94-5.692,6.303-9.546,12.011-8.604c5.692,0.94,9.545,6.319,8.603,12.011c-2.503,15.151,7.785,29.514,22.936,32.018   c5.692,0.94,9.545,6.319,8.603,12.011C209.523,369.763,205.095,373.394,200.074,373.394z"/>
</g>
<g>
	<path id="SVGCleanerId_2_1_" d="M258.523,298.179c-0.565,0-1.139-0.046-1.717-0.141c-10.88-1.798-20.409-7.726-26.832-16.691   c-6.421-8.966-8.968-19.895-7.169-30.776c0.941-5.693,6.323-9.542,12.011-8.603c5.693,0.941,9.545,6.319,8.603,12.012   c-0.889,5.373,0.37,10.771,3.541,15.199c3.172,4.428,7.878,7.356,13.253,8.244c5.692,0.94,9.545,6.319,8.603,12.011   C267.973,294.55,263.544,298.179,258.523,298.179z"/>
</g>
<g>
	<path id="SVGCleanerId_3_1_" d="M334.212,363.631c-0.565,0-1.139-0.046-1.716-0.141c-26.517-4.383-44.525-29.522-40.144-56.04   c0.94-5.692,6.305-9.548,12.011-8.604c5.692,0.94,9.545,6.319,8.603,12.011c-2.503,15.151,7.785,29.514,22.936,32.018   c5.693,0.941,9.545,6.319,8.603,12.011C343.662,360.001,339.233,363.631,334.212,363.631z"/>
</g>
<g>
	<path id="SVGCleanerId_4_1_" d="M379.527,280.452c-0.565,0-1.139-0.046-1.717-0.141c-26.517-4.383-44.525-29.522-40.144-56.04   c0.941-5.692,6.312-9.547,12.01-8.604c5.693,0.94,9.546,6.319,8.604,12.011c-2.503,15.151,7.785,29.515,22.936,32.018   c5.692,0.94,9.545,6.319,8.603,12.011C388.977,276.823,384.548,280.452,379.527,280.452z"/>
</g>
<path d="M510.844,81.475c-1.865-3.706-5.721-5.952-9.893-5.735c-0.744,0.04-10.39,0.637-25.731,4.791  c-3.524-1.045-9.591-2.573-17.824-3.679c-0.378-0.215-0.767-0.416-1.178-0.586c-5.373-2.22-9.989-5.468-13.719-9.655  C432,54.83,433.045,36.704,444.826,26.205c8.566-7.632,21.742-6.873,29.375,1.692c2.587,2.902,3.888,6.638,3.665,10.519  c-0.224,3.881-1.945,7.444-4.849,10.03c-4.307,3.838-4.687,10.443-0.849,14.751c3.838,4.307,10.442,4.69,14.751,0.849  c7.069-6.3,11.261-14.975,11.807-24.428c0.544-9.454-2.625-18.553-8.925-25.622c-15.297-17.166-41.707-18.689-58.875-3.391  c-18.918,16.859-21.821,45.08-7.62,65.346c-7.904,0.581-16.504,1.728-25.709,3.687c-27.806,5.915-55.559,17.988-82.487,35.884  c-33.246,22.095-65.349,53.204-95.413,92.462c-53.822,70.28-108.728,114.795-145.313,139.762  C34.716,374.82,7.425,385.397,7.165,385.497c-3.203,1.217-5.606,3.927-6.43,7.254c-0.823,3.326,0.036,6.845,2.3,9.416  c1.394,1.584,34.81,38.801,92.524,40.455c1.336,0.039,2.67,0.057,4.009,0.057c27.551-0.001,55.584-8.133,83.867-24.255  c-3.183,3.498-6.267,6.791-9.222,9.865c-32.543,33.865-57.37,50.131-57.609,50.286c-3.104,2.006-4.917,5.503-4.767,9.195  c0.149,3.692,2.239,7.031,5.493,8.781c1.613,0.867,29.382,15.449,69.494,15.449c16.363,0,34.787-2.429,54.316-9.206  c61.732-21.422,113.049-78.39,152.526-169.324c6.483-14.931,12.59-29.044,18.362-42.384  c48.574-112.242,72.955-168.579,97.531-198.251C512.206,89.64,512.71,85.182,510.844,81.475z M96.545,421.746  c-30.961-0.784-53.961-14.009-66.642-23.576c12.456-6.082,31.813-16.537,55.538-32.673c38.033-25.869,95.078-71.99,150.844-144.807  c63.977-83.54,124.599-111.526,164.188-120.295c12.517-2.772,23.767-3.841,33.437-3.979c-4.064,2.024-8.242,4.24-12.518,6.677  c-25.67,14.629-49.647,34.118-71.262,57.922c-26.827,29.544-50.073,65.861-69.091,107.942  c-13.964,30.895-29.431,58.032-44.889,81.457C188.012,398.866,141.019,422.869,96.545,421.746z M392.851,282.789  c-5.77,13.333-11.874,27.438-18.353,42.362c-36.965,85.146-84.007,138.227-139.822,157.769  c-38.087,13.336-71.843,7.433-90.948,1.592c10.924-8.644,26.739-22.23,44.996-41.171c18.219-18.901,40.99-45.497,63.814-79.846  c0.433-0.529,0.802-1.09,1.116-1.674c16.002-24.259,31.994-52.333,46.424-84.26c40.596-89.824,93.389-134.23,130.527-155.666  c18.334-10.582,34.772-16.771,47.251-20.373C456.302,136.172,432.511,191.145,392.851,282.789z"/>
<g>
</g>
<g>
</g>
<g>
</g>
<g>
</g>
<g>
</g>
<g>
</g>
<g>
</g>
<g>
</g>
<g>
</g>
<g>
</g>
<g>
</g>
<g>
</g>
<g>
</g>
<g>
</g>
<g>
</g>
</svg>
