<?xml version="1.0" encoding="iso-8859-1"?>
<!-- Generator: Adobe Illustrator 19.0.0, SVG Export Plug-In . SVG Version: 6.00 Build 0)  -->
<svg xmlns="http://www.w3.org/2000/svg" xmlns:xlink="http://www.w3.org/1999/xlink" version="1.1" id="Layer_1" x="0px" y="0px" viewBox="0 0 512 512" style="enable-background:new 0 0 512 512;" xml:space="preserve">
<path style="fill:#0092E0;" d="M386.473,282.386c12.052,52.417,58.996,91.508,115.072,91.508c0,0,0.004,0,0.006,0  c-21.02-34.391-33.14-74.815-33.14-118.072s12.12-83.681,33.14-118.072c-0.002,0-0.004,0-0.004,0  c-56.168,0-103.174,39.217-115.132,91.762L386.473,282.386z"/>
<path style="fill:#64C5F2;" d="M416.473,255.969c0,0-117.607-117.494-240.878-117.494C69.02,138.474,10.449,255.931,10.449,255.931  v0.135c0,0,58.571,117.458,165.146,117.458C298.866,373.524,416.473,255.969,416.473,255.969"/>
<g>
	<path style="fill:#0092E0;" d="M10.449,255.931v0.135c0,0,34.202,68.578,97.885,100.932   c17.329-29.685,27.268-64.213,27.268-101.067c0-36.81-9.916-71.301-27.208-100.963C44.673,187.309,10.449,255.931,10.449,255.931z"/>
	<path style="fill:#0092E0;" d="M175.595,373.524c-18.96,0-36.393-3.731-52.256-9.844h-0.236c0,0,35.267,53.694,123.094,55.747   c0-35.948,0-55.983,0-55.983l-5.24,0.01C219.786,369.702,197.785,373.524,175.595,373.524z"/>
	<path style="fill:#0092E0;" d="M175.595,138.474c22.187,0,44.186,3.82,65.352,10.062l5.249,0.009c0,0,0-20.025,0-55.973   c-87.827,2.052-123.094,55.747-123.094,55.747h0.231C139.199,142.206,156.632,138.474,175.595,138.474z"/>
</g>
<path d="M129.469,314.228c-0.874,0-1.762-0.11-2.647-0.342c-5.584-1.459-8.929-7.166-7.47-12.75l0.108-0.409  c1.456-5.585,7.163-8.932,12.744-7.478c5.585,1.454,8.933,7.161,7.477,12.746l-0.109,0.421  C138.345,311.115,134.108,314.228,129.469,314.228z"/>
<path d="M88.559,267.899c-6.517,0-11.82-5.346-11.82-11.916s5.302-11.916,11.82-11.916c6.518,0,11.82,5.346,11.82,11.916  S95.076,267.899,88.559,267.899z"/>
<path d="M510.466,368.444c-20.676-33.828-31.606-72.773-31.606-112.623s10.929-78.794,31.606-112.623  c1.972-3.226,2.045-7.264,0.196-10.56c-1.848-3.297-5.335-5.338-9.116-5.338c-29.299,0-57.963,10.121-80.711,28.497  c-18.203,14.705-32.073,34.196-40.046,55.968c-9.637-7.377-20.642-15.314-32.801-23.283c-24.357-15.966-56.089-33.694-91.343-45.805  V92.573c0-2.814-1.135-5.508-3.147-7.474c-2.012-1.965-4.725-3.041-7.546-2.972c-82.049,1.917-121.001,46.368-129.711,57.847  c-25.038,10.283-48.915,27.094-70.752,50.023c-28.718,30.154-43.766,60.015-44.392,61.272C0.375,252.717,0,254.313,0,255.931v0.135  c0,1.619,0.375,3.215,1.098,4.662c0.627,1.257,15.674,31.117,44.392,61.272c21.836,22.929,45.713,39.739,70.75,50.022  c8.705,11.474,47.657,55.933,129.713,57.85c0.081,0.002,0.162,0.003,0.243,0.003c2.725,0,5.348-1.066,7.302-2.975  c2.012-1.966,3.147-4.66,3.147-7.474v-50.115c35.254-12.117,66.988-29.855,91.345-45.83c12.195-7.999,23.231-15.964,32.889-23.363  c8.004,21.717,21.88,41.153,40.063,55.809c22.729,18.321,51.354,28.411,80.609,28.411c3.779,0,7.265-2.042,9.114-5.338  C512.513,375.708,512.438,371.669,510.466,368.444z M235.748,103.551v32.759c-19.455-5.144-39.698-8.284-60.153-8.284  c-5.59,0-11.157,0.318-16.695,0.933C175.675,117.654,200.791,106.234,235.748,103.551z M235.748,408.455  c-29.296-2.22-55.098-10.752-76.83-25.414c5.532,0.614,11.092,0.931,16.676,0.931c20.456,0,40.699-3.142,60.153-8.288v32.771  H235.748z M175.595,363.075c-18.645,0-36.768-3.834-54.277-11.425c1.399-2.498,2.755-5.022,4.036-7.571  c2.59-5.156,0.511-11.437-4.646-14.028c-5.158-2.59-11.436-0.51-14.028,4.646c-1.025,2.041-2.654,5.019-3.95,7.339  c-14.39-8.684-28.317-20.031-41.715-34.035c-20.339-21.257-33.53-42.816-38.721-52c8.145-14.384,36.007-59.151,80.718-86.032  c14.208,25.656,22.139,55.876,22.139,85.962c0,2.704-0.062,5.444-0.184,8.144c-0.259,5.766,4.204,10.648,9.968,10.909  c5.767,0.269,10.649-4.203,10.909-9.968c0.136-3.011,0.204-6.069,0.204-9.084c0-33.869-8.475-66.638-24.595-95.495  c16.272-7.082,34.349-11.513,54.138-11.513c60.963,0,120.969,30.888,160.574,56.799c30.253,19.792,53.56,39.798,65.044,50.241  C373.303,281.301,275.467,363.075,175.595,363.075z M398.287,286.229c15.669-13.031,24.895-22.192,25.573-22.869  c1.961-1.96,3.063-4.619,3.063-7.392c0-2.772-1.103-5.431-3.065-7.39c-0.678-0.677-9.931-9.861-25.644-22.916  c11.545-39.914,44.489-68.971,84.731-75.884c-16.393,32.777-24.983,69.058-24.983,106.044s8.589,73.266,24.983,106.042  C442.81,354.96,409.9,326.004,398.287,286.229z"/>
<path d="M205.442,233.182c3.834-4.774,6.136-10.829,6.136-17.415c0-15.364-12.499-27.864-27.863-27.864  c-5.77,0-10.449,4.678-10.449,10.449c0,5.771,4.679,10.449,10.449,10.449c3.841,0,6.965,3.125,6.965,6.966s-3.124,6.966-6.965,6.966  c-5.77,0-10.449,4.678-10.449,10.449c0,5.771,4.679,10.449,10.449,10.449c3.841,0,6.965,3.125,6.965,6.966s-3.124,6.966-6.965,6.966  c-5.77,0-10.449,4.678-10.449,10.449s4.679,10.449,10.449,10.449c3.841,0,6.965,3.125,6.965,6.966c0,3.841-3.124,6.966-6.965,6.966  c-5.77,0-10.449,4.678-10.449,10.449c0,5.771,4.679,10.449,10.449,10.449c15.364,0,27.863-12.499,27.863-27.864  c0-6.586-2.302-12.641-6.136-17.415c3.834-4.774,6.136-10.829,6.136-17.415S209.277,237.956,205.442,233.182z"/>
<path d="M302.48,261.045c-5.77,0-10.449-4.678-10.449-10.449s4.679-10.449,10.449-10.449c3.841,0,6.965-3.125,6.965-6.966  c0-3.841-3.124-6.966-6.965-6.966c-5.77,0-10.449-4.678-10.449-10.449c0-5.771,4.679-10.449,10.449-10.449  c15.364,0,27.863,12.5,27.863,27.864S317.844,261.045,302.48,261.045z"/>
<path d="M275.578,274.864c0-15.364-12.499-27.863-27.863-27.863c-5.77,0-10.449,4.678-10.449,10.449  c0,5.771,4.679,10.449,10.449,10.449c3.841,0,6.965,3.125,6.965,6.966c0,3.841-3.124,6.966-6.965,6.966  c-5.77,0-10.449,4.678-10.449,10.449s4.679,10.449,10.449,10.449c3.841,0,6.965,3.125,6.965,6.966s-3.124,6.966-6.965,6.966  c-5.77,0-10.449,4.678-10.449,10.449c0,5.771,4.679,10.449,10.449,10.449c15.364,0,27.863-12.499,27.863-27.864  c0-6.586-2.302-12.641-6.136-17.415C273.277,287.505,275.578,281.45,275.578,274.864z"/>
<g>
</g>
<g>
</g>
<g>
</g>
<g>
</g>
<g>
</g>
<g>
</g>
<g>
</g>
<g>
</g>
<g>
</g>
<g>
</g>
<g>
</g>
<g>
</g>
<g>
</g>
<g>
</g>
<g>
</g>
</svg>
