<?xml version="1.0" encoding="iso-8859-1"?>
<!-- Generator: Adobe Illustrator 19.0.0, SVG Export Plug-In . SVG Version: 6.00 Build 0)  -->
<svg xmlns="http://www.w3.org/2000/svg" xmlns:xlink="http://www.w3.org/1999/xlink" version="1.1" id="Layer_1" x="0px" y="0px" viewBox="0 0 511.999 511.999" style="enable-background:new 0 0 511.999 511.999;" xml:space="preserve">
<g>
	<rect x="239.76" y="10.449" style="fill:#3E9C06;" width="32.475" height="114.448"/>
	<path style="fill:#3E9C06;" d="M221.906,127.652c-4.9-25.36-19.122-67.407-38.975-78.61l-14.561-8.215l16.431-29.12l14.561,8.215   c16.272,9.182,28.339,26.617,37.037,44.657v60.322L221.906,127.652z"/>
	<path style="fill:#3E9C06;" d="M272.385,74.396c7.052-14.383,16.753-28.176,29.746-35.507l11.861-6.692l13.384,23.72l-11.861,6.692   c-16.172,9.125-28.259,44.385-32.251,65.043L272.385,74.396z"/>
</g>
<path style="fill:#9E25AF;" d="M441.179,284.632c0-87.641-82.908-158.687-185.181-158.687S70.817,196.991,70.817,284.632  c0,69.42,52.024,128.42,124.482,149.955c26.308,9.923,50.463,19.326,60.784,66.963c0,0-0.168,0,0,0  c10.928-43.667,34.141-57.636,60.765-66.998l-0.072,0.01C389.192,413.009,441.179,354.028,441.179,284.632z"/>
<path d="M403.196,314.033H301.604c-5.77,0-10.449-4.678-10.449-10.449c0-5.771,4.679-10.449,10.449-10.449h101.592  c5.77,0,10.449,4.678,10.449,10.449C413.645,309.355,408.967,314.033,403.196,314.033z"/>
<path d="M173.12,320.922h-59.013c-5.77,0-10.449-4.678-10.449-10.449s4.679-10.449,10.449-10.449h59.013  c5.77,0,10.449,4.678,10.449,10.449S178.89,320.922,173.12,320.922z"/>
<path d="M210.254,385.112H180.75c-5.77,0-10.449-4.678-10.449-10.449c0-5.771,4.679-10.449,10.449-10.449h29.505  c5.77,0,10.449,4.678,10.449,10.449C220.703,380.434,216.024,385.112,210.254,385.112z"/>
<path d="M329.385,370.937h-29.506c-5.77,0-10.449-4.678-10.449-10.449c0-5.771,4.679-10.449,10.449-10.449h29.506  c5.77,0,10.449,4.678,10.449,10.449C339.834,366.259,335.156,370.937,329.385,370.937z"/>
<path d="M271.345,266.213h-41.219c-5.77,0-10.449-4.678-10.449-10.449c0-5.771,4.679-10.449,10.449-10.449h41.219  c5.77,0,10.449,4.678,10.449,10.449C281.794,261.535,277.116,266.213,271.345,266.213z"/>
<path d="M267.014,314.316c-2.759,0-5.454-1.118-7.398-3.062c-1.944-1.943-3.051-4.639-3.051-7.387s1.108-5.444,3.051-7.387  c1.944-1.943,4.639-3.062,7.398-3.062c2.748,0,5.433,1.118,7.387,3.062c1.942,1.944,3.051,4.639,3.051,7.387  s-1.109,5.444-3.051,7.387C272.448,313.198,269.762,314.316,267.014,314.316z"/>
<path d="M295.992,119.024c5.536-20.565,15.554-42.178,24.658-47.314l11.861-6.692c5.026-2.836,6.801-9.209,3.965-14.236  l-13.384-23.72c-2.837-5.027-9.212-6.8-14.235-3.965l-11.861,6.692c-5.032,2.839-9.807,6.561-14.312,11.132V10.449  C282.685,4.678,278.006,0,272.236,0H239.76c-5.77,0-10.449,4.678-10.449,10.449v22.507c-7.562-9.673-15.855-17.08-24.814-22.135  l-14.561-8.215c-5.024-2.833-11.399-1.061-14.235,3.965l-16.43,29.12c-2.836,5.026-1.061,11.399,3.965,14.236l14.561,8.215  c12.582,7.099,25.247,35.527,31.785,62.124c-34.245,7.168-65.698,22.262-91.325,44.222c-37.33,31.989-57.887,74.657-57.887,120.142  c0,72.116,52.865,136.316,131.59,159.863c24.853,9.375,44.506,16.961,53.728,58.432c0.678,5.121,5.092,9.073,10.396,9.073  c4.733,0,9.02-3.325,10.142-7.936c10.292-41.097,32.345-52.005,54.058-59.643c78.589-23.604,131.346-87.756,131.346-159.789  c0-45.486-20.558-88.154-57.887-120.142C366.518,141.163,332.725,125.585,295.992,119.024z M307.266,47.989l2.761-1.557l3.114,5.519  l-2.761,1.557c-12.595,7.107-21.653,23.715-27.696,39.216V77.176C289.941,62.925,298.203,53.102,307.266,47.989z M261.787,20.898  v94.678c-1.926-0.048-3.855-0.08-5.789-0.08s-3.863,0.032-5.789,0.08V20.898H261.787z M188.066,39.941l-5.461-3.08l6.161-10.919  l5.461,3.08c12.24,6.906,23.262,20.395,32.76,40.095c0.588,1.219,1.388,2.264,2.325,3.131v40.843  C222.635,87.141,208.827,51.656,188.066,39.941z M313.794,424.549c-0.346,0.103-0.682,0.223-1.01,0.357  c-21.231,7.534-42.172,18.675-56.224,45.441c-14.397-29.249-37.062-37.798-57.576-45.536c-0.234-0.088-0.471-0.168-0.712-0.239  c-69.986-20.801-117.008-77.038-117.008-139.939c0-12.596,1.867-24.829,5.37-36.514h81.221c5.77,0,10.449-4.678,10.449-10.449  s-4.679-10.449-10.449-10.449H94.907c26.497-53.31,88.726-90.826,161.091-90.826c35.998,0,69.487,9.286,97.319,25.179h-61.799  c-5.77,0-10.449,4.678-10.449,10.449s4.679,10.449,10.449,10.449h90.781c0.063,0,0.124-0.008,0.186-0.009  c29.879,26.61,48.245,62.605,48.245,102.17C430.73,347.503,383.737,403.731,313.794,424.549z"/>
<g>
</g>
<g>
</g>
<g>
</g>
<g>
</g>
<g>
</g>
<g>
</g>
<g>
</g>
<g>
</g>
<g>
</g>
<g>
</g>
<g>
</g>
<g>
</g>
<g>
</g>
<g>
</g>
<g>
</g>
</svg>
