<?xml version="1.0" encoding="iso-8859-1"?>
<!-- Generator: Adobe Illustrator 19.0.0, SVG Export Plug-In . SVG Version: 6.00 Build 0)  -->
<svg xmlns="http://www.w3.org/2000/svg" xmlns:xlink="http://www.w3.org/1999/xlink" version="1.1" id="Layer_1" x="0px" y="0px" viewBox="0 0 511.999 511.999" style="enable-background:new 0 0 511.999 511.999;" xml:space="preserve">
<rect x="171.702" y="10.497" style="fill:#3E9C06;" width="66.558" height="65.802"/>
<path style="fill:#9E25AF;" d="M278.898,155.519c-23.378-30.272-35.038-60.107-40.64-79.224H171.7  c-8.636,29.477-31.68,84.446-89.878,127.193c0.004,0,0.008,0,0.013,0c-43.576,30.802-71.39,77.606-71.39,130.023  c0,92.764,87.096,167.964,194.535,167.964c18.736,0,36.854-2.287,53.999-6.555L278.898,155.519z"/>
<path style="fill:#B74A00;" d="M204.98,464c-30.924,0-56.522,12.614-60.943,29.057c19.171,5.456,39.656,8.419,60.943,8.419  c18.736,0,36.854-2.287,53.999-6.555l0.732-12.474C249.454,471.491,228.803,464,204.98,464z"/>
<path style="fill:#FFFFFF;" d="M369.018,186.047c0.003-0.002,0.006-0.003,0.009-0.005c-93.156-10.28-140.955-73.089-140.955-73.089  l-22.281,12.864L183.51,138.68c0,0,30.495,72.799-7.181,158.615c0.003-0.002,0.006-0.003,0.009-0.005  c-20.177,43.778-20.797,92.958,2.88,133.964c41.898,72.571,144.002,92.063,228.052,43.535s118.223-146.697,76.324-219.268  C459.92,214.515,417.02,190.462,369.018,186.047z"/>
<path style="fill:#9E25AF;" d="M208.019,310.411c-0.171,0.412-0.35,0.822-0.539,1.23c-16.286,35.335-15.762,72.682,1.434,102.468  c32.378,56.081,113.67,69.98,181.212,30.985s96.151-116.347,63.773-172.427c-17.196-29.786-49.28-48.912-88.023-52.476  c-0.448-0.041-0.893-0.091-1.336-0.149c-67.3-7.613-114.185-39.09-140.064-61.862C231.259,191.977,235.075,248.321,208.019,310.411z  "/>
<path d="M310.047,477.691c-8.573,0-17.093-0.708-25.474-2.141c-37.382-6.392-67.464-26.357-84.704-56.219  c-18.916-32.761-19.599-73.607-1.875-112.061c0.137-0.296,0.262-0.584,0.382-0.873c0.022-0.052,0.044-0.106,0.067-0.158  c25.517-58.558,22.673-111.719,15.793-146.004c-0.882-4.394,1.137-8.859,5.019-11.1c3.88-2.239,8.758-1.757,12.122,1.204  c26.253,23.1,70.871,52.144,134.338,59.325c0.066,0.007,0.132,0.016,0.197,0.024c0.305,0.041,0.613,0.074,0.922,0.102  c42.164,3.878,77.195,24.892,96.11,57.654c17.24,29.862,19.491,65.896,6.335,101.466c-12.902,34.885-39.158,65.153-73.931,85.23  C368.525,469.627,338.982,477.691,310.047,477.691z M217.626,314.509c-0.212,0.506-0.432,1.01-0.664,1.511  c-14.843,32.205-14.481,66.056,0.997,92.865c14.079,24.386,38.986,40.747,70.135,46.073c31.867,5.448,66.249-1.267,96.81-18.911  c30.561-17.644,53.568-44.061,64.783-74.385c10.962-29.638,9.246-59.39-4.833-83.775c-15.478-26.809-44.613-44.048-79.934-47.297  c-0.553-0.051-1.101-0.111-1.646-0.182c-54.055-6.133-95.511-26.895-124.617-47.67C242.096,218.337,239.348,264.623,217.626,314.509  z"/>
<path style="fill:#FFFFFF;" d="M239.554,323.877c-0.301,0.713-0.613,1.423-0.939,2.132c-11.556,25.073-11.56,50.94-0.005,70.956  c10.469,18.133,29.471,30.383,53.504,34.492c26.396,4.513,55.115-1.19,80.869-16.058c25.754-14.868,45.052-36.889,54.341-62.006  c8.457-22.868,7.35-45.449-3.119-63.582c-11.555-20.014-33.96-32.945-61.468-35.475c-0.769-0.071-1.546-0.156-2.32-0.254  c-38.116-4.347-70.487-15.377-97.173-28.759C261.489,255.134,254.855,288.685,239.554,323.877z"/>
<path style="fill:#9E25AF;" d="M359.793,288.5c-0.066-0.006-0.131-0.013-0.196-0.019 M332.185,284.458  c-13.844-2.964-27.559-6.169-40.898-10.563c-4.51,21.637-11.263,42.868-20.214,63.484c-0.42,0.994-0.864,1.997-1.317,2.981  c-6.837,14.835-7.366,29.216-1.452,39.461c5.279,9.143,15.786,15.478,29.588,17.838c18.527,3.168,39.105-1.077,57.945-11.954  c18.839-10.877,32.806-26.576,39.326-44.205c4.857-13.132,4.625-25.4-0.654-34.543c-1.844-3.192-3.996-6.561-7.415-8.502  C378.45,293.548,346.915,287.612,332.185,284.458z"/>
<path d="M310.085,443.407c-6.656,0-13.253-0.547-19.732-1.654c-27.15-4.643-48.74-18.693-60.789-39.565  c-13.273-22.991-13.432-52.351-0.436-80.549c0.278-0.602,0.542-1.201,0.796-1.805c0.017-0.041,0.033-0.08,0.051-0.12  c13.239-30.45,20.924-62.413,22.841-95.003c0.207-3.506,2.162-6.675,5.205-8.432c3.042-1.757,6.763-1.866,9.904-0.291  c29.179,14.631,60.695,23.957,93.675,27.718c0.042,0.004,0.085,0.009,0.126,0.016c0.657,0.084,1.317,0.155,1.97,0.215  c30.928,2.845,56.281,17.662,69.554,40.653c12.05,20.871,13.425,46.593,3.87,72.428c-10.133,27.398-31.056,51.345-58.915,67.429  C356.613,436.909,333.014,443.407,310.085,443.407z M249.157,327.983c-0.338,0.804-0.69,1.602-1.058,2.399  c-10.119,21.956-10.281,44.32-0.444,61.359c8.888,15.395,25.302,25.843,46.218,29.419c23.998,4.105,50.239-1.155,73.887-14.808  c23.647-13.652,41.322-33.748,49.767-56.584c7.36-19.903,6.52-39.342-2.369-54.736c-9.837-17.039-29.294-28.081-53.379-30.296  c-0.866-0.08-1.738-0.174-2.608-0.283c-30.26-3.457-59.385-11.283-86.791-23.302C269.088,270.899,261.299,300.042,249.157,327.983z"/>
<path d="M310.134,409.123c-4.741,0-9.42-0.386-14.001-1.17c-16.919-2.893-30.014-11.03-36.873-22.912  c-7.632-13.22-7.264-31.099,1.011-49.054c0.408-0.885,0.805-1.782,1.181-2.673c0.014-0.032,0.027-0.065,0.041-0.096  c8.628-19.871,15.212-40.547,19.569-61.453c0.607-2.912,2.426-5.427,5.003-6.914c2.576-1.487,5.664-1.806,8.49-0.875  c12.859,4.235,26.176,7.675,39.581,10.222c5.667,1.077,9.388,6.545,8.311,12.211c-1.077,5.667-6.547,9.386-12.211,8.311  c-10.521-2-20.993-4.515-31.258-7.505c-4.521,18.456-10.659,36.665-18.3,54.274c-0.459,1.084-0.941,2.175-1.435,3.245  c-5.316,11.536-6.024,22.702-1.891,29.862c3.698,6.405,11.619,10.938,22.304,12.766c16.132,2.76,34.229-1.044,50.962-10.705  c16.734-9.661,29.075-23.435,34.752-38.782c3.76-10.167,3.794-19.294,0.096-25.698c-1.174-2.033-2.823-3.908-4.901-5.573  c-4.502-3.608-5.226-10.182-1.618-14.682c3.608-4.502,10.181-5.226,14.682-1.618c4.111,3.294,7.451,7.14,9.928,11.429  c6.86,11.881,7.358,27.29,1.406,43.39c-7.364,19.91-22.955,37.533-43.9,49.626C344.701,404.194,327.048,409.123,310.134,409.123z   M359.804,298.946c-0.327,0-0.655-0.015-0.987-0.046l-0.189-0.018c-5.744-0.535-9.966-5.624-9.433-11.367  c0.535-5.745,5.62-9.969,11.367-9.433l0.204,0.019c5.744,0.539,9.962,5.631,9.424,11.374  C369.684,294.887,365.133,298.946,359.804,298.946z"/>
<path d="M89.1,400.086c-3.286,0-6.52-1.546-8.553-4.438c-3.367-4.685-2.302-11.216,2.381-14.582  c4.685-3.366,11.208-2.303,14.574,2.38l0.133,0.186c3.318,4.719,2.182,11.234-2.536,14.552  C93.271,399.469,91.175,400.086,89.1,400.086z"/>
<path d="M74.42,371.508c-4.363,0-8.43-2.754-9.899-7.117c-3.931-11.685-5.924-23.84-5.924-36.13  c0-38.667,19.691-74.805,54.031-99.197c1.748-1.322,3.927-2.107,6.29-2.107h0.008c4.55,0,8.576,2.945,9.954,7.282  c1.378,4.337-0.21,9.066-3.925,11.692c-28.897,20.426-45.469,50.434-45.469,82.329c0,10.021,1.626,19.935,4.834,29.468  c1.839,5.467-1.102,11.391-6.569,13.23C76.648,371.331,75.524,371.508,74.42,371.508z"/>
<path d="M492.641,250.299c-24.498-42.43-69.05-69.612-122.282-74.618c-0.062-0.007-0.124-0.016-0.187-0.022  c-35.255-3.891-63.526-15.826-83.967-27.783c-21.031-27.617-31.966-54.695-37.503-73.103v-64.28c0-5.769-4.676-10.445-10.445-10.445  h-66.558c-5.769,0-10.445,4.676-10.445,10.445v64.268c-8.476,28.185-30.675,79.956-85.616,120.31  c-0.055,0.041-0.11,0.081-0.164,0.123C27.505,229.244,0,279.639,0,333.512c0,47.948,21.521,92.936,60.597,126.675  c38.64,33.361,89.915,51.734,144.383,51.734c18.958,0,37.728-2.259,55.805-6.698c4.792,1.347,9.689,2.513,14.696,3.469  c11.431,2.182,23.053,3.261,34.735,3.26c34.856-0.001,70.208-9.601,102.279-28.117c42.821-24.722,74.795-62.449,90.035-106.229  C517.958,333.28,514.446,288.067,492.641,250.299z M221.428,65.851l-0.01-44.913h6.395v44.913H221.428z M182.145,20.938h18.383  l0.01,44.913h-18.393V20.938z M137.88,480.197C69.457,457.2,20.89,400.119,20.89,333.512c0-47.125,24.412-91.408,66.974-121.495  c0.161-0.114,0.319-0.232,0.472-0.354c55.877-41.176,80.581-93.29,91.045-124.923h51.194c2.38,7.206,5.47,15.362,9.423,24.125  c-2.365-2.628-3.583-4.197-3.615-4.239c-3.184-4.183-8.982-5.35-13.534-2.72l-44.561,25.727c-4.553,2.629-6.442,8.232-4.412,13.081  c0.287,0.686,28.354,69.602-7.111,150.381c-0.025,0.057-0.05,0.115-0.074,0.173c-22.281,48.603-21.016,100.777,3.481,143.207  c3.783,6.553,8.047,12.731,12.732,18.53C161.813,458.809,145.353,467.988,137.88,480.197z M204.98,491.031  c-15.452,0-30.462-1.646-44.812-4.729c7.574-6.076,22.168-11.631,41.264-12.272c7.087,6.045,14.781,11.438,23.019,16.126  C218.003,490.738,211.506,491.031,204.98,491.031z M402.049,465.743c-11.301,6.525-23.042,11.81-35.016,15.84  c3.893-8.191,13.37-18.815,28.411-27.499c14.995-8.657,28.909-11.559,37.954-10.855C423.888,451.628,413.4,459.19,402.049,465.743z   M482.8,370.738c-7.068,20.306-18.224,39.171-32.71,55.733c-15.504-7.877-40.583-4.628-65.092,9.523  c-24.562,14.181-39.916,34.302-40.8,51.684c-21.644,4.298-43.624,4.539-64.803,0.496c-40.044-7.645-72.41-29.715-91.132-62.143  c-21.119-36.579-22.007-81.91-2.438-124.371c0.08-0.174,0.156-0.35,0.226-0.527c31.602-72.295,17.292-135.212,10.194-157.745  l29.537-17.053c15.965,17.414,63.302,61.265,141.712,70.045c0.187,0.027,0.376,0.05,0.566,0.068  c46.556,4.282,85.369,27.718,106.489,64.297C493.272,293.173,496.202,332.236,482.8,370.738z"/>
<g>
</g>
<g>
</g>
<g>
</g>
<g>
</g>
<g>
</g>
<g>
</g>
<g>
</g>
<g>
</g>
<g>
</g>
<g>
</g>
<g>
</g>
<g>
</g>
<g>
</g>
<g>
</g>
<g>
</g>
</svg>
