<?xml version="1.0" encoding="iso-8859-1"?>
<!-- Generator: Adobe Illustrator 19.0.0, SVG Export Plug-In . SVG Version: 6.00 Build 0)  -->
<svg xmlns="http://www.w3.org/2000/svg" xmlns:xlink="http://www.w3.org/1999/xlink" version="1.1" id="Layer_1" x="0px" y="0px" viewBox="0 0 512.001 512.001" style="enable-background:new 0 0 512.001 512.001;" xml:space="preserve">
<g>
	<path style="fill:#3E9C06;" d="M413.925,174.786c0-1.528-25.204-31.834-56.296-31.834c-8.73,0-16.994,2.14-24.368,5.322   c3.182-7.374,5.322-15.639,5.322-24.368c0-31.091-30.307-56.296-31.834-56.296c-2.053,0-31.834,25.204-31.834,56.296   c0,26.241,19.334,48.287,28.188,54.528c0.003,0.004,0.006,0.008,0.009,0.013c6.253,8.859,28.291,28.174,54.519,28.174   C388.721,206.62,413.925,176.839,413.925,174.786z"/>
	<path style="fill:#3E9C06;" d="M369.057,83.095c-5.396-23.78-27.06-41.667-28.299-41.667c-1.462,0-18.067,13.783-25.703,33.227   l20.123,20.959L369.057,83.095z"/>
	<path style="fill:#3E9C06;" d="M406.879,166.48c19.444-7.635,33.227-24.242,33.227-25.703c0-1.179-16.187-20.841-38.235-27.4   l-13.973,34.664L406.879,166.48z"/>
	<path style="fill:#3E9C06;" d="M385.181,30.606c32.877-25.829,84.487-20.058,86.023-18.521c2.062,2.062,7.362,53.104-18.434,85.926   "/>
	<path style="fill:#3E9C06;" d="M383.162,148.042c18.313-23.301,14.551-59.537,13.087-61.002   c-1.091-1.091-37.73-5.188-61.071,13.149l6.878,39.741L383.162,148.042z"/>
	<path style="fill:#3E9C06;" d="M430.872,130.53c17.63-6.487,30.235-21.657,30.235-22.966c0-1.242-20.491-25.881-45.769-25.881   c-7.097,0-13.816,1.74-19.811,4.327c2.587-5.995,4.327-12.715,4.327-19.811c0-25.277-24.64-45.769-25.881-45.769   c-1.309,0-16.479,12.604-22.966,30.235"/>
	<path style="fill:#3E9C06;" d="M385.181,30.606c0,0,25.523,16.459,11.508,52.489c10.541-4.723,38.403-7.243,56.081,14.917"/>
</g>
<rect x="9.905" y="269.148" transform="matrix(-0.7071 0.7071 -0.7071 -0.7071 522.5742 382.4457)" style="fill:#34602B;" width="344.35" height="60.607"/>
<g>
	<path style="fill:#3E9C06;" d="M357.707,341.553c0-1.237-20.404-25.772-45.573-25.772c-7.067,0-13.758,1.733-19.728,4.308   c2.576-5.97,4.308-12.661,4.308-19.728c0-25.17-24.534-45.573-25.772-45.573c-1.663,0-25.772,20.404-25.772,45.573   c0,21.243,15.651,39.091,22.819,44.143c0.002,0.003,0.005,0.007,0.007,0.01c5.062,7.171,22.903,22.808,44.136,22.808   C337.303,367.324,357.707,343.215,357.707,341.553z"/>
	<path style="fill:#3E9C06;" d="M321.384,267.326c-4.369-19.25-21.906-33.731-22.91-33.731c-1.183,0-14.626,11.158-20.808,26.899   c0,0,14.827,11.544,16.291,17.291C306.392,269.077,321.384,267.326,321.384,267.326z"/>
	<path style="fill:#3E9C06;" d="M352.002,334.829c15.741-6.181,26.899-19.624,26.899-20.808c0-0.954-13.104-16.872-30.953-22.181   c0,0-0.455,20.545-12.646,28.062C344.881,323.588,352.002,334.829,352.002,334.829z"/>
	<path style="fill:#3E9C06;" d="M334.437,224.834c26.616-20.909,68.396-16.238,69.64-14.994c1.67,1.67,5.959,42.99-14.923,69.561"/>
	<path style="fill:#3E9C06;" d="M332.802,319.902c14.825-18.863,11.78-48.198,10.594-49.383c-0.883-0.883-30.544-4.2-49.44,10.644   c0,0,6.756,21.321-1.551,38.927C310.05,311.745,332.802,319.902,332.802,319.902z"/>
	<path style="fill:#3E9C06;" d="M371.426,305.725c14.273-5.252,24.477-17.532,24.477-18.592c0-1.005-16.589-20.952-37.052-20.952   c-5.745,0-11.185,1.409-16.038,3.503c2.094-4.853,3.503-10.293,3.503-16.038c0-20.463-19.947-37.052-20.952-37.052   c-1.06,0-13.341,10.204-18.592,24.477"/>
	<path style="fill:#3E9C06;" d="M334.437,224.834c0,0,20.761,21.424,8.375,44.85c24.188-7.922,46.341,9.717,46.341,9.717"/>
</g>
<rect x="99.234" y="389.528" transform="matrix(-0.7071 0.7071 -0.7071 -0.7071 631.5258 566.5319)" style="fill:#34602B;" width="198.393" height="49.063"/>
<path d="M483.247,21.05c-0.798-11.618-2.58-14.28-4.653-16.353c-2.124-2.124-4.53-3.686-16.194-4.425  c-5.145-0.328-13.385-0.522-23.419,0.408c-14.7,1.362-34.925,5.366-52.612,16.37c-0.241-0.231-0.484-0.463-0.704-0.669  c-5.2-4.846-8.041-6.402-11.693-6.402c-2.327,0-6.657,0-17.346,12.008c-2.619,2.943-5.758,6.873-8.723,11.591  c-3.877-2.591-6.022-2.598-7.144-2.598c-2.207,0-6.801,0-18.303,12.781c-3.228,3.586-7.201,8.534-10.861,14.548  c-1.666-0.826-3.173-1.147-4.843-1.147c-3.338,0-6.388,1.147-12.934,7.202c-2.927,2.706-7.4,7.234-12.088,13.435  c-7.875,10.416-17.262,26.87-17.262,46.108c0,10.427,2.554,20.312,6.409,29.123L31.521,392.38c-4.082,4.081-4.082,10.697,0,14.779  l42.856,42.856c2.041,2.041,4.715,3.061,7.389,3.061s5.349-1.02,7.389-3.061l145.728-145.728c0.494,6.793,2.217,13.265,4.675,19.181  l-26.614,26.614c-0.002,0.002-0.003,0.003-0.005,0.005c-0.002,0.002-0.003,0.003-0.005,0.005L103.557,459.468  c-4.081,4.081-4.081,10.697,0,14.779l34.693,34.693c1.959,1.959,4.618,3.061,7.389,3.061c2.771,0,5.43-1.101,7.389-3.061  l136.002-136.002c7.048,2.928,14.874,4.837,23.103,4.837c16.126,0,29.852-7.818,38.527-14.376  c5.136-3.883,8.891-7.594,11.137-10.022c4.755-5.141,6.359-8.124,6.359-11.822c0-1.08-0.141-2.091-0.458-3.111  c4.352-2.784,7.96-5.706,10.647-8.123c11.005-9.905,11.005-14.063,11.005-16.297c0-1.11-0.004-2.679-1.361-5.186  c3.189-2.135,5.882-4.313,7.973-6.174c10.388-9.247,10.388-13.334,10.388-15.529c0-3.249-1.316-5.719-3.869-8.741  c8.639-14.365,11.869-30.401,12.992-42.113c0.801-8.355,0.626-15.117,0.336-19.319c-0.63-9.175-2.013-12.178-4.345-14.51  c-1.54-1.54-3.265-2.594-6.877-3.304c5.756-4.443,10.005-8.639,12.584-11.427c6.053-6.547,7.202-9.597,7.202-12.934  c0-1.67-0.323-3.179-1.147-4.843c6.014-3.66,10.962-7.633,14.548-10.861c12.781-11.503,12.781-16.095,12.781-18.303  c0-1.195-0.001-3.296-2.598-7.144c4.718-2.966,8.648-6.105,11.591-8.724c12.008-10.689,12.008-15.02,12.008-17.346  c0-3.369-1.33-6.052-5.341-10.53c11.146-17.733,15.219-37.905,16.621-52.522C483.809,34.357,483.597,26.148,483.247,21.05z   M373.861,34.098c6.199,6.496,15.544,18.798,15.544,32.099c0,3.042-0.431,6.162-1.268,9.326c-2.729-0.115-6.231-0.146-10.305,0.064  c-3.452-10.896-9.429-20.111-14.635-26.689C366.351,42.78,370.534,37.588,373.861,34.098z M387.036,96.407  c0.326,8.977-0.625,26.089-8.46,39.765c-6.447-2.225-13.49-3.671-20.946-3.671c-3.07,0-6.159,0.22-9.257,0.66  c0.44-3.098,0.66-6.187,0.66-9.257c0-6.554-1.126-12.783-2.906-18.576C359.862,97.1,377.66,96.087,387.036,96.407z M340.652,54.937  c4.91,4.939,12.083,13.506,16.121,23.776c-6.348,1.618-13.024,4.014-19.396,7.545c-1.93-3.143-3.922-5.996-5.828-8.495  c-1.402-1.839-2.782-3.517-4.114-5.067C331.498,64.958,336.812,58.776,340.652,54.937z M306.644,80.987  c0.18,0.177,0.366,0.363,0.551,0.548c0.259,0.297,0.538,0.576,0.832,0.843c7.941,8.169,20.108,23.964,20.108,41.527  c0,6.553-1.503,13.36-4.467,20.228c-1.697,3.932-0.822,8.501,2.205,11.529c3.028,3.028,7.597,3.903,11.529,2.205  c6.87-2.963,13.675-4.467,20.228-4.467c17.782,0,33.748,12.469,41.826,20.4c0.17,0.172,0.333,0.349,0.514,0.508  c0.196,0.196,0.393,0.392,0.579,0.582c-7.503,7.675-24.066,21.28-42.919,21.28c-22.293,0-41.505-17.409-45.981-23.751  c-0.019-0.026-0.037-0.051-0.055-0.077c-0.043-0.061-0.088-0.121-0.131-0.179c-0.656-0.875-1.445-1.642-2.34-2.271  c-6.343-4.471-23.758-23.677-23.758-45.987C285.365,105.052,298.969,88.489,306.644,80.987z M305.182,286.274  c9.672-5.285,21.526-6.31,28.824-6.236c0.065,6.96-0.906,18.301-5.878,27.85c-4.968-1.561-10.334-2.556-15.996-2.556  c-1.735,0-3.475,0.084-5.221,0.251c0.167-1.745,0.251-3.485,0.251-5.221C307.164,295.419,306.411,290.698,305.182,286.274z   M296.44,267.26c-1.283-1.986-2.583-3.813-3.837-5.458c-0.844-1.108-1.678-2.141-2.497-3.122c2.559-4.543,5.67-8.465,8.293-11.3  c0.13,0.139,0.264,0.289,0.397,0.434c0.153,0.181,0.315,0.353,0.479,0.524c3.172,3.537,6.873,8.447,9.453,14.121  C304.674,263.62,300.503,265.174,296.44,267.26z M329.894,259.194c-2.743-7.911-6.998-14.678-10.888-19.755  c1.939-3.509,4.245-6.539,6.294-8.854c4.676,5.266,10.567,13.888,10.567,23.06c0,1.8-0.205,3.642-0.598,5.51  C333.693,259.121,331.884,259.124,329.894,259.194z M81.766,427.848L53.688,399.77l190.538-190.538l19.731,19.731  c2.041,2.041,4.715,3.061,7.389,3.061c2.674,0,5.349-1.02,7.389-3.061c4.081-4.081,4.081-10.697,0-14.779l-19.731-19.731  l22.83-22.83c4.648,6.127,9.554,11.025,13.796,14.282c3.257,4.24,8.157,9.145,14.282,13.792L81.766,427.848z M145.639,486.773  l-19.916-19.916l94.605-94.605l8.718,8.718c2.041,2.041,4.715,3.061,7.389,3.061c2.674,0,5.349-1.02,7.389-3.061  c4.081-4.081,4.081-10.697,0-14.779l-8.718-8.718l15.498-15.498c3.377,4.194,6.849,7.601,9.921,9.996  c2.394,3.07,5.802,6.54,9.996,9.918L145.639,486.773z M312.133,356.875c-17.261,0-32.133-13.476-35.64-18.443  c-0.682-0.956-1.522-1.79-2.483-2.467c-4.91-3.461-18.389-18.327-18.389-35.601c0-13.323,9.179-25.495,15.237-31.869  c6.166,6.48,15.406,18.684,15.406,31.869c0,5.032-1.162,10.276-3.454,15.588c-1.697,3.932-0.822,8.501,2.205,11.529  c3.027,3.028,7.598,3.904,11.529,2.206c5.311-2.292,10.556-3.454,15.588-3.454c13.185,0,25.389,9.239,31.869,15.406  C337.628,347.696,325.455,356.875,312.133,356.875z M353.817,322.391c-0.981-0.818-2.015-1.653-3.122-2.497  c-1.181-0.901-2.462-1.824-3.821-2.748c2.125-4.167,3.696-8.433,4.858-12.556c4.969,2.517,9.259,5.799,12.436,8.649  c0.123,0.119,0.251,0.232,0.378,0.345c0.191,0.174,0.385,0.349,0.567,0.519C362.277,316.725,358.358,319.833,353.817,322.391z   M373.057,293.491c-4.76-3.648-10.954-7.591-18.159-10.321c0.064-2.415,0.022-4.503-0.059-6.216c1.355-0.21,2.694-0.324,4.011-0.324  c9.172,0,17.793,5.89,23.06,10.567C379.595,289.246,376.566,291.552,373.057,293.491z M386.368,264.477  c-7.139-4.533-16.68-8.746-27.517-8.746c-0.712,0-1.423,0.017-2.136,0.049c0.032-0.713,0.049-1.424,0.049-2.135  c0-10.006-3.593-18.906-7.711-25.833c16.259-8.522,36.061-9.227,45.94-8.715C395.529,228.7,394.862,248.187,386.368,264.477z   M408.839,154.1c-1.549-1.332-3.228-2.712-5.067-4.114c-1.948-1.485-4.106-3.023-6.449-4.542c3.589-6.54,6.002-13.364,7.603-19.8  c9.345,4.148,17.079,10.683,21.667,15.244C422.755,144.727,416.574,150.038,408.839,154.1z M432.637,118.338  c-6.218-4.922-14.712-10.464-24.706-13.969c0.199-4.668,0.072-8.508-0.111-11.174c-0.005-0.08-0.011-0.153-0.018-0.232  c2.551-0.552,5.068-0.834,7.535-0.834c13.301,0,25.602,9.345,32.099,15.544C443.948,111.001,438.755,115.184,432.637,118.338z   M450.193,83.083c-8.702-5.915-20.905-11.851-34.855-11.851c-1.759,0-3.524,0.086-5.293,0.257c0.171-1.769,0.257-3.534,0.257-5.292  c0-12.893-5.071-24.291-10.509-32.816c22.2-12.625,50.537-13.039,62.582-12.161C463.438,33.453,462.535,61.235,450.193,83.083z"/>
<g>
</g>
<g>
</g>
<g>
</g>
<g>
</g>
<g>
</g>
<g>
</g>
<g>
</g>
<g>
</g>
<g>
</g>
<g>
</g>
<g>
</g>
<g>
</g>
<g>
</g>
<g>
</g>
<g>
</g>
</svg>
