<?xml version="1.0" encoding="iso-8859-1"?>
<!-- Generator: Adobe Illustrator 19.0.0, SVG Export Plug-In . SVG Version: 6.00 Build 0)  -->
<svg xmlns="http://www.w3.org/2000/svg" xmlns:xlink="http://www.w3.org/1999/xlink" version="1.1" id="Layer_1" x="0px" y="0px" viewBox="0 0 512 512" style="enable-background:new 0 0 512 512;" xml:space="preserve">
<path style="fill:#FFFFFF;" d="M419.287,174.585l40.438-40.438c9.565,9.565,25.075,9.565,34.64,0c9.571-9.571,9.571-25.075,0-34.647  c-5.205-5.205-12.161-7.471-18.968-7.016c0.455-6.808-1.813-13.764-7.016-18.968c-9.571-9.571-25.077-9.571-34.647,0  c-9.565,9.565-9.565,25.077,0,34.64l-40.431,40.437L419.287,174.585z"/>
<path style="fill:#B74A00;" d="M393.281,148.576c-39.352-24.866-124.25,11.472-164.483,51.698  c-45.509,45.516-40.195,102.335-1.862,140.669c38.334,38.333,95.153,43.654,140.669-1.862  c40.226-40.233,76.565-125.131,51.698-164.476L393.281,148.576z"/>
<g>
	<path style="fill:#9E612A;" d="M350.128,312.151c0.018-0.018,0.036-0.036,0.053-0.053"/>
	<path style="fill:#9E612A;" d="M475.396,92.485c0,0-9.993,0.905-14.105,8.857"/>
</g>
<path style="fill:#B74A00;" d="M214.204,408.041H27.489c-1.863-11.144-2.836-22.561-2.836-34.19  c0-122.192,106.757-221.249,238.449-221.249c12.023,0,23.837,0.825,35.382,2.419l122.574,95.812  c39.09,31.768,63.774,78.423,63.774,130.426c0,9.109-0.762,18.053-2.221,26.783H214.204V408.041z"/>
<polygon style="fill:#0092E0;" points="475.429,445.657 36.571,445.657 10.449,408.041 501.551,408.041 "/>
<path d="M357.491,304.572c-4.14-4.022-10.726-3.956-14.746,0.184l-0.007,0.006c-4.08,4.08-4.08,10.697,0,14.778  c2.041,2.041,4.715,3.06,7.388,3.06s5.349-1.02,7.388-3.06c0.036-0.036,0.124-0.125,0.159-0.162  C361.696,315.238,361.63,308.593,357.491,304.572z"/>
<path d="M295.666,347.801c-19.296,0-37.861-7.768-52.84-22.746c-4.08-4.08-4.08-10.697,0-14.778c4.08-4.08,10.697-4.08,14.778,0  c16.807,16.808,38.81,21.121,60.363,11.832c5.299-2.286,11.447,0.16,13.731,5.46s-0.16,11.447-5.46,13.731  C316.122,345.661,305.793,347.801,295.666,347.801z"/>
<path d="M371.511,295.319c-1.918,0-3.86-0.528-5.599-1.634c-4.869-3.097-6.306-9.556-3.208-14.425  c3.351-5.267,6.471-10.759,9.273-16.322c2.597-5.153,8.881-7.227,14.033-4.629c5.153,2.597,7.227,8.88,4.629,14.033  c-3.114,6.182-6.581,12.283-10.304,18.134C378.346,293.607,374.966,295.319,371.511,295.319z"/>
<path d="M510.81,403.199c-1.802-3.446-5.37-5.606-9.259-5.606h-7.052c0.514-5.431,0.783-10.891,0.783-16.333  c0-51.281-22.988-100.12-63.264-134.867c7.764-27.863,7.789-52.023,0.073-69.835l28.75-28.751c4.939,2.59,10.466,3.963,16.202,3.963  c9.334,0,18.109-3.635,24.709-10.234c13.627-13.627,13.627-35.797,0-49.424c-4.623-4.623-10.441-7.789-16.748-9.237  c-1.448-6.307-4.615-12.125-9.237-16.748c-6.603-6.602-15.379-10.238-24.712-10.238c-9.333,0-18.11,3.636-24.712,10.238  c-11.052,11.053-13.14,27.726-6.26,40.903l-28.756,28.76c-20.652-8.944-49.84-7.488-83.436,4.374  c-3.625,1.28-7.244,2.666-10.846,4.138c-11.187-1.419-22.59-2.146-33.944-2.146c-66.336,0-128.74,24.004-175.716,67.591  c-47.193,43.789-73.183,102.069-73.183,164.106c0,7.913,0.445,15.857,1.307,23.741h-5.062c-3.889,0-7.456,2.16-9.259,5.606  s-1.542,7.609,0.676,10.803l26.122,37.616c1.953,2.812,5.16,4.489,8.583,4.489h438.857c3.423,0,6.63-1.677,8.583-4.489  l26.122-37.616C512.352,410.807,512.612,406.645,510.81,403.199z M441.122,115.546c4.08-4.081,4.079-10.697,0-14.777  c-2.653-2.652-4.114-6.18-4.114-9.932c0-3.752,1.461-7.28,4.114-9.932c5.477-5.478,14.391-5.478,19.87,0  c1.248,1.247,2.201,2.698,2.876,4.277c-4.269,2.096-8.867,5.577-11.856,11.359c-2.651,5.125-0.645,11.43,4.482,14.081  c1.535,0.793,3.174,1.17,4.791,1.169c3.783,0,7.433-2.061,9.29-5.652c1.097-2.12,4.421-3.033,5.731-3.234  c4.088-0.216,7.875,1.186,10.673,3.983c5.478,5.477,5.478,14.391,0,19.87c-2.653,2.653-6.18,4.114-9.931,4.114  c-3.752,0-7.279-1.461-9.932-4.114c-1.959-1.959-4.617-3.061-7.388-3.061s-5.429,1.101-7.388,3.061l-33.049,33.049l-11.21-11.213  L441.122,115.546z M360.42,150.839c10.255,0,19.303,1.866,26.352,6.005l24.264,24.27c19.596,33.368-11.751,111.507-50.818,150.579  c-44.126,44.125-95.024,32.73-125.892,1.862c-30.866-30.866-42.261-81.763,1.861-125.89c16.83-16.827,40.91-32.211,65.537-42.72  c0.581-0.19,1.14-0.427,1.674-0.714C323.326,155.916,343.513,150.839,360.42,150.839z M259.981,163.088  c-14.662,8.983-27.945,19.173-38.571,29.798c-23.686,23.69-35.938,51.56-35.43,80.599c0.474,27.092,12.396,53.673,33.569,74.847  c21.175,21.175,47.756,33.097,74.846,33.572c0.58,0.01,1.158,0.016,1.737,0.016c28.413,0,55.646-12.233,78.864-35.449  c19.727-19.73,37.954-48.607,49.732-78.491c31.715,30.271,49.657,70.868,49.657,113.279c0,5.445-0.3,10.91-0.885,16.333H214.204  H36.539c-0.955-7.871-1.437-15.824-1.437-23.741C35.102,258.581,135.697,164.64,259.981,163.088z M469.964,435.208H42.036  l-11.61-16.718h183.778h267.37L469.964,435.208z"/>
<path d="M86.344,313.816c-1.529,0-3.08-0.336-4.549-1.048c-5.193-2.516-7.363-8.767-4.846-13.96  c15.445-31.873,39.869-59.413,70.634-79.644c4.823-3.171,11.301-1.832,14.472,2.989c3.17,4.822,1.832,11.301-2.989,14.472  c-27.617,18.16-49.508,42.815-63.31,71.297C93.95,311.646,90.224,313.816,86.344,313.816z"/>
<path d="M75.448,342.428c-0.874,0-1.761-0.11-2.645-0.341c-5.584-1.457-8.93-7.164-7.473-12.749  c0.013-0.049,0.028-0.108,0.044-0.161c1.509-5.509,7.171-8.795,12.714-7.348c5.584,1.457,8.93,7.164,7.473,12.749  c-0.013,0.045-0.026,0.099-0.041,0.15C84.256,339.364,80.05,342.428,75.448,342.428z"/>
<g>
</g>
<g>
</g>
<g>
</g>
<g>
</g>
<g>
</g>
<g>
</g>
<g>
</g>
<g>
</g>
<g>
</g>
<g>
</g>
<g>
</g>
<g>
</g>
<g>
</g>
<g>
</g>
<g>
</g>
</svg>
