<?xml version="1.0" encoding="iso-8859-1"?>
<!-- Generator: Adobe Illustrator 19.0.0, SVG Export Plug-In . SVG Version: 6.00 Build 0)  -->
<svg xmlns="http://www.w3.org/2000/svg" xmlns:xlink="http://www.w3.org/1999/xlink" version="1.1" id="Layer_1" x="0px" y="0px" viewBox="0 0 511.999 511.999" style="enable-background:new 0 0 511.999 511.999;" xml:space="preserve">
<path style="fill:#FFD29F;" d="M464.194,50.69c-42.11-42.111-108.715-46.044-163.676,8.917  c-5.487,5.487-10.424,11.313-14.816,17.412c-28.571,39.686-73.085,64.537-121.593,70.725c-37.348,4.764-73.461,21.486-102.144,50.17  c-68.802,68.802-68.802,180.353,0,249.156s185.742,69.08,311.17-56.347C468.013,295.843,552.802,139.298,464.194,50.69z"/>
<path style="fill:#EF0000;" d="M210.935,452.342c43.384-11.456,90.944-39.759,137.717-86.532  c48.055-48.055,86.086-105.187,104.345-156.748c20.169-56.957,14.953-101.28-15.507-131.739  c-14.371-14.369-32.567-22.227-51.387-22.227c-0.488,0-0.976,0.005-1.465,0.016c-21.843,0.473-43.827,11.162-63.578,30.913  c-4.109,4.109-7.896,8.559-11.258,13.229c-32.075,44.553-82.951,74.248-139.583,81.47c-31.24,3.985-59.559,17.899-81.896,40.236  c-55.091,55.091-55.091,144.732,0,199.825c15.216,15.216,32.959,24.303,51.425,31.147  C159.805,459.365,186.976,458.667,210.935,452.342z"/>
<circle style="fill:#FFD29F;" cx="371.379" cy="150.873" r="33.262"/>
<path d="M173.073,503.726c-18.925,0-37.169-2.977-54.487-8.91c-23.874-8.179-45.412-21.757-64.01-40.357  c-72.767-72.767-72.767-191.167,0-263.935c29.502-29.502,66.921-47.88,108.212-53.146c46.595-5.944,88.305-30.17,114.433-66.464  c4.756-6.605,10.108-12.895,15.907-18.695c28.01-28.011,60.453-43.197,93.821-43.919c31.317-0.685,61.385,11.753,84.635,35.002  c42.981,42.981,51.882,104.72,25.74,178.543C476.6,280.36,434.029,344.607,380.524,398.112  c-60.25,60.25-123.479,96.206-182.853,103.983C189.363,503.182,181.155,503.726,173.073,503.726z M389.368,29.173  c-0.655,0-1.309,0.007-1.967,0.022c-27.878,0.603-55.366,13.676-79.493,37.803c-5.007,5.007-9.624,10.433-13.724,16.128  c-29.502,40.98-76.43,68.311-128.751,74.985c-36.656,4.676-69.879,20.995-96.078,47.193c-64.619,64.619-64.619,169.758,0,234.376  c33.631,33.632,77.063,48.047,125.604,41.69c54.766-7.172,113.823-41.074,170.788-98.038  c51.38-51.38,92.157-112.783,111.875-168.466c16.221-45.808,25.777-110.192-20.816-156.787  C438.117,39.392,414.237,29.173,389.368,29.173z"/>
<path d="M346.904,138.111c-2.678,0-5.356-1.021-7.395-3.066c-4.072-4.083-4.077-10.684,0-14.761l0.223-0.219  c4.124-4.037,10.741-3.965,14.778,0.161c4.037,4.125,3.965,10.742-0.161,14.778l-0.063,0.062  C352.248,137.095,349.574,138.111,346.904,138.111z"/>
<path d="M371.148,194.58c-21.516,0-39.718-15.382-43.282-36.575c-0.957-5.691,2.881-11.082,8.573-12.039  c5.689-0.952,11.082,2.881,12.039,8.574c1.865,11.09,11.399,19.139,22.67,19.139c12.675,0,22.989-10.314,22.989-22.991  c0-11.321-8.425-21.099-19.598-22.744c-5.71-0.841-9.657-6.151-8.816-11.861c0.84-5.71,6.154-9.663,11.861-8.816  c21.354,3.145,37.455,21.812,37.454,43.422C415.039,174.889,395.35,194.58,371.148,194.58z"/>
<path d="M174.761,467.325c-0.022,0-0.043,0-0.064,0h-0.196c-5.772,0-10.451-4.679-10.451-10.451s4.679-10.451,10.451-10.451h0.321  c5.772,0.034,10.423,4.741,10.389,10.512C185.175,462.687,180.503,467.325,174.761,467.325z M210.926,462.794  c-4.708,0-8.983-3.204-10.145-7.982c-0.203-0.833-0.3-1.666-0.299-2.486c0.003-4.706,3.206-8.977,7.982-10.139  c42.393-10.317,88.314-39.283,132.799-83.768c46.991-46.992,84.127-102.701,101.884-152.846  c7.582-21.412,11.37-40.825,11.373-58.164c0.004-25.445-8.144-46.423-24.419-62.698c-12.674-12.674-28.759-19.538-45.221-19.154  c-19.111,0.414-38.619,10.046-56.429,27.855c-3.714,3.714-7.135,7.732-10.166,11.945c-33.761,46.897-87.247,78.145-146.743,85.733  c-28.921,3.689-55.143,16.572-75.83,37.258C70.205,253.855,57.45,287.363,57.45,320.87s12.755,67.014,38.262,92.524  c13.769,13.768,29.582,23.361,47,28.514c4.546,1.345,7.489,5.507,7.489,10.017c0,0.981-0.139,1.98-0.432,2.969  c-1.638,5.535-7.45,8.693-12.986,7.056c-20.798-6.153-39.589-17.518-55.85-33.778c-29.583-29.584-44.374-68.444-44.374-107.304  c0-38.859,14.792-77.718,44.374-107.302c23.99-23.989,54.409-38.931,87.964-43.212c53.769-6.858,102.036-35,132.424-77.21  c3.687-5.122,7.842-10.005,12.35-14.513c21.692-21.692,46.155-33.44,70.742-33.971c0.555-0.013,1.122-0.019,1.691-0.019  c21.594,0,42.468,8.981,58.777,25.288c20.43,20.43,30.662,46.21,30.657,77.039c-0.002,19.803-4.228,41.689-12.689,65.579  c-18.761,52.978-57.69,111.532-106.807,160.649c-47.196,47.196-96.518,78.074-142.635,89.297  C212.575,462.698,211.745,462.794,210.926,462.794z"/>
<g>
</g>
<g>
</g>
<g>
</g>
<g>
</g>
<g>
</g>
<g>
</g>
<g>
</g>
<g>
</g>
<g>
</g>
<g>
</g>
<g>
</g>
<g>
</g>
<g>
</g>
<g>
</g>
<g>
</g>
</svg>
