<?xml version="1.0" encoding="iso-8859-1"?>
<!-- Generator: Adobe Illustrator 19.0.0, SVG Export Plug-In . SVG Version: 6.00 Build 0)  -->
<svg xmlns="http://www.w3.org/2000/svg" xmlns:xlink="http://www.w3.org/1999/xlink" version="1.1" id="Layer_1" x="0px" y="0px" viewBox="0 0 512.001 512.001" style="enable-background:new 0 0 512.001 512.001;" xml:space="preserve">
<path style="fill:#34602B;" d="M289.322,453.394l163.924-162.741c64.119-63.657,64.494-167.239,0.838-231.358  S286.844-5.2,222.725,58.457L58.801,221.198L289.322,453.394z"/>
<circle style="fill:#FFFFFF;" cx="173.999" cy="337.381" r="163.58"/>
<path d="M372.508,149.28c-2.667,0-5.333-1.017-7.367-3.052c-4.069-4.069-4.069-10.666,0-14.736l0.097-0.097  c4.07-4.069,10.665-4.069,14.736,0c4.069,4.069,4.069,10.666,0,14.736l-0.097,0.097C377.842,148.262,375.175,149.28,372.508,149.28z  "/>
<path d="M306.56,115.682c-2.667,0-5.333-1.018-7.367-3.052c-4.069-4.069-4.069-10.666,0-14.736l20.317-20.317  c4.07-4.068,10.665-4.068,14.736,0c4.069,4.069,4.069,10.666,0,14.736l-20.317,20.317  C311.894,114.664,309.228,115.682,306.56,115.682z"/>
<path d="M363.066,260.546c-2.667,0-5.333-1.017-7.367-3.052c-4.069-4.069-4.069-10.666,0-14.736l64.181-64.181  c4.07-4.069,10.665-4.069,14.736,0c4.069,4.069,4.069,10.666,0,14.736l-64.181,64.181  C368.399,259.529,365.732,260.546,363.066,260.546z"/>
<path d="M461.477,51.953C393.875-16.14,283.479-16.54,215.385,51.062L51.461,213.803c-0.375,0.373-0.704,0.773-1.012,1.184  C19.282,246.448,0,289.702,0,337.381C0,433.325,78.056,511.38,173.999,511.38c47.298,0,90.239-18.978,121.635-49.708  c0.355-0.272,0.703-0.56,1.029-0.884l163.924-162.741c32.985-32.748,51.245-76.381,51.413-122.862  C512.167,128.703,494.225,84.939,461.477,51.953z M173.999,490.542c-84.453,0-153.161-68.708-153.161-153.161  S89.546,184.22,173.999,184.22S327.16,252.928,327.16,337.381S258.452,490.542,173.999,490.542z M445.904,283.258L340.513,387.889  c4.861-15.992,7.485-32.948,7.485-50.508c0-44.233-16.6-84.655-43.885-115.388l51.93-51.93c4.069-4.069,4.069-10.666,0-14.736  c-4.07-4.069-10.665-4.069-14.736,0l-51.931,51.931c-12.607-11.191-26.845-20.582-42.308-27.767l42.77-42.771  c4.069-4.069,4.069-10.666,0-14.735c-4.07-4.069-10.665-4.069-14.736,0l-49.277,49.278c-16.377-5.12-33.785-7.882-51.827-7.882  c-17.145,0-33.712,2.505-49.371,7.146L230.066,65.85c57.123-56.711,148.063-59.055,207.99-7.271l-39.315,39.316  c-4.069,4.069-4.069,10.666,0,14.735c2.035,2.035,4.701,3.052,7.367,3.052c2.666,0,5.333-1.018,7.367-3.052l39.389-39.389  c11.857,13.41,21.136,28.562,27.589,44.851c-0.286,0.231-0.565,0.477-0.83,0.744l-28.582,28.582c-4.069,4.069-4.069,10.666,0,14.735  c2.035,2.035,4.701,3.052,7.367,3.052c2.666,0,5.332-1.018,7.367-3.052l21.611-21.611c2.53,11.213,3.816,22.791,3.774,34.57  C491.013,216.024,474.94,254.432,445.904,283.258z"/>
<path d="M85.924,357.239c-17.629,0-36.467-4.927-36.467-18.754c0-13.827,18.838-18.754,36.467-18.754s36.467,4.927,36.467,18.754  C122.391,352.312,103.553,357.239,85.924,357.239z M103.651,343.559h0.01H103.651z"/>
<path d="M262.639,357.239c-17.629,0-36.467-4.927-36.467-18.754c0-13.827,18.838-18.754,36.467-18.754  c17.629,0,36.467,4.927,36.467,18.754C299.105,352.312,280.268,357.239,262.639,357.239z M280.367,343.559h0.01H280.367z"/>
<path d="M174.281,286.593c-13.827,0-18.754-18.838-18.754-36.467s4.927-36.467,18.754-36.467c13.827,0,18.754,18.838,18.754,36.467  S188.11,286.593,174.281,286.593z"/>
<path d="M174.281,463.309c-13.827,0-18.754-18.838-18.754-36.467c0-17.629,4.927-36.467,18.754-36.467  c13.827,0,18.754,18.838,18.754,36.467C193.036,444.471,188.11,463.309,174.281,463.309z"/>
<path d="M127.624,305.756c-3.163,0-7.044-0.878-11.736-3.297c-5.525-2.845-11.685-7.532-17.346-13.193  c-12.465-12.464-22.302-29.268-12.525-39.047c9.778-9.779,26.584,0.059,39.049,12.525c12.465,12.465,22.301,29.269,12.525,39.048  C135.804,303.578,132.603,305.756,127.624,305.756z M120.75,292.13h0.011H120.75z"/>
<path d="M252.767,430.722c-9.2,0.001-20.344-7.576-29.269-16.498c-12.465-12.465-22.301-29.269-12.525-39.047  c2.92-2.921,9.625-6.89,21.701-0.669c5.525,2.845,11.685,7.532,17.346,13.193l0,0l0,0c5.662,5.661,10.347,11.822,13.193,17.346  c6.222,12.079,2.253,18.78-0.668,21.702C259.767,429.527,256.419,430.722,252.767,430.722z M245.706,417.086h0.011H245.706z"/>
<path d="M220.939,305.756c-4.979,0-8.18-2.178-9.965-3.963c-9.777-9.777,0.059-26.581,12.525-39.048  c12.469-12.466,29.27-22.3,39.049-12.525c9.777,9.779-0.06,26.582-12.525,39.048l0,0l0,0c-5.662,5.661-11.822,10.346-17.346,13.193  C227.984,304.877,224.101,305.756,220.939,305.756z"/>
<path d="M95.796,430.722c-3.654,0-7-1.194-9.779-3.973c-2.922-2.922-6.89-9.624-0.669-21.703  c2.845-5.524,7.532-11.685,13.193-17.346c5.662-5.661,11.822-10.346,17.346-13.193c12.08-6.223,18.78-2.253,21.701,0.668  c9.777,9.778-0.059,26.582-12.525,39.048l0,0l0,0C116.144,423.146,104.996,430.722,95.796,430.722z"/>
<g>
</g>
<g>
</g>
<g>
</g>
<g>
</g>
<g>
</g>
<g>
</g>
<g>
</g>
<g>
</g>
<g>
</g>
<g>
</g>
<g>
</g>
<g>
</g>
<g>
</g>
<g>
</g>
<g>
</g>
</svg>
