<?xml version="1.0" encoding="iso-8859-1"?>
<!-- Generator: Adobe Illustrator 19.0.0, SVG Export Plug-In . SVG Version: 6.00 Build 0)  -->
<svg xmlns="http://www.w3.org/2000/svg" xmlns:xlink="http://www.w3.org/1999/xlink" version="1.1" id="Layer_1" x="0px" y="0px" viewBox="0 0 511.999 511.999" style="enable-background:new 0 0 511.999 511.999;" xml:space="preserve">
<g>
	<ellipse style="fill:#67B32E;" cx="310.841" cy="393.939" rx="68.953" ry="107.608"/>
	
		<ellipse transform="matrix(0.7071 -0.7071 0.7071 0.7071 -172.2485 165.5648)" style="fill:#67B32E;" cx="113.73" cy="290.705" rx="122.693" ry="79.086"/>
</g>
<path style="fill:#34602B;" d="M493.21,10.505c-2.378-0.566-54.463,65.175-76.173,156.394s-7.878,172.648-2.445,173.942  c5.434,1.293,54.463-65.175,76.173-156.394C512.475,93.227,494.98,10.926,493.21,10.505z"/>
<path d="M511.221,62.814c-1.046-17.813-2.912-31.32-4.292-39.516c-0.75-4.454-1.538-8.405-2.28-11.427  c-0.973-3.967-2.443-9.963-9.019-11.529c0,0-0.001,0-0.002,0c-1.45-0.345-2.774-0.426-4.042-0.257  C422.71,0.918,361.514,19.914,309.684,56.579c-46.057,32.581-82.717,77.534-109.105,133.742  c-17.206-12.634-40.697-16.45-67.263-10.711c-28.887,6.242-58.331,23.214-82.906,47.789S8.862,281.42,2.62,310.307  c-6.599,30.538-0.576,57.013,16.96,74.549c12.897,12.897,30.632,19.567,51.262,19.567c7.418,0,15.21-0.863,23.287-2.608  c28.887-6.242,58.331-23.214,82.906-47.789c24.575-24.575,41.547-54.019,47.789-82.906c5.431-25.133,2.305-47.509-8.744-64.421  c29.336-66.041,72.744-115.743,127.188-147.036c-5.984,7.068-11.68,14.773-17.072,23.124  c-18.758,29.057-33.208,65.688-40.687,103.144c-6.325,31.669-8.67,71.983,1.97,95.013c-12.94,5.781-24.659,16.403-34.187,31.274  c-14.088,21.985-21.847,51.01-21.847,81.727s7.758,59.741,21.847,81.727c15.012,23.427,35.451,36.329,57.554,36.329  c22.103,0,42.542-12.901,57.554-36.329c14.088-21.985,21.847-51.01,21.847-81.727s-7.758-59.741-21.847-81.727  c-15.012-23.427-35.451-36.329-57.554-36.329c-0.756,0-1.512,0.019-2.264,0.048c-6.895-8.879-11.85-39.499-2.582-85.915  C318.509,127.374,354.805,52.6,419.154,30.621c1.094-0.374,22.553-7.21,51.355-8.753c-4.614,6.618-10.538,15.682-17.184,27.191  c-14.732,25.515-34.75,66.251-46.452,115.422c-11.962,50.262-12.951,94.945-11.674,123.578c0.66,14.813,2.138,28.948,4.159,39.8  c2.541,13.638,5.335,21.366,12.815,23.146c0.913,0.217,1.802,0.324,2.678,0.324c6.297,0,11.806-5.53,19.191-15.216  c6.694-8.778,14.38-20.732,21.642-33.659c14.038-24.987,33.283-65.324,45.246-115.588  C512.583,137.901,512.959,92.379,511.221,62.814z M204.402,266.707c-5.404,25.01-20.37,50.774-42.141,72.545  c-21.77,21.771-47.535,36.737-72.543,42.141c-23.357,5.049-43.019,1.031-55.362-11.31c-12.341-12.341-16.359-32.002-11.311-55.362  c5.403-25.01,20.369-50.773,42.141-72.545c21.77-21.771,47.535-36.737,72.545-42.141c6.58-1.422,12.865-2.124,18.777-2.124  c15.077,0,27.72,4.571,36.585,13.434C205.432,223.686,209.449,243.347,204.402,266.707z M310.845,296.784  c14.734,0,28.925,9.485,39.96,26.707c11.959,18.663,18.545,43.684,18.545,70.454s-6.586,51.791-18.545,70.454  c-11.036,17.221-25.226,26.707-39.96,26.707c-14.734,0-28.925-9.485-39.96-26.707c-11.959-18.663-18.545-43.684-18.545-70.454  s6.586-51.791,18.545-70.454C281.92,306.269,296.112,296.784,310.845,296.784z M480.602,182.027  c-10.651,44.751-27.486,81.26-39.734,104.007c-8.525,15.833-16.026,27.338-21.528,34.86c-1.523-9.195-3.038-22.844-3.518-40.82  c-0.688-25.826,0.727-66.004,11.378-110.755c14.754-61.996,43.795-111.303,60.269-135.115  C491.494,63.333,495.176,120.789,480.602,182.027z"/>
<path d="M58.154,305.323c-1.633,0-3.29-0.383-4.836-1.194c-5.112-2.676-7.086-8.989-4.411-14.101  c20.03-38.265,55.587-66.4,97.553-77.192c5.592-1.44,11.283,1.93,12.72,7.517c1.437,5.588-1.929,11.283-7.517,12.72  c-36.247,9.32-66.953,33.611-84.246,66.645C65.552,303.284,61.917,305.323,58.154,305.323z"/>
<path d="M45.441,339.972c-0.77,0-1.55-0.086-2.333-0.263c-5.626-1.283-9.146-6.883-7.863-12.509l0.033-0.145  c1.283-5.625,6.879-9.148,12.509-7.863c5.626,1.283,9.146,6.883,7.863,12.509l-0.033,0.145  C54.512,336.688,50.206,339.972,45.441,339.972z"/>
<path d="M281.851,443.329c-4.447,0-8.57-2.863-9.968-7.331c-11.899-38.04-7.055-79.601,13.286-114.026  c2.936-4.967,9.343-6.614,14.31-3.68c4.968,2.936,6.615,9.342,3.68,14.31c-17.338,29.34-21.468,64.754-11.333,97.159  c1.723,5.507-1.346,11.368-6.852,13.09C283.936,443.174,282.885,443.329,281.851,443.329z"/>
<path d="M296.077,474.056c-3.477,0-6.876-1.735-8.86-4.898l-0.073-0.116c-3.066-4.888-1.589-11.336,3.299-14.402  s11.336-1.589,14.402,3.299l0.073,0.116c3.066,4.888,1.589,11.336-3.299,14.402C299.894,473.54,297.975,474.056,296.077,474.056z"/>
<g>
</g>
<g>
</g>
<g>
</g>
<g>
</g>
<g>
</g>
<g>
</g>
<g>
</g>
<g>
</g>
<g>
</g>
<g>
</g>
<g>
</g>
<g>
</g>
<g>
</g>
<g>
</g>
<g>
</g>
</svg>
